<?xml version="1.0" encoding="utf-8" standalone="no"?>
<!DOCTYPE svg PUBLIC "-//W3C//DTD SVG 1.1//EN"
  "http://www.w3.org/Graphics/SVG/1.1/DTD/svg11.dtd">
<svg xmlns:xlink="http://www.w3.org/1999/xlink" width="576pt" height="216pt" viewBox="0 0 576 216" xmlns="http://www.w3.org/2000/svg" version="1.1">
 <metadata>
  <rdf:RDF xmlns:dc="http://purl.org/dc/elements/1.1/" xmlns:cc="http://creativecommons.org/ns#" xmlns:rdf="http://www.w3.org/1999/02/22-rdf-syntax-ns#">
   <cc:Work>
    <dc:type rdf:resource="http://purl.org/dc/dcmitype/StillImage"/>
    <dc:date>2025-05-21T14:45:40.678867</dc:date>
    <dc:format>image/svg+xml</dc:format>
    <dc:creator>
     <cc:Agent>
      <dc:title>Matplotlib v3.8.4, https://matplotlib.org/</dc:title>
     </cc:Agent>
    </dc:creator>
   </cc:Work>
  </rdf:RDF>
 </metadata>
 <defs>
  <style type="text/css">*{stroke-linejoin: round; stroke-linecap: butt}</style>
 </defs>
 <g id="figure_1">
  <g id="patch_1">
   <path d="M 0 216 
L 576 216 
L 576 0 
L 0 0 
z
" style="fill: #ffffff"/>
  </g>
  <g id="axes_1">
   <g id="patch_2">
    <path d="M 42.667554 183.968014 
L 349.619423 183.968014 
L 349.619423 37.550096 
L 42.667554 37.550096 
z
" style="fill: #ffffff"/>
   </g>
   <g id="PathCollection_1">
    <defs>
     <path id="maa9cc8c2b9" d="M 0 3 
C 0.795609 3 1.55874 2.683901 2.12132 2.12132 
C 2.683901 1.55874 3 0.795609 3 0 
C 3 -0.795609 2.683901 -1.55874 2.12132 -2.12132 
C 1.55874 -2.683901 0.795609 -3 0 -3 
C -0.795609 -3 -1.55874 -2.683901 -2.12132 -2.12132 
C -2.683901 -1.55874 -3 -0.795609 -3 0 
C -3 0.795609 -2.683901 1.55874 -2.12132 2.12132 
C -1.55874 2.683901 -0.795609 3 0 3 
z
" style="stroke: #000000; stroke-width: 0.5"/>
    </defs>
    <g clip-path="url(#pf5955c306f)">
     <use xlink:href="#maa9cc8c2b9" x="-1" y="146.036556" style="stroke: #000000; stroke-width: 0.5"/>
     <use xlink:href="#maa9cc8c2b9" x="258.49278" y="146.07851" style="stroke: #000000; stroke-width: 0.5"/>
     <use xlink:href="#maa9cc8c2b9" x="41473" y="164.119" style="stroke: #000000; stroke-width: 0.5"/>
    </g>
   </g>
   <g id="PathCollection_2">
    <defs>
     <path id="md565ccdbb9" d="M 0 3 
C 0.795609 3 1.55874 2.683901 2.12132 2.12132 
C 2.683901 1.55874 3 0.795609 3 0 
C 3 -0.795609 2.683901 -1.55874 2.12132 -2.12132 
C 1.55874 -2.683901 0.795609 -3 0 -3 
C -0.795609 -3 -1.55874 -2.683901 -2.12132 -2.12132 
C -2.683901 -1.55874 -3 -0.795609 -3 0 
C -3 0.795609 -2.683901 1.55874 -2.12132 2.12132 
C -1.55874 2.683901 -0.795609 3 0 3 
z
" style="stroke: #d95319; stroke-width: 0.5"/>
    </defs>
    <g clip-path="url(#pf5955c306f)">
     <use xlink:href="#md565ccdbb9" x="-1" y="145.451793" style="fill: #d95319; stroke: #d95319; stroke-width: 0.5"/>
     <use xlink:href="#md565ccdbb9" x="245.635256" y="145.501271" style="fill: #d95319; stroke: #d95319; stroke-width: 0.5"/>
     <use xlink:href="#md565ccdbb9" x="41473" y="162.318705" style="fill: #d95319; stroke: #d95319; stroke-width: 0.5"/>
    </g>
   </g>
   <g id="PathCollection_3">
    <defs>
     <path id="m3807fd3ba9" d="M 0 3 
C 0.795609 3 1.55874 2.683901 2.12132 2.12132 
C 2.683901 1.55874 3 0.795609 3 0 
C 3 -0.795609 2.683901 -1.55874 2.12132 -2.12132 
C 1.55874 -2.683901 0.795609 -3 0 -3 
C -0.795609 -3 -1.55874 -2.683901 -2.12132 -2.12132 
C -2.683901 -1.55874 -3 -0.795609 -3 0 
C -3 0.795609 -2.683901 1.55874 -2.12132 2.12132 
C -1.55874 2.683901 -0.795609 3 0 3 
z
" style="stroke: #edb120; stroke-width: 0.5"/>
    </defs>
    <g clip-path="url(#pf5955c306f)">
     <use xlink:href="#m3807fd3ba9" x="-1" y="143.33915" style="fill: #edb120; stroke: #edb120; stroke-width: 0.5"/>
     <use xlink:href="#m3807fd3ba9" x="255.226033" y="143.386766" style="fill: #edb120; stroke: #edb120; stroke-width: 0.5"/>
     <use xlink:href="#m3807fd3ba9" x="41473" y="161.260385" style="fill: #edb120; stroke: #edb120; stroke-width: 0.5"/>
    </g>
   </g>
   <g id="PathCollection_4">
    <defs>
     <path id="m5fcc65f1ae" d="M 0 3 
C 0.795609 3 1.55874 2.683901 2.12132 2.12132 
C 2.683901 1.55874 3 0.795609 3 0 
C 3 -0.795609 2.683901 -1.55874 2.12132 -2.12132 
C 1.55874 -2.683901 0.795609 -3 0 -3 
C -0.795609 -3 -1.55874 -2.683901 -2.12132 -2.12132 
C -2.683901 -1.55874 -3 -0.795609 -3 0 
C -3 0.795609 -2.683901 1.55874 -2.12132 2.12132 
C -1.55874 2.683901 -0.795609 3 0 3 
z
" style="stroke: #7e2f8e; stroke-width: 0.5"/>
    </defs>
    <g clip-path="url(#pf5955c306f)">
     <use xlink:href="#m5fcc65f1ae" x="-1" y="139.222869" style="fill: #7e2f8e; stroke: #7e2f8e; stroke-width: 0.5"/>
     <use xlink:href="#m5fcc65f1ae" x="164.113649" y="139.246935" style="fill: #7e2f8e; stroke: #7e2f8e; stroke-width: 0.5"/>
     <use xlink:href="#m5fcc65f1ae" x="41473" y="157.727333" style="fill: #7e2f8e; stroke: #7e2f8e; stroke-width: 0.5"/>
    </g>
   </g>
   <g id="matplotlib.axis_1">
    <g id="xtick_1">
     <g id="line2d_1">
      <path d="M 42.667554 183.968014 
L 42.667554 37.550096 
" clip-path="url(#pf5955c306f)" style="fill: none; stroke: #b2b2b2; stroke-opacity: 0.7; stroke-width: 0.5; stroke-linecap: square"/>
     </g>
     <g id="line2d_2">
      <defs>
       <path id="maae0458d63" d="M 0 0 
L 0 -3.5 
" style="stroke: #000000; stroke-width: 0.8"/>
      </defs>
      <g>
       <use xlink:href="#maae0458d63" x="42.667554" y="183.968014" style="stroke: #000000; stroke-width: 0.8"/>
      </g>
     </g>
     <g id="text_1">
      <!-- 0.0000 -->
      <g transform="translate(25.669109 194.850656) scale(0.09716 -0.09716)">
       <defs>
        <path id="DejaVuSans-30" d="M 2034 4250 
Q 1547 4250 1301 3770 
Q 1056 3291 1056 2328 
Q 1056 1369 1301 889 
Q 1547 409 2034 409 
Q 2525 409 2770 889 
Q 3016 1369 3016 2328 
Q 3016 3291 2770 3770 
Q 2525 4250 2034 4250 
z
M 2034 4750 
Q 2819 4750 3233 4129 
Q 3647 3509 3647 2328 
Q 3647 1150 3233 529 
Q 2819 -91 2034 -91 
Q 1250 -91 836 529 
Q 422 1150 422 2328 
Q 422 3509 836 4129 
Q 1250 4750 2034 4750 
z
" transform="scale(0.015625)"/>
        <path id="DejaVuSans-2e" d="M 684 794 
L 1344 794 
L 1344 0 
L 684 0 
L 684 794 
z
" transform="scale(0.015625)"/>
       </defs>
       <use xlink:href="#DejaVuSans-30"/>
       <use xlink:href="#DejaVuSans-2e" x="63.623047"/>
       <use xlink:href="#DejaVuSans-30" x="95.410156"/>
       <use xlink:href="#DejaVuSans-30" x="159.033203"/>
       <use xlink:href="#DejaVuSans-30" x="222.65625"/>
       <use xlink:href="#DejaVuSans-30" x="286.279297"/>
      </g>
     </g>
    </g>
    <g id="xtick_2">
     <g id="line2d_3">
      <path d="M 349.619423 183.968014 
L 349.619423 37.550096 
" clip-path="url(#pf5955c306f)" style="fill: none; stroke: #b2b2b2; stroke-opacity: 0.7; stroke-width: 0.5; stroke-linecap: square"/>
     </g>
     <g id="line2d_4">
      <g>
       <use xlink:href="#maae0458d63" x="349.619423" y="183.968014" style="stroke: #000000; stroke-width: 0.8"/>
      </g>
     </g>
     <g id="text_2">
      <!-- 0.0005 -->
      <g transform="translate(332.620977 194.850656) scale(0.09716 -0.09716)">
       <defs>
        <path id="DejaVuSans-35" d="M 691 4666 
L 3169 4666 
L 3169 4134 
L 1269 4134 
L 1269 2991 
Q 1406 3038 1543 3061 
Q 1681 3084 1819 3084 
Q 2600 3084 3056 2656 
Q 3513 2228 3513 1497 
Q 3513 744 3044 326 
Q 2575 -91 1722 -91 
Q 1428 -91 1123 -41 
Q 819 9 494 109 
L 494 744 
Q 775 591 1075 516 
Q 1375 441 1709 441 
Q 2250 441 2565 725 
Q 2881 1009 2881 1497 
Q 2881 1984 2565 2268 
Q 2250 2553 1709 2553 
Q 1456 2553 1204 2497 
Q 953 2441 691 2322 
L 691 4666 
z
" transform="scale(0.015625)"/>
       </defs>
       <use xlink:href="#DejaVuSans-30"/>
       <use xlink:href="#DejaVuSans-2e" x="63.623047"/>
       <use xlink:href="#DejaVuSans-30" x="95.410156"/>
       <use xlink:href="#DejaVuSans-30" x="159.033203"/>
       <use xlink:href="#DejaVuSans-30" x="222.65625"/>
       <use xlink:href="#DejaVuSans-35" x="286.279297"/>
      </g>
     </g>
    </g>
    <g id="text_3">
     <!-- Frequency (GHz) -->
     <g transform="translate(147.654168 209.732578) scale(0.11662 -0.11662)">
      <defs>
       <path id="DejaVuSans-46" d="M 628 4666 
L 3309 4666 
L 3309 4134 
L 1259 4134 
L 1259 2759 
L 3109 2759 
L 3109 2228 
L 1259 2228 
L 1259 0 
L 628 0 
L 628 4666 
z
" transform="scale(0.015625)"/>
       <path id="DejaVuSans-72" d="M 2631 2963 
Q 2534 3019 2420 3045 
Q 2306 3072 2169 3072 
Q 1681 3072 1420 2755 
Q 1159 2438 1159 1844 
L 1159 0 
L 581 0 
L 581 3500 
L 1159 3500 
L 1159 2956 
Q 1341 3275 1631 3429 
Q 1922 3584 2338 3584 
Q 2397 3584 2469 3576 
Q 2541 3569 2628 3553 
L 2631 2963 
z
" transform="scale(0.015625)"/>
       <path id="DejaVuSans-65" d="M 3597 1894 
L 3597 1613 
L 953 1613 
Q 991 1019 1311 708 
Q 1631 397 2203 397 
Q 2534 397 2845 478 
Q 3156 559 3463 722 
L 3463 178 
Q 3153 47 2828 -22 
Q 2503 -91 2169 -91 
Q 1331 -91 842 396 
Q 353 884 353 1716 
Q 353 2575 817 3079 
Q 1281 3584 2069 3584 
Q 2775 3584 3186 3129 
Q 3597 2675 3597 1894 
z
M 3022 2063 
Q 3016 2534 2758 2815 
Q 2500 3097 2075 3097 
Q 1594 3097 1305 2825 
Q 1016 2553 972 2059 
L 3022 2063 
z
" transform="scale(0.015625)"/>
       <path id="DejaVuSans-71" d="M 947 1747 
Q 947 1113 1208 752 
Q 1469 391 1925 391 
Q 2381 391 2643 752 
Q 2906 1113 2906 1747 
Q 2906 2381 2643 2742 
Q 2381 3103 1925 3103 
Q 1469 3103 1208 2742 
Q 947 2381 947 1747 
z
M 2906 525 
Q 2725 213 2448 61 
Q 2172 -91 1784 -91 
Q 1150 -91 751 415 
Q 353 922 353 1747 
Q 353 2572 751 3078 
Q 1150 3584 1784 3584 
Q 2172 3584 2448 3432 
Q 2725 3281 2906 2969 
L 2906 3500 
L 3481 3500 
L 3481 -1331 
L 2906 -1331 
L 2906 525 
z
" transform="scale(0.015625)"/>
       <path id="DejaVuSans-75" d="M 544 1381 
L 544 3500 
L 1119 3500 
L 1119 1403 
Q 1119 906 1312 657 
Q 1506 409 1894 409 
Q 2359 409 2629 706 
Q 2900 1003 2900 1516 
L 2900 3500 
L 3475 3500 
L 3475 0 
L 2900 0 
L 2900 538 
Q 2691 219 2414 64 
Q 2138 -91 1772 -91 
Q 1169 -91 856 284 
Q 544 659 544 1381 
z
M 1991 3584 
L 1991 3584 
z
" transform="scale(0.015625)"/>
       <path id="DejaVuSans-6e" d="M 3513 2113 
L 3513 0 
L 2938 0 
L 2938 2094 
Q 2938 2591 2744 2837 
Q 2550 3084 2163 3084 
Q 1697 3084 1428 2787 
Q 1159 2491 1159 1978 
L 1159 0 
L 581 0 
L 581 3500 
L 1159 3500 
L 1159 2956 
Q 1366 3272 1645 3428 
Q 1925 3584 2291 3584 
Q 2894 3584 3203 3211 
Q 3513 2838 3513 2113 
z
" transform="scale(0.015625)"/>
       <path id="DejaVuSans-63" d="M 3122 3366 
L 3122 2828 
Q 2878 2963 2633 3030 
Q 2388 3097 2138 3097 
Q 1578 3097 1268 2742 
Q 959 2388 959 1747 
Q 959 1106 1268 751 
Q 1578 397 2138 397 
Q 2388 397 2633 464 
Q 2878 531 3122 666 
L 3122 134 
Q 2881 22 2623 -34 
Q 2366 -91 2075 -91 
Q 1284 -91 818 406 
Q 353 903 353 1747 
Q 353 2603 823 3093 
Q 1294 3584 2113 3584 
Q 2378 3584 2631 3529 
Q 2884 3475 3122 3366 
z
" transform="scale(0.015625)"/>
       <path id="DejaVuSans-79" d="M 2059 -325 
Q 1816 -950 1584 -1140 
Q 1353 -1331 966 -1331 
L 506 -1331 
L 506 -850 
L 844 -850 
Q 1081 -850 1212 -737 
Q 1344 -625 1503 -206 
L 1606 56 
L 191 3500 
L 800 3500 
L 1894 763 
L 2988 3500 
L 3597 3500 
L 2059 -325 
z
" transform="scale(0.015625)"/>
       <path id="DejaVuSans-20" transform="scale(0.015625)"/>
       <path id="DejaVuSans-28" d="M 1984 4856 
Q 1566 4138 1362 3434 
Q 1159 2731 1159 2009 
Q 1159 1288 1364 580 
Q 1569 -128 1984 -844 
L 1484 -844 
Q 1016 -109 783 600 
Q 550 1309 550 2009 
Q 550 2706 781 3412 
Q 1013 4119 1484 4856 
L 1984 4856 
z
" transform="scale(0.015625)"/>
       <path id="DejaVuSans-47" d="M 3809 666 
L 3809 1919 
L 2778 1919 
L 2778 2438 
L 4434 2438 
L 4434 434 
Q 4069 175 3628 42 
Q 3188 -91 2688 -91 
Q 1594 -91 976 548 
Q 359 1188 359 2328 
Q 359 3472 976 4111 
Q 1594 4750 2688 4750 
Q 3144 4750 3555 4637 
Q 3966 4525 4313 4306 
L 4313 3634 
Q 3963 3931 3569 4081 
Q 3175 4231 2741 4231 
Q 1884 4231 1454 3753 
Q 1025 3275 1025 2328 
Q 1025 1384 1454 906 
Q 1884 428 2741 428 
Q 3075 428 3337 486 
Q 3600 544 3809 666 
z
" transform="scale(0.015625)"/>
       <path id="DejaVuSans-48" d="M 628 4666 
L 1259 4666 
L 1259 2753 
L 3553 2753 
L 3553 4666 
L 4184 4666 
L 4184 0 
L 3553 0 
L 3553 2222 
L 1259 2222 
L 1259 0 
L 628 0 
L 628 4666 
z
" transform="scale(0.015625)"/>
       <path id="DejaVuSans-7a" d="M 353 3500 
L 3084 3500 
L 3084 2975 
L 922 459 
L 3084 459 
L 3084 0 
L 275 0 
L 275 525 
L 2438 3041 
L 353 3041 
L 353 3500 
z
" transform="scale(0.015625)"/>
       <path id="DejaVuSans-29" d="M 513 4856 
L 1013 4856 
Q 1481 4119 1714 3412 
Q 1947 2706 1947 2009 
Q 1947 1309 1714 600 
Q 1481 -109 1013 -844 
L 513 -844 
Q 928 -128 1133 580 
Q 1338 1288 1338 2009 
Q 1338 2731 1133 3434 
Q 928 4138 513 4856 
z
" transform="scale(0.015625)"/>
      </defs>
      <use xlink:href="#DejaVuSans-46"/>
      <use xlink:href="#DejaVuSans-72" x="50.269531"/>
      <use xlink:href="#DejaVuSans-65" x="89.132812"/>
      <use xlink:href="#DejaVuSans-71" x="150.65625"/>
      <use xlink:href="#DejaVuSans-75" x="214.132812"/>
      <use xlink:href="#DejaVuSans-65" x="277.511719"/>
      <use xlink:href="#DejaVuSans-6e" x="339.035156"/>
      <use xlink:href="#DejaVuSans-63" x="402.414062"/>
      <use xlink:href="#DejaVuSans-79" x="457.394531"/>
      <use xlink:href="#DejaVuSans-20" x="516.574219"/>
      <use xlink:href="#DejaVuSans-28" x="548.361328"/>
      <use xlink:href="#DejaVuSans-47" x="587.375"/>
      <use xlink:href="#DejaVuSans-48" x="664.865234"/>
      <use xlink:href="#DejaVuSans-7a" x="740.060547"/>
      <use xlink:href="#DejaVuSans-29" x="792.550781"/>
     </g>
    </g>
    <g id="text_4">
     <!-- +7.014 -->
     <g transform="translate(313.662632 207.253922) scale(0.09716 -0.09716)">
      <defs>
       <path id="DejaVuSans-2b" d="M 2944 4013 
L 2944 2272 
L 4684 2272 
L 4684 1741 
L 2944 1741 
L 2944 0 
L 2419 0 
L 2419 1741 
L 678 1741 
L 678 2272 
L 2419 2272 
L 2419 4013 
L 2944 4013 
z
" transform="scale(0.015625)"/>
       <path id="DejaVuSans-37" d="M 525 4666 
L 3525 4666 
L 3525 4397 
L 1831 0 
L 1172 0 
L 2766 4134 
L 525 4134 
L 525 4666 
z
" transform="scale(0.015625)"/>
       <path id="DejaVuSans-31" d="M 794 531 
L 1825 531 
L 1825 4091 
L 703 3866 
L 703 4441 
L 1819 4666 
L 2450 4666 
L 2450 531 
L 3481 531 
L 3481 0 
L 794 0 
L 794 531 
z
" transform="scale(0.015625)"/>
       <path id="DejaVuSans-34" d="M 2419 4116 
L 825 1625 
L 2419 1625 
L 2419 4116 
z
M 2253 4666 
L 3047 4666 
L 3047 1625 
L 3713 1625 
L 3713 1100 
L 3047 1100 
L 3047 0 
L 2419 0 
L 2419 1100 
L 313 1100 
L 313 1709 
L 2253 4666 
z
" transform="scale(0.015625)"/>
      </defs>
      <use xlink:href="#DejaVuSans-2b"/>
      <use xlink:href="#DejaVuSans-37" x="83.789062"/>
      <use xlink:href="#DejaVuSans-2e" x="147.412109"/>
      <use xlink:href="#DejaVuSans-30" x="179.199219"/>
      <use xlink:href="#DejaVuSans-31" x="242.822266"/>
      <use xlink:href="#DejaVuSans-34" x="306.445312"/>
     </g>
    </g>
   </g>
   <g id="matplotlib.axis_2">
    <g id="ytick_1">
     <g id="line2d_5">
      <path d="M 42.667554 165.408368 
L 349.619423 165.408368 
" clip-path="url(#pf5955c306f)" style="fill: none; stroke: #b2b2b2; stroke-opacity: 0.7; stroke-width: 0.5; stroke-linecap: square"/>
     </g>
     <g id="line2d_6">
      <defs>
       <path id="mc7eb35d362" d="M 0 0 
L 3.5 0 
" style="stroke: #000000; stroke-width: 0.8"/>
      </defs>
      <g>
       <use xlink:href="#mc7eb35d362" x="42.667554" y="165.408368" style="stroke: #000000; stroke-width: 0.8"/>
      </g>
     </g>
     <g id="text_5">
      <!-- −20 -->
      <g transform="translate(18.66224 169.099688) scale(0.09716 -0.09716)">
       <defs>
        <path id="DejaVuSans-2212" d="M 678 2272 
L 4684 2272 
L 4684 1741 
L 678 1741 
L 678 2272 
z
" transform="scale(0.015625)"/>
        <path id="DejaVuSans-32" d="M 1228 531 
L 3431 531 
L 3431 0 
L 469 0 
L 469 531 
Q 828 903 1448 1529 
Q 2069 2156 2228 2338 
Q 2531 2678 2651 2914 
Q 2772 3150 2772 3378 
Q 2772 3750 2511 3984 
Q 2250 4219 1831 4219 
Q 1534 4219 1204 4116 
Q 875 4013 500 3803 
L 500 4441 
Q 881 4594 1212 4672 
Q 1544 4750 1819 4750 
Q 2544 4750 2975 4387 
Q 3406 4025 3406 3419 
Q 3406 3131 3298 2873 
Q 3191 2616 2906 2266 
Q 2828 2175 2409 1742 
Q 1991 1309 1228 531 
z
" transform="scale(0.015625)"/>
       </defs>
       <use xlink:href="#DejaVuSans-2212"/>
       <use xlink:href="#DejaVuSans-32" x="83.789062"/>
       <use xlink:href="#DejaVuSans-30" x="147.412109"/>
      </g>
     </g>
    </g>
    <g id="ytick_2">
     <g id="line2d_7">
      <path d="M 42.667554 137.223243 
L 349.619423 137.223243 
" clip-path="url(#pf5955c306f)" style="fill: none; stroke: #b2b2b2; stroke-opacity: 0.7; stroke-width: 0.5; stroke-linecap: square"/>
     </g>
     <g id="line2d_8">
      <g>
       <use xlink:href="#mc7eb35d362" x="42.667554" y="137.223243" style="stroke: #000000; stroke-width: 0.8"/>
      </g>
     </g>
     <g id="text_6">
      <!-- −15 -->
      <g transform="translate(18.66224 140.914564) scale(0.09716 -0.09716)">
       <use xlink:href="#DejaVuSans-2212"/>
       <use xlink:href="#DejaVuSans-31" x="83.789062"/>
       <use xlink:href="#DejaVuSans-35" x="147.412109"/>
      </g>
     </g>
    </g>
    <g id="ytick_3">
     <g id="line2d_9">
      <path d="M 42.667554 109.038119 
L 349.619423 109.038119 
" clip-path="url(#pf5955c306f)" style="fill: none; stroke: #b2b2b2; stroke-opacity: 0.7; stroke-width: 0.5; stroke-linecap: square"/>
     </g>
     <g id="line2d_10">
      <g>
       <use xlink:href="#mc7eb35d362" x="42.667554" y="109.038119" style="stroke: #000000; stroke-width: 0.8"/>
      </g>
     </g>
     <g id="text_7">
      <!-- −10 -->
      <g transform="translate(18.66224 112.72944) scale(0.09716 -0.09716)">
       <use xlink:href="#DejaVuSans-2212"/>
       <use xlink:href="#DejaVuSans-31" x="83.789062"/>
       <use xlink:href="#DejaVuSans-30" x="147.412109"/>
      </g>
     </g>
    </g>
    <g id="ytick_4">
     <g id="line2d_11">
      <path d="M 42.667554 80.852995 
L 349.619423 80.852995 
" clip-path="url(#pf5955c306f)" style="fill: none; stroke: #b2b2b2; stroke-opacity: 0.7; stroke-width: 0.5; stroke-linecap: square"/>
     </g>
     <g id="line2d_12">
      <g>
       <use xlink:href="#mc7eb35d362" x="42.667554" y="80.852995" style="stroke: #000000; stroke-width: 0.8"/>
      </g>
     </g>
     <g id="text_8">
      <!-- −5 -->
      <g transform="translate(24.844045 84.544316) scale(0.09716 -0.09716)">
       <use xlink:href="#DejaVuSans-2212"/>
       <use xlink:href="#DejaVuSans-35" x="83.789062"/>
      </g>
     </g>
    </g>
    <g id="ytick_5">
     <g id="line2d_13">
      <path d="M 42.667554 52.66787 
L 349.619423 52.66787 
" clip-path="url(#pf5955c306f)" style="fill: none; stroke: #b2b2b2; stroke-opacity: 0.7; stroke-width: 0.5; stroke-linecap: square"/>
     </g>
     <g id="line2d_14">
      <g>
       <use xlink:href="#mc7eb35d362" x="42.667554" y="52.66787" style="stroke: #000000; stroke-width: 0.8"/>
      </g>
     </g>
     <g id="text_9">
      <!-- 0 -->
      <g transform="translate(32.985749 56.359191) scale(0.09716 -0.09716)">
       <use xlink:href="#DejaVuSans-30"/>
      </g>
     </g>
    </g>
    <g id="text_10">
     <!-- |Transmission| (dBm) -->
     <g transform="translate(11.912559 172.135796) rotate(-90) scale(0.11662 -0.11662)">
      <defs>
       <path id="DejaVuSans-7c" d="M 1344 4891 
L 1344 -1509 
L 813 -1509 
L 813 4891 
L 1344 4891 
z
" transform="scale(0.015625)"/>
       <path id="DejaVuSans-54" d="M -19 4666 
L 3928 4666 
L 3928 4134 
L 2272 4134 
L 2272 0 
L 1638 0 
L 1638 4134 
L -19 4134 
L -19 4666 
z
" transform="scale(0.015625)"/>
       <path id="DejaVuSans-61" d="M 2194 1759 
Q 1497 1759 1228 1600 
Q 959 1441 959 1056 
Q 959 750 1161 570 
Q 1363 391 1709 391 
Q 2188 391 2477 730 
Q 2766 1069 2766 1631 
L 2766 1759 
L 2194 1759 
z
M 3341 1997 
L 3341 0 
L 2766 0 
L 2766 531 
Q 2569 213 2275 61 
Q 1981 -91 1556 -91 
Q 1019 -91 701 211 
Q 384 513 384 1019 
Q 384 1609 779 1909 
Q 1175 2209 1959 2209 
L 2766 2209 
L 2766 2266 
Q 2766 2663 2505 2880 
Q 2244 3097 1772 3097 
Q 1472 3097 1187 3025 
Q 903 2953 641 2809 
L 641 3341 
Q 956 3463 1253 3523 
Q 1550 3584 1831 3584 
Q 2591 3584 2966 3190 
Q 3341 2797 3341 1997 
z
" transform="scale(0.015625)"/>
       <path id="DejaVuSans-73" d="M 2834 3397 
L 2834 2853 
Q 2591 2978 2328 3040 
Q 2066 3103 1784 3103 
Q 1356 3103 1142 2972 
Q 928 2841 928 2578 
Q 928 2378 1081 2264 
Q 1234 2150 1697 2047 
L 1894 2003 
Q 2506 1872 2764 1633 
Q 3022 1394 3022 966 
Q 3022 478 2636 193 
Q 2250 -91 1575 -91 
Q 1294 -91 989 -36 
Q 684 19 347 128 
L 347 722 
Q 666 556 975 473 
Q 1284 391 1588 391 
Q 1994 391 2212 530 
Q 2431 669 2431 922 
Q 2431 1156 2273 1281 
Q 2116 1406 1581 1522 
L 1381 1569 
Q 847 1681 609 1914 
Q 372 2147 372 2553 
Q 372 3047 722 3315 
Q 1072 3584 1716 3584 
Q 2034 3584 2315 3537 
Q 2597 3491 2834 3397 
z
" transform="scale(0.015625)"/>
       <path id="DejaVuSans-6d" d="M 3328 2828 
Q 3544 3216 3844 3400 
Q 4144 3584 4550 3584 
Q 5097 3584 5394 3201 
Q 5691 2819 5691 2113 
L 5691 0 
L 5113 0 
L 5113 2094 
Q 5113 2597 4934 2840 
Q 4756 3084 4391 3084 
Q 3944 3084 3684 2787 
Q 3425 2491 3425 1978 
L 3425 0 
L 2847 0 
L 2847 2094 
Q 2847 2600 2669 2842 
Q 2491 3084 2119 3084 
Q 1678 3084 1418 2786 
Q 1159 2488 1159 1978 
L 1159 0 
L 581 0 
L 581 3500 
L 1159 3500 
L 1159 2956 
Q 1356 3278 1631 3431 
Q 1906 3584 2284 3584 
Q 2666 3584 2933 3390 
Q 3200 3197 3328 2828 
z
" transform="scale(0.015625)"/>
       <path id="DejaVuSans-69" d="M 603 3500 
L 1178 3500 
L 1178 0 
L 603 0 
L 603 3500 
z
M 603 4863 
L 1178 4863 
L 1178 4134 
L 603 4134 
L 603 4863 
z
" transform="scale(0.015625)"/>
       <path id="DejaVuSans-6f" d="M 1959 3097 
Q 1497 3097 1228 2736 
Q 959 2375 959 1747 
Q 959 1119 1226 758 
Q 1494 397 1959 397 
Q 2419 397 2687 759 
Q 2956 1122 2956 1747 
Q 2956 2369 2687 2733 
Q 2419 3097 1959 3097 
z
M 1959 3584 
Q 2709 3584 3137 3096 
Q 3566 2609 3566 1747 
Q 3566 888 3137 398 
Q 2709 -91 1959 -91 
Q 1206 -91 779 398 
Q 353 888 353 1747 
Q 353 2609 779 3096 
Q 1206 3584 1959 3584 
z
" transform="scale(0.015625)"/>
       <path id="DejaVuSans-64" d="M 2906 2969 
L 2906 4863 
L 3481 4863 
L 3481 0 
L 2906 0 
L 2906 525 
Q 2725 213 2448 61 
Q 2172 -91 1784 -91 
Q 1150 -91 751 415 
Q 353 922 353 1747 
Q 353 2572 751 3078 
Q 1150 3584 1784 3584 
Q 2172 3584 2448 3432 
Q 2725 3281 2906 2969 
z
M 947 1747 
Q 947 1113 1208 752 
Q 1469 391 1925 391 
Q 2381 391 2643 752 
Q 2906 1113 2906 1747 
Q 2906 2381 2643 2742 
Q 2381 3103 1925 3103 
Q 1469 3103 1208 2742 
Q 947 2381 947 1747 
z
" transform="scale(0.015625)"/>
       <path id="DejaVuSans-42" d="M 1259 2228 
L 1259 519 
L 2272 519 
Q 2781 519 3026 730 
Q 3272 941 3272 1375 
Q 3272 1813 3026 2020 
Q 2781 2228 2272 2228 
L 1259 2228 
z
M 1259 4147 
L 1259 2741 
L 2194 2741 
Q 2656 2741 2882 2914 
Q 3109 3088 3109 3444 
Q 3109 3797 2882 3972 
Q 2656 4147 2194 4147 
L 1259 4147 
z
M 628 4666 
L 2241 4666 
Q 2963 4666 3353 4366 
Q 3744 4066 3744 3513 
Q 3744 3084 3544 2831 
Q 3344 2578 2956 2516 
Q 3422 2416 3680 2098 
Q 3938 1781 3938 1306 
Q 3938 681 3513 340 
Q 3088 0 2303 0 
L 628 0 
L 628 4666 
z
" transform="scale(0.015625)"/>
      </defs>
      <use xlink:href="#DejaVuSans-7c"/>
      <use xlink:href="#DejaVuSans-54" x="33.691406"/>
      <use xlink:href="#DejaVuSans-72" x="80.025391"/>
      <use xlink:href="#DejaVuSans-61" x="121.138672"/>
      <use xlink:href="#DejaVuSans-6e" x="182.417969"/>
      <use xlink:href="#DejaVuSans-73" x="245.796875"/>
      <use xlink:href="#DejaVuSans-6d" x="297.896484"/>
      <use xlink:href="#DejaVuSans-69" x="395.308594"/>
      <use xlink:href="#DejaVuSans-73" x="423.091797"/>
      <use xlink:href="#DejaVuSans-73" x="475.191406"/>
      <use xlink:href="#DejaVuSans-69" x="527.291016"/>
      <use xlink:href="#DejaVuSans-6f" x="555.074219"/>
      <use xlink:href="#DejaVuSans-6e" x="616.255859"/>
      <use xlink:href="#DejaVuSans-7c" x="679.634766"/>
      <use xlink:href="#DejaVuSans-20" x="713.326172"/>
      <use xlink:href="#DejaVuSans-28" x="745.113281"/>
      <use xlink:href="#DejaVuSans-64" x="784.126953"/>
      <use xlink:href="#DejaVuSans-42" x="847.603516"/>
      <use xlink:href="#DejaVuSans-6d" x="916.207031"/>
      <use xlink:href="#DejaVuSans-29" x="1013.619141"/>
     </g>
    </g>
   </g>
   <g id="line2d_15">
    <path d="M 37.871738 59.440325 
L 42.667554 59.395275 
L 47.463984 59.549993 
L 52.2598 60.091517 
L 57.055616 59.666457 
L 61.852046 59.676821 
L 66.648476 60.05509 
L 71.444292 60.35214 
L 76.240108 60.308466 
L 81.036538 60.221377 
L 85.832968 60.464432 
L 90.628784 60.921532 
L 95.4246 60.936499 
L 100.22103 60.795844 
L 105.016846 61.855775 
L 109.813276 62.130741 
L 114.609705 61.602937 
L 119.405521 61.929317 
L 124.201337 62.547286 
L 128.997767 62.66319 
L 133.794197 63.686028 
L 138.590013 62.966003 
L 143.385829 63.397966 
L 148.182259 64.275074 
L 152.978689 64.856853 
L 157.774505 65.105219 
L 162.570935 66.231123 
L 167.366751 66.47422 
L 172.162567 66.445642 
L 176.958997 67.308601 
L 181.755427 68.66227 
L 186.551243 71.215386 
L 191.347059 71.900661 
L 196.143488 73.178337 
L 200.939918 75.271685 
L 205.735734 78.656451 
L 210.53155 80.728812 
L 215.32798 83.225524 
L 220.123796 88.118741 
L 224.920226 92.221015 
L 229.716656 98.26207 
L 234.512472 100.206872 
L 239.308288 112.985879 
L 244.104718 119.049825 
L 248.901148 130.656835 
L 253.696964 142.277823 
L 258.49278 146.07851 
L 263.28921 138.418711 
L 268.085639 126.73418 
L 272.881455 114.443927 
L 277.677885 108.629498 
L 282.473701 99.237664 
L 287.269517 92.142484 
L 292.065947 89.757999 
L 296.862377 85.748986 
L 301.658193 82.01696 
L 306.454009 77.469369 
L 311.250439 74.769234 
L 316.046869 72.857999 
L 320.842685 70.877544 
L 325.638501 70.420164 
L 330.434931 68.109629 
L 335.230747 66.256411 
L 340.027177 65.578469 
L 344.823607 64.813072 
L 349.619423 64.034923 
L 354.415238 63.206864 
" clip-path="url(#pf5955c306f)" style="fill: none; stroke: #000000; stroke-linecap: square"/>
   </g>
   <g id="line2d_16">
    <path d="M 39.433544 59.10913 
L 44.228933 58.97976 
L 49.024322 59.103605 
L 53.81971 59.083819 
L 58.615099 59.131565 
L 63.410488 59.133594 
L 68.205876 59.414656 
L 73.001265 59.651637 
L 77.796653 59.333539 
L 82.592042 60.178248 
L 87.387431 60.280672 
L 92.182819 60.513031 
L 96.978208 60.872673 
L 101.773597 60.865626 
L 106.568985 61.244716 
L 111.364374 61.301594 
L 116.159763 62.109943 
L 120.955151 62.187678 
L 125.75054 62.445121 
L 130.545929 63.189772 
L 135.341317 63.244 
L 140.136706 64.00652 
L 144.932094 64.694519 
L 149.727483 65.518201 
L 154.522872 66.184667 
L 159.31826 66.825766 
L 164.113649 67.536256 
L 168.909038 68.572905 
L 173.704426 69.703805 
L 178.499815 71.725242 
L 183.295204 73.55581 
L 188.090592 74.827241 
L 192.885981 77.107586 
L 197.68137 80.00885 
L 202.476758 82.357798 
L 207.272147 84.115423 
L 212.067536 90.195743 
L 216.862924 95.298265 
L 221.658313 99.734773 
L 226.453701 106.413802 
L 231.24909 114.988901 
L 236.044479 128.98366 
L 240.839867 136.852834 
L 245.635256 145.501271 
L 250.430645 141.044075 
L 255.226033 132.585099 
L 260.021422 118.963116 
L 264.816811 107.759134 
L 269.612199 97.816888 
L 274.407588 93.096444 
L 279.202977 88.379325 
L 283.998365 84.119651 
L 288.793754 81.250292 
L 293.589142 76.361977 
L 298.384531 73.486869 
L 303.17992 72.785059 
L 307.975308 69.641065 
L 312.770697 68.24686 
L 317.566086 66.879486 
L 322.361474 65.488381 
L 327.156863 64.469489 
L 331.952252 63.794681 
L 336.74764 62.779396 
L 341.543029 62.237622 
L 346.338418 60.612355 
L 351.133806 60.486593 
" clip-path="url(#pf5955c306f)" style="fill: none; stroke: #d95319; stroke-linecap: square"/>
   </g>
   <g id="line2d_17">
    <path d="M 39.433544 58.452754 
L 44.228933 58.541368 
L 49.024322 58.415212 
L 53.81971 58.563353 
L 58.615099 58.891484 
L 63.410488 58.988723 
L 68.205876 59.556033 
L 73.001265 59.245207 
L 77.796653 59.553158 
L 82.592042 59.645718 
L 87.387431 59.998652 
L 92.182819 59.774298 
L 96.978208 60.082305 
L 101.773597 60.235294 
L 106.568985 61.117996 
L 111.364374 61.032088 
L 116.159763 61.189868 
L 120.955151 61.875274 
L 125.75054 61.579105 
L 130.545929 62.021498 
L 135.341317 62.44157 
L 140.136706 62.648674 
L 144.932094 63.667059 
L 149.727483 64.207029 
L 154.522872 64.682851 
L 159.31826 65.572317 
L 164.113649 66.296562 
L 168.909038 66.815281 
L 173.704426 67.612751 
L 178.499815 69.180069 
L 183.295204 69.611414 
L 188.090592 71.359737 
L 192.885981 72.888386 
L 197.68137 74.473855 
L 202.476758 77.248174 
L 207.272147 78.642266 
L 212.067536 81.629833 
L 216.862924 86.272205 
L 221.658313 89.945741 
L 226.453701 94.0575 
L 231.24909 102.116416 
L 236.044479 110.066594 
L 240.839867 117.691967 
L 245.635256 127.908792 
L 250.430645 138.130635 
L 255.226033 143.386766 
L 260.021422 137.771782 
L 264.816811 130.356614 
L 269.612199 121.493858 
L 274.407588 107.826271 
L 279.202977 101.561 
L 283.998365 92.850275 
L 288.793754 86.35304 
L 293.589142 83.218008 
L 298.384531 79.565724 
L 303.17992 75.9069 
L 307.975308 74.303843 
L 312.770697 71.610303 
L 317.566086 69.528719 
L 322.361474 67.460382 
L 327.156863 66.077225 
L 331.952252 65.108333 
L 336.74764 64.091132 
L 341.543029 62.408649 
L 346.338418 61.600582 
L 351.133806 61.022392 
" clip-path="url(#pf5955c306f)" style="fill: none; stroke: #edb120; stroke-linecap: square"/>
   </g>
   <g id="line2d_18">
    <path d="M 39.433544 62.916094 
L 44.228933 62.828382 
L 49.024322 63.417959 
L 53.81971 64.17907 
L 58.615099 65.179022 
L 63.410488 66.332639 
L 68.205876 66.19859 
L 73.001265 66.766013 
L 77.796653 67.378701 
L 82.592042 68.340716 
L 87.387431 69.591346 
L 92.182819 70.650825 
L 96.978208 72.219327 
L 101.773597 73.696622 
L 106.568985 75.015743 
L 111.364374 77.257306 
L 116.159763 79.61578 
L 120.955151 82.34861 
L 125.75054 85.187303 
L 130.545929 90.97168 
L 135.341317 94.525147 
L 140.136706 102.535022 
L 144.932094 109.112979 
L 149.727483 115.640935 
L 154.522872 123.835196 
L 159.31826 134.667642 
L 164.113649 139.246935 
L 168.909038 136.190202 
L 173.704426 125.842766 
L 178.499815 114.867254 
L 183.295204 105.796604 
L 188.090592 100.743462 
L 192.885981 95.031634 
L 197.68137 89.701038 
L 202.476758 85.447959 
L 207.272147 81.257113 
L 212.067536 77.388197 
L 216.862924 74.747364 
L 221.658313 72.637425 
L 226.453701 70.44 
L 231.24909 68.827755 
L 236.044479 67.203052 
L 240.839867 65.609183 
L 245.635256 64.091583 
L 250.430645 63.630531 
L 255.226033 62.923986 
L 260.021422 62.552055 
L 264.816811 61.476454 
L 269.612199 61.272676 
L 274.407588 60.19809 
L 279.202977 59.774298 
L 283.998365 58.899827 
L 288.793754 58.916343 
L 293.589142 58.961439 
L 298.384531 58.213406 
L 303.17992 58.282122 
L 307.975308 57.567403 
L 312.770697 57.99655 
L 317.566086 57.46729 
L 322.361474 57.861205 
L 327.156863 57.045077 
L 331.952252 57.090398 
L 336.74764 57.118245 
L 341.543029 56.431825 
L 346.338418 56.611984 
L 351.133806 56.14676 
" clip-path="url(#pf5955c306f)" style="fill: none; stroke: #7e2f8e; stroke-linecap: square"/>
   </g>
   <g id="patch_3">
    <path d="M 42.667554 183.968014 
L 42.667554 37.550096 
" style="fill: none; stroke: #000000; stroke-width: 0.8; stroke-linejoin: miter; stroke-linecap: square"/>
   </g>
   <g id="patch_4">
    <path d="M 349.619423 183.968014 
L 349.619423 37.550096 
" style="fill: none; stroke: #000000; stroke-width: 0.8; stroke-linejoin: miter; stroke-linecap: square"/>
   </g>
   <g id="patch_5">
    <path d="M 42.667554 183.968014 
L 349.619423 183.968014 
" style="fill: none; stroke: #000000; stroke-width: 0.8; stroke-linejoin: miter; stroke-linecap: square"/>
   </g>
   <g id="patch_6">
    <path d="M 42.667554 37.550096 
L 349.619423 37.550096 
" style="fill: none; stroke: #000000; stroke-width: 0.8; stroke-linejoin: miter; stroke-linecap: square"/>
   </g>
   <g id="legend_1">
    <g id="patch_7">
     <path d="M 60.36302 24.752352 
L 335.923957 24.752352 
Q 337.545157 24.752352 337.545157 23.131152 
L 337.545157 12.043664 
Q 337.545157 10.422464 335.923957 10.422464 
L 60.36302 10.422464 
Q 58.74182 10.422464 58.74182 12.043664 
L 58.74182 23.131152 
Q 58.74182 24.752352 60.36302 24.752352 
z
" style="fill: #4d4d4d; opacity: 0.5; stroke: #4d4d4d; stroke-width: 0.5; stroke-linejoin: miter"/>
    </g>
    <g id="patch_8">
     <path d="M 58.36302 22.752352 
L 333.923957 22.752352 
Q 335.545157 22.752352 335.545157 21.131152 
L 335.545157 10.043664 
Q 335.545157 8.422464 333.923957 8.422464 
L 58.36302 8.422464 
Q 56.74182 8.422464 56.74182 10.043664 
L 56.74182 21.131152 
Q 56.74182 22.752352 58.36302 22.752352 
z
" style="fill: #ffffff; stroke: #cccccc; stroke-width: 0.5; stroke-linejoin: miter"/>
    </g>
    <g id="line2d_19">
     <path d="M 59.98422 14.987058 
L 68.09022 14.987058 
L 76.19622 14.987058 
" style="fill: none; stroke: #000000; stroke-linecap: square"/>
    </g>
    <g id="text_11">
     <!-- Initial -->
     <g transform="translate(82.68102 17.824158) scale(0.08106 -0.08106)">
      <defs>
       <path id="DejaVuSans-49" d="M 628 4666 
L 1259 4666 
L 1259 0 
L 628 0 
L 628 4666 
z
" transform="scale(0.015625)"/>
       <path id="DejaVuSans-74" d="M 1172 4494 
L 1172 3500 
L 2356 3500 
L 2356 3053 
L 1172 3053 
L 1172 1153 
Q 1172 725 1289 603 
Q 1406 481 1766 481 
L 2356 481 
L 2356 0 
L 1766 0 
Q 1100 0 847 248 
Q 594 497 594 1153 
L 594 3053 
L 172 3053 
L 172 3500 
L 594 3500 
L 594 4494 
L 1172 4494 
z
" transform="scale(0.015625)"/>
       <path id="DejaVuSans-6c" d="M 603 4863 
L 1178 4863 
L 1178 0 
L 603 0 
L 603 4863 
z
" transform="scale(0.015625)"/>
      </defs>
      <use xlink:href="#DejaVuSans-49"/>
      <use xlink:href="#DejaVuSans-6e" x="29.492188"/>
      <use xlink:href="#DejaVuSans-69" x="92.871094"/>
      <use xlink:href="#DejaVuSans-74" x="120.654297"/>
      <use xlink:href="#DejaVuSans-69" x="159.863281"/>
      <use xlink:href="#DejaVuSans-61" x="187.646484"/>
      <use xlink:href="#DejaVuSans-6c" x="248.925781"/>
     </g>
    </g>
    <g id="line2d_20">
     <path d="M 121.322575 14.987058 
L 129.428575 14.987058 
L 137.534575 14.987058 
" style="fill: none; stroke: #d95319; stroke-linecap: square"/>
    </g>
    <g id="text_12">
     <!--  T ⇅ 175K -->
     <g transform="translate(144.019375 17.824158) scale(0.08106 -0.08106)">
      <defs>
       <path id="DejaVuSans-21c5" d="M 3758 -22 
L 3477 -22 
L 2245 1209 
L 2620 1584 
L 3352 853 
L 3352 4666 
L 3883 4666 
L 3883 853 
L 4608 1584 
L 4983 1209 
L 3758 -22 
z
M 1605 4688 
L 1886 4688 
L 3111 3456 
L 2736 3081 
L 2011 3813 
L 2011 0 
L 1480 0 
L 1480 3813 
L 748 3081 
L 373 3456 
L 1605 4688 
z
" transform="scale(0.015625)"/>
       <path id="DejaVuSans-4b" d="M 628 4666 
L 1259 4666 
L 1259 2694 
L 3353 4666 
L 4166 4666 
L 1850 2491 
L 4331 0 
L 3500 0 
L 1259 2247 
L 1259 0 
L 628 0 
L 628 4666 
z
" transform="scale(0.015625)"/>
      </defs>
      <use xlink:href="#DejaVuSans-20"/>
      <use xlink:href="#DejaVuSans-54" x="31.787109"/>
      <use xlink:href="#DejaVuSans-20" x="92.871094"/>
      <use xlink:href="#DejaVuSans-21c5" x="124.658203"/>
      <use xlink:href="#DejaVuSans-20" x="208.447266"/>
      <use xlink:href="#DejaVuSans-31" x="240.234375"/>
      <use xlink:href="#DejaVuSans-37" x="303.857422"/>
      <use xlink:href="#DejaVuSans-35" x="367.480469"/>
      <use xlink:href="#DejaVuSans-4b" x="431.103516"/>
     </g>
    </g>
    <g id="line2d_21">
     <path d="M 200.491598 14.987058 
L 208.597598 14.987058 
L 216.703598 14.987058 
" style="fill: none; stroke: #edb120; stroke-linecap: square"/>
    </g>
    <g id="text_13">
     <!-- T ⇅ 22K  -->
     <g transform="translate(223.188398 17.824158) scale(0.08106 -0.08106)">
      <use xlink:href="#DejaVuSans-54"/>
      <use xlink:href="#DejaVuSans-20" x="61.083984"/>
      <use xlink:href="#DejaVuSans-21c5" x="92.871094"/>
      <use xlink:href="#DejaVuSans-20" x="176.660156"/>
      <use xlink:href="#DejaVuSans-32" x="208.447266"/>
      <use xlink:href="#DejaVuSans-32" x="272.070312"/>
      <use xlink:href="#DejaVuSans-4b" x="335.693359"/>
      <use xlink:href="#DejaVuSans-20" x="401.269531"/>
     </g>
    </g>
    <g id="line2d_22">
     <path d="M 274.503177 14.987058 
L 282.609177 14.987058 
L 290.715177 14.987058 
" style="fill: none; stroke: #7e2f8e; stroke-linecap: square"/>
    </g>
    <g id="text_14">
     <!-- T ⇅ 30K  -->
     <g transform="translate(297.199977 17.824158) scale(0.08106 -0.08106)">
      <defs>
       <path id="DejaVuSans-33" d="M 2597 2516 
Q 3050 2419 3304 2112 
Q 3559 1806 3559 1356 
Q 3559 666 3084 287 
Q 2609 -91 1734 -91 
Q 1441 -91 1130 -33 
Q 819 25 488 141 
L 488 750 
Q 750 597 1062 519 
Q 1375 441 1716 441 
Q 2309 441 2620 675 
Q 2931 909 2931 1356 
Q 2931 1769 2642 2001 
Q 2353 2234 1838 2234 
L 1294 2234 
L 1294 2753 
L 1863 2753 
Q 2328 2753 2575 2939 
Q 2822 3125 2822 3475 
Q 2822 3834 2567 4026 
Q 2313 4219 1838 4219 
Q 1578 4219 1281 4162 
Q 984 4106 628 3988 
L 628 4550 
Q 988 4650 1302 4700 
Q 1616 4750 1894 4750 
Q 2613 4750 3031 4423 
Q 3450 4097 3450 3541 
Q 3450 3153 3228 2886 
Q 3006 2619 2597 2516 
z
" transform="scale(0.015625)"/>
      </defs>
      <use xlink:href="#DejaVuSans-54"/>
      <use xlink:href="#DejaVuSans-20" x="61.083984"/>
      <use xlink:href="#DejaVuSans-21c5" x="92.871094"/>
      <use xlink:href="#DejaVuSans-20" x="176.660156"/>
      <use xlink:href="#DejaVuSans-33" x="208.447266"/>
      <use xlink:href="#DejaVuSans-30" x="272.070312"/>
      <use xlink:href="#DejaVuSans-4b" x="335.693359"/>
      <use xlink:href="#DejaVuSans-20" x="401.269531"/>
     </g>
    </g>
   </g>
  </g>
  <g id="axes_2">
   <g id="patch_9">
    <path d="M 403.768588 183.968014 
L 557.244522 183.968014 
L 557.244522 37.550096 
L 403.768588 37.550096 
z
" style="fill: #ffffff"/>
   </g>
   <g id="patch_10">
    <path d="M 410.744766 183.968014 
L 414.322294 183.968014 
L 414.322294 183.968014 
L 410.744766 183.968014 
z
" clip-path="url(#p9bbdd190d3)" style="fill: #d95319; opacity: 0.8"/>
   </g>
   <g id="patch_11">
    <path d="M 414.322294 183.968014 
L 417.899822 183.968014 
L 417.899822 183.968014 
L 414.322294 183.968014 
z
" clip-path="url(#p9bbdd190d3)" style="fill: #d95319; opacity: 0.8"/>
   </g>
   <g id="patch_12">
    <path d="M 417.899822 183.968014 
L 421.477349 183.968014 
L 421.477349 183.968014 
L 417.899822 183.968014 
z
" clip-path="url(#p9bbdd190d3)" style="fill: #d95319; opacity: 0.8"/>
   </g>
   <g id="patch_13">
    <path d="M 421.477349 183.968014 
L 425.054877 183.968014 
L 425.054877 183.968014 
L 421.477349 183.968014 
z
" clip-path="url(#p9bbdd190d3)" style="fill: #d95319; opacity: 0.8"/>
   </g>
   <g id="patch_14">
    <path d="M 425.054877 183.968014 
L 428.632404 183.968014 
L 428.632404 183.968014 
L 425.054877 183.968014 
z
" clip-path="url(#p9bbdd190d3)" style="fill: #d95319; opacity: 0.8"/>
   </g>
   <g id="patch_15">
    <path d="M 428.632404 183.968014 
L 432.209932 183.968014 
L 432.209932 183.968014 
L 428.632404 183.968014 
z
" clip-path="url(#p9bbdd190d3)" style="fill: #d95319; opacity: 0.8"/>
   </g>
   <g id="patch_16">
    <path d="M 432.209932 183.968014 
L 435.78746 183.968014 
L 435.78746 183.968014 
L 432.209932 183.968014 
z
" clip-path="url(#p9bbdd190d3)" style="fill: #d95319; opacity: 0.8"/>
   </g>
   <g id="patch_17">
    <path d="M 435.78746 183.968014 
L 439.364987 183.968014 
L 439.364987 183.968014 
L 435.78746 183.968014 
z
" clip-path="url(#p9bbdd190d3)" style="fill: #d95319; opacity: 0.8"/>
   </g>
   <g id="patch_18">
    <path d="M 439.364987 183.968014 
L 442.942515 183.968014 
L 442.942515 183.968014 
L 439.364987 183.968014 
z
" clip-path="url(#p9bbdd190d3)" style="fill: #d95319; opacity: 0.8"/>
   </g>
   <g id="patch_19">
    <path d="M 442.942515 183.968014 
L 446.520042 183.968014 
L 446.520042 183.968014 
L 442.942515 183.968014 
z
" clip-path="url(#p9bbdd190d3)" style="fill: #d95319; opacity: 0.8"/>
   </g>
   <g id="patch_20">
    <path d="M 446.520042 183.968014 
L 450.09757 183.968014 
L 450.09757 183.968014 
L 446.520042 183.968014 
z
" clip-path="url(#p9bbdd190d3)" style="fill: #d95319; opacity: 0.8"/>
   </g>
   <g id="patch_21">
    <path d="M 450.09757 183.968014 
L 453.675098 183.968014 
L 453.675098 183.968014 
L 450.09757 183.968014 
z
" clip-path="url(#p9bbdd190d3)" style="fill: #d95319; opacity: 0.8"/>
   </g>
   <g id="patch_22">
    <path d="M 453.675098 183.968014 
L 457.252625 183.968014 
L 457.252625 183.968014 
L 453.675098 183.968014 
z
" clip-path="url(#p9bbdd190d3)" style="fill: #d95319; opacity: 0.8"/>
   </g>
   <g id="patch_23">
    <path d="M 457.252625 183.968014 
L 460.830153 183.968014 
L 460.830153 183.968014 
L 457.252625 183.968014 
z
" clip-path="url(#p9bbdd190d3)" style="fill: #d95319; opacity: 0.8"/>
   </g>
   <g id="patch_24">
    <path d="M 460.830153 183.968014 
L 464.40768 183.968014 
L 464.40768 183.968014 
L 460.830153 183.968014 
z
" clip-path="url(#p9bbdd190d3)" style="fill: #d95319; opacity: 0.8"/>
   </g>
   <g id="patch_25">
    <path d="M 464.40768 183.968014 
L 467.985208 183.968014 
L 467.985208 183.968014 
L 464.40768 183.968014 
z
" clip-path="url(#p9bbdd190d3)" style="fill: #d95319; opacity: 0.8"/>
   </g>
   <g id="patch_26">
    <path d="M 467.985208 183.968014 
L 471.562736 183.968014 
L 471.562736 183.968014 
L 467.985208 183.968014 
z
" clip-path="url(#p9bbdd190d3)" style="fill: #d95319; opacity: 0.8"/>
   </g>
   <g id="patch_27">
    <path d="M 471.562736 183.968014 
L 475.140263 183.968014 
L 475.140263 183.968014 
L 471.562736 183.968014 
z
" clip-path="url(#p9bbdd190d3)" style="fill: #d95319; opacity: 0.8"/>
   </g>
   <g id="patch_28">
    <path d="M 475.140263 183.968014 
L 478.717791 183.968014 
L 478.717791 183.968014 
L 475.140263 183.968014 
z
" clip-path="url(#p9bbdd190d3)" style="fill: #d95319; opacity: 0.8"/>
   </g>
   <g id="patch_29">
    <path d="M 478.717791 183.968014 
L 482.295318 183.968014 
L 482.295318 183.968014 
L 478.717791 183.968014 
z
" clip-path="url(#p9bbdd190d3)" style="fill: #d95319; opacity: 0.8"/>
   </g>
   <g id="patch_30">
    <path d="M 482.295318 183.968014 
L 485.872846 183.968014 
L 485.872846 183.968014 
L 482.295318 183.968014 
z
" clip-path="url(#p9bbdd190d3)" style="fill: #d95319; opacity: 0.8"/>
   </g>
   <g id="patch_31">
    <path d="M 485.872846 183.968014 
L 489.450374 183.968014 
L 489.450374 183.968014 
L 485.872846 183.968014 
z
" clip-path="url(#p9bbdd190d3)" style="fill: #d95319; opacity: 0.8"/>
   </g>
   <g id="patch_32">
    <path d="M 489.450374 183.968014 
L 493.027901 183.968014 
L 493.027901 183.968014 
L 489.450374 183.968014 
z
" clip-path="url(#p9bbdd190d3)" style="fill: #d95319; opacity: 0.8"/>
   </g>
   <g id="patch_33">
    <path d="M 493.027901 183.968014 
L 496.605429 183.968014 
L 496.605429 183.968014 
L 493.027901 183.968014 
z
" clip-path="url(#p9bbdd190d3)" style="fill: #d95319; opacity: 0.8"/>
   </g>
   <g id="patch_34">
    <path d="M 496.605429 183.968014 
L 500.182956 183.968014 
L 500.182956 183.968014 
L 496.605429 183.968014 
z
" clip-path="url(#p9bbdd190d3)" style="fill: #d95319; opacity: 0.8"/>
   </g>
   <g id="patch_35">
    <path d="M 500.182956 183.968014 
L 503.760484 183.968014 
L 503.760484 172.347544 
L 500.182956 172.347544 
z
" clip-path="url(#p9bbdd190d3)" style="fill: #d95319; opacity: 0.8"/>
   </g>
   <g id="patch_36">
    <path d="M 503.760484 183.968014 
L 507.338012 183.968014 
L 507.338012 183.968014 
L 503.760484 183.968014 
z
" clip-path="url(#p9bbdd190d3)" style="fill: #d95319; opacity: 0.8"/>
   </g>
   <g id="patch_37">
    <path d="M 507.338012 183.968014 
L 510.915539 183.968014 
L 510.915539 160.727074 
L 507.338012 160.727074 
z
" clip-path="url(#p9bbdd190d3)" style="fill: #d95319; opacity: 0.8"/>
   </g>
   <g id="patch_38">
    <path d="M 510.915539 183.968014 
L 514.493067 183.968014 
L 514.493067 114.245196 
L 510.915539 114.245196 
z
" clip-path="url(#p9bbdd190d3)" style="fill: #d95319; opacity: 0.8"/>
   </g>
   <g id="patch_39">
    <path d="M 514.493067 183.968014 
L 518.070594 183.968014 
L 518.070594 56.142847 
L 514.493067 56.142847 
z
" clip-path="url(#p9bbdd190d3)" style="fill: #d95319; opacity: 0.8"/>
   </g>
   <g id="patch_40">
    <path d="M 518.070594 183.968014 
L 521.648122 183.968014 
L 521.648122 67.763317 
L 518.070594 67.763317 
z
" clip-path="url(#p9bbdd190d3)" style="fill: #d95319; opacity: 0.8"/>
   </g>
   <g id="patch_41">
    <path d="M 521.648122 183.968014 
L 525.22565 183.968014 
L 525.22565 160.727074 
L 521.648122 160.727074 
z
" clip-path="url(#p9bbdd190d3)" style="fill: #d95319; opacity: 0.8"/>
   </g>
   <g id="patch_42">
    <path d="M 525.22565 183.968014 
L 528.803177 183.968014 
L 528.803177 149.106605 
L 525.22565 149.106605 
z
" clip-path="url(#p9bbdd190d3)" style="fill: #d95319; opacity: 0.8"/>
   </g>
   <g id="patch_43">
    <path d="M 528.803177 183.968014 
L 532.380705 183.968014 
L 532.380705 172.347544 
L 528.803177 172.347544 
z
" clip-path="url(#p9bbdd190d3)" style="fill: #d95319; opacity: 0.8"/>
   </g>
   <g id="patch_44">
    <path d="M 532.380705 183.968014 
L 535.958232 183.968014 
L 535.958232 183.968014 
L 532.380705 183.968014 
z
" clip-path="url(#p9bbdd190d3)" style="fill: #d95319; opacity: 0.8"/>
   </g>
   <g id="patch_45">
    <path d="M 535.958232 183.968014 
L 539.53576 183.968014 
L 539.53576 183.968014 
L 535.958232 183.968014 
z
" clip-path="url(#p9bbdd190d3)" style="fill: #d95319; opacity: 0.8"/>
   </g>
   <g id="patch_46">
    <path d="M 539.53576 183.968014 
L 543.113288 183.968014 
L 543.113288 183.968014 
L 539.53576 183.968014 
z
" clip-path="url(#p9bbdd190d3)" style="fill: #d95319; opacity: 0.8"/>
   </g>
   <g id="patch_47">
    <path d="M 543.113288 183.968014 
L 546.690815 183.968014 
L 546.690815 183.968014 
L 543.113288 183.968014 
z
" clip-path="url(#p9bbdd190d3)" style="fill: #d95319; opacity: 0.8"/>
   </g>
   <g id="patch_48">
    <path d="M 546.690815 183.968014 
L 550.268343 183.968014 
L 550.268343 183.968014 
L 546.690815 183.968014 
z
" clip-path="url(#p9bbdd190d3)" style="fill: #d95319; opacity: 0.8"/>
   </g>
   <g id="patch_49">
    <path d="M 410.744766 183.968014 
L 414.322294 183.968014 
L 414.322294 183.968014 
L 410.744766 183.968014 
z
" clip-path="url(#p9bbdd190d3)" style="fill: #edb120; opacity: 0.8"/>
   </g>
   <g id="patch_50">
    <path d="M 414.322294 183.968014 
L 417.899822 183.968014 
L 417.899822 183.968014 
L 414.322294 183.968014 
z
" clip-path="url(#p9bbdd190d3)" style="fill: #edb120; opacity: 0.8"/>
   </g>
   <g id="patch_51">
    <path d="M 417.899822 183.968014 
L 421.477349 183.968014 
L 421.477349 183.968014 
L 417.899822 183.968014 
z
" clip-path="url(#p9bbdd190d3)" style="fill: #edb120; opacity: 0.8"/>
   </g>
   <g id="patch_52">
    <path d="M 421.477349 183.968014 
L 425.054877 183.968014 
L 425.054877 183.968014 
L 421.477349 183.968014 
z
" clip-path="url(#p9bbdd190d3)" style="fill: #edb120; opacity: 0.8"/>
   </g>
   <g id="patch_53">
    <path d="M 425.054877 183.968014 
L 428.632404 183.968014 
L 428.632404 183.968014 
L 425.054877 183.968014 
z
" clip-path="url(#p9bbdd190d3)" style="fill: #edb120; opacity: 0.8"/>
   </g>
   <g id="patch_54">
    <path d="M 428.632404 183.968014 
L 432.209932 183.968014 
L 432.209932 183.968014 
L 428.632404 183.968014 
z
" clip-path="url(#p9bbdd190d3)" style="fill: #edb120; opacity: 0.8"/>
   </g>
   <g id="patch_55">
    <path d="M 432.209932 183.968014 
L 435.78746 183.968014 
L 435.78746 183.968014 
L 432.209932 183.968014 
z
" clip-path="url(#p9bbdd190d3)" style="fill: #edb120; opacity: 0.8"/>
   </g>
   <g id="patch_56">
    <path d="M 435.78746 183.968014 
L 439.364987 183.968014 
L 439.364987 183.968014 
L 435.78746 183.968014 
z
" clip-path="url(#p9bbdd190d3)" style="fill: #edb120; opacity: 0.8"/>
   </g>
   <g id="patch_57">
    <path d="M 439.364987 183.968014 
L 442.942515 183.968014 
L 442.942515 183.968014 
L 439.364987 183.968014 
z
" clip-path="url(#p9bbdd190d3)" style="fill: #edb120; opacity: 0.8"/>
   </g>
   <g id="patch_58">
    <path d="M 442.942515 183.968014 
L 446.520042 183.968014 
L 446.520042 183.968014 
L 442.942515 183.968014 
z
" clip-path="url(#p9bbdd190d3)" style="fill: #edb120; opacity: 0.8"/>
   </g>
   <g id="patch_59">
    <path d="M 446.520042 183.968014 
L 450.09757 183.968014 
L 450.09757 183.968014 
L 446.520042 183.968014 
z
" clip-path="url(#p9bbdd190d3)" style="fill: #edb120; opacity: 0.8"/>
   </g>
   <g id="patch_60">
    <path d="M 450.09757 183.968014 
L 453.675098 183.968014 
L 453.675098 183.968014 
L 450.09757 183.968014 
z
" clip-path="url(#p9bbdd190d3)" style="fill: #edb120; opacity: 0.8"/>
   </g>
   <g id="patch_61">
    <path d="M 453.675098 183.968014 
L 457.252625 183.968014 
L 457.252625 183.968014 
L 453.675098 183.968014 
z
" clip-path="url(#p9bbdd190d3)" style="fill: #edb120; opacity: 0.8"/>
   </g>
   <g id="patch_62">
    <path d="M 457.252625 183.968014 
L 460.830153 183.968014 
L 460.830153 183.968014 
L 457.252625 183.968014 
z
" clip-path="url(#p9bbdd190d3)" style="fill: #edb120; opacity: 0.8"/>
   </g>
   <g id="patch_63">
    <path d="M 460.830153 183.968014 
L 464.40768 183.968014 
L 464.40768 183.968014 
L 460.830153 183.968014 
z
" clip-path="url(#p9bbdd190d3)" style="fill: #edb120; opacity: 0.8"/>
   </g>
   <g id="patch_64">
    <path d="M 464.40768 183.968014 
L 467.985208 183.968014 
L 467.985208 183.968014 
L 464.40768 183.968014 
z
" clip-path="url(#p9bbdd190d3)" style="fill: #edb120; opacity: 0.8"/>
   </g>
   <g id="patch_65">
    <path d="M 467.985208 183.968014 
L 471.562736 183.968014 
L 471.562736 183.968014 
L 467.985208 183.968014 
z
" clip-path="url(#p9bbdd190d3)" style="fill: #edb120; opacity: 0.8"/>
   </g>
   <g id="patch_66">
    <path d="M 471.562736 183.968014 
L 475.140263 183.968014 
L 475.140263 183.968014 
L 471.562736 183.968014 
z
" clip-path="url(#p9bbdd190d3)" style="fill: #edb120; opacity: 0.8"/>
   </g>
   <g id="patch_67">
    <path d="M 475.140263 183.968014 
L 478.717791 183.968014 
L 478.717791 183.968014 
L 475.140263 183.968014 
z
" clip-path="url(#p9bbdd190d3)" style="fill: #edb120; opacity: 0.8"/>
   </g>
   <g id="patch_68">
    <path d="M 478.717791 183.968014 
L 482.295318 183.968014 
L 482.295318 183.968014 
L 478.717791 183.968014 
z
" clip-path="url(#p9bbdd190d3)" style="fill: #edb120; opacity: 0.8"/>
   </g>
   <g id="patch_69">
    <path d="M 482.295318 183.968014 
L 485.872846 183.968014 
L 485.872846 183.968014 
L 482.295318 183.968014 
z
" clip-path="url(#p9bbdd190d3)" style="fill: #edb120; opacity: 0.8"/>
   </g>
   <g id="patch_70">
    <path d="M 485.872846 183.968014 
L 489.450374 183.968014 
L 489.450374 183.968014 
L 485.872846 183.968014 
z
" clip-path="url(#p9bbdd190d3)" style="fill: #edb120; opacity: 0.8"/>
   </g>
   <g id="patch_71">
    <path d="M 489.450374 183.968014 
L 493.027901 183.968014 
L 493.027901 183.968014 
L 489.450374 183.968014 
z
" clip-path="url(#p9bbdd190d3)" style="fill: #edb120; opacity: 0.8"/>
   </g>
   <g id="patch_72">
    <path d="M 493.027901 183.968014 
L 496.605429 183.968014 
L 496.605429 183.968014 
L 493.027901 183.968014 
z
" clip-path="url(#p9bbdd190d3)" style="fill: #edb120; opacity: 0.8"/>
   </g>
   <g id="patch_73">
    <path d="M 496.605429 183.968014 
L 500.182956 183.968014 
L 500.182956 183.968014 
L 496.605429 183.968014 
z
" clip-path="url(#p9bbdd190d3)" style="fill: #edb120; opacity: 0.8"/>
   </g>
   <g id="patch_74">
    <path d="M 500.182956 183.968014 
L 503.760484 183.968014 
L 503.760484 172.347544 
L 500.182956 172.347544 
z
" clip-path="url(#p9bbdd190d3)" style="fill: #edb120; opacity: 0.8"/>
   </g>
   <g id="patch_75">
    <path d="M 503.760484 183.968014 
L 507.338012 183.968014 
L 507.338012 183.968014 
L 503.760484 183.968014 
z
" clip-path="url(#p9bbdd190d3)" style="fill: #edb120; opacity: 0.8"/>
   </g>
   <g id="patch_76">
    <path d="M 507.338012 183.968014 
L 510.915539 183.968014 
L 510.915539 183.968014 
L 507.338012 183.968014 
z
" clip-path="url(#p9bbdd190d3)" style="fill: #edb120; opacity: 0.8"/>
   </g>
   <g id="patch_77">
    <path d="M 510.915539 183.968014 
L 514.493067 183.968014 
L 514.493067 183.968014 
L 510.915539 183.968014 
z
" clip-path="url(#p9bbdd190d3)" style="fill: #edb120; opacity: 0.8"/>
   </g>
   <g id="patch_78">
    <path d="M 514.493067 183.968014 
L 518.070594 183.968014 
L 518.070594 172.347544 
L 514.493067 172.347544 
z
" clip-path="url(#p9bbdd190d3)" style="fill: #edb120; opacity: 0.8"/>
   </g>
   <g id="patch_79">
    <path d="M 518.070594 183.968014 
L 521.648122 183.968014 
L 521.648122 91.004256 
L 518.070594 91.004256 
z
" clip-path="url(#p9bbdd190d3)" style="fill: #edb120; opacity: 0.8"/>
   </g>
   <g id="patch_80">
    <path d="M 521.648122 183.968014 
L 525.22565 183.968014 
L 525.22565 79.383787 
L 521.648122 79.383787 
z
" clip-path="url(#p9bbdd190d3)" style="fill: #edb120; opacity: 0.8"/>
   </g>
   <g id="patch_81">
    <path d="M 525.22565 183.968014 
L 528.803177 183.968014 
L 528.803177 44.522378 
L 525.22565 44.522378 
z
" clip-path="url(#p9bbdd190d3)" style="fill: #edb120; opacity: 0.8"/>
   </g>
   <g id="patch_82">
    <path d="M 528.803177 183.968014 
L 532.380705 183.968014 
L 532.380705 160.727074 
L 528.803177 160.727074 
z
" clip-path="url(#p9bbdd190d3)" style="fill: #edb120; opacity: 0.8"/>
   </g>
   <g id="patch_83">
    <path d="M 532.380705 183.968014 
L 535.958232 183.968014 
L 535.958232 172.347544 
L 532.380705 172.347544 
z
" clip-path="url(#p9bbdd190d3)" style="fill: #edb120; opacity: 0.8"/>
   </g>
   <g id="patch_84">
    <path d="M 535.958232 183.968014 
L 539.53576 183.968014 
L 539.53576 160.727074 
L 535.958232 160.727074 
z
" clip-path="url(#p9bbdd190d3)" style="fill: #edb120; opacity: 0.8"/>
   </g>
   <g id="patch_85">
    <path d="M 539.53576 183.968014 
L 543.113288 183.968014 
L 543.113288 183.968014 
L 539.53576 183.968014 
z
" clip-path="url(#p9bbdd190d3)" style="fill: #edb120; opacity: 0.8"/>
   </g>
   <g id="patch_86">
    <path d="M 543.113288 183.968014 
L 546.690815 183.968014 
L 546.690815 183.968014 
L 543.113288 183.968014 
z
" clip-path="url(#p9bbdd190d3)" style="fill: #edb120; opacity: 0.8"/>
   </g>
   <g id="patch_87">
    <path d="M 546.690815 183.968014 
L 550.268343 183.968014 
L 550.268343 183.968014 
L 546.690815 183.968014 
z
" clip-path="url(#p9bbdd190d3)" style="fill: #edb120; opacity: 0.8"/>
   </g>
   <g id="patch_88">
    <path d="M 410.744766 183.968014 
L 414.322294 183.968014 
L 414.322294 183.968014 
L 410.744766 183.968014 
z
" clip-path="url(#p9bbdd190d3)" style="fill: #7e2f8e; opacity: 0.8"/>
   </g>
   <g id="patch_89">
    <path d="M 414.322294 183.968014 
L 417.899822 183.968014 
L 417.899822 183.968014 
L 414.322294 183.968014 
z
" clip-path="url(#p9bbdd190d3)" style="fill: #7e2f8e; opacity: 0.8"/>
   </g>
   <g id="patch_90">
    <path d="M 417.899822 183.968014 
L 421.477349 183.968014 
L 421.477349 183.968014 
L 417.899822 183.968014 
z
" clip-path="url(#p9bbdd190d3)" style="fill: #7e2f8e; opacity: 0.8"/>
   </g>
   <g id="patch_91">
    <path d="M 421.477349 183.968014 
L 425.054877 183.968014 
L 425.054877 183.968014 
L 421.477349 183.968014 
z
" clip-path="url(#p9bbdd190d3)" style="fill: #7e2f8e; opacity: 0.8"/>
   </g>
   <g id="patch_92">
    <path d="M 425.054877 183.968014 
L 428.632404 183.968014 
L 428.632404 183.968014 
L 425.054877 183.968014 
z
" clip-path="url(#p9bbdd190d3)" style="fill: #7e2f8e; opacity: 0.8"/>
   </g>
   <g id="patch_93">
    <path d="M 428.632404 183.968014 
L 432.209932 183.968014 
L 432.209932 183.968014 
L 428.632404 183.968014 
z
" clip-path="url(#p9bbdd190d3)" style="fill: #7e2f8e; opacity: 0.8"/>
   </g>
   <g id="patch_94">
    <path d="M 432.209932 183.968014 
L 435.78746 183.968014 
L 435.78746 172.347544 
L 432.209932 172.347544 
z
" clip-path="url(#p9bbdd190d3)" style="fill: #7e2f8e; opacity: 0.8"/>
   </g>
   <g id="patch_95">
    <path d="M 435.78746 183.968014 
L 439.364987 183.968014 
L 439.364987 183.968014 
L 435.78746 183.968014 
z
" clip-path="url(#p9bbdd190d3)" style="fill: #7e2f8e; opacity: 0.8"/>
   </g>
   <g id="patch_96">
    <path d="M 439.364987 183.968014 
L 442.942515 183.968014 
L 442.942515 183.968014 
L 439.364987 183.968014 
z
" clip-path="url(#p9bbdd190d3)" style="fill: #7e2f8e; opacity: 0.8"/>
   </g>
   <g id="patch_97">
    <path d="M 442.942515 183.968014 
L 446.520042 183.968014 
L 446.520042 183.968014 
L 442.942515 183.968014 
z
" clip-path="url(#p9bbdd190d3)" style="fill: #7e2f8e; opacity: 0.8"/>
   </g>
   <g id="patch_98">
    <path d="M 446.520042 183.968014 
L 450.09757 183.968014 
L 450.09757 183.968014 
L 446.520042 183.968014 
z
" clip-path="url(#p9bbdd190d3)" style="fill: #7e2f8e; opacity: 0.8"/>
   </g>
   <g id="patch_99">
    <path d="M 450.09757 183.968014 
L 453.675098 183.968014 
L 453.675098 183.968014 
L 450.09757 183.968014 
z
" clip-path="url(#p9bbdd190d3)" style="fill: #7e2f8e; opacity: 0.8"/>
   </g>
   <g id="patch_100">
    <path d="M 453.675098 183.968014 
L 457.252625 183.968014 
L 457.252625 183.968014 
L 453.675098 183.968014 
z
" clip-path="url(#p9bbdd190d3)" style="fill: #7e2f8e; opacity: 0.8"/>
   </g>
   <g id="patch_101">
    <path d="M 457.252625 183.968014 
L 460.830153 183.968014 
L 460.830153 183.968014 
L 457.252625 183.968014 
z
" clip-path="url(#p9bbdd190d3)" style="fill: #7e2f8e; opacity: 0.8"/>
   </g>
   <g id="patch_102">
    <path d="M 460.830153 183.968014 
L 464.40768 183.968014 
L 464.40768 125.865665 
L 460.830153 125.865665 
z
" clip-path="url(#p9bbdd190d3)" style="fill: #7e2f8e; opacity: 0.8"/>
   </g>
   <g id="patch_103">
    <path d="M 464.40768 183.968014 
L 467.985208 183.968014 
L 467.985208 137.486135 
L 464.40768 137.486135 
z
" clip-path="url(#p9bbdd190d3)" style="fill: #7e2f8e; opacity: 0.8"/>
   </g>
   <g id="patch_104">
    <path d="M 467.985208 183.968014 
L 471.562736 183.968014 
L 471.562736 67.763317 
L 467.985208 67.763317 
z
" clip-path="url(#p9bbdd190d3)" style="fill: #7e2f8e; opacity: 0.8"/>
   </g>
   <g id="patch_105">
    <path d="M 471.562736 183.968014 
L 475.140263 183.968014 
L 475.140263 79.383787 
L 471.562736 79.383787 
z
" clip-path="url(#p9bbdd190d3)" style="fill: #7e2f8e; opacity: 0.8"/>
   </g>
   <g id="patch_106">
    <path d="M 475.140263 183.968014 
L 478.717791 183.968014 
L 478.717791 149.106605 
L 475.140263 149.106605 
z
" clip-path="url(#p9bbdd190d3)" style="fill: #7e2f8e; opacity: 0.8"/>
   </g>
   <g id="patch_107">
    <path d="M 478.717791 183.968014 
L 482.295318 183.968014 
L 482.295318 149.106605 
L 478.717791 149.106605 
z
" clip-path="url(#p9bbdd190d3)" style="fill: #7e2f8e; opacity: 0.8"/>
   </g>
   <g id="patch_108">
    <path d="M 482.295318 183.968014 
L 485.872846 183.968014 
L 485.872846 172.347544 
L 482.295318 172.347544 
z
" clip-path="url(#p9bbdd190d3)" style="fill: #7e2f8e; opacity: 0.8"/>
   </g>
   <g id="patch_109">
    <path d="M 485.872846 183.968014 
L 489.450374 183.968014 
L 489.450374 183.968014 
L 485.872846 183.968014 
z
" clip-path="url(#p9bbdd190d3)" style="fill: #7e2f8e; opacity: 0.8"/>
   </g>
   <g id="patch_110">
    <path d="M 489.450374 183.968014 
L 493.027901 183.968014 
L 493.027901 183.968014 
L 489.450374 183.968014 
z
" clip-path="url(#p9bbdd190d3)" style="fill: #7e2f8e; opacity: 0.8"/>
   </g>
   <g id="patch_111">
    <path d="M 493.027901 183.968014 
L 496.605429 183.968014 
L 496.605429 183.968014 
L 493.027901 183.968014 
z
" clip-path="url(#p9bbdd190d3)" style="fill: #7e2f8e; opacity: 0.8"/>
   </g>
   <g id="patch_112">
    <path d="M 496.605429 183.968014 
L 500.182956 183.968014 
L 500.182956 183.968014 
L 496.605429 183.968014 
z
" clip-path="url(#p9bbdd190d3)" style="fill: #7e2f8e; opacity: 0.8"/>
   </g>
   <g id="patch_113">
    <path d="M 500.182956 183.968014 
L 503.760484 183.968014 
L 503.760484 183.968014 
L 500.182956 183.968014 
z
" clip-path="url(#p9bbdd190d3)" style="fill: #7e2f8e; opacity: 0.8"/>
   </g>
   <g id="patch_114">
    <path d="M 503.760484 183.968014 
L 507.338012 183.968014 
L 507.338012 183.968014 
L 503.760484 183.968014 
z
" clip-path="url(#p9bbdd190d3)" style="fill: #7e2f8e; opacity: 0.8"/>
   </g>
   <g id="patch_115">
    <path d="M 507.338012 183.968014 
L 510.915539 183.968014 
L 510.915539 183.968014 
L 507.338012 183.968014 
z
" clip-path="url(#p9bbdd190d3)" style="fill: #7e2f8e; opacity: 0.8"/>
   </g>
   <g id="patch_116">
    <path d="M 510.915539 183.968014 
L 514.493067 183.968014 
L 514.493067 183.968014 
L 510.915539 183.968014 
z
" clip-path="url(#p9bbdd190d3)" style="fill: #7e2f8e; opacity: 0.8"/>
   </g>
   <g id="patch_117">
    <path d="M 514.493067 183.968014 
L 518.070594 183.968014 
L 518.070594 183.968014 
L 514.493067 183.968014 
z
" clip-path="url(#p9bbdd190d3)" style="fill: #7e2f8e; opacity: 0.8"/>
   </g>
   <g id="patch_118">
    <path d="M 518.070594 183.968014 
L 521.648122 183.968014 
L 521.648122 183.968014 
L 518.070594 183.968014 
z
" clip-path="url(#p9bbdd190d3)" style="fill: #7e2f8e; opacity: 0.8"/>
   </g>
   <g id="patch_119">
    <path d="M 521.648122 183.968014 
L 525.22565 183.968014 
L 525.22565 183.968014 
L 521.648122 183.968014 
z
" clip-path="url(#p9bbdd190d3)" style="fill: #7e2f8e; opacity: 0.8"/>
   </g>
   <g id="patch_120">
    <path d="M 525.22565 183.968014 
L 528.803177 183.968014 
L 528.803177 183.968014 
L 525.22565 183.968014 
z
" clip-path="url(#p9bbdd190d3)" style="fill: #7e2f8e; opacity: 0.8"/>
   </g>
   <g id="patch_121">
    <path d="M 528.803177 183.968014 
L 532.380705 183.968014 
L 532.380705 183.968014 
L 528.803177 183.968014 
z
" clip-path="url(#p9bbdd190d3)" style="fill: #7e2f8e; opacity: 0.8"/>
   </g>
   <g id="patch_122">
    <path d="M 532.380705 183.968014 
L 535.958232 183.968014 
L 535.958232 183.968014 
L 532.380705 183.968014 
z
" clip-path="url(#p9bbdd190d3)" style="fill: #7e2f8e; opacity: 0.8"/>
   </g>
   <g id="patch_123">
    <path d="M 535.958232 183.968014 
L 539.53576 183.968014 
L 539.53576 183.968014 
L 535.958232 183.968014 
z
" clip-path="url(#p9bbdd190d3)" style="fill: #7e2f8e; opacity: 0.8"/>
   </g>
   <g id="patch_124">
    <path d="M 539.53576 183.968014 
L 543.113288 183.968014 
L 543.113288 183.968014 
L 539.53576 183.968014 
z
" clip-path="url(#p9bbdd190d3)" style="fill: #7e2f8e; opacity: 0.8"/>
   </g>
   <g id="patch_125">
    <path d="M 543.113288 183.968014 
L 546.690815 183.968014 
L 546.690815 183.968014 
L 543.113288 183.968014 
z
" clip-path="url(#p9bbdd190d3)" style="fill: #7e2f8e; opacity: 0.8"/>
   </g>
   <g id="patch_126">
    <path d="M 546.690815 183.968014 
L 550.268343 183.968014 
L 550.268343 183.968014 
L 546.690815 183.968014 
z
" clip-path="url(#p9bbdd190d3)" style="fill: #7e2f8e; opacity: 0.8"/>
   </g>
   <g id="matplotlib.axis_3">
    <g id="xtick_3">
     <g id="line2d_23">
      <path d="M 410.744766 183.968014 
L 410.744766 37.550096 
" clip-path="url(#p9bbdd190d3)" style="fill: none; stroke: #b2b2b2; stroke-opacity: 0.7; stroke-width: 0.5; stroke-linecap: square"/>
     </g>
     <g id="line2d_24">
      <g>
       <use xlink:href="#maae0458d63" x="410.744766" y="183.968014" style="stroke: #000000; stroke-width: 0.8"/>
      </g>
     </g>
     <g id="text_15">
      <!-- −4 -->
      <g transform="translate(403.583012 194.850656) scale(0.09716 -0.09716)">
       <use xlink:href="#DejaVuSans-2212"/>
       <use xlink:href="#DejaVuSans-34" x="83.789062"/>
      </g>
     </g>
    </g>
    <g id="xtick_4">
     <g id="line2d_25">
      <path d="M 466.554197 183.968014 
L 466.554197 37.550096 
" clip-path="url(#p9bbdd190d3)" style="fill: none; stroke: #b2b2b2; stroke-opacity: 0.7; stroke-width: 0.5; stroke-linecap: square"/>
     </g>
     <g id="line2d_26">
      <g>
       <use xlink:href="#maae0458d63" x="466.554197" y="183.968014" style="stroke: #000000; stroke-width: 0.8"/>
      </g>
     </g>
     <g id="text_16">
      <!-- −2 -->
      <g transform="translate(459.392442 194.850656) scale(0.09716 -0.09716)">
       <use xlink:href="#DejaVuSans-2212"/>
       <use xlink:href="#DejaVuSans-32" x="83.789062"/>
      </g>
     </g>
    </g>
    <g id="xtick_5">
     <g id="line2d_27">
      <path d="M 522.363627 183.968014 
L 522.363627 37.550096 
" clip-path="url(#p9bbdd190d3)" style="fill: none; stroke: #b2b2b2; stroke-opacity: 0.7; stroke-width: 0.5; stroke-linecap: square"/>
     </g>
     <g id="line2d_28">
      <g>
       <use xlink:href="#maae0458d63" x="522.363627" y="183.968014" style="stroke: #000000; stroke-width: 0.8"/>
      </g>
     </g>
     <g id="text_17">
      <!-- 0 -->
      <g transform="translate(519.272725 194.850656) scale(0.09716 -0.09716)">
       <use xlink:href="#DejaVuSans-30"/>
      </g>
     </g>
    </g>
    <g id="text_18">
     <!-- Frac. f-scatter ($\times 10^5$) -->
     <g transform="translate(418.173165 210.574428) scale(0.11662 -0.11662)">
      <defs>
       <path id="DejaVuSans-66" d="M 2375 4863 
L 2375 4384 
L 1825 4384 
Q 1516 4384 1395 4259 
Q 1275 4134 1275 3809 
L 1275 3500 
L 2222 3500 
L 2222 3053 
L 1275 3053 
L 1275 0 
L 697 0 
L 697 3053 
L 147 3053 
L 147 3500 
L 697 3500 
L 697 3744 
Q 697 4328 969 4595 
Q 1241 4863 1831 4863 
L 2375 4863 
z
" transform="scale(0.015625)"/>
       <path id="DejaVuSans-2d" d="M 313 2009 
L 1997 2009 
L 1997 1497 
L 313 1497 
L 313 2009 
z
" transform="scale(0.015625)"/>
       <path id="DejaVuSans-d7" d="M 4488 3438 
L 3059 2003 
L 4488 575 
L 4116 197 
L 2681 1631 
L 1247 197 
L 878 575 
L 2303 2003 
L 878 3438 
L 1247 3816 
L 2681 2381 
L 4116 3816 
L 4488 3438 
z
" transform="scale(0.015625)"/>
      </defs>
      <use xlink:href="#DejaVuSans-46" transform="translate(0 0.684375)"/>
      <use xlink:href="#DejaVuSans-72" transform="translate(57.519531 0.684375)"/>
      <use xlink:href="#DejaVuSans-61" transform="translate(98.632812 0.684375)"/>
      <use xlink:href="#DejaVuSans-63" transform="translate(159.912109 0.684375)"/>
      <use xlink:href="#DejaVuSans-2e" transform="translate(214.892578 0.684375)"/>
      <use xlink:href="#DejaVuSans-20" transform="translate(246.679688 0.684375)"/>
      <use xlink:href="#DejaVuSans-66" transform="translate(278.466797 0.684375)"/>
      <use xlink:href="#DejaVuSans-2d" transform="translate(313.671875 0.684375)"/>
      <use xlink:href="#DejaVuSans-73" transform="translate(349.755859 0.684375)"/>
      <use xlink:href="#DejaVuSans-63" transform="translate(401.855469 0.684375)"/>
      <use xlink:href="#DejaVuSans-61" transform="translate(456.835938 0.684375)"/>
      <use xlink:href="#DejaVuSans-74" transform="translate(518.115234 0.684375)"/>
      <use xlink:href="#DejaVuSans-74" transform="translate(557.324219 0.684375)"/>
      <use xlink:href="#DejaVuSans-65" transform="translate(596.533203 0.684375)"/>
      <use xlink:href="#DejaVuSans-72" transform="translate(658.056641 0.684375)"/>
      <use xlink:href="#DejaVuSans-20" transform="translate(699.169922 0.684375)"/>
      <use xlink:href="#DejaVuSans-28" transform="translate(730.957031 0.684375)"/>
      <use xlink:href="#DejaVuSans-d7" transform="translate(769.970703 0.684375)"/>
      <use xlink:href="#DejaVuSans-31" transform="translate(853.759766 0.684375)"/>
      <use xlink:href="#DejaVuSans-30" transform="translate(917.382812 0.684375)"/>
      <use xlink:href="#DejaVuSans-35" transform="translate(981.962891 38.965625) scale(0.7)"/>
      <use xlink:href="#DejaVuSans-29" transform="translate(1029.233398 0.684375)"/>
     </g>
    </g>
   </g>
   <g id="matplotlib.axis_4">
    <g id="ytick_6">
     <g id="line2d_29">
      <path d="M 403.768588 183.968014 
L 557.244522 183.968014 
" clip-path="url(#p9bbdd190d3)" style="fill: none; stroke: #b2b2b2; stroke-opacity: 0.7; stroke-width: 0.5; stroke-linecap: square"/>
     </g>
     <g id="line2d_30">
      <g>
       <use xlink:href="#mc7eb35d362" x="403.768588" y="183.968014" style="stroke: #000000; stroke-width: 0.8"/>
      </g>
     </g>
     <g id="text_19">
      <!-- 0 -->
      <g transform="translate(394.086783 187.659335) scale(0.09716 -0.09716)">
       <use xlink:href="#DejaVuSans-30"/>
      </g>
     </g>
    </g>
    <g id="ytick_7">
     <g id="line2d_31">
      <path d="M 403.768588 160.727074 
L 557.244522 160.727074 
" clip-path="url(#p9bbdd190d3)" style="fill: none; stroke: #b2b2b2; stroke-opacity: 0.7; stroke-width: 0.5; stroke-linecap: square"/>
     </g>
     <g id="line2d_32">
      <g>
       <use xlink:href="#mc7eb35d362" x="403.768588" y="160.727074" style="stroke: #000000; stroke-width: 0.8"/>
      </g>
     </g>
     <g id="text_20">
      <!-- 2 -->
      <g transform="translate(394.086783 164.418395) scale(0.09716 -0.09716)">
       <use xlink:href="#DejaVuSans-32"/>
      </g>
     </g>
    </g>
    <g id="ytick_8">
     <g id="line2d_33">
      <path d="M 403.768588 137.486135 
L 557.244522 137.486135 
" clip-path="url(#p9bbdd190d3)" style="fill: none; stroke: #b2b2b2; stroke-opacity: 0.7; stroke-width: 0.5; stroke-linecap: square"/>
     </g>
     <g id="line2d_34">
      <g>
       <use xlink:href="#mc7eb35d362" x="403.768588" y="137.486135" style="stroke: #000000; stroke-width: 0.8"/>
      </g>
     </g>
     <g id="text_21">
      <!-- 4 -->
      <g transform="translate(394.086783 141.177456) scale(0.09716 -0.09716)">
       <use xlink:href="#DejaVuSans-34"/>
      </g>
     </g>
    </g>
    <g id="ytick_9">
     <g id="line2d_35">
      <path d="M 403.768588 114.245196 
L 557.244522 114.245196 
" clip-path="url(#p9bbdd190d3)" style="fill: none; stroke: #b2b2b2; stroke-opacity: 0.7; stroke-width: 0.5; stroke-linecap: square"/>
     </g>
     <g id="line2d_36">
      <g>
       <use xlink:href="#mc7eb35d362" x="403.768588" y="114.245196" style="stroke: #000000; stroke-width: 0.8"/>
      </g>
     </g>
     <g id="text_22">
      <!-- 6 -->
      <g transform="translate(394.086783 117.936517) scale(0.09716 -0.09716)">
       <defs>
        <path id="DejaVuSans-36" d="M 2113 2584 
Q 1688 2584 1439 2293 
Q 1191 2003 1191 1497 
Q 1191 994 1439 701 
Q 1688 409 2113 409 
Q 2538 409 2786 701 
Q 3034 994 3034 1497 
Q 3034 2003 2786 2293 
Q 2538 2584 2113 2584 
z
M 3366 4563 
L 3366 3988 
Q 3128 4100 2886 4159 
Q 2644 4219 2406 4219 
Q 1781 4219 1451 3797 
Q 1122 3375 1075 2522 
Q 1259 2794 1537 2939 
Q 1816 3084 2150 3084 
Q 2853 3084 3261 2657 
Q 3669 2231 3669 1497 
Q 3669 778 3244 343 
Q 2819 -91 2113 -91 
Q 1303 -91 875 529 
Q 447 1150 447 2328 
Q 447 3434 972 4092 
Q 1497 4750 2381 4750 
Q 2619 4750 2861 4703 
Q 3103 4656 3366 4563 
z
" transform="scale(0.015625)"/>
       </defs>
       <use xlink:href="#DejaVuSans-36"/>
      </g>
     </g>
    </g>
    <g id="ytick_10">
     <g id="line2d_37">
      <path d="M 403.768588 91.004256 
L 557.244522 91.004256 
" clip-path="url(#p9bbdd190d3)" style="fill: none; stroke: #b2b2b2; stroke-opacity: 0.7; stroke-width: 0.5; stroke-linecap: square"/>
     </g>
     <g id="line2d_38">
      <g>
       <use xlink:href="#mc7eb35d362" x="403.768588" y="91.004256" style="stroke: #000000; stroke-width: 0.8"/>
      </g>
     </g>
     <g id="text_23">
      <!-- 8 -->
      <g transform="translate(394.086783 94.695577) scale(0.09716 -0.09716)">
       <defs>
        <path id="DejaVuSans-38" d="M 2034 2216 
Q 1584 2216 1326 1975 
Q 1069 1734 1069 1313 
Q 1069 891 1326 650 
Q 1584 409 2034 409 
Q 2484 409 2743 651 
Q 3003 894 3003 1313 
Q 3003 1734 2745 1975 
Q 2488 2216 2034 2216 
z
M 1403 2484 
Q 997 2584 770 2862 
Q 544 3141 544 3541 
Q 544 4100 942 4425 
Q 1341 4750 2034 4750 
Q 2731 4750 3128 4425 
Q 3525 4100 3525 3541 
Q 3525 3141 3298 2862 
Q 3072 2584 2669 2484 
Q 3125 2378 3379 2068 
Q 3634 1759 3634 1313 
Q 3634 634 3220 271 
Q 2806 -91 2034 -91 
Q 1263 -91 848 271 
Q 434 634 434 1313 
Q 434 1759 690 2068 
Q 947 2378 1403 2484 
z
M 1172 3481 
Q 1172 3119 1398 2916 
Q 1625 2713 2034 2713 
Q 2441 2713 2670 2916 
Q 2900 3119 2900 3481 
Q 2900 3844 2670 4047 
Q 2441 4250 2034 4250 
Q 1625 4250 1398 4047 
Q 1172 3844 1172 3481 
z
" transform="scale(0.015625)"/>
       </defs>
       <use xlink:href="#DejaVuSans-38"/>
      </g>
     </g>
    </g>
    <g id="ytick_11">
     <g id="line2d_39">
      <path d="M 403.768588 67.763317 
L 557.244522 67.763317 
" clip-path="url(#p9bbdd190d3)" style="fill: none; stroke: #b2b2b2; stroke-opacity: 0.7; stroke-width: 0.5; stroke-linecap: square"/>
     </g>
     <g id="line2d_40">
      <g>
       <use xlink:href="#mc7eb35d362" x="403.768588" y="67.763317" style="stroke: #000000; stroke-width: 0.8"/>
      </g>
     </g>
     <g id="text_24">
      <!-- 10 -->
      <g transform="translate(387.904978 71.454638) scale(0.09716 -0.09716)">
       <use xlink:href="#DejaVuSans-31"/>
       <use xlink:href="#DejaVuSans-30" x="63.623047"/>
      </g>
     </g>
    </g>
    <g id="ytick_12">
     <g id="line2d_41">
      <path d="M 403.768588 44.522378 
L 557.244522 44.522378 
" clip-path="url(#p9bbdd190d3)" style="fill: none; stroke: #b2b2b2; stroke-opacity: 0.7; stroke-width: 0.5; stroke-linecap: square"/>
     </g>
     <g id="line2d_42">
      <g>
       <use xlink:href="#mc7eb35d362" x="403.768588" y="44.522378" style="stroke: #000000; stroke-width: 0.8"/>
      </g>
     </g>
     <g id="text_25">
      <!-- 12 -->
      <g transform="translate(387.904978 48.213699) scale(0.09716 -0.09716)">
       <use xlink:href="#DejaVuSans-31"/>
       <use xlink:href="#DejaVuSans-32" x="63.623047"/>
      </g>
     </g>
    </g>
    <g id="text_26">
     <!-- Counts -->
     <g transform="translate(381.479646 131.112889) rotate(-90) scale(0.11662 -0.11662)">
      <defs>
       <path id="DejaVuSans-43" d="M 4122 4306 
L 4122 3641 
Q 3803 3938 3442 4084 
Q 3081 4231 2675 4231 
Q 1875 4231 1450 3742 
Q 1025 3253 1025 2328 
Q 1025 1406 1450 917 
Q 1875 428 2675 428 
Q 3081 428 3442 575 
Q 3803 722 4122 1019 
L 4122 359 
Q 3791 134 3420 21 
Q 3050 -91 2638 -91 
Q 1578 -91 968 557 
Q 359 1206 359 2328 
Q 359 3453 968 4101 
Q 1578 4750 2638 4750 
Q 3056 4750 3426 4639 
Q 3797 4528 4122 4306 
z
" transform="scale(0.015625)"/>
      </defs>
      <use xlink:href="#DejaVuSans-43"/>
      <use xlink:href="#DejaVuSans-6f" x="69.824219"/>
      <use xlink:href="#DejaVuSans-75" x="131.005859"/>
      <use xlink:href="#DejaVuSans-6e" x="194.384766"/>
      <use xlink:href="#DejaVuSans-74" x="257.763672"/>
      <use xlink:href="#DejaVuSans-73" x="296.972656"/>
     </g>
    </g>
   </g>
   <g id="patch_127">
    <path d="M 403.768588 183.968014 
L 403.768588 37.550096 
" style="fill: none; stroke: #000000; stroke-width: 0.8; stroke-linejoin: miter; stroke-linecap: square"/>
   </g>
   <g id="patch_128">
    <path d="M 557.244522 183.968014 
L 557.244522 37.550096 
" style="fill: none; stroke: #000000; stroke-width: 0.8; stroke-linejoin: miter; stroke-linecap: square"/>
   </g>
   <g id="patch_129">
    <path d="M 403.768588 183.968014 
L 557.244522 183.968014 
" style="fill: none; stroke: #000000; stroke-width: 0.8; stroke-linejoin: miter; stroke-linecap: square"/>
   </g>
   <g id="patch_130">
    <path d="M 403.768588 37.550096 
L 557.244522 37.550096 
" style="fill: none; stroke: #000000; stroke-width: 0.8; stroke-linejoin: miter; stroke-linecap: square"/>
   </g>
   <g id="legend_2">
    <g id="patch_131">
     <path d="M 393.218965 30.701396 
L 571.794145 30.701396 
Q 573.415345 30.701396 573.415345 29.080196 
L 573.415345 6.09462 
Q 573.415345 4.47342 571.794145 4.47342 
L 393.218965 4.47342 
Q 391.597765 4.47342 391.597765 6.09462 
L 391.597765 29.080196 
Q 391.597765 30.701396 393.218965 30.701396 
z
" style="fill: #4d4d4d; opacity: 0.5; stroke: #4d4d4d; stroke-width: 0.5; stroke-linejoin: miter"/>
    </g>
    <g id="patch_132">
     <path d="M 391.218965 28.701396 
L 569.794145 28.701396 
Q 571.415345 28.701396 571.415345 27.080196 
L 571.415345 4.09462 
Q 571.415345 2.47342 569.794145 2.47342 
L 391.218965 2.47342 
Q 389.597765 2.47342 389.597765 4.09462 
L 389.597765 27.080196 
Q 389.597765 28.701396 391.218965 28.701396 
z
" style="fill: #ffffff; stroke: #cccccc; stroke-width: 0.5; stroke-linejoin: miter"/>
    </g>
    <g id="patch_133">
     <path d="M 392.840165 11.875114 
L 409.052165 11.875114 
L 409.052165 6.200914 
L 392.840165 6.200914 
z
" style="fill: #d95319; opacity: 0.8"/>
    </g>
    <g id="text_27">
     <!-- $\sigma=1.9\times 10^{-6}$ -->
     <g transform="translate(415.536965 11.875114) scale(0.08106 -0.08106)">
      <defs>
       <path id="DejaVuSans-3c3" d="M 1959 3044 
Q 1484 3044 1228 2700 
Q 959 2341 959 1747 
Q 959 1119 1226 758 
Q 1494 397 1959 397 
Q 2419 397 2687 759 
Q 2956 1122 2956 1747 
Q 2956 2319 2688 2700 
Q 2441 3044 1959 3044 
z
M 1959 3500 
L 3869 3500 
L 3869 2925 
L 3225 2925 
Q 3566 2438 3566 1747 
Q 3566 888 3138 400 
Q 2709 -91 1959 -91 
Q 1206 -91 781 400 
Q 353 888 353 1747 
Q 353 2613 781 3097 
Q 1134 3500 1959 3500 
z
" transform="scale(0.015625)"/>
       <path id="DejaVuSans-3d" d="M 678 2906 
L 4684 2906 
L 4684 2381 
L 678 2381 
L 678 2906 
z
M 678 1631 
L 4684 1631 
L 4684 1100 
L 678 1100 
L 678 1631 
z
" transform="scale(0.015625)"/>
       <path id="DejaVuSans-39" d="M 703 97 
L 703 672 
Q 941 559 1184 500 
Q 1428 441 1663 441 
Q 2288 441 2617 861 
Q 2947 1281 2994 2138 
Q 2813 1869 2534 1725 
Q 2256 1581 1919 1581 
Q 1219 1581 811 2004 
Q 403 2428 403 3163 
Q 403 3881 828 4315 
Q 1253 4750 1959 4750 
Q 2769 4750 3195 4129 
Q 3622 3509 3622 2328 
Q 3622 1225 3098 567 
Q 2575 -91 1691 -91 
Q 1453 -91 1209 -44 
Q 966 3 703 97 
z
M 1959 2075 
Q 2384 2075 2632 2365 
Q 2881 2656 2881 3163 
Q 2881 3666 2632 3958 
Q 2384 4250 1959 4250 
Q 1534 4250 1286 3958 
Q 1038 3666 1038 3163 
Q 1038 2656 1286 2365 
Q 1534 2075 1959 2075 
z
" transform="scale(0.015625)"/>
      </defs>
      <use xlink:href="#DejaVuSans-3c3" transform="translate(0 0.765625)"/>
      <use xlink:href="#DejaVuSans-3d" transform="translate(82.861328 0.765625)"/>
      <use xlink:href="#DejaVuSans-31" transform="translate(186.132812 0.765625)"/>
      <use xlink:href="#DejaVuSans-2e" transform="translate(249.755859 0.765625)"/>
      <use xlink:href="#DejaVuSans-39" transform="translate(281.542969 0.765625)"/>
      <use xlink:href="#DejaVuSans-d7" transform="translate(364.648438 0.765625)"/>
      <use xlink:href="#DejaVuSans-31" transform="translate(467.919922 0.765625)"/>
      <use xlink:href="#DejaVuSans-30" transform="translate(531.542969 0.765625)"/>
      <use xlink:href="#DejaVuSans-2212" transform="translate(596.123047 39.046875) scale(0.7)"/>
      <use xlink:href="#DejaVuSans-36" transform="translate(654.775391 39.046875) scale(0.7)"/>
     </g>
    </g>
    <g id="patch_134">
     <path d="M 392.840165 23.773202 
L 409.052165 23.773202 
L 409.052165 18.099002 
L 392.840165 18.099002 
z
" style="fill: #edb120; opacity: 0.8"/>
    </g>
    <g id="text_28">
     <!-- $\sigma=2.1\times 10^{-6}$ -->
     <g transform="translate(415.536965 23.773202) scale(0.08106 -0.08106)">
      <use xlink:href="#DejaVuSans-3c3" transform="translate(0 0.765625)"/>
      <use xlink:href="#DejaVuSans-3d" transform="translate(82.861328 0.765625)"/>
      <use xlink:href="#DejaVuSans-32" transform="translate(186.132812 0.765625)"/>
      <use xlink:href="#DejaVuSans-2e" transform="translate(249.755859 0.765625)"/>
      <use xlink:href="#DejaVuSans-31" transform="translate(281.542969 0.765625)"/>
      <use xlink:href="#DejaVuSans-d7" transform="translate(364.648438 0.765625)"/>
      <use xlink:href="#DejaVuSans-31" transform="translate(467.919922 0.765625)"/>
      <use xlink:href="#DejaVuSans-30" transform="translate(531.542969 0.765625)"/>
      <use xlink:href="#DejaVuSans-2212" transform="translate(596.123047 39.046875) scale(0.7)"/>
      <use xlink:href="#DejaVuSans-36" transform="translate(654.775391 39.046875) scale(0.7)"/>
     </g>
    </g>
    <g id="patch_135">
     <path d="M 488.734145 11.875114 
L 504.946145 11.875114 
L 504.946145 6.200914 
L 488.734145 6.200914 
z
" style="fill: #7e2f8e; opacity: 0.8"/>
    </g>
    <g id="text_29">
     <!-- $\sigma=2.8\times 10^{-6}$ -->
     <g transform="translate(511.430945 11.875114) scale(0.08106 -0.08106)">
      <use xlink:href="#DejaVuSans-3c3" transform="translate(0 0.765625)"/>
      <use xlink:href="#DejaVuSans-3d" transform="translate(82.861328 0.765625)"/>
      <use xlink:href="#DejaVuSans-32" transform="translate(186.132812 0.765625)"/>
      <use xlink:href="#DejaVuSans-2e" transform="translate(249.755859 0.765625)"/>
      <use xlink:href="#DejaVuSans-38" transform="translate(278.917969 0.765625)"/>
      <use xlink:href="#DejaVuSans-d7" transform="translate(362.023438 0.765625)"/>
      <use xlink:href="#DejaVuSans-31" transform="translate(465.294922 0.765625)"/>
      <use xlink:href="#DejaVuSans-30" transform="translate(528.917969 0.765625)"/>
      <use xlink:href="#DejaVuSans-2212" transform="translate(593.498047 39.046875) scale(0.7)"/>
      <use xlink:href="#DejaVuSans-36" transform="translate(652.150391 39.046875) scale(0.7)"/>
     </g>
    </g>
   </g>
  </g>
 </g>
 <defs>
  <clipPath id="pf5955c306f">
   <rect x="42.667554" y="37.550096" width="306.951868" height="146.417918"/>
  </clipPath>
  <clipPath id="p9bbdd190d3">
   <rect x="403.768588" y="37.550096" width="153.475934" height="146.417918"/>
  </clipPath>
 </defs>
</svg>
