<?xml version="1.0" encoding="utf-8" standalone="no"?>
<!DOCTYPE svg PUBLIC "-//W3C//DTD SVG 1.1//EN"
  "http://www.w3.org/Graphics/SVG/1.1/DTD/svg11.dtd">
<svg xmlns:xlink="http://www.w3.org/1999/xlink" width="524.409449pt" height="226.771654pt" viewBox="0 0 524.409449 226.771654" xmlns="http://www.w3.org/2000/svg" version="1.1">
 <metadata>
  <rdf:RDF xmlns:dc="http://purl.org/dc/elements/1.1/" xmlns:cc="http://creativecommons.org/ns#" xmlns:rdf="http://www.w3.org/1999/02/22-rdf-syntax-ns#">
   <cc:Work>
    <dc:type rdf:resource="http://purl.org/dc/dcmitype/StillImage"/>
    <dc:date>2026-01-08T14:01:41.316949</dc:date>
    <dc:format>image/svg+xml</dc:format>
    <dc:creator>
     <cc:Agent>
      <dc:title>Matplotlib v3.8.4, https://matplotlib.org/</dc:title>
     </cc:Agent>
    </dc:creator>
   </cc:Work>
  </rdf:RDF>
 </metadata>
 <defs>
  <style type="text/css">*{stroke-linejoin: round; stroke-linecap: butt}</style>
 </defs>
 <g id="figure_1">
  <g id="patch_1">
   <path d="M 0 226.771654 
L 524.409449 226.771654 
L 524.409449 0 
L 0 0 
z
" style="fill: #ffffff"/>
  </g>
  <g id="axes_1">
   <g id="patch_2">
    <path d="M 42.667554 194.739667 
L 325.729214 194.739667 
L 325.729214 33.922538 
L 42.667554 33.922538 
z
" style="fill: #ffffff"/>
   </g>
   <g id="PathCollection_1">
    <defs>
     <path id="m428b5a2602" d="M 0 3 
C 0.795609 3 1.55874 2.683901 2.12132 2.12132 
C 2.683901 1.55874 3 0.795609 3 0 
C 3 -0.795609 2.683901 -1.55874 2.12132 -2.12132 
C 1.55874 -2.683901 0.795609 -3 0 -3 
C -0.795609 -3 -1.55874 -2.683901 -2.12132 -2.12132 
C -2.683901 -1.55874 -3 -0.795609 -3 0 
C -3 0.795609 -2.683901 1.55874 -2.12132 2.12132 
C -1.55874 2.683901 -0.795609 3 0 3 
z
" style="stroke: #000000; stroke-width: 0.5"/>
    </defs>
    <g clip-path="url(#p3714b7774c)">
     <use xlink:href="#m428b5a2602" x="-1" y="153.077253" style="stroke: #000000; stroke-width: 0.5"/>
     <use xlink:href="#m428b5a2602" x="241.695001" y="153.123987" style="stroke: #000000; stroke-width: 0.5"/>
     <use xlink:href="#m428b5a2602" x="37758.480315" y="172.68319" style="stroke: #000000; stroke-width: 0.5"/>
    </g>
   </g>
   <g id="PathCollection_2">
    <defs>
     <path id="mb3c96ffd8d" d="M 0 3 
C 0.795609 3 1.55874 2.683901 2.12132 2.12132 
C 2.683901 1.55874 3 0.795609 3 0 
C 3 -0.795609 2.683901 -1.55874 2.12132 -2.12132 
C 1.55874 -2.683901 0.795609 -3 0 -3 
C -0.795609 -3 -1.55874 -2.683901 -2.12132 -2.12132 
C -2.683901 -1.55874 -3 -0.795609 -3 0 
C -3 0.795609 -2.683901 1.55874 -2.12132 2.12132 
C -1.55874 2.683901 -0.795609 3 0 3 
z
" style="stroke: #d95319; stroke-width: 0.5"/>
    </defs>
    <g clip-path="url(#p3714b7774c)">
     <use xlink:href="#mb3c96ffd8d" x="-1" y="152.434825" style="fill: #d95319; stroke: #d95319; stroke-width: 0.5"/>
     <use xlink:href="#mb3c96ffd8d" x="229.838184" y="152.48998" style="fill: #d95319; stroke: #d95319; stroke-width: 0.5"/>
     <use xlink:href="#mb3c96ffd8d" x="37758.480315" y="170.72324" style="fill: #d95319; stroke: #d95319; stroke-width: 0.5"/>
    </g>
   </g>
   <g id="PathCollection_3">
    <defs>
     <path id="mf7f44f574e" d="M 0 3 
C 0.795609 3 1.55874 2.683901 2.12132 2.12132 
C 2.683901 1.55874 3 0.795609 3 0 
C 3 -0.795609 2.683901 -1.55874 2.12132 -2.12132 
C 1.55874 -2.683901 0.795609 -3 0 -3 
C -0.795609 -3 -1.55874 -2.683901 -2.12132 -2.12132 
C -2.683901 -1.55874 -3 -0.795609 -3 0 
C -3 0.795609 -2.683901 1.55874 -2.12132 2.12132 
C -1.55874 2.683901 -0.795609 3 0 3 
z
" style="stroke: #edb120; stroke-width: 0.5"/>
    </defs>
    <g clip-path="url(#p3714b7774c)">
     <use xlink:href="#mf7f44f574e" x="-1" y="150.114478" style="fill: #edb120; stroke: #edb120; stroke-width: 0.5"/>
     <use xlink:href="#mf7f44f574e" x="238.682507" y="150.167529" style="fill: #edb120; stroke: #edb120; stroke-width: 0.5"/>
     <use xlink:href="#mf7f44f574e" x="37758.480315" y="169.545833" style="fill: #edb120; stroke: #edb120; stroke-width: 0.5"/>
    </g>
   </g>
   <g id="PathCollection_4">
    <defs>
     <path id="mcf1a462f0a" d="M 0 3 
C 0.795609 3 1.55874 2.683901 2.12132 2.12132 
C 2.683901 1.55874 3 0.795609 3 0 
C 3 -0.795609 2.683901 -1.55874 2.12132 -2.12132 
C 1.55874 -2.683901 0.795609 -3 0 -3 
C -0.795609 -3 -1.55874 -2.683901 -2.12132 -2.12132 
C -2.683901 -1.55874 -3 -0.795609 -3 0 
C -3 0.795609 -2.683901 1.55874 -2.12132 2.12132 
C -1.55874 2.683901 -0.795609 3 0 3 
z
" style="stroke: #7e2f8e; stroke-width: 0.5"/>
    </defs>
    <g clip-path="url(#p3714b7774c)">
     <use xlink:href="#mcf1a462f0a" x="-1" y="145.59355" style="fill: #7e2f8e; stroke: #7e2f8e; stroke-width: 0.5"/>
     <use xlink:href="#mcf1a462f0a" x="154.661442" y="145.620573" style="fill: #7e2f8e; stroke: #7e2f8e; stroke-width: 0.5"/>
     <use xlink:href="#mcf1a462f0a" x="37758.480315" y="165.657314" style="fill: #7e2f8e; stroke: #7e2f8e; stroke-width: 0.5"/>
    </g>
   </g>
   <g id="matplotlib.axis_1">
    <g id="xtick_1">
     <g id="line2d_1">
      <path d="M 42.667554 194.739667 
L 42.667554 33.922538 
" clip-path="url(#p3714b7774c)" style="fill: none; stroke: #b2b2b2; stroke-opacity: 0.7; stroke-width: 0.5; stroke-linecap: square"/>
     </g>
     <g id="line2d_2">
      <defs>
       <path id="m72e2f60181" d="M 0 0 
L 0 -3.5 
" style="stroke: #000000; stroke-width: 0.8"/>
      </defs>
      <g>
       <use xlink:href="#m72e2f60181" x="42.667554" y="194.739667" style="stroke: #000000; stroke-width: 0.8"/>
      </g>
     </g>
     <g id="text_1">
      <!-- 0.0000 -->
      <g transform="translate(25.669109 205.622309) scale(0.09716 -0.09716)">
       <defs>
        <path id="DejaVuSans-30" d="M 2034 4250 
Q 1547 4250 1301 3770 
Q 1056 3291 1056 2328 
Q 1056 1369 1301 889 
Q 1547 409 2034 409 
Q 2525 409 2770 889 
Q 3016 1369 3016 2328 
Q 3016 3291 2770 3770 
Q 2525 4250 2034 4250 
z
M 2034 4750 
Q 2819 4750 3233 4129 
Q 3647 3509 3647 2328 
Q 3647 1150 3233 529 
Q 2819 -91 2034 -91 
Q 1250 -91 836 529 
Q 422 1150 422 2328 
Q 422 3509 836 4129 
Q 1250 4750 2034 4750 
z
" transform="scale(0.015625)"/>
        <path id="DejaVuSans-2e" d="M 684 794 
L 1344 794 
L 1344 0 
L 684 0 
L 684 794 
z
" transform="scale(0.015625)"/>
       </defs>
       <use xlink:href="#DejaVuSans-30"/>
       <use xlink:href="#DejaVuSans-2e" x="63.623047"/>
       <use xlink:href="#DejaVuSans-30" x="95.410156"/>
       <use xlink:href="#DejaVuSans-30" x="159.033203"/>
       <use xlink:href="#DejaVuSans-30" x="222.65625"/>
       <use xlink:href="#DejaVuSans-30" x="286.279297"/>
      </g>
     </g>
    </g>
    <g id="xtick_2">
     <g id="line2d_3">
      <path d="M 325.729214 194.739667 
L 325.729214 33.922538 
" clip-path="url(#p3714b7774c)" style="fill: none; stroke: #b2b2b2; stroke-opacity: 0.7; stroke-width: 0.5; stroke-linecap: square"/>
     </g>
     <g id="line2d_4">
      <g>
       <use xlink:href="#m72e2f60181" x="325.729214" y="194.739667" style="stroke: #000000; stroke-width: 0.8"/>
      </g>
     </g>
     <g id="text_2">
      <!-- 0.0005 -->
      <g transform="translate(308.730768 205.622309) scale(0.09716 -0.09716)">
       <defs>
        <path id="DejaVuSans-35" d="M 691 4666 
L 3169 4666 
L 3169 4134 
L 1269 4134 
L 1269 2991 
Q 1406 3038 1543 3061 
Q 1681 3084 1819 3084 
Q 2600 3084 3056 2656 
Q 3513 2228 3513 1497 
Q 3513 744 3044 326 
Q 2575 -91 1722 -91 
Q 1428 -91 1123 -41 
Q 819 9 494 109 
L 494 744 
Q 775 591 1075 516 
Q 1375 441 1709 441 
Q 2250 441 2565 725 
Q 2881 1009 2881 1497 
Q 2881 1984 2565 2268 
Q 2250 2553 1709 2553 
Q 1456 2553 1204 2497 
Q 953 2441 691 2322 
L 691 4666 
z
" transform="scale(0.015625)"/>
       </defs>
       <use xlink:href="#DejaVuSans-30"/>
       <use xlink:href="#DejaVuSans-2e" x="63.623047"/>
       <use xlink:href="#DejaVuSans-30" x="95.410156"/>
       <use xlink:href="#DejaVuSans-30" x="159.033203"/>
       <use xlink:href="#DejaVuSans-30" x="222.65625"/>
       <use xlink:href="#DejaVuSans-35" x="286.279297"/>
      </g>
     </g>
    </g>
    <g id="text_3">
     <!-- Frequency (GHz) -->
     <g transform="translate(135.709064 220.504231) scale(0.11662 -0.11662)">
      <defs>
       <path id="DejaVuSans-46" d="M 628 4666 
L 3309 4666 
L 3309 4134 
L 1259 4134 
L 1259 2759 
L 3109 2759 
L 3109 2228 
L 1259 2228 
L 1259 0 
L 628 0 
L 628 4666 
z
" transform="scale(0.015625)"/>
       <path id="DejaVuSans-72" d="M 2631 2963 
Q 2534 3019 2420 3045 
Q 2306 3072 2169 3072 
Q 1681 3072 1420 2755 
Q 1159 2438 1159 1844 
L 1159 0 
L 581 0 
L 581 3500 
L 1159 3500 
L 1159 2956 
Q 1341 3275 1631 3429 
Q 1922 3584 2338 3584 
Q 2397 3584 2469 3576 
Q 2541 3569 2628 3553 
L 2631 2963 
z
" transform="scale(0.015625)"/>
       <path id="DejaVuSans-65" d="M 3597 1894 
L 3597 1613 
L 953 1613 
Q 991 1019 1311 708 
Q 1631 397 2203 397 
Q 2534 397 2845 478 
Q 3156 559 3463 722 
L 3463 178 
Q 3153 47 2828 -22 
Q 2503 -91 2169 -91 
Q 1331 -91 842 396 
Q 353 884 353 1716 
Q 353 2575 817 3079 
Q 1281 3584 2069 3584 
Q 2775 3584 3186 3129 
Q 3597 2675 3597 1894 
z
M 3022 2063 
Q 3016 2534 2758 2815 
Q 2500 3097 2075 3097 
Q 1594 3097 1305 2825 
Q 1016 2553 972 2059 
L 3022 2063 
z
" transform="scale(0.015625)"/>
       <path id="DejaVuSans-71" d="M 947 1747 
Q 947 1113 1208 752 
Q 1469 391 1925 391 
Q 2381 391 2643 752 
Q 2906 1113 2906 1747 
Q 2906 2381 2643 2742 
Q 2381 3103 1925 3103 
Q 1469 3103 1208 2742 
Q 947 2381 947 1747 
z
M 2906 525 
Q 2725 213 2448 61 
Q 2172 -91 1784 -91 
Q 1150 -91 751 415 
Q 353 922 353 1747 
Q 353 2572 751 3078 
Q 1150 3584 1784 3584 
Q 2172 3584 2448 3432 
Q 2725 3281 2906 2969 
L 2906 3500 
L 3481 3500 
L 3481 -1331 
L 2906 -1331 
L 2906 525 
z
" transform="scale(0.015625)"/>
       <path id="DejaVuSans-75" d="M 544 1381 
L 544 3500 
L 1119 3500 
L 1119 1403 
Q 1119 906 1312 657 
Q 1506 409 1894 409 
Q 2359 409 2629 706 
Q 2900 1003 2900 1516 
L 2900 3500 
L 3475 3500 
L 3475 0 
L 2900 0 
L 2900 538 
Q 2691 219 2414 64 
Q 2138 -91 1772 -91 
Q 1169 -91 856 284 
Q 544 659 544 1381 
z
M 1991 3584 
L 1991 3584 
z
" transform="scale(0.015625)"/>
       <path id="DejaVuSans-6e" d="M 3513 2113 
L 3513 0 
L 2938 0 
L 2938 2094 
Q 2938 2591 2744 2837 
Q 2550 3084 2163 3084 
Q 1697 3084 1428 2787 
Q 1159 2491 1159 1978 
L 1159 0 
L 581 0 
L 581 3500 
L 1159 3500 
L 1159 2956 
Q 1366 3272 1645 3428 
Q 1925 3584 2291 3584 
Q 2894 3584 3203 3211 
Q 3513 2838 3513 2113 
z
" transform="scale(0.015625)"/>
       <path id="DejaVuSans-63" d="M 3122 3366 
L 3122 2828 
Q 2878 2963 2633 3030 
Q 2388 3097 2138 3097 
Q 1578 3097 1268 2742 
Q 959 2388 959 1747 
Q 959 1106 1268 751 
Q 1578 397 2138 397 
Q 2388 397 2633 464 
Q 2878 531 3122 666 
L 3122 134 
Q 2881 22 2623 -34 
Q 2366 -91 2075 -91 
Q 1284 -91 818 406 
Q 353 903 353 1747 
Q 353 2603 823 3093 
Q 1294 3584 2113 3584 
Q 2378 3584 2631 3529 
Q 2884 3475 3122 3366 
z
" transform="scale(0.015625)"/>
       <path id="DejaVuSans-79" d="M 2059 -325 
Q 1816 -950 1584 -1140 
Q 1353 -1331 966 -1331 
L 506 -1331 
L 506 -850 
L 844 -850 
Q 1081 -850 1212 -737 
Q 1344 -625 1503 -206 
L 1606 56 
L 191 3500 
L 800 3500 
L 1894 763 
L 2988 3500 
L 3597 3500 
L 2059 -325 
z
" transform="scale(0.015625)"/>
       <path id="DejaVuSans-20" transform="scale(0.015625)"/>
       <path id="DejaVuSans-28" d="M 1984 4856 
Q 1566 4138 1362 3434 
Q 1159 2731 1159 2009 
Q 1159 1288 1364 580 
Q 1569 -128 1984 -844 
L 1484 -844 
Q 1016 -109 783 600 
Q 550 1309 550 2009 
Q 550 2706 781 3412 
Q 1013 4119 1484 4856 
L 1984 4856 
z
" transform="scale(0.015625)"/>
       <path id="DejaVuSans-47" d="M 3809 666 
L 3809 1919 
L 2778 1919 
L 2778 2438 
L 4434 2438 
L 4434 434 
Q 4069 175 3628 42 
Q 3188 -91 2688 -91 
Q 1594 -91 976 548 
Q 359 1188 359 2328 
Q 359 3472 976 4111 
Q 1594 4750 2688 4750 
Q 3144 4750 3555 4637 
Q 3966 4525 4313 4306 
L 4313 3634 
Q 3963 3931 3569 4081 
Q 3175 4231 2741 4231 
Q 1884 4231 1454 3753 
Q 1025 3275 1025 2328 
Q 1025 1384 1454 906 
Q 1884 428 2741 428 
Q 3075 428 3337 486 
Q 3600 544 3809 666 
z
" transform="scale(0.015625)"/>
       <path id="DejaVuSans-48" d="M 628 4666 
L 1259 4666 
L 1259 2753 
L 3553 2753 
L 3553 4666 
L 4184 4666 
L 4184 0 
L 3553 0 
L 3553 2222 
L 1259 2222 
L 1259 0 
L 628 0 
L 628 4666 
z
" transform="scale(0.015625)"/>
       <path id="DejaVuSans-7a" d="M 353 3500 
L 3084 3500 
L 3084 2975 
L 922 459 
L 3084 459 
L 3084 0 
L 275 0 
L 275 525 
L 2438 3041 
L 353 3041 
L 353 3500 
z
" transform="scale(0.015625)"/>
       <path id="DejaVuSans-29" d="M 513 4856 
L 1013 4856 
Q 1481 4119 1714 3412 
Q 1947 2706 1947 2009 
Q 1947 1309 1714 600 
Q 1481 -109 1013 -844 
L 513 -844 
Q 928 -128 1133 580 
Q 1338 1288 1338 2009 
Q 1338 2731 1133 3434 
Q 928 4138 513 4856 
z
" transform="scale(0.015625)"/>
      </defs>
      <use xlink:href="#DejaVuSans-46"/>
      <use xlink:href="#DejaVuSans-72" x="50.269531"/>
      <use xlink:href="#DejaVuSans-65" x="89.132812"/>
      <use xlink:href="#DejaVuSans-71" x="150.65625"/>
      <use xlink:href="#DejaVuSans-75" x="214.132812"/>
      <use xlink:href="#DejaVuSans-65" x="277.511719"/>
      <use xlink:href="#DejaVuSans-6e" x="339.035156"/>
      <use xlink:href="#DejaVuSans-63" x="402.414062"/>
      <use xlink:href="#DejaVuSans-79" x="457.394531"/>
      <use xlink:href="#DejaVuSans-20" x="516.574219"/>
      <use xlink:href="#DejaVuSans-28" x="548.361328"/>
      <use xlink:href="#DejaVuSans-47" x="587.375"/>
      <use xlink:href="#DejaVuSans-48" x="664.865234"/>
      <use xlink:href="#DejaVuSans-7a" x="740.060547"/>
      <use xlink:href="#DejaVuSans-29" x="792.550781"/>
     </g>
    </g>
    <g id="text_4">
     <!-- +7.014 -->
     <g transform="translate(289.772423 218.025575) scale(0.09716 -0.09716)">
      <defs>
       <path id="DejaVuSans-2b" d="M 2944 4013 
L 2944 2272 
L 4684 2272 
L 4684 1741 
L 2944 1741 
L 2944 0 
L 2419 0 
L 2419 1741 
L 678 1741 
L 678 2272 
L 2419 2272 
L 2419 4013 
L 2944 4013 
z
" transform="scale(0.015625)"/>
       <path id="DejaVuSans-37" d="M 525 4666 
L 3525 4666 
L 3525 4397 
L 1831 0 
L 1172 0 
L 2766 4134 
L 525 4134 
L 525 4666 
z
" transform="scale(0.015625)"/>
       <path id="DejaVuSans-31" d="M 794 531 
L 1825 531 
L 1825 4091 
L 703 3866 
L 703 4441 
L 1819 4666 
L 2450 4666 
L 2450 531 
L 3481 531 
L 3481 0 
L 794 0 
L 794 531 
z
" transform="scale(0.015625)"/>
       <path id="DejaVuSans-34" d="M 2419 4116 
L 825 1625 
L 2419 1625 
L 2419 4116 
z
M 2253 4666 
L 3047 4666 
L 3047 1625 
L 3713 1625 
L 3713 1100 
L 3047 1100 
L 3047 0 
L 2419 0 
L 2419 1100 
L 313 1100 
L 313 1709 
L 2253 4666 
z
" transform="scale(0.015625)"/>
      </defs>
      <use xlink:href="#DejaVuSans-2b"/>
      <use xlink:href="#DejaVuSans-37" x="83.789062"/>
      <use xlink:href="#DejaVuSans-2e" x="147.412109"/>
      <use xlink:href="#DejaVuSans-30" x="179.199219"/>
      <use xlink:href="#DejaVuSans-31" x="242.822266"/>
      <use xlink:href="#DejaVuSans-34" x="306.445312"/>
     </g>
    </g>
   </g>
   <g id="matplotlib.axis_2">
    <g id="ytick_1">
     <g id="line2d_5">
      <path d="M 42.667554 174.354805 
L 325.729214 174.354805 
" clip-path="url(#p3714b7774c)" style="fill: none; stroke: #b2b2b2; stroke-opacity: 0.7; stroke-width: 0.5; stroke-linecap: square"/>
     </g>
     <g id="line2d_6">
      <defs>
       <path id="mf07708aa0f" d="M 0 0 
L 3.5 0 
" style="stroke: #000000; stroke-width: 0.8"/>
      </defs>
      <g>
       <use xlink:href="#mf07708aa0f" x="42.667554" y="174.354805" style="stroke: #000000; stroke-width: 0.8"/>
      </g>
     </g>
     <g id="text_5">
      <!-- −20 -->
      <g transform="translate(18.66224 178.046126) scale(0.09716 -0.09716)">
       <defs>
        <path id="DejaVuSans-2212" d="M 678 2272 
L 4684 2272 
L 4684 1741 
L 678 1741 
L 678 2272 
z
" transform="scale(0.015625)"/>
        <path id="DejaVuSans-32" d="M 1228 531 
L 3431 531 
L 3431 0 
L 469 0 
L 469 531 
Q 828 903 1448 1529 
Q 2069 2156 2228 2338 
Q 2531 2678 2651 2914 
Q 2772 3150 2772 3378 
Q 2772 3750 2511 3984 
Q 2250 4219 1831 4219 
Q 1534 4219 1204 4116 
Q 875 4013 500 3803 
L 500 4441 
Q 881 4594 1212 4672 
Q 1544 4750 1819 4750 
Q 2544 4750 2975 4387 
Q 3406 4025 3406 3419 
Q 3406 3131 3298 2873 
Q 3191 2616 2906 2266 
Q 2828 2175 2409 1742 
Q 1991 1309 1228 531 
z
" transform="scale(0.015625)"/>
       </defs>
       <use xlink:href="#DejaVuSans-2212"/>
       <use xlink:href="#DejaVuSans-32" x="83.789062"/>
       <use xlink:href="#DejaVuSans-30" x="147.412109"/>
      </g>
     </g>
    </g>
    <g id="ytick_2">
     <g id="line2d_7">
      <path d="M 42.667554 143.397865 
L 325.729214 143.397865 
" clip-path="url(#p3714b7774c)" style="fill: none; stroke: #b2b2b2; stroke-opacity: 0.7; stroke-width: 0.5; stroke-linecap: square"/>
     </g>
     <g id="line2d_8">
      <g>
       <use xlink:href="#mf07708aa0f" x="42.667554" y="143.397865" style="stroke: #000000; stroke-width: 0.8"/>
      </g>
     </g>
     <g id="text_6">
      <!-- −15 -->
      <g transform="translate(18.66224 147.089186) scale(0.09716 -0.09716)">
       <use xlink:href="#DejaVuSans-2212"/>
       <use xlink:href="#DejaVuSans-31" x="83.789062"/>
       <use xlink:href="#DejaVuSans-35" x="147.412109"/>
      </g>
     </g>
    </g>
    <g id="ytick_3">
     <g id="line2d_9">
      <path d="M 42.667554 112.440924 
L 325.729214 112.440924 
" clip-path="url(#p3714b7774c)" style="fill: none; stroke: #b2b2b2; stroke-opacity: 0.7; stroke-width: 0.5; stroke-linecap: square"/>
     </g>
     <g id="line2d_10">
      <g>
       <use xlink:href="#mf07708aa0f" x="42.667554" y="112.440924" style="stroke: #000000; stroke-width: 0.8"/>
      </g>
     </g>
     <g id="text_7">
      <!-- −10 -->
      <g transform="translate(18.66224 116.132245) scale(0.09716 -0.09716)">
       <use xlink:href="#DejaVuSans-2212"/>
       <use xlink:href="#DejaVuSans-31" x="83.789062"/>
       <use xlink:href="#DejaVuSans-30" x="147.412109"/>
      </g>
     </g>
    </g>
    <g id="ytick_4">
     <g id="line2d_11">
      <path d="M 42.667554 81.483983 
L 325.729214 81.483983 
" clip-path="url(#p3714b7774c)" style="fill: none; stroke: #b2b2b2; stroke-opacity: 0.7; stroke-width: 0.5; stroke-linecap: square"/>
     </g>
     <g id="line2d_12">
      <g>
       <use xlink:href="#mf07708aa0f" x="42.667554" y="81.483983" style="stroke: #000000; stroke-width: 0.8"/>
      </g>
     </g>
     <g id="text_8">
      <!-- −5 -->
      <g transform="translate(24.844045 85.175304) scale(0.09716 -0.09716)">
       <use xlink:href="#DejaVuSans-2212"/>
       <use xlink:href="#DejaVuSans-35" x="83.789062"/>
      </g>
     </g>
    </g>
    <g id="ytick_5">
     <g id="line2d_13">
      <path d="M 42.667554 50.527043 
L 325.729214 50.527043 
" clip-path="url(#p3714b7774c)" style="fill: none; stroke: #b2b2b2; stroke-opacity: 0.7; stroke-width: 0.5; stroke-linecap: square"/>
     </g>
     <g id="line2d_14">
      <g>
       <use xlink:href="#mf07708aa0f" x="42.667554" y="50.527043" style="stroke: #000000; stroke-width: 0.8"/>
      </g>
     </g>
     <g id="text_9">
      <!-- 0 -->
      <g transform="translate(32.985749 54.218364) scale(0.09716 -0.09716)">
       <use xlink:href="#DejaVuSans-30"/>
      </g>
     </g>
    </g>
    <g id="text_10">
     <!-- |Transmission| (dBm) -->
     <g transform="translate(11.912559 175.707844) rotate(-90) scale(0.11662 -0.11662)">
      <defs>
       <path id="DejaVuSans-7c" d="M 1344 4891 
L 1344 -1509 
L 813 -1509 
L 813 4891 
L 1344 4891 
z
" transform="scale(0.015625)"/>
       <path id="DejaVuSans-54" d="M -19 4666 
L 3928 4666 
L 3928 4134 
L 2272 4134 
L 2272 0 
L 1638 0 
L 1638 4134 
L -19 4134 
L -19 4666 
z
" transform="scale(0.015625)"/>
       <path id="DejaVuSans-61" d="M 2194 1759 
Q 1497 1759 1228 1600 
Q 959 1441 959 1056 
Q 959 750 1161 570 
Q 1363 391 1709 391 
Q 2188 391 2477 730 
Q 2766 1069 2766 1631 
L 2766 1759 
L 2194 1759 
z
M 3341 1997 
L 3341 0 
L 2766 0 
L 2766 531 
Q 2569 213 2275 61 
Q 1981 -91 1556 -91 
Q 1019 -91 701 211 
Q 384 513 384 1019 
Q 384 1609 779 1909 
Q 1175 2209 1959 2209 
L 2766 2209 
L 2766 2266 
Q 2766 2663 2505 2880 
Q 2244 3097 1772 3097 
Q 1472 3097 1187 3025 
Q 903 2953 641 2809 
L 641 3341 
Q 956 3463 1253 3523 
Q 1550 3584 1831 3584 
Q 2591 3584 2966 3190 
Q 3341 2797 3341 1997 
z
" transform="scale(0.015625)"/>
       <path id="DejaVuSans-73" d="M 2834 3397 
L 2834 2853 
Q 2591 2978 2328 3040 
Q 2066 3103 1784 3103 
Q 1356 3103 1142 2972 
Q 928 2841 928 2578 
Q 928 2378 1081 2264 
Q 1234 2150 1697 2047 
L 1894 2003 
Q 2506 1872 2764 1633 
Q 3022 1394 3022 966 
Q 3022 478 2636 193 
Q 2250 -91 1575 -91 
Q 1294 -91 989 -36 
Q 684 19 347 128 
L 347 722 
Q 666 556 975 473 
Q 1284 391 1588 391 
Q 1994 391 2212 530 
Q 2431 669 2431 922 
Q 2431 1156 2273 1281 
Q 2116 1406 1581 1522 
L 1381 1569 
Q 847 1681 609 1914 
Q 372 2147 372 2553 
Q 372 3047 722 3315 
Q 1072 3584 1716 3584 
Q 2034 3584 2315 3537 
Q 2597 3491 2834 3397 
z
" transform="scale(0.015625)"/>
       <path id="DejaVuSans-6d" d="M 3328 2828 
Q 3544 3216 3844 3400 
Q 4144 3584 4550 3584 
Q 5097 3584 5394 3201 
Q 5691 2819 5691 2113 
L 5691 0 
L 5113 0 
L 5113 2094 
Q 5113 2597 4934 2840 
Q 4756 3084 4391 3084 
Q 3944 3084 3684 2787 
Q 3425 2491 3425 1978 
L 3425 0 
L 2847 0 
L 2847 2094 
Q 2847 2600 2669 2842 
Q 2491 3084 2119 3084 
Q 1678 3084 1418 2786 
Q 1159 2488 1159 1978 
L 1159 0 
L 581 0 
L 581 3500 
L 1159 3500 
L 1159 2956 
Q 1356 3278 1631 3431 
Q 1906 3584 2284 3584 
Q 2666 3584 2933 3390 
Q 3200 3197 3328 2828 
z
" transform="scale(0.015625)"/>
       <path id="DejaVuSans-69" d="M 603 3500 
L 1178 3500 
L 1178 0 
L 603 0 
L 603 3500 
z
M 603 4863 
L 1178 4863 
L 1178 4134 
L 603 4134 
L 603 4863 
z
" transform="scale(0.015625)"/>
       <path id="DejaVuSans-6f" d="M 1959 3097 
Q 1497 3097 1228 2736 
Q 959 2375 959 1747 
Q 959 1119 1226 758 
Q 1494 397 1959 397 
Q 2419 397 2687 759 
Q 2956 1122 2956 1747 
Q 2956 2369 2687 2733 
Q 2419 3097 1959 3097 
z
M 1959 3584 
Q 2709 3584 3137 3096 
Q 3566 2609 3566 1747 
Q 3566 888 3137 398 
Q 2709 -91 1959 -91 
Q 1206 -91 779 398 
Q 353 888 353 1747 
Q 353 2609 779 3096 
Q 1206 3584 1959 3584 
z
" transform="scale(0.015625)"/>
       <path id="DejaVuSans-64" d="M 2906 2969 
L 2906 4863 
L 3481 4863 
L 3481 0 
L 2906 0 
L 2906 525 
Q 2725 213 2448 61 
Q 2172 -91 1784 -91 
Q 1150 -91 751 415 
Q 353 922 353 1747 
Q 353 2572 751 3078 
Q 1150 3584 1784 3584 
Q 2172 3584 2448 3432 
Q 2725 3281 2906 2969 
z
M 947 1747 
Q 947 1113 1208 752 
Q 1469 391 1925 391 
Q 2381 391 2643 752 
Q 2906 1113 2906 1747 
Q 2906 2381 2643 2742 
Q 2381 3103 1925 3103 
Q 1469 3103 1208 2742 
Q 947 2381 947 1747 
z
" transform="scale(0.015625)"/>
       <path id="DejaVuSans-42" d="M 1259 2228 
L 1259 519 
L 2272 519 
Q 2781 519 3026 730 
Q 3272 941 3272 1375 
Q 3272 1813 3026 2020 
Q 2781 2228 2272 2228 
L 1259 2228 
z
M 1259 4147 
L 1259 2741 
L 2194 2741 
Q 2656 2741 2882 2914 
Q 3109 3088 3109 3444 
Q 3109 3797 2882 3972 
Q 2656 4147 2194 4147 
L 1259 4147 
z
M 628 4666 
L 2241 4666 
Q 2963 4666 3353 4366 
Q 3744 4066 3744 3513 
Q 3744 3084 3544 2831 
Q 3344 2578 2956 2516 
Q 3422 2416 3680 2098 
Q 3938 1781 3938 1306 
Q 3938 681 3513 340 
Q 3088 0 2303 0 
L 628 0 
L 628 4666 
z
" transform="scale(0.015625)"/>
      </defs>
      <use xlink:href="#DejaVuSans-7c"/>
      <use xlink:href="#DejaVuSans-54" x="33.691406"/>
      <use xlink:href="#DejaVuSans-72" x="80.025391"/>
      <use xlink:href="#DejaVuSans-61" x="121.138672"/>
      <use xlink:href="#DejaVuSans-6e" x="182.417969"/>
      <use xlink:href="#DejaVuSans-73" x="245.796875"/>
      <use xlink:href="#DejaVuSans-6d" x="297.896484"/>
      <use xlink:href="#DejaVuSans-69" x="395.308594"/>
      <use xlink:href="#DejaVuSans-73" x="423.091797"/>
      <use xlink:href="#DejaVuSans-73" x="475.191406"/>
      <use xlink:href="#DejaVuSans-69" x="527.291016"/>
      <use xlink:href="#DejaVuSans-6f" x="555.074219"/>
      <use xlink:href="#DejaVuSans-6e" x="616.255859"/>
      <use xlink:href="#DejaVuSans-7c" x="679.634766"/>
      <use xlink:href="#DejaVuSans-20" x="713.326172"/>
      <use xlink:href="#DejaVuSans-28" x="745.113281"/>
      <use xlink:href="#DejaVuSans-64" x="784.126953"/>
      <use xlink:href="#DejaVuSans-42" x="847.603516"/>
      <use xlink:href="#DejaVuSans-6d" x="916.207031"/>
      <use xlink:href="#DejaVuSans-29" x="1013.619141"/>
     </g>
    </g>
   </g>
   <g id="line2d_15">
    <path d="M 38.244999 57.965523 
L 42.667554 57.916043 
L 47.090676 58.085976 
L 51.513231 58.680755 
L 55.935787 58.213893 
L 60.358908 58.225277 
L 64.78203 58.640746 
L 69.204585 58.967009 
L 73.62714 58.91904 
L 78.050262 58.823386 
L 82.473383 59.090343 
L 86.895939 59.592397 
L 91.318494 59.608835 
L 95.741616 59.454348 
L 100.164171 60.618516 
L 104.587292 60.920523 
L 109.010414 60.340813 
L 113.432969 60.699291 
L 117.855525 61.378033 
L 122.278646 61.505335 
L 126.701768 62.628762 
L 131.124323 61.837927 
L 135.546878 62.312371 
L 139.97 63.275737 
L 144.393121 63.914729 
L 148.815677 64.18752 
L 153.238798 65.424149 
L 157.661354 65.691154 
L 162.083909 65.659765 
L 166.50703 66.60759 
L 170.930152 68.094384 
L 175.352707 70.898581 
L 179.775263 71.651248 
L 184.198384 73.054575 
L 188.621506 75.35379 
L 193.044061 79.071424 
L 197.466616 81.347588 
L 201.889738 84.089835 
L 206.312293 89.464267 
L 210.735415 93.969972 
L 215.158536 100.605123 
L 219.581092 102.741184 
L 224.003647 116.77692 
L 228.426769 123.437213 
L 232.84989 136.185695 
L 237.272445 148.949528 
L 241.695001 153.123987 
L 246.118122 144.710899 
L 250.541244 131.877274 
L 254.963799 118.378357 
L 259.386921 111.992118 
L 263.809476 101.676661 
L 268.232031 93.883718 
L 272.655153 91.264735 
L 277.078274 86.861462 
L 281.50083 82.762417 
L 285.923385 77.767601 
L 290.346507 74.801926 
L 294.769628 72.702734 
L 299.192183 70.527515 
L 303.614739 70.025154 
L 308.03786 67.487394 
L 312.460416 65.451925 
L 316.883537 64.707311 
L 321.306659 63.866643 
L 325.729214 63.011968 
L 330.151769 62.102476 
" clip-path="url(#p3714b7774c)" style="fill: none; stroke: #000000; stroke-linecap: square"/>
   </g>
   <g id="line2d_16">
    <path d="M 39.685249 57.601756 
L 44.10741 57.459664 
L 48.529571 57.595689 
L 52.951733 57.573957 
L 57.373894 57.626398 
L 61.796055 57.628627 
L 66.218217 57.93733 
L 70.640378 58.197616 
L 75.062539 57.848235 
L 79.4847 58.776015 
L 83.906862 58.888513 
L 88.329023 59.143722 
L 92.751184 59.538732 
L 97.173346 59.530993 
L 101.595507 59.947364 
L 106.017668 60.009835 
L 110.439829 60.89768 
L 114.861991 60.983059 
L 119.284152 61.26582 
L 123.706313 62.083702 
L 128.128475 62.143263 
L 132.550636 62.980772 
L 136.972797 63.736431 
L 141.394958 64.641117 
L 145.81712 65.373125 
L 150.239281 66.077271 
L 154.661442 66.857634 
L 159.083604 67.99623 
L 163.505765 69.238346 
L 167.927926 71.458578 
L 172.350087 73.46917 
L 176.772249 74.865637 
L 181.19441 77.370239 
L 185.616571 80.556823 
L 190.038733 83.136775 
L 194.460894 85.067249 
L 198.883055 91.745528 
L 203.305216 97.349849 
L 207.727378 102.222657 
L 212.149539 109.558523 
L 216.5717 118.976925 
L 220.993862 134.347975 
L 225.416023 142.991029 
L 229.838184 152.48998 
L 234.260345 147.59445 
L 238.682507 138.303591 
L 243.104668 123.341977 
L 247.526829 111.03616 
L 251.948991 100.116161 
L 256.371152 94.931493 
L 260.793313 89.750477 
L 265.215475 85.071893 
L 269.637636 81.920353 
L 274.059797 76.551305 
L 278.481958 73.393449 
L 282.90412 72.622621 
L 287.326281 69.169436 
L 291.748442 67.63812 
L 296.170604 66.136275 
L 300.592765 64.608365 
L 305.014926 63.489271 
L 309.437087 62.7481 
L 313.859249 61.632969 
L 318.28141 61.037915 
L 322.703571 59.252814 
L 327.125733 59.114684 
" clip-path="url(#p3714b7774c)" style="fill: none; stroke: #d95319; stroke-linecap: square"/>
   </g>
   <g id="line2d_17">
    <path d="M 39.685249 56.880831 
L 44.10741 56.97816 
L 48.529571 56.839596 
L 52.951733 57.002306 
L 57.373894 57.362707 
L 61.796055 57.469508 
L 66.218217 58.09261 
L 70.640378 57.751216 
L 75.062539 58.089452 
L 79.4847 58.191115 
L 83.906862 58.578757 
L 88.329023 58.33234 
L 92.751184 58.670638 
L 97.173346 58.838672 
L 101.595507 59.808181 
L 106.017668 59.713825 
L 110.439829 59.887122 
L 114.861991 60.639932 
L 119.284152 60.314637 
L 123.706313 60.800537 
L 128.128475 61.261919 
L 132.550636 61.489391 
L 136.972797 62.607927 
L 141.394958 63.201 
L 145.81712 63.723615 
L 150.239281 64.700554 
L 154.661442 65.496024 
L 159.083604 66.065755 
L 163.505765 66.941651 
L 167.927926 68.663105 
L 172.350087 69.13687 
L 176.772249 71.057129 
L 181.19441 72.736109 
L 185.616571 74.477499 
L 190.038733 77.524653 
L 194.460894 79.055845 
L 198.883055 82.337219 
L 203.305216 87.436136 
L 207.727378 91.47094 
L 212.149539 95.987063 
L 216.5717 104.838519 
L 220.993862 113.570543 
L 225.416023 121.945819 
L 229.838184 133.167401 
L 234.260345 144.394493 
L 238.682507 150.167529 
L 243.104668 144.000349 
L 247.526829 135.855949 
L 251.948991 126.121601 
L 256.371152 111.1099 
L 260.793313 104.228481 
L 265.215475 94.661115 
L 269.637636 87.524921 
L 274.059797 84.08158 
L 278.481958 80.070118 
L 282.90412 76.051474 
L 287.326281 74.290767 
L 291.748442 71.332336 
L 296.170604 69.046042 
L 300.592765 66.774298 
L 305.014926 65.255117 
L 309.437087 64.190941 
L 313.859249 63.073705 
L 318.28141 61.225762 
L 322.703571 60.338226 
L 327.125733 59.703175 
" clip-path="url(#p3714b7774c)" style="fill: none; stroke: #edb120; stroke-linecap: square"/>
   </g>
   <g id="line2d_18">
    <path d="M 39.685249 61.78311 
L 44.10741 61.686772 
L 48.529571 62.33433 
L 52.951733 63.170291 
L 57.373894 64.268581 
L 61.796055 65.535649 
L 66.218217 65.388418 
L 70.640378 66.011643 
L 75.062539 66.684585 
L 79.4847 67.741207 
L 83.906862 69.114828 
L 88.329023 70.2785 
L 92.751184 72.001253 
L 97.173346 73.623831 
L 101.595507 75.072677 
L 106.017668 77.534683 
L 110.439829 80.125098 
L 114.861991 83.126683 
L 119.284152 86.244542 
L 123.706313 92.597773 
L 128.128475 96.5007 
L 132.550636 105.298291 
L 136.972797 112.523146 
L 141.394958 119.693083 
L 145.81712 128.693194 
L 150.239281 140.590937 
L 154.661442 145.620573 
L 159.083604 142.263231 
L 163.505765 130.898195 
L 167.927926 118.843315 
L 172.350087 108.880628 
L 176.772249 103.330544 
L 181.19441 97.056996 
L 185.616571 91.202172 
L 190.038733 86.530832 
L 194.460894 81.927844 
L 198.883055 77.678447 
L 203.305216 74.777905 
L 207.727378 72.460469 
L 212.149539 70.046942 
L 216.5717 68.276143 
L 220.993862 66.491661 
L 225.416023 64.741046 
L 229.838184 63.0742 
L 234.260345 62.567807 
L 238.682507 61.791778 
L 243.104668 61.38327 
L 247.526829 60.201892 
L 251.948991 59.978073 
L 256.371152 58.797809 
L 260.793313 58.33234 
L 265.215475 57.37187 
L 269.637636 57.390011 
L 274.059797 57.439542 
L 278.481958 56.617945 
L 282.90412 56.693418 
L 287.326281 55.908412 
L 291.748442 56.379762 
L 296.170604 55.798453 
L 300.592765 56.231107 
L 305.014926 55.334718 
L 309.437087 55.384496 
L 313.859249 55.415082 
L 318.28141 54.661157 
L 322.703571 54.859033 
L 327.125733 54.348058 
" clip-path="url(#p3714b7774c)" style="fill: none; stroke: #7e2f8e; stroke-linecap: square"/>
   </g>
   <g id="patch_3">
    <path d="M 42.667554 194.739667 
L 42.667554 33.922538 
" style="fill: none; stroke: #000000; stroke-width: 0.8; stroke-linejoin: miter; stroke-linecap: square"/>
   </g>
   <g id="patch_4">
    <path d="M 325.729214 194.739667 
L 325.729214 33.922538 
" style="fill: none; stroke: #000000; stroke-width: 0.8; stroke-linejoin: miter; stroke-linecap: square"/>
   </g>
   <g id="patch_5">
    <path d="M 42.667554 194.739667 
L 325.729214 194.739667 
" style="fill: none; stroke: #000000; stroke-width: 0.8; stroke-linejoin: miter; stroke-linecap: square"/>
   </g>
   <g id="patch_6">
    <path d="M 42.667554 33.922538 
L 325.729214 33.922538 
" style="fill: none; stroke: #000000; stroke-width: 0.8; stroke-linejoin: miter; stroke-linecap: square"/>
   </g>
   <g id="legend_1">
    <g id="patch_7">
     <path d="M 46.796716 18.964912 
L 325.600053 18.964912 
L 325.600053 4.635024 
L 46.796716 4.635024 
z
" style="fill: #4d4d4d; opacity: 0.5; stroke: #4d4d4d; stroke-width: 0.5; stroke-linejoin: miter"/>
    </g>
    <g id="patch_8">
     <path d="M 44.796716 16.964912 
L 323.600053 16.964912 
L 323.600053 2.635024 
L 44.796716 2.635024 
z
" style="fill: #ffffff; stroke: #cccccc; stroke-width: 0.5; stroke-linejoin: miter"/>
    </g>
    <g id="line2d_19">
     <path d="M 48.039116 9.199618 
L 56.145116 9.199618 
L 64.251116 9.199618 
" style="fill: none; stroke: #000000; stroke-linecap: square"/>
    </g>
    <g id="text_11">
     <!-- Initial -->
     <g transform="translate(70.735916 12.036718) scale(0.08106 -0.08106)">
      <defs>
       <path id="DejaVuSans-49" d="M 628 4666 
L 1259 4666 
L 1259 0 
L 628 0 
L 628 4666 
z
" transform="scale(0.015625)"/>
       <path id="DejaVuSans-74" d="M 1172 4494 
L 1172 3500 
L 2356 3500 
L 2356 3053 
L 1172 3053 
L 1172 1153 
Q 1172 725 1289 603 
Q 1406 481 1766 481 
L 2356 481 
L 2356 0 
L 1766 0 
Q 1100 0 847 248 
Q 594 497 594 1153 
L 594 3053 
L 172 3053 
L 172 3500 
L 594 3500 
L 594 4494 
L 1172 4494 
z
" transform="scale(0.015625)"/>
       <path id="DejaVuSans-6c" d="M 603 4863 
L 1178 4863 
L 1178 0 
L 603 0 
L 603 4863 
z
" transform="scale(0.015625)"/>
      </defs>
      <use xlink:href="#DejaVuSans-49"/>
      <use xlink:href="#DejaVuSans-6e" x="29.492188"/>
      <use xlink:href="#DejaVuSans-69" x="92.871094"/>
      <use xlink:href="#DejaVuSans-74" x="120.654297"/>
      <use xlink:href="#DejaVuSans-69" x="159.863281"/>
      <use xlink:href="#DejaVuSans-61" x="187.646484"/>
      <use xlink:href="#DejaVuSans-6c" x="248.925781"/>
     </g>
    </g>
    <g id="line2d_20">
     <path d="M 109.377471 9.199618 
L 117.483471 9.199618 
L 125.589471 9.199618 
" style="fill: none; stroke: #d95319; stroke-linecap: square"/>
    </g>
    <g id="text_12">
     <!--  T ⇅ 175K -->
     <g transform="translate(132.074271 12.036718) scale(0.08106 -0.08106)">
      <defs>
       <path id="DejaVuSans-21c5" d="M 3758 -22 
L 3477 -22 
L 2245 1209 
L 2620 1584 
L 3352 853 
L 3352 4666 
L 3883 4666 
L 3883 853 
L 4608 1584 
L 4983 1209 
L 3758 -22 
z
M 1605 4688 
L 1886 4688 
L 3111 3456 
L 2736 3081 
L 2011 3813 
L 2011 0 
L 1480 0 
L 1480 3813 
L 748 3081 
L 373 3456 
L 1605 4688 
z
" transform="scale(0.015625)"/>
       <path id="DejaVuSans-4b" d="M 628 4666 
L 1259 4666 
L 1259 2694 
L 3353 4666 
L 4166 4666 
L 1850 2491 
L 4331 0 
L 3500 0 
L 1259 2247 
L 1259 0 
L 628 0 
L 628 4666 
z
" transform="scale(0.015625)"/>
      </defs>
      <use xlink:href="#DejaVuSans-20"/>
      <use xlink:href="#DejaVuSans-54" x="31.787109"/>
      <use xlink:href="#DejaVuSans-20" x="92.871094"/>
      <use xlink:href="#DejaVuSans-21c5" x="124.658203"/>
      <use xlink:href="#DejaVuSans-20" x="208.447266"/>
      <use xlink:href="#DejaVuSans-31" x="240.234375"/>
      <use xlink:href="#DejaVuSans-37" x="303.857422"/>
      <use xlink:href="#DejaVuSans-35" x="367.480469"/>
      <use xlink:href="#DejaVuSans-4b" x="431.103516"/>
     </g>
    </g>
    <g id="line2d_21">
     <path d="M 188.546493 9.199618 
L 196.652493 9.199618 
L 204.758493 9.199618 
" style="fill: none; stroke: #edb120; stroke-linecap: square"/>
    </g>
    <g id="text_13">
     <!-- T ⇅ 22K  -->
     <g transform="translate(211.243293 12.036718) scale(0.08106 -0.08106)">
      <use xlink:href="#DejaVuSans-54"/>
      <use xlink:href="#DejaVuSans-20" x="61.083984"/>
      <use xlink:href="#DejaVuSans-21c5" x="92.871094"/>
      <use xlink:href="#DejaVuSans-20" x="176.660156"/>
      <use xlink:href="#DejaVuSans-32" x="208.447266"/>
      <use xlink:href="#DejaVuSans-32" x="272.070312"/>
      <use xlink:href="#DejaVuSans-4b" x="335.693359"/>
      <use xlink:href="#DejaVuSans-20" x="401.269531"/>
     </g>
    </g>
    <g id="line2d_22">
     <path d="M 262.558073 9.199618 
L 270.664073 9.199618 
L 278.770073 9.199618 
" style="fill: none; stroke: #7e2f8e; stroke-linecap: square"/>
    </g>
    <g id="text_14">
     <!-- T ⇅ 30K  -->
     <g transform="translate(285.254873 12.036718) scale(0.08106 -0.08106)">
      <defs>
       <path id="DejaVuSans-33" d="M 2597 2516 
Q 3050 2419 3304 2112 
Q 3559 1806 3559 1356 
Q 3559 666 3084 287 
Q 2609 -91 1734 -91 
Q 1441 -91 1130 -33 
Q 819 25 488 141 
L 488 750 
Q 750 597 1062 519 
Q 1375 441 1716 441 
Q 2309 441 2620 675 
Q 2931 909 2931 1356 
Q 2931 1769 2642 2001 
Q 2353 2234 1838 2234 
L 1294 2234 
L 1294 2753 
L 1863 2753 
Q 2328 2753 2575 2939 
Q 2822 3125 2822 3475 
Q 2822 3834 2567 4026 
Q 2313 4219 1838 4219 
Q 1578 4219 1281 4162 
Q 984 4106 628 3988 
L 628 4550 
Q 988 4650 1302 4700 
Q 1616 4750 1894 4750 
Q 2613 4750 3031 4423 
Q 3450 4097 3450 3541 
Q 3450 3153 3228 2886 
Q 3006 2619 2597 2516 
z
" transform="scale(0.015625)"/>
      </defs>
      <use xlink:href="#DejaVuSans-54"/>
      <use xlink:href="#DejaVuSans-20" x="61.083984"/>
      <use xlink:href="#DejaVuSans-21c5" x="92.871094"/>
      <use xlink:href="#DejaVuSans-20" x="176.660156"/>
      <use xlink:href="#DejaVuSans-33" x="208.447266"/>
      <use xlink:href="#DejaVuSans-30" x="272.070312"/>
      <use xlink:href="#DejaVuSans-4b" x="335.693359"/>
      <use xlink:href="#DejaVuSans-20" x="401.269531"/>
     </g>
    </g>
   </g>
  </g>
  <g id="axes_2">
   <g id="patch_9">
    <path d="M 379.878379 194.739667 
L 521.409209 194.739667 
L 521.409209 33.922538 
L 379.878379 33.922538 
z
" style="fill: #ffffff"/>
   </g>
   <g id="patch_10">
    <path d="M 403.466851 194.739667 
L 406.491014 194.739667 
L 406.491014 194.739667 
L 403.466851 194.739667 
z
" clip-path="url(#p0a61295244)" style="fill: #d95319; opacity: 0.8"/>
   </g>
   <g id="patch_11">
    <path d="M 406.491014 194.739667 
L 409.515177 194.739667 
L 409.515177 194.739667 
L 406.491014 194.739667 
z
" clip-path="url(#p0a61295244)" style="fill: #d95319; opacity: 0.8"/>
   </g>
   <g id="patch_12">
    <path d="M 409.515177 194.739667 
L 412.53934 194.739667 
L 412.53934 194.739667 
L 409.515177 194.739667 
z
" clip-path="url(#p0a61295244)" style="fill: #d95319; opacity: 0.8"/>
   </g>
   <g id="patch_13">
    <path d="M 412.53934 194.739667 
L 415.563503 194.739667 
L 415.563503 194.739667 
L 412.53934 194.739667 
z
" clip-path="url(#p0a61295244)" style="fill: #d95319; opacity: 0.8"/>
   </g>
   <g id="patch_14">
    <path d="M 415.563503 194.739667 
L 418.587666 194.739667 
L 418.587666 194.739667 
L 415.563503 194.739667 
z
" clip-path="url(#p0a61295244)" style="fill: #d95319; opacity: 0.8"/>
   </g>
   <g id="patch_15">
    <path d="M 418.587666 194.739667 
L 421.611829 194.739667 
L 421.611829 194.739667 
L 418.587666 194.739667 
z
" clip-path="url(#p0a61295244)" style="fill: #d95319; opacity: 0.8"/>
   </g>
   <g id="patch_16">
    <path d="M 421.611829 194.739667 
L 424.635992 194.739667 
L 424.635992 194.739667 
L 421.611829 194.739667 
z
" clip-path="url(#p0a61295244)" style="fill: #d95319; opacity: 0.8"/>
   </g>
   <g id="patch_17">
    <path d="M 424.635992 194.739667 
L 427.660155 194.739667 
L 427.660155 194.739667 
L 424.635992 194.739667 
z
" clip-path="url(#p0a61295244)" style="fill: #d95319; opacity: 0.8"/>
   </g>
   <g id="patch_18">
    <path d="M 427.660155 194.739667 
L 430.684318 194.739667 
L 430.684318 194.739667 
L 427.660155 194.739667 
z
" clip-path="url(#p0a61295244)" style="fill: #d95319; opacity: 0.8"/>
   </g>
   <g id="patch_19">
    <path d="M 430.684318 194.739667 
L 433.708481 194.739667 
L 433.708481 194.739667 
L 430.684318 194.739667 
z
" clip-path="url(#p0a61295244)" style="fill: #d95319; opacity: 0.8"/>
   </g>
   <g id="patch_20">
    <path d="M 433.708481 194.739667 
L 436.732644 194.739667 
L 436.732644 194.739667 
L 433.708481 194.739667 
z
" clip-path="url(#p0a61295244)" style="fill: #d95319; opacity: 0.8"/>
   </g>
   <g id="patch_21">
    <path d="M 436.732644 194.739667 
L 439.756807 194.739667 
L 439.756807 194.739667 
L 436.732644 194.739667 
z
" clip-path="url(#p0a61295244)" style="fill: #d95319; opacity: 0.8"/>
   </g>
   <g id="patch_22">
    <path d="M 439.756807 194.739667 
L 442.78097 194.739667 
L 442.78097 194.739667 
L 439.756807 194.739667 
z
" clip-path="url(#p0a61295244)" style="fill: #d95319; opacity: 0.8"/>
   </g>
   <g id="patch_23">
    <path d="M 442.78097 194.739667 
L 445.805133 194.739667 
L 445.805133 194.739667 
L 442.78097 194.739667 
z
" clip-path="url(#p0a61295244)" style="fill: #d95319; opacity: 0.8"/>
   </g>
   <g id="patch_24">
    <path d="M 445.805133 194.739667 
L 448.829296 194.739667 
L 448.829296 194.739667 
L 445.805133 194.739667 
z
" clip-path="url(#p0a61295244)" style="fill: #d95319; opacity: 0.8"/>
   </g>
   <g id="patch_25">
    <path d="M 448.829296 194.739667 
L 451.853459 194.739667 
L 451.853459 194.739667 
L 448.829296 194.739667 
z
" clip-path="url(#p0a61295244)" style="fill: #d95319; opacity: 0.8"/>
   </g>
   <g id="patch_26">
    <path d="M 451.853459 194.739667 
L 454.877622 194.739667 
L 454.877622 194.739667 
L 451.853459 194.739667 
z
" clip-path="url(#p0a61295244)" style="fill: #d95319; opacity: 0.8"/>
   </g>
   <g id="patch_27">
    <path d="M 454.877622 194.739667 
L 457.901785 194.739667 
L 457.901785 194.739667 
L 454.877622 194.739667 
z
" clip-path="url(#p0a61295244)" style="fill: #d95319; opacity: 0.8"/>
   </g>
   <g id="patch_28">
    <path d="M 457.901785 194.739667 
L 460.925948 194.739667 
L 460.925948 194.739667 
L 457.901785 194.739667 
z
" clip-path="url(#p0a61295244)" style="fill: #d95319; opacity: 0.8"/>
   </g>
   <g id="patch_29">
    <path d="M 460.925948 194.739667 
L 463.950111 194.739667 
L 463.950111 194.739667 
L 460.925948 194.739667 
z
" clip-path="url(#p0a61295244)" style="fill: #d95319; opacity: 0.8"/>
   </g>
   <g id="patch_30">
    <path d="M 463.950111 194.739667 
L 466.974274 194.739667 
L 466.974274 194.739667 
L 463.950111 194.739667 
z
" clip-path="url(#p0a61295244)" style="fill: #d95319; opacity: 0.8"/>
   </g>
   <g id="patch_31">
    <path d="M 466.974274 194.739667 
L 469.998437 194.739667 
L 469.998437 194.739667 
L 466.974274 194.739667 
z
" clip-path="url(#p0a61295244)" style="fill: #d95319; opacity: 0.8"/>
   </g>
   <g id="patch_32">
    <path d="M 469.998437 194.739667 
L 473.0226 194.739667 
L 473.0226 194.739667 
L 469.998437 194.739667 
z
" clip-path="url(#p0a61295244)" style="fill: #d95319; opacity: 0.8"/>
   </g>
   <g id="patch_33">
    <path d="M 473.0226 194.739667 
L 476.046763 194.739667 
L 476.046763 194.739667 
L 473.0226 194.739667 
z
" clip-path="url(#p0a61295244)" style="fill: #d95319; opacity: 0.8"/>
   </g>
   <g id="patch_34">
    <path d="M 476.046763 194.739667 
L 479.070926 194.739667 
L 479.070926 194.739667 
L 476.046763 194.739667 
z
" clip-path="url(#p0a61295244)" style="fill: #d95319; opacity: 0.8"/>
   </g>
   <g id="patch_35">
    <path d="M 479.070926 194.739667 
L 482.095089 194.739667 
L 482.095089 181.976403 
L 479.070926 181.976403 
z
" clip-path="url(#p0a61295244)" style="fill: #d95319; opacity: 0.8"/>
   </g>
   <g id="patch_36">
    <path d="M 482.095089 194.739667 
L 485.119252 194.739667 
L 485.119252 194.739667 
L 482.095089 194.739667 
z
" clip-path="url(#p0a61295244)" style="fill: #d95319; opacity: 0.8"/>
   </g>
   <g id="patch_37">
    <path d="M 485.119252 194.739667 
L 488.143415 194.739667 
L 488.143415 169.213139 
L 485.119252 169.213139 
z
" clip-path="url(#p0a61295244)" style="fill: #d95319; opacity: 0.8"/>
   </g>
   <g id="patch_38">
    <path d="M 488.143415 194.739667 
L 491.167579 194.739667 
L 491.167579 118.160082 
L 488.143415 118.160082 
z
" clip-path="url(#p0a61295244)" style="fill: #d95319; opacity: 0.8"/>
   </g>
   <g id="patch_39">
    <path d="M 491.167579 194.739667 
L 494.191742 194.739667 
L 494.191742 54.34376 
L 491.167579 54.34376 
z
" clip-path="url(#p0a61295244)" style="fill: #d95319; opacity: 0.8"/>
   </g>
   <g id="patch_40">
    <path d="M 494.191742 194.739667 
L 497.215905 194.739667 
L 497.215905 67.107025 
L 494.191742 67.107025 
z
" clip-path="url(#p0a61295244)" style="fill: #d95319; opacity: 0.8"/>
   </g>
   <g id="patch_41">
    <path d="M 497.215905 194.739667 
L 500.240068 194.739667 
L 500.240068 169.213139 
L 497.215905 169.213139 
z
" clip-path="url(#p0a61295244)" style="fill: #d95319; opacity: 0.8"/>
   </g>
   <g id="patch_42">
    <path d="M 500.240068 194.739667 
L 503.264231 194.739667 
L 503.264231 156.449875 
L 500.240068 156.449875 
z
" clip-path="url(#p0a61295244)" style="fill: #d95319; opacity: 0.8"/>
   </g>
   <g id="patch_43">
    <path d="M 503.264231 194.739667 
L 506.288394 194.739667 
L 506.288394 181.976403 
L 503.264231 181.976403 
z
" clip-path="url(#p0a61295244)" style="fill: #d95319; opacity: 0.8"/>
   </g>
   <g id="patch_44">
    <path d="M 506.288394 194.739667 
L 509.312557 194.739667 
L 509.312557 194.739667 
L 506.288394 194.739667 
z
" clip-path="url(#p0a61295244)" style="fill: #d95319; opacity: 0.8"/>
   </g>
   <g id="patch_45">
    <path d="M 509.312557 194.739667 
L 512.33672 194.739667 
L 512.33672 194.739667 
L 509.312557 194.739667 
z
" clip-path="url(#p0a61295244)" style="fill: #d95319; opacity: 0.8"/>
   </g>
   <g id="patch_46">
    <path d="M 512.33672 194.739667 
L 515.360883 194.739667 
L 515.360883 194.739667 
L 512.33672 194.739667 
z
" clip-path="url(#p0a61295244)" style="fill: #d95319; opacity: 0.8"/>
   </g>
   <g id="patch_47">
    <path d="M 515.360883 194.739667 
L 518.385046 194.739667 
L 518.385046 194.739667 
L 515.360883 194.739667 
z
" clip-path="url(#p0a61295244)" style="fill: #d95319; opacity: 0.8"/>
   </g>
   <g id="patch_48">
    <path d="M 518.385046 194.739667 
L 521.409209 194.739667 
L 521.409209 194.739667 
L 518.385046 194.739667 
z
" clip-path="url(#p0a61295244)" style="fill: #d95319; opacity: 0.8"/>
   </g>
   <g id="patch_49">
    <path d="M 403.466851 194.739667 
L 406.491014 194.739667 
L 406.491014 194.739667 
L 403.466851 194.739667 
z
" clip-path="url(#p0a61295244)" style="fill: #edb120; opacity: 0.8"/>
   </g>
   <g id="patch_50">
    <path d="M 406.491014 194.739667 
L 409.515177 194.739667 
L 409.515177 194.739667 
L 406.491014 194.739667 
z
" clip-path="url(#p0a61295244)" style="fill: #edb120; opacity: 0.8"/>
   </g>
   <g id="patch_51">
    <path d="M 409.515177 194.739667 
L 412.53934 194.739667 
L 412.53934 194.739667 
L 409.515177 194.739667 
z
" clip-path="url(#p0a61295244)" style="fill: #edb120; opacity: 0.8"/>
   </g>
   <g id="patch_52">
    <path d="M 412.53934 194.739667 
L 415.563503 194.739667 
L 415.563503 194.739667 
L 412.53934 194.739667 
z
" clip-path="url(#p0a61295244)" style="fill: #edb120; opacity: 0.8"/>
   </g>
   <g id="patch_53">
    <path d="M 415.563503 194.739667 
L 418.587666 194.739667 
L 418.587666 194.739667 
L 415.563503 194.739667 
z
" clip-path="url(#p0a61295244)" style="fill: #edb120; opacity: 0.8"/>
   </g>
   <g id="patch_54">
    <path d="M 418.587666 194.739667 
L 421.611829 194.739667 
L 421.611829 194.739667 
L 418.587666 194.739667 
z
" clip-path="url(#p0a61295244)" style="fill: #edb120; opacity: 0.8"/>
   </g>
   <g id="patch_55">
    <path d="M 421.611829 194.739667 
L 424.635992 194.739667 
L 424.635992 194.739667 
L 421.611829 194.739667 
z
" clip-path="url(#p0a61295244)" style="fill: #edb120; opacity: 0.8"/>
   </g>
   <g id="patch_56">
    <path d="M 424.635992 194.739667 
L 427.660155 194.739667 
L 427.660155 194.739667 
L 424.635992 194.739667 
z
" clip-path="url(#p0a61295244)" style="fill: #edb120; opacity: 0.8"/>
   </g>
   <g id="patch_57">
    <path d="M 427.660155 194.739667 
L 430.684318 194.739667 
L 430.684318 194.739667 
L 427.660155 194.739667 
z
" clip-path="url(#p0a61295244)" style="fill: #edb120; opacity: 0.8"/>
   </g>
   <g id="patch_58">
    <path d="M 430.684318 194.739667 
L 433.708481 194.739667 
L 433.708481 194.739667 
L 430.684318 194.739667 
z
" clip-path="url(#p0a61295244)" style="fill: #edb120; opacity: 0.8"/>
   </g>
   <g id="patch_59">
    <path d="M 433.708481 194.739667 
L 436.732644 194.739667 
L 436.732644 194.739667 
L 433.708481 194.739667 
z
" clip-path="url(#p0a61295244)" style="fill: #edb120; opacity: 0.8"/>
   </g>
   <g id="patch_60">
    <path d="M 436.732644 194.739667 
L 439.756807 194.739667 
L 439.756807 194.739667 
L 436.732644 194.739667 
z
" clip-path="url(#p0a61295244)" style="fill: #edb120; opacity: 0.8"/>
   </g>
   <g id="patch_61">
    <path d="M 439.756807 194.739667 
L 442.78097 194.739667 
L 442.78097 194.739667 
L 439.756807 194.739667 
z
" clip-path="url(#p0a61295244)" style="fill: #edb120; opacity: 0.8"/>
   </g>
   <g id="patch_62">
    <path d="M 442.78097 194.739667 
L 445.805133 194.739667 
L 445.805133 194.739667 
L 442.78097 194.739667 
z
" clip-path="url(#p0a61295244)" style="fill: #edb120; opacity: 0.8"/>
   </g>
   <g id="patch_63">
    <path d="M 445.805133 194.739667 
L 448.829296 194.739667 
L 448.829296 194.739667 
L 445.805133 194.739667 
z
" clip-path="url(#p0a61295244)" style="fill: #edb120; opacity: 0.8"/>
   </g>
   <g id="patch_64">
    <path d="M 448.829296 194.739667 
L 451.853459 194.739667 
L 451.853459 194.739667 
L 448.829296 194.739667 
z
" clip-path="url(#p0a61295244)" style="fill: #edb120; opacity: 0.8"/>
   </g>
   <g id="patch_65">
    <path d="M 451.853459 194.739667 
L 454.877622 194.739667 
L 454.877622 194.739667 
L 451.853459 194.739667 
z
" clip-path="url(#p0a61295244)" style="fill: #edb120; opacity: 0.8"/>
   </g>
   <g id="patch_66">
    <path d="M 454.877622 194.739667 
L 457.901785 194.739667 
L 457.901785 194.739667 
L 454.877622 194.739667 
z
" clip-path="url(#p0a61295244)" style="fill: #edb120; opacity: 0.8"/>
   </g>
   <g id="patch_67">
    <path d="M 457.901785 194.739667 
L 460.925948 194.739667 
L 460.925948 194.739667 
L 457.901785 194.739667 
z
" clip-path="url(#p0a61295244)" style="fill: #edb120; opacity: 0.8"/>
   </g>
   <g id="patch_68">
    <path d="M 460.925948 194.739667 
L 463.950111 194.739667 
L 463.950111 194.739667 
L 460.925948 194.739667 
z
" clip-path="url(#p0a61295244)" style="fill: #edb120; opacity: 0.8"/>
   </g>
   <g id="patch_69">
    <path d="M 463.950111 194.739667 
L 466.974274 194.739667 
L 466.974274 194.739667 
L 463.950111 194.739667 
z
" clip-path="url(#p0a61295244)" style="fill: #edb120; opacity: 0.8"/>
   </g>
   <g id="patch_70">
    <path d="M 466.974274 194.739667 
L 469.998437 194.739667 
L 469.998437 194.739667 
L 466.974274 194.739667 
z
" clip-path="url(#p0a61295244)" style="fill: #edb120; opacity: 0.8"/>
   </g>
   <g id="patch_71">
    <path d="M 469.998437 194.739667 
L 473.0226 194.739667 
L 473.0226 194.739667 
L 469.998437 194.739667 
z
" clip-path="url(#p0a61295244)" style="fill: #edb120; opacity: 0.8"/>
   </g>
   <g id="patch_72">
    <path d="M 473.0226 194.739667 
L 476.046763 194.739667 
L 476.046763 194.739667 
L 473.0226 194.739667 
z
" clip-path="url(#p0a61295244)" style="fill: #edb120; opacity: 0.8"/>
   </g>
   <g id="patch_73">
    <path d="M 476.046763 194.739667 
L 479.070926 194.739667 
L 479.070926 194.739667 
L 476.046763 194.739667 
z
" clip-path="url(#p0a61295244)" style="fill: #edb120; opacity: 0.8"/>
   </g>
   <g id="patch_74">
    <path d="M 479.070926 194.739667 
L 482.095089 194.739667 
L 482.095089 181.976403 
L 479.070926 181.976403 
z
" clip-path="url(#p0a61295244)" style="fill: #edb120; opacity: 0.8"/>
   </g>
   <g id="patch_75">
    <path d="M 482.095089 194.739667 
L 485.119252 194.739667 
L 485.119252 194.739667 
L 482.095089 194.739667 
z
" clip-path="url(#p0a61295244)" style="fill: #edb120; opacity: 0.8"/>
   </g>
   <g id="patch_76">
    <path d="M 485.119252 194.739667 
L 488.143415 194.739667 
L 488.143415 194.739667 
L 485.119252 194.739667 
z
" clip-path="url(#p0a61295244)" style="fill: #edb120; opacity: 0.8"/>
   </g>
   <g id="patch_77">
    <path d="M 488.143415 194.739667 
L 491.167579 194.739667 
L 491.167579 194.739667 
L 488.143415 194.739667 
z
" clip-path="url(#p0a61295244)" style="fill: #edb120; opacity: 0.8"/>
   </g>
   <g id="patch_78">
    <path d="M 491.167579 194.739667 
L 494.191742 194.739667 
L 494.191742 181.976403 
L 491.167579 181.976403 
z
" clip-path="url(#p0a61295244)" style="fill: #edb120; opacity: 0.8"/>
   </g>
   <g id="patch_79">
    <path d="M 494.191742 194.739667 
L 497.215905 194.739667 
L 497.215905 92.633553 
L 494.191742 92.633553 
z
" clip-path="url(#p0a61295244)" style="fill: #edb120; opacity: 0.8"/>
   </g>
   <g id="patch_80">
    <path d="M 497.215905 194.739667 
L 500.240068 194.739667 
L 500.240068 79.870289 
L 497.215905 79.870289 
z
" clip-path="url(#p0a61295244)" style="fill: #edb120; opacity: 0.8"/>
   </g>
   <g id="patch_81">
    <path d="M 500.240068 194.739667 
L 503.264231 194.739667 
L 503.264231 41.580496 
L 500.240068 41.580496 
z
" clip-path="url(#p0a61295244)" style="fill: #edb120; opacity: 0.8"/>
   </g>
   <g id="patch_82">
    <path d="M 503.264231 194.739667 
L 506.288394 194.739667 
L 506.288394 169.213139 
L 503.264231 169.213139 
z
" clip-path="url(#p0a61295244)" style="fill: #edb120; opacity: 0.8"/>
   </g>
   <g id="patch_83">
    <path d="M 506.288394 194.739667 
L 509.312557 194.739667 
L 509.312557 181.976403 
L 506.288394 181.976403 
z
" clip-path="url(#p0a61295244)" style="fill: #edb120; opacity: 0.8"/>
   </g>
   <g id="patch_84">
    <path d="M 509.312557 194.739667 
L 512.33672 194.739667 
L 512.33672 169.213139 
L 509.312557 169.213139 
z
" clip-path="url(#p0a61295244)" style="fill: #edb120; opacity: 0.8"/>
   </g>
   <g id="patch_85">
    <path d="M 512.33672 194.739667 
L 515.360883 194.739667 
L 515.360883 194.739667 
L 512.33672 194.739667 
z
" clip-path="url(#p0a61295244)" style="fill: #edb120; opacity: 0.8"/>
   </g>
   <g id="patch_86">
    <path d="M 515.360883 194.739667 
L 518.385046 194.739667 
L 518.385046 194.739667 
L 515.360883 194.739667 
z
" clip-path="url(#p0a61295244)" style="fill: #edb120; opacity: 0.8"/>
   </g>
   <g id="patch_87">
    <path d="M 518.385046 194.739667 
L 521.409209 194.739667 
L 521.409209 194.739667 
L 518.385046 194.739667 
z
" clip-path="url(#p0a61295244)" style="fill: #edb120; opacity: 0.8"/>
   </g>
   <g id="patch_88">
    <path d="M 403.466851 194.739667 
L 406.491014 194.739667 
L 406.491014 194.739667 
L 403.466851 194.739667 
z
" clip-path="url(#p0a61295244)" style="fill: #7e2f8e; opacity: 0.8"/>
   </g>
   <g id="patch_89">
    <path d="M 406.491014 194.739667 
L 409.515177 194.739667 
L 409.515177 194.739667 
L 406.491014 194.739667 
z
" clip-path="url(#p0a61295244)" style="fill: #7e2f8e; opacity: 0.8"/>
   </g>
   <g id="patch_90">
    <path d="M 409.515177 194.739667 
L 412.53934 194.739667 
L 412.53934 194.739667 
L 409.515177 194.739667 
z
" clip-path="url(#p0a61295244)" style="fill: #7e2f8e; opacity: 0.8"/>
   </g>
   <g id="patch_91">
    <path d="M 412.53934 194.739667 
L 415.563503 194.739667 
L 415.563503 194.739667 
L 412.53934 194.739667 
z
" clip-path="url(#p0a61295244)" style="fill: #7e2f8e; opacity: 0.8"/>
   </g>
   <g id="patch_92">
    <path d="M 415.563503 194.739667 
L 418.587666 194.739667 
L 418.587666 194.739667 
L 415.563503 194.739667 
z
" clip-path="url(#p0a61295244)" style="fill: #7e2f8e; opacity: 0.8"/>
   </g>
   <g id="patch_93">
    <path d="M 418.587666 194.739667 
L 421.611829 194.739667 
L 421.611829 194.739667 
L 418.587666 194.739667 
z
" clip-path="url(#p0a61295244)" style="fill: #7e2f8e; opacity: 0.8"/>
   </g>
   <g id="patch_94">
    <path d="M 421.611829 194.739667 
L 424.635992 194.739667 
L 424.635992 181.976403 
L 421.611829 181.976403 
z
" clip-path="url(#p0a61295244)" style="fill: #7e2f8e; opacity: 0.8"/>
   </g>
   <g id="patch_95">
    <path d="M 424.635992 194.739667 
L 427.660155 194.739667 
L 427.660155 194.739667 
L 424.635992 194.739667 
z
" clip-path="url(#p0a61295244)" style="fill: #7e2f8e; opacity: 0.8"/>
   </g>
   <g id="patch_96">
    <path d="M 427.660155 194.739667 
L 430.684318 194.739667 
L 430.684318 194.739667 
L 427.660155 194.739667 
z
" clip-path="url(#p0a61295244)" style="fill: #7e2f8e; opacity: 0.8"/>
   </g>
   <g id="patch_97">
    <path d="M 430.684318 194.739667 
L 433.708481 194.739667 
L 433.708481 194.739667 
L 430.684318 194.739667 
z
" clip-path="url(#p0a61295244)" style="fill: #7e2f8e; opacity: 0.8"/>
   </g>
   <g id="patch_98">
    <path d="M 433.708481 194.739667 
L 436.732644 194.739667 
L 436.732644 194.739667 
L 433.708481 194.739667 
z
" clip-path="url(#p0a61295244)" style="fill: #7e2f8e; opacity: 0.8"/>
   </g>
   <g id="patch_99">
    <path d="M 436.732644 194.739667 
L 439.756807 194.739667 
L 439.756807 194.739667 
L 436.732644 194.739667 
z
" clip-path="url(#p0a61295244)" style="fill: #7e2f8e; opacity: 0.8"/>
   </g>
   <g id="patch_100">
    <path d="M 439.756807 194.739667 
L 442.78097 194.739667 
L 442.78097 194.739667 
L 439.756807 194.739667 
z
" clip-path="url(#p0a61295244)" style="fill: #7e2f8e; opacity: 0.8"/>
   </g>
   <g id="patch_101">
    <path d="M 442.78097 194.739667 
L 445.805133 194.739667 
L 445.805133 194.739667 
L 442.78097 194.739667 
z
" clip-path="url(#p0a61295244)" style="fill: #7e2f8e; opacity: 0.8"/>
   </g>
   <g id="patch_102">
    <path d="M 445.805133 194.739667 
L 448.829296 194.739667 
L 448.829296 130.923346 
L 445.805133 130.923346 
z
" clip-path="url(#p0a61295244)" style="fill: #7e2f8e; opacity: 0.8"/>
   </g>
   <g id="patch_103">
    <path d="M 448.829296 194.739667 
L 451.853459 194.739667 
L 451.853459 143.68661 
L 448.829296 143.68661 
z
" clip-path="url(#p0a61295244)" style="fill: #7e2f8e; opacity: 0.8"/>
   </g>
   <g id="patch_104">
    <path d="M 451.853459 194.739667 
L 454.877622 194.739667 
L 454.877622 67.107025 
L 451.853459 67.107025 
z
" clip-path="url(#p0a61295244)" style="fill: #7e2f8e; opacity: 0.8"/>
   </g>
   <g id="patch_105">
    <path d="M 454.877622 194.739667 
L 457.901785 194.739667 
L 457.901785 79.870289 
L 454.877622 79.870289 
z
" clip-path="url(#p0a61295244)" style="fill: #7e2f8e; opacity: 0.8"/>
   </g>
   <g id="patch_106">
    <path d="M 457.901785 194.739667 
L 460.925948 194.739667 
L 460.925948 156.449875 
L 457.901785 156.449875 
z
" clip-path="url(#p0a61295244)" style="fill: #7e2f8e; opacity: 0.8"/>
   </g>
   <g id="patch_107">
    <path d="M 460.925948 194.739667 
L 463.950111 194.739667 
L 463.950111 156.449875 
L 460.925948 156.449875 
z
" clip-path="url(#p0a61295244)" style="fill: #7e2f8e; opacity: 0.8"/>
   </g>
   <g id="patch_108">
    <path d="M 463.950111 194.739667 
L 466.974274 194.739667 
L 466.974274 181.976403 
L 463.950111 181.976403 
z
" clip-path="url(#p0a61295244)" style="fill: #7e2f8e; opacity: 0.8"/>
   </g>
   <g id="patch_109">
    <path d="M 466.974274 194.739667 
L 469.998437 194.739667 
L 469.998437 194.739667 
L 466.974274 194.739667 
z
" clip-path="url(#p0a61295244)" style="fill: #7e2f8e; opacity: 0.8"/>
   </g>
   <g id="patch_110">
    <path d="M 469.998437 194.739667 
L 473.0226 194.739667 
L 473.0226 194.739667 
L 469.998437 194.739667 
z
" clip-path="url(#p0a61295244)" style="fill: #7e2f8e; opacity: 0.8"/>
   </g>
   <g id="patch_111">
    <path d="M 473.0226 194.739667 
L 476.046763 194.739667 
L 476.046763 194.739667 
L 473.0226 194.739667 
z
" clip-path="url(#p0a61295244)" style="fill: #7e2f8e; opacity: 0.8"/>
   </g>
   <g id="patch_112">
    <path d="M 476.046763 194.739667 
L 479.070926 194.739667 
L 479.070926 194.739667 
L 476.046763 194.739667 
z
" clip-path="url(#p0a61295244)" style="fill: #7e2f8e; opacity: 0.8"/>
   </g>
   <g id="patch_113">
    <path d="M 479.070926 194.739667 
L 482.095089 194.739667 
L 482.095089 194.739667 
L 479.070926 194.739667 
z
" clip-path="url(#p0a61295244)" style="fill: #7e2f8e; opacity: 0.8"/>
   </g>
   <g id="patch_114">
    <path d="M 482.095089 194.739667 
L 485.119252 194.739667 
L 485.119252 194.739667 
L 482.095089 194.739667 
z
" clip-path="url(#p0a61295244)" style="fill: #7e2f8e; opacity: 0.8"/>
   </g>
   <g id="patch_115">
    <path d="M 485.119252 194.739667 
L 488.143415 194.739667 
L 488.143415 194.739667 
L 485.119252 194.739667 
z
" clip-path="url(#p0a61295244)" style="fill: #7e2f8e; opacity: 0.8"/>
   </g>
   <g id="patch_116">
    <path d="M 488.143415 194.739667 
L 491.167579 194.739667 
L 491.167579 194.739667 
L 488.143415 194.739667 
z
" clip-path="url(#p0a61295244)" style="fill: #7e2f8e; opacity: 0.8"/>
   </g>
   <g id="patch_117">
    <path d="M 491.167579 194.739667 
L 494.191742 194.739667 
L 494.191742 194.739667 
L 491.167579 194.739667 
z
" clip-path="url(#p0a61295244)" style="fill: #7e2f8e; opacity: 0.8"/>
   </g>
   <g id="patch_118">
    <path d="M 494.191742 194.739667 
L 497.215905 194.739667 
L 497.215905 194.739667 
L 494.191742 194.739667 
z
" clip-path="url(#p0a61295244)" style="fill: #7e2f8e; opacity: 0.8"/>
   </g>
   <g id="patch_119">
    <path d="M 497.215905 194.739667 
L 500.240068 194.739667 
L 500.240068 194.739667 
L 497.215905 194.739667 
z
" clip-path="url(#p0a61295244)" style="fill: #7e2f8e; opacity: 0.8"/>
   </g>
   <g id="patch_120">
    <path d="M 500.240068 194.739667 
L 503.264231 194.739667 
L 503.264231 194.739667 
L 500.240068 194.739667 
z
" clip-path="url(#p0a61295244)" style="fill: #7e2f8e; opacity: 0.8"/>
   </g>
   <g id="patch_121">
    <path d="M 503.264231 194.739667 
L 506.288394 194.739667 
L 506.288394 194.739667 
L 503.264231 194.739667 
z
" clip-path="url(#p0a61295244)" style="fill: #7e2f8e; opacity: 0.8"/>
   </g>
   <g id="patch_122">
    <path d="M 506.288394 194.739667 
L 509.312557 194.739667 
L 509.312557 194.739667 
L 506.288394 194.739667 
z
" clip-path="url(#p0a61295244)" style="fill: #7e2f8e; opacity: 0.8"/>
   </g>
   <g id="patch_123">
    <path d="M 509.312557 194.739667 
L 512.33672 194.739667 
L 512.33672 194.739667 
L 509.312557 194.739667 
z
" clip-path="url(#p0a61295244)" style="fill: #7e2f8e; opacity: 0.8"/>
   </g>
   <g id="patch_124">
    <path d="M 512.33672 194.739667 
L 515.360883 194.739667 
L 515.360883 194.739667 
L 512.33672 194.739667 
z
" clip-path="url(#p0a61295244)" style="fill: #7e2f8e; opacity: 0.8"/>
   </g>
   <g id="patch_125">
    <path d="M 515.360883 194.739667 
L 518.385046 194.739667 
L 518.385046 194.739667 
L 515.360883 194.739667 
z
" clip-path="url(#p0a61295244)" style="fill: #7e2f8e; opacity: 0.8"/>
   </g>
   <g id="patch_126">
    <path d="M 518.385046 194.739667 
L 521.409209 194.739667 
L 521.409209 194.739667 
L 518.385046 194.739667 
z
" clip-path="url(#p0a61295244)" style="fill: #7e2f8e; opacity: 0.8"/>
   </g>
   <g id="matplotlib.axis_3">
    <g id="xtick_3">
     <g id="line2d_23">
      <path d="M 403.466851 194.739667 
L 403.466851 33.922538 
" clip-path="url(#p0a61295244)" style="fill: none; stroke: #b2b2b2; stroke-opacity: 0.7; stroke-width: 0.5; stroke-linecap: square"/>
     </g>
     <g id="line2d_24">
      <g>
       <use xlink:href="#m72e2f60181" x="403.466851" y="194.739667" style="stroke: #000000; stroke-width: 0.8"/>
      </g>
     </g>
     <g id="text_15">
      <!-- −4 -->
      <g transform="translate(396.305096 205.622309) scale(0.09716 -0.09716)">
       <use xlink:href="#DejaVuSans-2212"/>
       <use xlink:href="#DejaVuSans-34" x="83.789062"/>
      </g>
     </g>
    </g>
    <g id="xtick_4">
     <g id="line2d_25">
      <path d="M 450.643794 194.739667 
L 450.643794 33.922538 
" clip-path="url(#p0a61295244)" style="fill: none; stroke: #b2b2b2; stroke-opacity: 0.7; stroke-width: 0.5; stroke-linecap: square"/>
     </g>
     <g id="line2d_26">
      <g>
       <use xlink:href="#m72e2f60181" x="450.643794" y="194.739667" style="stroke: #000000; stroke-width: 0.8"/>
      </g>
     </g>
     <g id="text_16">
      <!-- −2 -->
      <g transform="translate(443.482039 205.622309) scale(0.09716 -0.09716)">
       <use xlink:href="#DejaVuSans-2212"/>
       <use xlink:href="#DejaVuSans-32" x="83.789062"/>
      </g>
     </g>
    </g>
    <g id="xtick_5">
     <g id="line2d_27">
      <path d="M 497.820737 194.739667 
L 497.820737 33.922538 
" clip-path="url(#p0a61295244)" style="fill: none; stroke: #b2b2b2; stroke-opacity: 0.7; stroke-width: 0.5; stroke-linecap: square"/>
     </g>
     <g id="line2d_28">
      <g>
       <use xlink:href="#m72e2f60181" x="497.820737" y="194.739667" style="stroke: #000000; stroke-width: 0.8"/>
      </g>
     </g>
     <g id="text_17">
      <!-- 0 -->
      <g transform="translate(494.729835 205.622309) scale(0.09716 -0.09716)">
       <use xlink:href="#DejaVuSans-30"/>
      </g>
     </g>
    </g>
    <g id="text_18">
     <!-- df/f ($\times 10^5$) -->
     <g transform="translate(419.331324 221.346082) scale(0.11662 -0.11662)">
      <defs>
       <path id="DejaVuSans-66" d="M 2375 4863 
L 2375 4384 
L 1825 4384 
Q 1516 4384 1395 4259 
Q 1275 4134 1275 3809 
L 1275 3500 
L 2222 3500 
L 2222 3053 
L 1275 3053 
L 1275 0 
L 697 0 
L 697 3053 
L 147 3053 
L 147 3500 
L 697 3500 
L 697 3744 
Q 697 4328 969 4595 
Q 1241 4863 1831 4863 
L 2375 4863 
z
" transform="scale(0.015625)"/>
       <path id="DejaVuSans-2f" d="M 1625 4666 
L 2156 4666 
L 531 -594 
L 0 -594 
L 1625 4666 
z
" transform="scale(0.015625)"/>
       <path id="DejaVuSans-d7" d="M 4488 3438 
L 3059 2003 
L 4488 575 
L 4116 197 
L 2681 1631 
L 1247 197 
L 878 575 
L 2303 2003 
L 878 3438 
L 1247 3816 
L 2681 2381 
L 4116 3816 
L 4488 3438 
z
" transform="scale(0.015625)"/>
      </defs>
      <use xlink:href="#DejaVuSans-64" transform="translate(0 0.684375)"/>
      <use xlink:href="#DejaVuSans-66" transform="translate(63.476562 0.684375)"/>
      <use xlink:href="#DejaVuSans-2f" transform="translate(98.681641 0.684375)"/>
      <use xlink:href="#DejaVuSans-66" transform="translate(132.373047 0.684375)"/>
      <use xlink:href="#DejaVuSans-20" transform="translate(167.578125 0.684375)"/>
      <use xlink:href="#DejaVuSans-28" transform="translate(199.365234 0.684375)"/>
      <use xlink:href="#DejaVuSans-d7" transform="translate(238.378906 0.684375)"/>
      <use xlink:href="#DejaVuSans-31" transform="translate(322.167969 0.684375)"/>
      <use xlink:href="#DejaVuSans-30" transform="translate(385.791016 0.684375)"/>
      <use xlink:href="#DejaVuSans-35" transform="translate(450.371094 38.965625) scale(0.7)"/>
      <use xlink:href="#DejaVuSans-29" transform="translate(497.641602 0.684375)"/>
     </g>
    </g>
   </g>
   <g id="matplotlib.axis_4">
    <g id="ytick_6">
     <g id="line2d_29">
      <path d="M 379.878379 194.739667 
L 521.409209 194.739667 
" clip-path="url(#p0a61295244)" style="fill: none; stroke: #b2b2b2; stroke-opacity: 0.7; stroke-width: 0.5; stroke-linecap: square"/>
     </g>
     <g id="line2d_30">
      <g>
       <use xlink:href="#mf07708aa0f" x="379.878379" y="194.739667" style="stroke: #000000; stroke-width: 0.8"/>
      </g>
     </g>
     <g id="text_19">
      <!-- 0 -->
      <g transform="translate(370.196574 198.430988) scale(0.09716 -0.09716)">
       <use xlink:href="#DejaVuSans-30"/>
      </g>
     </g>
    </g>
    <g id="ytick_7">
     <g id="line2d_31">
      <path d="M 379.878379 169.213139 
L 521.409209 169.213139 
" clip-path="url(#p0a61295244)" style="fill: none; stroke: #b2b2b2; stroke-opacity: 0.7; stroke-width: 0.5; stroke-linecap: square"/>
     </g>
     <g id="line2d_32">
      <g>
       <use xlink:href="#mf07708aa0f" x="379.878379" y="169.213139" style="stroke: #000000; stroke-width: 0.8"/>
      </g>
     </g>
     <g id="text_20">
      <!-- 2 -->
      <g transform="translate(370.196574 172.90446) scale(0.09716 -0.09716)">
       <use xlink:href="#DejaVuSans-32"/>
      </g>
     </g>
    </g>
    <g id="ytick_8">
     <g id="line2d_33">
      <path d="M 379.878379 143.68661 
L 521.409209 143.68661 
" clip-path="url(#p0a61295244)" style="fill: none; stroke: #b2b2b2; stroke-opacity: 0.7; stroke-width: 0.5; stroke-linecap: square"/>
     </g>
     <g id="line2d_34">
      <g>
       <use xlink:href="#mf07708aa0f" x="379.878379" y="143.68661" style="stroke: #000000; stroke-width: 0.8"/>
      </g>
     </g>
     <g id="text_21">
      <!-- 4 -->
      <g transform="translate(370.196574 147.377931) scale(0.09716 -0.09716)">
       <use xlink:href="#DejaVuSans-34"/>
      </g>
     </g>
    </g>
    <g id="ytick_9">
     <g id="line2d_35">
      <path d="M 379.878379 118.160082 
L 521.409209 118.160082 
" clip-path="url(#p0a61295244)" style="fill: none; stroke: #b2b2b2; stroke-opacity: 0.7; stroke-width: 0.5; stroke-linecap: square"/>
     </g>
     <g id="line2d_36">
      <g>
       <use xlink:href="#mf07708aa0f" x="379.878379" y="118.160082" style="stroke: #000000; stroke-width: 0.8"/>
      </g>
     </g>
     <g id="text_22">
      <!-- 6 -->
      <g transform="translate(370.196574 121.851403) scale(0.09716 -0.09716)">
       <defs>
        <path id="DejaVuSans-36" d="M 2113 2584 
Q 1688 2584 1439 2293 
Q 1191 2003 1191 1497 
Q 1191 994 1439 701 
Q 1688 409 2113 409 
Q 2538 409 2786 701 
Q 3034 994 3034 1497 
Q 3034 2003 2786 2293 
Q 2538 2584 2113 2584 
z
M 3366 4563 
L 3366 3988 
Q 3128 4100 2886 4159 
Q 2644 4219 2406 4219 
Q 1781 4219 1451 3797 
Q 1122 3375 1075 2522 
Q 1259 2794 1537 2939 
Q 1816 3084 2150 3084 
Q 2853 3084 3261 2657 
Q 3669 2231 3669 1497 
Q 3669 778 3244 343 
Q 2819 -91 2113 -91 
Q 1303 -91 875 529 
Q 447 1150 447 2328 
Q 447 3434 972 4092 
Q 1497 4750 2381 4750 
Q 2619 4750 2861 4703 
Q 3103 4656 3366 4563 
z
" transform="scale(0.015625)"/>
       </defs>
       <use xlink:href="#DejaVuSans-36"/>
      </g>
     </g>
    </g>
    <g id="ytick_10">
     <g id="line2d_37">
      <path d="M 379.878379 92.633553 
L 521.409209 92.633553 
" clip-path="url(#p0a61295244)" style="fill: none; stroke: #b2b2b2; stroke-opacity: 0.7; stroke-width: 0.5; stroke-linecap: square"/>
     </g>
     <g id="line2d_38">
      <g>
       <use xlink:href="#mf07708aa0f" x="379.878379" y="92.633553" style="stroke: #000000; stroke-width: 0.8"/>
      </g>
     </g>
     <g id="text_23">
      <!-- 8 -->
      <g transform="translate(370.196574 96.324874) scale(0.09716 -0.09716)">
       <defs>
        <path id="DejaVuSans-38" d="M 2034 2216 
Q 1584 2216 1326 1975 
Q 1069 1734 1069 1313 
Q 1069 891 1326 650 
Q 1584 409 2034 409 
Q 2484 409 2743 651 
Q 3003 894 3003 1313 
Q 3003 1734 2745 1975 
Q 2488 2216 2034 2216 
z
M 1403 2484 
Q 997 2584 770 2862 
Q 544 3141 544 3541 
Q 544 4100 942 4425 
Q 1341 4750 2034 4750 
Q 2731 4750 3128 4425 
Q 3525 4100 3525 3541 
Q 3525 3141 3298 2862 
Q 3072 2584 2669 2484 
Q 3125 2378 3379 2068 
Q 3634 1759 3634 1313 
Q 3634 634 3220 271 
Q 2806 -91 2034 -91 
Q 1263 -91 848 271 
Q 434 634 434 1313 
Q 434 1759 690 2068 
Q 947 2378 1403 2484 
z
M 1172 3481 
Q 1172 3119 1398 2916 
Q 1625 2713 2034 2713 
Q 2441 2713 2670 2916 
Q 2900 3119 2900 3481 
Q 2900 3844 2670 4047 
Q 2441 4250 2034 4250 
Q 1625 4250 1398 4047 
Q 1172 3844 1172 3481 
z
" transform="scale(0.015625)"/>
       </defs>
       <use xlink:href="#DejaVuSans-38"/>
      </g>
     </g>
    </g>
    <g id="ytick_11">
     <g id="line2d_39">
      <path d="M 379.878379 67.107025 
L 521.409209 67.107025 
" clip-path="url(#p0a61295244)" style="fill: none; stroke: #b2b2b2; stroke-opacity: 0.7; stroke-width: 0.5; stroke-linecap: square"/>
     </g>
     <g id="line2d_40">
      <g>
       <use xlink:href="#mf07708aa0f" x="379.878379" y="67.107025" style="stroke: #000000; stroke-width: 0.8"/>
      </g>
     </g>
     <g id="text_24">
      <!-- 10 -->
      <g transform="translate(364.014769 70.798346) scale(0.09716 -0.09716)">
       <use xlink:href="#DejaVuSans-31"/>
       <use xlink:href="#DejaVuSans-30" x="63.623047"/>
      </g>
     </g>
    </g>
    <g id="ytick_12">
     <g id="line2d_41">
      <path d="M 379.878379 41.580496 
L 521.409209 41.580496 
" clip-path="url(#p0a61295244)" style="fill: none; stroke: #b2b2b2; stroke-opacity: 0.7; stroke-width: 0.5; stroke-linecap: square"/>
     </g>
     <g id="line2d_42">
      <g>
       <use xlink:href="#mf07708aa0f" x="379.878379" y="41.580496" style="stroke: #000000; stroke-width: 0.8"/>
      </g>
     </g>
     <g id="text_25">
      <!-- 12 -->
      <g transform="translate(364.014769 45.271817) scale(0.09716 -0.09716)">
       <use xlink:href="#DejaVuSans-31"/>
       <use xlink:href="#DejaVuSans-32" x="63.623047"/>
      </g>
     </g>
    </g>
    <g id="text_26">
     <!-- Counts -->
     <g transform="translate(357.589437 134.684937) rotate(-90) scale(0.11662 -0.11662)">
      <defs>
       <path id="DejaVuSans-43" d="M 4122 4306 
L 4122 3641 
Q 3803 3938 3442 4084 
Q 3081 4231 2675 4231 
Q 1875 4231 1450 3742 
Q 1025 3253 1025 2328 
Q 1025 1406 1450 917 
Q 1875 428 2675 428 
Q 3081 428 3442 575 
Q 3803 722 4122 1019 
L 4122 359 
Q 3791 134 3420 21 
Q 3050 -91 2638 -91 
Q 1578 -91 968 557 
Q 359 1206 359 2328 
Q 359 3453 968 4101 
Q 1578 4750 2638 4750 
Q 3056 4750 3426 4639 
Q 3797 4528 4122 4306 
z
" transform="scale(0.015625)"/>
      </defs>
      <use xlink:href="#DejaVuSans-43"/>
      <use xlink:href="#DejaVuSans-6f" x="69.824219"/>
      <use xlink:href="#DejaVuSans-75" x="131.005859"/>
      <use xlink:href="#DejaVuSans-6e" x="194.384766"/>
      <use xlink:href="#DejaVuSans-74" x="257.763672"/>
      <use xlink:href="#DejaVuSans-73" x="296.972656"/>
     </g>
    </g>
   </g>
   <g id="patch_127">
    <path d="M 379.878379 194.739667 
L 379.878379 33.922538 
" style="fill: none; stroke: #000000; stroke-width: 0.8; stroke-linejoin: miter; stroke-linecap: square"/>
   </g>
   <g id="patch_128">
    <path d="M 521.409209 194.739667 
L 521.409209 33.922538 
" style="fill: none; stroke: #000000; stroke-width: 0.8; stroke-linejoin: miter; stroke-linecap: square"/>
   </g>
   <g id="patch_129">
    <path d="M 379.878379 194.739667 
L 521.409209 194.739667 
" style="fill: none; stroke: #000000; stroke-width: 0.8; stroke-linejoin: miter; stroke-linecap: square"/>
   </g>
   <g id="patch_130">
    <path d="M 379.878379 33.922538 
L 521.409209 33.922538 
" style="fill: none; stroke: #000000; stroke-width: 0.8; stroke-linejoin: miter; stroke-linecap: square"/>
   </g>
   <g id="legend_2">
    <g id="patch_131">
     <path d="M 385.552579 76.101602 
L 451.752001 76.101602 
Q 453.373201 76.101602 453.373201 74.480402 
L 453.373201 39.596738 
Q 453.373201 37.975538 451.752001 37.975538 
L 385.552579 37.975538 
Q 383.931379 37.975538 383.931379 39.596738 
L 383.931379 74.480402 
Q 383.931379 76.101602 385.552579 76.101602 
z
" style="fill: #ffffff; opacity: 0.8; stroke: #cccccc; stroke-width: 0.5; stroke-linejoin: miter"/>
    </g>
    <g id="patch_132">
     <path d="M 387.173779 47.377231 
L 403.385779 47.377231 
L 403.385779 41.703031 
L 387.173779 41.703031 
z
" style="fill: #d95319; opacity: 0.8"/>
    </g>
    <g id="text_27">
     <!--  T ⇅ 175K -->
     <g transform="translate(409.870579 47.377231) scale(0.08106 -0.08106)">
      <use xlink:href="#DejaVuSans-20"/>
      <use xlink:href="#DejaVuSans-54" x="31.787109"/>
      <use xlink:href="#DejaVuSans-20" x="92.871094"/>
      <use xlink:href="#DejaVuSans-21c5" x="124.658203"/>
      <use xlink:href="#DejaVuSans-20" x="208.447266"/>
      <use xlink:href="#DejaVuSans-31" x="240.234375"/>
      <use xlink:href="#DejaVuSans-37" x="303.857422"/>
      <use xlink:href="#DejaVuSans-35" x="367.480469"/>
      <use xlink:href="#DejaVuSans-4b" x="431.103516"/>
     </g>
    </g>
    <g id="patch_133">
     <path d="M 387.173779 59.275319 
L 403.385779 59.275319 
L 403.385779 53.601119 
L 387.173779 53.601119 
z
" style="fill: #edb120; opacity: 0.8"/>
    </g>
    <g id="text_28">
     <!-- T ⇅ 22K  -->
     <g transform="translate(409.870579 59.275319) scale(0.08106 -0.08106)">
      <use xlink:href="#DejaVuSans-54"/>
      <use xlink:href="#DejaVuSans-20" x="61.083984"/>
      <use xlink:href="#DejaVuSans-21c5" x="92.871094"/>
      <use xlink:href="#DejaVuSans-20" x="176.660156"/>
      <use xlink:href="#DejaVuSans-32" x="208.447266"/>
      <use xlink:href="#DejaVuSans-32" x="272.070312"/>
      <use xlink:href="#DejaVuSans-4b" x="335.693359"/>
      <use xlink:href="#DejaVuSans-20" x="401.269531"/>
     </g>
    </g>
    <g id="patch_134">
     <path d="M 387.173779 71.173407 
L 403.385779 71.173407 
L 403.385779 65.499207 
L 387.173779 65.499207 
z
" style="fill: #7e2f8e; opacity: 0.8"/>
    </g>
    <g id="text_29">
     <!-- T ⇅ 30K  -->
     <g transform="translate(409.870579 71.173407) scale(0.08106 -0.08106)">
      <use xlink:href="#DejaVuSans-54"/>
      <use xlink:href="#DejaVuSans-20" x="61.083984"/>
      <use xlink:href="#DejaVuSans-21c5" x="92.871094"/>
      <use xlink:href="#DejaVuSans-20" x="176.660156"/>
      <use xlink:href="#DejaVuSans-33" x="208.447266"/>
      <use xlink:href="#DejaVuSans-30" x="272.070312"/>
      <use xlink:href="#DejaVuSans-4b" x="335.693359"/>
      <use xlink:href="#DejaVuSans-20" x="401.269531"/>
     </g>
    </g>
   </g>
  </g>
 </g>
 <defs>
  <clipPath id="p3714b7774c">
   <rect x="42.667554" y="33.922538" width="283.06166" height="160.81713"/>
  </clipPath>
  <clipPath id="p0a61295244">
   <rect x="379.878379" y="33.922538" width="141.53083" height="160.81713"/>
  </clipPath>
 </defs>
</svg>
