<?xml version="1.0" encoding="utf-8" standalone="no"?>
<!DOCTYPE svg PUBLIC "-//W3C//DTD SVG 1.1//EN"
  "http://www.w3.org/Graphics/SVG/1.1/DTD/svg11.dtd">
<svg xmlns:xlink="http://www.w3.org/1999/xlink" width="497.52pt" height="342.72pt" viewBox="0 0 497.52 342.72" xmlns="http://www.w3.org/2000/svg" version="1.1">
 <metadata>
  <rdf:RDF xmlns:dc="http://purl.org/dc/elements/1.1/" xmlns:cc="http://creativecommons.org/ns#" xmlns:rdf="http://www.w3.org/1999/02/22-rdf-syntax-ns#">
   <cc:Work>
    <dc:type rdf:resource="http://purl.org/dc/dcmitype/StillImage"/>
    <dc:date>2024-01-24T14:59:37.433680</dc:date>
    <dc:format>image/svg+xml</dc:format>
    <dc:creator>
     <cc:Agent>
      <dc:title>Matplotlib v3.7.0, https://matplotlib.org/</dc:title>
     </cc:Agent>
    </dc:creator>
   </cc:Work>
  </rdf:RDF>
 </metadata>
 <defs>
  <style type="text/css">*{stroke-linejoin: round; stroke-linecap: butt}</style>
 </defs>
 <g id="figure_1">
  <g id="patch_1">
   <path d="M 0 342.72 
L 497.52 342.72 
L 497.52 0 
L 0 0 
z
" style="fill: #ffffff"/>
  </g>
  <g id="axes_1">
   <g id="patch_2">
    <path d="M 62.19 305.0208 
L 447.768 305.0208 
L 447.768 41.1264 
L 62.19 41.1264 
z
" style="fill: #eeeeee"/>
   </g>
   <g id="matplotlib.axis_1">
    <g id="xtick_1">
     <g id="line2d_1">
      <path d="M 124.272933 305.0208 
L 124.272933 41.1264 
" clip-path="url(#p4e02f86db4)" style="fill: none; stroke-dasharray: 1.85,0.8; stroke-dashoffset: 0; stroke: #b2b2b2; stroke-width: 0.5"/>
     </g>
     <g id="line2d_2">
      <defs>
       <path id="mdf47df8126" d="M 0 0 
L 0 -3.5 
" style="stroke: #555555; stroke-width: 0.8"/>
      </defs>
      <g>
       <use xlink:href="#mdf47df8126" x="124.272933" y="305.0208" style="fill: #555555; stroke: #555555; stroke-width: 0.8"/>
      </g>
     </g>
     <g id="text_1">
      <!-- 4.884 -->
      <g style="fill: #555555" transform="translate(108.522933 318.24205) scale(0.14 -0.14)">
       <defs>
        <path id="TimesNewRomanPSMT-34" d="M 2978 1563 
L 2978 1119 
L 2409 1119 
L 2409 0 
L 1894 0 
L 1894 1119 
L 100 1119 
L 100 1519 
L 2066 4325 
L 2409 4325 
L 2409 1563 
L 2978 1563 
z
M 1894 1563 
L 1894 3666 
L 406 1563 
L 1894 1563 
z
" transform="scale(0.015625)"/>
        <path id="TimesNewRomanPSMT-2e" d="M 800 606 
Q 947 606 1047 504 
Q 1147 403 1147 259 
Q 1147 116 1045 14 
Q 944 -88 800 -88 
Q 656 -88 554 14 
Q 453 116 453 259 
Q 453 406 554 506 
Q 656 606 800 606 
z
" transform="scale(0.015625)"/>
        <path id="TimesNewRomanPSMT-38" d="M 1228 2134 
Q 725 2547 579 2797 
Q 434 3047 434 3316 
Q 434 3728 753 4026 
Q 1072 4325 1600 4325 
Q 2113 4325 2425 4047 
Q 2738 3769 2738 3413 
Q 2738 3175 2569 2928 
Q 2400 2681 1866 2347 
Q 2416 1922 2594 1678 
Q 2831 1359 2831 1006 
Q 2831 559 2490 242 
Q 2150 -75 1597 -75 
Q 994 -75 656 303 
Q 388 606 388 966 
Q 388 1247 577 1523 
Q 766 1800 1228 2134 
z
M 1719 2469 
Q 2094 2806 2194 3001 
Q 2294 3197 2294 3444 
Q 2294 3772 2109 3958 
Q 1925 4144 1606 4144 
Q 1288 4144 1088 3959 
Q 888 3775 888 3528 
Q 888 3366 970 3203 
Q 1053 3041 1206 2894 
L 1719 2469 
z
M 1375 2016 
Q 1116 1797 991 1539 
Q 866 1281 866 981 
Q 866 578 1086 336 
Q 1306 94 1647 94 
Q 1984 94 2187 284 
Q 2391 475 2391 747 
Q 2391 972 2272 1150 
Q 2050 1481 1375 2016 
z
" transform="scale(0.015625)"/>
       </defs>
       <use xlink:href="#TimesNewRomanPSMT-34"/>
       <use xlink:href="#TimesNewRomanPSMT-2e" x="50"/>
       <use xlink:href="#TimesNewRomanPSMT-38" x="75"/>
       <use xlink:href="#TimesNewRomanPSMT-38" x="125"/>
       <use xlink:href="#TimesNewRomanPSMT-34" x="175"/>
      </g>
     </g>
    </g>
    <g id="xtick_2">
     <g id="line2d_3">
      <path d="M 207.152749 305.0208 
L 207.152749 41.1264 
" clip-path="url(#p4e02f86db4)" style="fill: none; stroke-dasharray: 1.85,0.8; stroke-dashoffset: 0; stroke: #b2b2b2; stroke-width: 0.5"/>
     </g>
     <g id="line2d_4">
      <g>
       <use xlink:href="#mdf47df8126" x="207.152749" y="305.0208" style="fill: #555555; stroke: #555555; stroke-width: 0.8"/>
      </g>
     </g>
     <g id="text_2">
      <!-- 4.886 -->
      <g style="fill: #555555" transform="translate(191.402749 318.24205) scale(0.14 -0.14)">
       <defs>
        <path id="TimesNewRomanPSMT-36" d="M 2869 4325 
L 2869 4209 
Q 2456 4169 2195 4045 
Q 1934 3922 1679 3669 
Q 1425 3416 1258 3105 
Q 1091 2794 978 2366 
Q 1428 2675 1881 2675 
Q 2316 2675 2634 2325 
Q 2953 1975 2953 1425 
Q 2953 894 2631 456 
Q 2244 -75 1606 -75 
Q 1172 -75 869 213 
Q 275 772 275 1663 
Q 275 2231 503 2743 
Q 731 3256 1154 3653 
Q 1578 4050 1965 4187 
Q 2353 4325 2688 4325 
L 2869 4325 
z
M 925 2138 
Q 869 1716 869 1456 
Q 869 1156 980 804 
Q 1091 453 1309 247 
Q 1469 100 1697 100 
Q 1969 100 2183 356 
Q 2397 613 2397 1088 
Q 2397 1622 2184 2012 
Q 1972 2403 1581 2403 
Q 1463 2403 1327 2353 
Q 1191 2303 925 2138 
z
" transform="scale(0.015625)"/>
       </defs>
       <use xlink:href="#TimesNewRomanPSMT-34"/>
       <use xlink:href="#TimesNewRomanPSMT-2e" x="50"/>
       <use xlink:href="#TimesNewRomanPSMT-38" x="75"/>
       <use xlink:href="#TimesNewRomanPSMT-38" x="125"/>
       <use xlink:href="#TimesNewRomanPSMT-36" x="175"/>
      </g>
     </g>
    </g>
    <g id="xtick_3">
     <g id="line2d_5">
      <path d="M 290.032566 305.0208 
L 290.032566 41.1264 
" clip-path="url(#p4e02f86db4)" style="fill: none; stroke-dasharray: 1.85,0.8; stroke-dashoffset: 0; stroke: #b2b2b2; stroke-width: 0.5"/>
     </g>
     <g id="line2d_6">
      <g>
       <use xlink:href="#mdf47df8126" x="290.032566" y="305.0208" style="fill: #555555; stroke: #555555; stroke-width: 0.8"/>
      </g>
     </g>
     <g id="text_3">
      <!-- 4.888 -->
      <g style="fill: #555555" transform="translate(274.282566 318.24205) scale(0.14 -0.14)">
       <use xlink:href="#TimesNewRomanPSMT-34"/>
       <use xlink:href="#TimesNewRomanPSMT-2e" x="50"/>
       <use xlink:href="#TimesNewRomanPSMT-38" x="75"/>
       <use xlink:href="#TimesNewRomanPSMT-38" x="125"/>
       <use xlink:href="#TimesNewRomanPSMT-38" x="175"/>
      </g>
     </g>
    </g>
    <g id="xtick_4">
     <g id="line2d_7">
      <path d="M 372.912383 305.0208 
L 372.912383 41.1264 
" clip-path="url(#p4e02f86db4)" style="fill: none; stroke-dasharray: 1.85,0.8; stroke-dashoffset: 0; stroke: #b2b2b2; stroke-width: 0.5"/>
     </g>
     <g id="line2d_8">
      <g>
       <use xlink:href="#mdf47df8126" x="372.912383" y="305.0208" style="fill: #555555; stroke: #555555; stroke-width: 0.8"/>
      </g>
     </g>
     <g id="text_4">
      <!-- 4.890 -->
      <g style="fill: #555555" transform="translate(357.162383 318.24205) scale(0.14 -0.14)">
       <defs>
        <path id="TimesNewRomanPSMT-39" d="M 338 -88 
L 338 28 
Q 744 34 1094 217 
Q 1444 400 1770 856 
Q 2097 1313 2225 1859 
Q 1734 1544 1338 1544 
Q 891 1544 572 1889 
Q 253 2234 253 2806 
Q 253 3363 572 3797 
Q 956 4325 1575 4325 
Q 2097 4325 2469 3894 
Q 2925 3359 2925 2575 
Q 2925 1869 2578 1258 
Q 2231 647 1613 244 
Q 1109 -88 516 -88 
L 338 -88 
z
M 2275 2091 
Q 2331 2497 2331 2741 
Q 2331 3044 2228 3395 
Q 2125 3747 1936 3934 
Q 1747 4122 1506 4122 
Q 1228 4122 1018 3872 
Q 809 3622 809 3128 
Q 809 2469 1088 2097 
Q 1291 1828 1588 1828 
Q 1731 1828 1928 1897 
Q 2125 1966 2275 2091 
z
" transform="scale(0.015625)"/>
        <path id="TimesNewRomanPSMT-30" d="M 231 2094 
Q 231 2819 450 3342 
Q 669 3866 1031 4122 
Q 1313 4325 1613 4325 
Q 2100 4325 2488 3828 
Q 2972 3213 2972 2159 
Q 2972 1422 2759 906 
Q 2547 391 2217 158 
Q 1888 -75 1581 -75 
Q 975 -75 572 641 
Q 231 1244 231 2094 
z
M 844 2016 
Q 844 1141 1059 588 
Q 1238 122 1591 122 
Q 1759 122 1940 273 
Q 2122 425 2216 781 
Q 2359 1319 2359 2297 
Q 2359 3022 2209 3506 
Q 2097 3866 1919 4016 
Q 1791 4119 1609 4119 
Q 1397 4119 1231 3928 
Q 1006 3669 925 3112 
Q 844 2556 844 2016 
z
" transform="scale(0.015625)"/>
       </defs>
       <use xlink:href="#TimesNewRomanPSMT-34"/>
       <use xlink:href="#TimesNewRomanPSMT-2e" x="50"/>
       <use xlink:href="#TimesNewRomanPSMT-38" x="75"/>
       <use xlink:href="#TimesNewRomanPSMT-39" x="125"/>
       <use xlink:href="#TimesNewRomanPSMT-30" x="175"/>
      </g>
     </g>
    </g>
    <g id="text_5">
     <!-- $\it f$ $[GHz]$ -->
     <g transform="translate(232.019 335.736738) scale(0.14 -0.14)">
      <defs>
       <path id="Cmmi10-66" d="M 622 -1056 
Q 741 -1147 909 -1147 
Q 1138 -1147 1281 -641 
Q 1341 -397 1606 966 
L 1900 2534 
L 1350 2534 
Q 1288 2534 1288 2619 
Q 1313 2759 1369 2759 
L 1941 2759 
L 2016 3175 
Q 2053 3369 2084 3508 
Q 2116 3647 2152 3765 
Q 2188 3884 2259 4031 
Q 2369 4241 2555 4377 
Q 2741 4513 2956 4513 
Q 3097 4513 3230 4461 
Q 3363 4409 3447 4306 
Q 3531 4203 3531 4063 
Q 3531 3900 3423 3779 
Q 3316 3659 3163 3659 
Q 3059 3659 2986 3723 
Q 2913 3788 2913 3891 
Q 2913 4031 3008 4136 
Q 3103 4241 3244 4256 
Q 3125 4347 2950 4347 
Q 2853 4347 2767 4256 
Q 2681 4166 2656 4063 
Q 2616 3900 2478 3181 
L 2400 2759 
L 3059 2759 
Q 3122 2759 3122 2675 
Q 3119 2659 3109 2620 
Q 3100 2581 3083 2557 
Q 3066 2534 3041 2534 
L 2356 2534 
L 2059 972 
Q 2003 631 1929 279 
Q 1856 -72 1723 -442 
Q 1591 -813 1384 -1063 
Q 1178 -1313 897 -1313 
Q 681 -1313 511 -1189 
Q 341 -1066 341 -863 
Q 341 -700 445 -579 
Q 550 -459 709 -459 
Q 816 -459 887 -523 
Q 959 -588 959 -691 
Q 959 -828 857 -942 
Q 756 -1056 622 -1056 
z
" transform="scale(0.015625)"/>
       <path id="TimesNewRomanPSMT-20" transform="scale(0.015625)"/>
       <path id="Cmr10-5b" d="M 756 -1600 
L 756 4800 
L 1631 4800 
L 1631 4544 
L 1013 4544 
L 1013 -1344 
L 1631 -1344 
L 1631 -1600 
L 756 -1600 
z
" transform="scale(0.015625)"/>
       <path id="Cmr10-47" d="M 1472 684 
Q 1703 403 2036 243 
Q 2369 84 2731 84 
Q 3088 84 3378 265 
Q 3669 447 3669 781 
L 3669 1319 
Q 3669 1522 2869 1522 
L 2869 1747 
L 4703 1747 
L 4703 1522 
Q 4500 1522 4381 1487 
Q 4263 1453 4263 1319 
L 4263 56 
Q 4263 34 4245 17 
Q 4228 0 4206 0 
Q 4147 0 4008 140 
Q 3869 281 3788 391 
Q 3631 122 3297 -9 
Q 2963 -141 2597 -141 
Q 1975 -141 1464 179 
Q 953 500 656 1036 
Q 359 1572 359 2188 
Q 359 2641 531 3069 
Q 703 3497 1011 3822 
Q 1319 4147 1728 4330 
Q 2138 4513 2597 4513 
Q 2928 4513 3223 4370 
Q 3519 4228 3750 3969 
L 4122 4494 
Q 4159 4513 4166 4513 
L 4213 4513 
Q 4231 4513 4247 4497 
Q 4263 4481 4263 4459 
L 4263 2731 
Q 4263 2675 4213 2675 
L 4097 2675 
Q 4038 2675 4038 2731 
Q 4038 2916 3964 3144 
Q 3891 3372 3777 3576 
Q 3663 3781 3513 3938 
Q 3153 4288 2688 4288 
Q 2331 4288 2006 4128 
Q 1681 3969 1459 3688 
Q 1225 3388 1134 3005 
Q 1044 2622 1044 2188 
Q 1044 1206 1472 684 
z
" transform="scale(0.015625)"/>
       <path id="Cmr10-48" d="M 197 0 
L 197 225 
Q 856 225 856 428 
L 856 3944 
Q 856 4147 197 4147 
L 197 4372 
L 2113 4372 
L 2113 4147 
Q 1453 4147 1453 3944 
L 1453 2388 
L 3341 2388 
L 3341 3944 
Q 3341 4147 2681 4147 
L 2681 4372 
L 4594 4372 
L 4594 4147 
Q 3938 4147 3938 3944 
L 3938 428 
Q 3938 225 4594 225 
L 4594 0 
L 2681 0 
L 2681 225 
Q 3341 225 3341 428 
L 3341 2163 
L 1453 2163 
L 1453 428 
Q 1453 225 2113 225 
L 2113 0 
L 197 0 
z
" transform="scale(0.015625)"/>
       <path id="Cmr10-7a" d="M 250 0 
Q 178 0 178 72 
L 178 122 
Q 178 147 197 166 
L 1984 2591 
L 1409 2591 
Q 1138 2591 961 2556 
Q 784 2522 670 2426 
Q 556 2331 504 2164 
Q 453 1997 453 1703 
L 269 1703 
L 341 2759 
L 2484 2759 
Q 2513 2759 2533 2739 
Q 2553 2719 2553 2688 
L 2553 2650 
Q 2553 2631 2541 2606 
L 750 184 
L 1363 184 
Q 1641 184 1827 218 
Q 2013 253 2144 384 
Q 2266 506 2311 712 
Q 2356 919 2381 1222 
L 2566 1222 
L 2456 0 
L 250 0 
z
" transform="scale(0.015625)"/>
       <path id="Cmr10-5d" d="M 141 -1600 
L 141 -1344 
L 763 -1344 
L 763 4544 
L 141 4544 
L 141 4800 
L 1019 4800 
L 1019 -1600 
L 141 -1600 
z
" transform="scale(0.015625)"/>
      </defs>
      <use xlink:href="#Cmmi10-66"/>
      <use xlink:href="#TimesNewRomanPSMT-20" transform="translate(48.876953 0)"/>
      <use xlink:href="#Cmr10-5b" transform="translate(73.876953 0)"/>
      <use xlink:href="#Cmr10-47" transform="translate(101.5625 0)"/>
      <use xlink:href="#Cmr10-48" transform="translate(179.980469 0)"/>
      <use xlink:href="#Cmr10-7a" transform="translate(254.980469 0)"/>
      <use xlink:href="#Cmr10-5d" transform="translate(299.365234 0)"/>
     </g>
    </g>
   </g>
   <g id="matplotlib.axis_2">
    <g id="ytick_1">
     <g id="line2d_9">
      <path d="M 62.19 296.253176 
L 447.768 296.253176 
" clip-path="url(#p4e02f86db4)" style="fill: none; stroke-dasharray: 1.85,0.8; stroke-dashoffset: 0; stroke: #b2b2b2; stroke-width: 0.5"/>
     </g>
     <g id="line2d_10">
      <defs>
       <path id="mcd9325ab30" d="M 0 0 
L 3.5 0 
" style="stroke: #555555; stroke-width: 0.8"/>
      </defs>
      <g>
       <use xlink:href="#mcd9325ab30" x="62.19" y="296.253176" style="fill: #555555; stroke: #555555; stroke-width: 0.8"/>
      </g>
     </g>
     <g id="text_6">
      <!-- 15 -->
      <g style="fill: #555555" transform="translate(44.69 301.113801) scale(0.14 -0.14)">
       <defs>
        <path id="TimesNewRomanPSMT-31" d="M 750 3822 
L 1781 4325 
L 1884 4325 
L 1884 747 
Q 1884 391 1914 303 
Q 1944 216 2037 169 
Q 2131 122 2419 116 
L 2419 0 
L 825 0 
L 825 116 
Q 1125 122 1212 167 
Q 1300 213 1334 289 
Q 1369 366 1369 747 
L 1369 3034 
Q 1369 3497 1338 3628 
Q 1316 3728 1258 3775 
Q 1200 3822 1119 3822 
Q 1003 3822 797 3725 
L 750 3822 
z
" transform="scale(0.015625)"/>
        <path id="TimesNewRomanPSMT-35" d="M 2778 4238 
L 2534 3706 
L 1259 3706 
L 981 3138 
Q 1809 3016 2294 2522 
Q 2709 2097 2709 1522 
Q 2709 1188 2573 903 
Q 2438 619 2231 419 
Q 2025 219 1772 97 
Q 1413 -75 1034 -75 
Q 653 -75 479 54 
Q 306 184 306 341 
Q 306 428 378 495 
Q 450 563 559 563 
Q 641 563 702 538 
Q 763 513 909 409 
Q 1144 247 1384 247 
Q 1750 247 2026 523 
Q 2303 800 2303 1197 
Q 2303 1581 2056 1914 
Q 1809 2247 1375 2428 
Q 1034 2569 447 2591 
L 1259 4238 
L 2778 4238 
z
" transform="scale(0.015625)"/>
       </defs>
       <use xlink:href="#TimesNewRomanPSMT-31"/>
       <use xlink:href="#TimesNewRomanPSMT-35" x="50"/>
      </g>
     </g>
    </g>
    <g id="ytick_2">
     <g id="line2d_11">
      <path d="M 62.19 252.533133 
L 447.768 252.533133 
" clip-path="url(#p4e02f86db4)" style="fill: none; stroke-dasharray: 1.85,0.8; stroke-dashoffset: 0; stroke: #b2b2b2; stroke-width: 0.5"/>
     </g>
     <g id="line2d_12">
      <g>
       <use xlink:href="#mcd9325ab30" x="62.19" y="252.533133" style="fill: #555555; stroke: #555555; stroke-width: 0.8"/>
      </g>
     </g>
     <g id="text_7">
      <!-- 20 -->
      <g style="fill: #555555" transform="translate(44.69 257.393758) scale(0.14 -0.14)">
       <defs>
        <path id="TimesNewRomanPSMT-32" d="M 2934 816 
L 2638 0 
L 138 0 
L 138 116 
Q 1241 1122 1691 1759 
Q 2141 2397 2141 2925 
Q 2141 3328 1894 3587 
Q 1647 3847 1303 3847 
Q 991 3847 742 3664 
Q 494 3481 375 3128 
L 259 3128 
Q 338 3706 661 4015 
Q 984 4325 1469 4325 
Q 1984 4325 2329 3994 
Q 2675 3663 2675 3213 
Q 2675 2891 2525 2569 
Q 2294 2063 1775 1497 
Q 997 647 803 472 
L 1909 472 
Q 2247 472 2383 497 
Q 2519 522 2628 598 
Q 2738 675 2819 816 
L 2934 816 
z
" transform="scale(0.015625)"/>
       </defs>
       <use xlink:href="#TimesNewRomanPSMT-32"/>
       <use xlink:href="#TimesNewRomanPSMT-30" x="50"/>
      </g>
     </g>
    </g>
    <g id="ytick_3">
     <g id="line2d_13">
      <path d="M 62.19 208.81309 
L 447.768 208.81309 
" clip-path="url(#p4e02f86db4)" style="fill: none; stroke-dasharray: 1.85,0.8; stroke-dashoffset: 0; stroke: #b2b2b2; stroke-width: 0.5"/>
     </g>
     <g id="line2d_14">
      <g>
       <use xlink:href="#mcd9325ab30" x="62.19" y="208.81309" style="fill: #555555; stroke: #555555; stroke-width: 0.8"/>
      </g>
     </g>
     <g id="text_8">
      <!-- 25 -->
      <g style="fill: #555555" transform="translate(44.69 213.673715) scale(0.14 -0.14)">
       <use xlink:href="#TimesNewRomanPSMT-32"/>
       <use xlink:href="#TimesNewRomanPSMT-35" x="50"/>
      </g>
     </g>
    </g>
    <g id="ytick_4">
     <g id="line2d_15">
      <path d="M 62.19 165.093047 
L 447.768 165.093047 
" clip-path="url(#p4e02f86db4)" style="fill: none; stroke-dasharray: 1.85,0.8; stroke-dashoffset: 0; stroke: #b2b2b2; stroke-width: 0.5"/>
     </g>
     <g id="line2d_16">
      <g>
       <use xlink:href="#mcd9325ab30" x="62.19" y="165.093047" style="fill: #555555; stroke: #555555; stroke-width: 0.8"/>
      </g>
     </g>
     <g id="text_9">
      <!-- 30 -->
      <g style="fill: #555555" transform="translate(44.69 169.953672) scale(0.14 -0.14)">
       <defs>
        <path id="TimesNewRomanPSMT-33" d="M 325 3431 
Q 506 3859 782 4092 
Q 1059 4325 1472 4325 
Q 1981 4325 2253 3994 
Q 2459 3747 2459 3466 
Q 2459 3003 1878 2509 
Q 2269 2356 2469 2072 
Q 2669 1788 2669 1403 
Q 2669 853 2319 450 
Q 1863 -75 997 -75 
Q 569 -75 414 31 
Q 259 138 259 259 
Q 259 350 332 419 
Q 406 488 509 488 
Q 588 488 669 463 
Q 722 447 909 348 
Q 1097 250 1169 231 
Q 1284 197 1416 197 
Q 1734 197 1970 444 
Q 2206 691 2206 1028 
Q 2206 1275 2097 1509 
Q 2016 1684 1919 1775 
Q 1784 1900 1550 2001 
Q 1316 2103 1072 2103 
L 972 2103 
L 972 2197 
Q 1219 2228 1467 2375 
Q 1716 2522 1828 2728 
Q 1941 2934 1941 3181 
Q 1941 3503 1739 3701 
Q 1538 3900 1238 3900 
Q 753 3900 428 3381 
L 325 3431 
z
" transform="scale(0.015625)"/>
       </defs>
       <use xlink:href="#TimesNewRomanPSMT-33"/>
       <use xlink:href="#TimesNewRomanPSMT-30" x="50"/>
      </g>
     </g>
    </g>
    <g id="ytick_5">
     <g id="line2d_17">
      <path d="M 62.19 121.373004 
L 447.768 121.373004 
" clip-path="url(#p4e02f86db4)" style="fill: none; stroke-dasharray: 1.85,0.8; stroke-dashoffset: 0; stroke: #b2b2b2; stroke-width: 0.5"/>
     </g>
     <g id="line2d_18">
      <g>
       <use xlink:href="#mcd9325ab30" x="62.19" y="121.373004" style="fill: #555555; stroke: #555555; stroke-width: 0.8"/>
      </g>
     </g>
     <g id="text_10">
      <!-- 35 -->
      <g style="fill: #555555" transform="translate(44.69 126.233629) scale(0.14 -0.14)">
       <use xlink:href="#TimesNewRomanPSMT-33"/>
       <use xlink:href="#TimesNewRomanPSMT-35" x="50"/>
      </g>
     </g>
    </g>
    <g id="ytick_6">
     <g id="line2d_19">
      <path d="M 62.19 77.652961 
L 447.768 77.652961 
" clip-path="url(#p4e02f86db4)" style="fill: none; stroke-dasharray: 1.85,0.8; stroke-dashoffset: 0; stroke: #b2b2b2; stroke-width: 0.5"/>
     </g>
     <g id="line2d_20">
      <g>
       <use xlink:href="#mcd9325ab30" x="62.19" y="77.652961" style="fill: #555555; stroke: #555555; stroke-width: 0.8"/>
      </g>
     </g>
     <g id="text_11">
      <!-- 40 -->
      <g style="fill: #555555" transform="translate(44.69 82.513586) scale(0.14 -0.14)">
       <use xlink:href="#TimesNewRomanPSMT-34"/>
       <use xlink:href="#TimesNewRomanPSMT-30" x="50"/>
      </g>
     </g>
    </g>
    <g id="text_12">
     <!-- $\it S_{21}$ $[dB]$ -->
     <g transform="translate(37.19 197.2236) rotate(-90) scale(0.14 -0.14)">
      <defs>
       <path id="Cmmi10-53" d="M 391 -141 
Q 372 -141 356 -119 
Q 341 -97 341 -78 
L 709 1416 
Q 722 1453 763 1453 
L 838 1453 
Q 863 1453 877 1434 
Q 891 1416 891 1388 
Q 838 1169 838 997 
Q 838 534 1156 309 
Q 1475 84 1959 84 
Q 2169 84 2372 187 
Q 2575 291 2726 456 
Q 2878 622 2968 826 
Q 3059 1031 3059 1241 
Q 3059 1466 2940 1642 
Q 2822 1819 2613 1869 
L 1831 2075 
Q 1516 2159 1328 2414 
Q 1141 2669 1141 2988 
Q 1141 3372 1369 3728 
Q 1597 4084 1964 4298 
Q 2331 4513 2713 4513 
Q 3006 4513 3251 4405 
Q 3497 4297 3628 4063 
L 3994 4494 
Q 4031 4513 4038 4513 
L 4078 4513 
Q 4103 4513 4118 4491 
Q 4134 4469 4134 4447 
L 3763 2963 
Q 3753 2919 3713 2919 
L 3634 2919 
Q 3578 2919 3578 2988 
Q 3609 3191 3609 3341 
Q 3609 3638 3507 3858 
Q 3406 4078 3201 4192 
Q 2997 4306 2694 4306 
Q 2438 4306 2184 4159 
Q 1931 4013 1775 3769 
Q 1619 3525 1619 3263 
Q 1619 3056 1739 2897 
Q 1859 2738 2059 2681 
L 2841 2478 
Q 3053 2422 3211 2280 
Q 3369 2138 3450 1942 
Q 3531 1747 3531 1516 
Q 3531 1213 3403 917 
Q 3275 622 3045 378 
Q 2816 134 2525 -3 
Q 2234 -141 1931 -141 
Q 1169 -141 838 306 
L 481 -122 
Q 444 -141 434 -141 
L 391 -141 
z
" transform="scale(0.015625)"/>
       <path id="Cmr10-32" d="M 319 0 
L 319 172 
Q 319 188 331 206 
L 1325 1306 
Q 1550 1550 1690 1715 
Q 1831 1881 1968 2097 
Q 2106 2313 2186 2536 
Q 2266 2759 2266 3009 
Q 2266 3272 2169 3511 
Q 2072 3750 1880 3894 
Q 1688 4038 1416 4038 
Q 1138 4038 916 3870 
Q 694 3703 603 3438 
Q 628 3444 672 3444 
Q 816 3444 917 3347 
Q 1019 3250 1019 3097 
Q 1019 2950 917 2848 
Q 816 2747 672 2747 
Q 522 2747 420 2851 
Q 319 2956 319 3097 
Q 319 3338 409 3548 
Q 500 3759 670 3923 
Q 841 4088 1055 4175 
Q 1269 4263 1509 4263 
Q 1875 4263 2190 4108 
Q 2506 3953 2690 3670 
Q 2875 3388 2875 3009 
Q 2875 2731 2753 2481 
Q 2631 2231 2440 2026 
Q 2250 1822 1953 1562 
Q 1656 1303 1563 1216 
L 838 519 
L 1453 519 
Q 1906 519 2211 526 
Q 2516 534 2534 550 
Q 2609 631 2688 1141 
L 2875 1141 
L 2694 0 
L 319 0 
z
" transform="scale(0.015625)"/>
       <path id="Cmr10-31" d="M 594 0 
L 594 225 
Q 1394 225 1394 428 
L 1394 3788 
Q 1063 3628 556 3628 
L 556 3853 
Q 1341 3853 1741 4263 
L 1831 4263 
Q 1853 4263 1873 4245 
Q 1894 4228 1894 4206 
L 1894 428 
Q 1894 225 2694 225 
L 2694 0 
L 594 0 
z
" transform="scale(0.015625)"/>
       <path id="Cmr10-64" d="M 1563 -72 
Q 1184 -72 871 133 
Q 559 338 386 672 
Q 213 1006 213 1381 
Q 213 1769 402 2101 
Q 591 2434 916 2631 
Q 1241 2828 1631 2828 
Q 1866 2828 2075 2729 
Q 2284 2631 2438 2456 
L 2438 3788 
Q 2438 3959 2386 4036 
Q 2334 4113 2239 4130 
Q 2144 4147 1941 4147 
L 1941 4372 
L 2888 4441 
L 2888 581 
Q 2888 413 2939 336 
Q 2991 259 3086 242 
Q 3181 225 3384 225 
L 3384 0 
L 2419 -72 
L 2419 331 
Q 2253 141 2025 34 
Q 1797 -72 1563 -72 
z
M 909 556 
Q 1019 347 1201 222 
Q 1384 97 1600 97 
Q 1866 97 2087 250 
Q 2309 403 2419 647 
L 2419 2181 
Q 2344 2322 2230 2433 
Q 2116 2544 1973 2603 
Q 1831 2663 1672 2663 
Q 1338 2663 1134 2473 
Q 931 2284 850 1990 
Q 769 1697 769 1375 
Q 769 1119 795 928 
Q 822 738 909 556 
z
" transform="scale(0.015625)"/>
       <path id="Cmr10-42" d="M 219 0 
L 219 225 
Q 878 225 878 428 
L 878 3944 
Q 878 4147 219 4147 
L 219 4372 
L 2572 4372 
Q 2897 4372 3228 4245 
Q 3559 4119 3776 3870 
Q 3994 3622 3994 3284 
Q 3994 2894 3673 2630 
Q 3353 2366 2925 2284 
Q 3203 2284 3497 2131 
Q 3791 1978 3978 1722 
Q 4166 1466 4166 1178 
Q 4166 828 3958 559 
Q 3750 291 3419 145 
Q 3088 0 2753 0 
L 219 0 
z
M 1434 428 
Q 1434 291 1512 258 
Q 1591 225 1759 225 
L 2572 225 
Q 2822 225 3036 356 
Q 3250 488 3375 708 
Q 3500 928 3500 1178 
Q 3500 1422 3397 1655 
Q 3294 1888 3101 2038 
Q 2909 2188 2663 2188 
L 1434 2188 
L 1434 428 
z
M 1434 2356 
L 2394 2356 
Q 2588 2356 2758 2426 
Q 2928 2497 3064 2630 
Q 3200 2763 3273 2930 
Q 3347 3097 3347 3284 
Q 3347 3450 3292 3603 
Q 3238 3756 3131 3881 
Q 3025 4006 2881 4076 
Q 2738 4147 2572 4147 
L 1759 4147 
Q 1644 4147 1580 4137 
Q 1516 4128 1475 4083 
Q 1434 4038 1434 3944 
L 1434 2356 
z
" transform="scale(0.015625)"/>
      </defs>
      <use xlink:href="#Cmmi10-53"/>
      <use xlink:href="#Cmr10-32" transform="translate(61.279297 -17.00625) scale(0.7)"/>
      <use xlink:href="#Cmr10-31" transform="translate(96.279297 -17.00625) scale(0.7)"/>
      <use xlink:href="#TimesNewRomanPSMT-20" transform="translate(137.656641 0)"/>
      <use xlink:href="#Cmr10-5b" transform="translate(162.656641 0)"/>
      <use xlink:href="#Cmr10-64" transform="translate(190.342187 0)"/>
      <use xlink:href="#Cmr10-42" transform="translate(245.859766 0)"/>
      <use xlink:href="#Cmr10-5d" transform="translate(316.660547 0)"/>
     </g>
    </g>
   </g>
   <g id="line2d_21">
    <path d="M 61.864629 65.795735 
L 62.512032 66.386568 
L 63.159434 66.007166 
L 63.806837 66.396012 
L 64.454239 65.559035 
L 65.101642 66.156776 
L 65.749044 66.304899 
L 66.396447 66.037857 
L 67.043849 65.948843 
L 67.691251 65.676817 
L 68.338654 66.010313 
L 69.633459 65.910457 
L 70.928264 66.463865 
L 71.575666 65.982158 
L 72.223069 66.21982 
L 72.870471 65.783756 
L 73.517874 65.935815 
L 74.165276 65.626976 
L 74.812679 65.626801 
L 75.460081 66.138063 
L 76.107484 65.882476 
L 76.754886 66.126871 
L 77.402289 66.152229 
L 78.049691 65.865775 
L 78.697093 66.432212 
L 79.344496 65.992825 
L 79.991898 66.036545 
L 80.639301 65.84374 
L 81.286703 65.988016 
L 82.581508 66.114017 
L 83.228911 65.839281 
L 83.876313 66.287061 
L 84.523716 65.877754 
L 85.818521 66.119176 
L 86.465923 65.925409 
L 87.113326 66.296505 
L 87.760728 65.83998 
L 89.055533 65.944821 
L 89.702935 66.226815 
L 90.350338 66.159749 
L 90.99774 65.919463 
L 91.645143 65.879853 
L 92.292545 66.265551 
L 92.939948 65.904773 
L 93.58735 66.314867 
L 94.882155 65.897866 
L 95.529558 66.086386 
L 96.824363 66.219558 
L 97.471765 65.813049 
L 98.119168 65.959773 
L 98.76657 66.238095 
L 100.061375 66.112968 
L 100.708777 66.431512 
L 101.35618 65.981546 
L 102.003582 66.242992 
L 103.298387 66.435535 
L 105.240595 66.339875 
L 105.887997 65.909757 
L 106.5354 66.423206 
L 107.182802 66.009352 
L 107.830205 66.132642 
L 108.477607 66.576313 
L 111.067217 66.480479 
L 113.009424 66.338389 
L 113.656827 66.554628 
L 114.951632 66.368555 
L 115.599034 66.671798 
L 116.246437 66.635598 
L 116.893839 67.137504 
L 117.541242 66.688674 
L 118.188644 66.640057 
L 120.130852 67.140302 
L 120.778254 66.525423 
L 121.425656 66.947234 
L 122.073059 66.523762 
L 122.720461 66.806281 
L 123.367864 66.896868 
L 124.015266 67.293409 
L 124.662669 67.359689 
L 125.310071 67.857485 
L 125.957474 67.641683 
L 126.604876 67.921579 
L 127.252279 67.573305 
L 127.899681 68.074162 
L 129.194486 68.279471 
L 129.841889 68.955383 
L 130.489291 68.644621 
L 131.136694 68.901782 
L 131.784096 69.591597 
L 132.431498 69.022624 
L 133.078901 69.700897 
L 133.726303 69.450993 
L 134.373706 69.931914 
L 135.021108 70.841641 
L 135.668511 70.595234 
L 136.315913 71.123897 
L 136.963316 71.992614 
L 137.610718 72.439346 
L 138.258121 73.037698 
L 138.905523 74.198203 
L 139.552926 74.618528 
L 141.495133 77.616673 
L 142.142536 79.34379 
L 142.789938 80.725868 
L 144.084743 84.855838 
L 144.732145 87.680852 
L 146.674353 98.164307 
L 147.969158 109.839044 
L 149.263963 127.357141 
L 150.558768 157.658454 
L 151.20617 182.277734 
L 151.853573 214.695097 
L 152.500975 267.176199 
L 153.148377 285.067665 
L 153.79578 225.506102 
L 154.443182 189.31841 
L 155.737987 147.866738 
L 157.032792 125.266624 
L 158.327597 110.396213 
L 159.622402 100.678909 
L 160.917207 94.198636 
L 161.56461 91.48231 
L 162.212012 89.807395 
L 162.859415 86.200229 
L 163.506817 85.25063 
L 164.154219 83.223769 
L 164.801622 82.261491 
L 165.449024 80.343317 
L 166.096427 79.406135 
L 166.743829 78.832528 
L 167.391232 77.274608 
L 168.038634 76.451971 
L 168.686037 75.986178 
L 169.980842 74.744266 
L 170.628244 74.162003 
L 171.275647 73.879834 
L 171.923049 73.201998 
L 172.570452 73.541528 
L 173.217854 72.735243 
L 173.865257 72.26534 
L 174.512659 72.030214 
L 175.160061 70.904073 
L 175.807464 71.685175 
L 176.454866 71.375987 
L 177.102269 70.731728 
L 177.749671 70.774574 
L 178.397074 70.191698 
L 179.044476 69.857677 
L 180.339281 69.954911 
L 181.634086 69.08086 
L 182.281489 69.393283 
L 182.928891 68.919533 
L 183.576294 68.644009 
L 184.223696 68.884644 
L 184.871099 68.746139 
L 185.518501 68.420162 
L 186.165903 68.926003 
L 186.813306 68.225171 
L 187.460708 68.080283 
L 188.108111 68.417364 
L 188.755513 68.250878 
L 189.402916 67.733583 
L 190.050318 68.103104 
L 190.697721 68.004909 
L 191.345123 68.076523 
L 191.992526 67.675697 
L 193.287331 67.881269 
L 194.582136 67.424482 
L 195.87694 67.414514 
L 196.524343 67.683305 
L 197.171745 67.547947 
L 197.819148 67.619823 
L 198.46655 67.166359 
L 199.113953 67.638798 
L 199.761355 66.970668 
L 201.05616 67.223982 
L 202.350965 67.051463 
L 202.998368 67.49251 
L 204.293173 66.941201 
L 204.940575 66.57063 
L 205.587978 66.918204 
L 206.23538 66.524549 
L 206.882782 66.654485 
L 207.530185 66.969269 
L 208.82499 66.751805 
L 209.472392 66.425392 
L 210.119795 66.5402 
L 210.767197 66.947496 
L 211.4146 66.582259 
L 213.356807 66.659469 
L 214.00421 66.32982 
L 215.299015 66.530495 
L 215.946417 65.967818 
L 216.59382 66.603157 
L 217.241222 65.96467 
L 217.888624 66.500065 
L 218.536027 66.529095 
L 219.183429 66.759413 
L 220.478234 66.145059 
L 221.125637 66.267825 
L 221.773039 65.826952 
L 222.420442 66.591877 
L 223.067844 66.083326 
L 223.715247 66.410876 
L 225.010052 65.853708 
L 225.657454 65.98242 
L 226.304857 66.327808 
L 226.952259 65.821968 
L 227.599662 66.269049 
L 230.189271 66.037245 
L 230.836674 66.25672 
L 231.484076 65.789265 
L 232.131479 66.288723 
L 232.778881 66.146895 
L 233.426284 66.190877 
L 234.073686 66.119439 
L 234.721089 66.168493 
L 235.368491 65.670521 
L 236.015894 65.830624 
L 236.663296 66.122149 
L 237.310699 66.002794 
L 237.958101 66.32125 
L 239.252906 65.784456 
L 239.900308 66.084288 
L 240.547711 65.666062 
L 241.195113 65.761546 
L 241.842516 66.00498 
L 242.489918 65.882738 
L 243.137321 66.080266 
L 243.784723 65.833947 
L 246.374333 65.852309 
L 247.669138 65.638081 
L 248.963943 65.966506 
L 249.611345 65.797921 
L 250.258748 65.876705 
L 250.90615 65.725346 
L 251.553553 66.208715 
L 252.200955 65.65452 
L 252.848358 66.009264 
L 253.49576 65.948493 
L 254.143163 65.762071 
L 255.437968 66.003843 
L 256.08537 65.602405 
L 256.732773 65.344457 
L 257.380175 65.852834 
L 258.027578 65.736014 
L 258.67498 65.861928 
L 259.322383 65.795123 
L 260.617187 65.919113 
L 261.911992 65.810076 
L 262.559395 65.422454 
L 263.206797 65.675156 
L 263.8542 66.105623 
L 264.501602 65.927333 
L 265.796407 65.942722 
L 266.44381 66.187467 
L 267.091212 65.721761 
L 267.738615 65.991951 
L 268.386017 65.795036 
L 269.03342 65.768454 
L 270.328225 66.207928 
L 270.975627 66.015472 
L 271.623029 66.268699 
L 272.270432 66.057706 
L 272.917834 66.145933 
L 273.565237 66.671973 
L 274.212639 66.048262 
L 274.860042 66.613912 
L 275.507444 66.695057 
L 276.154847 66.232586 
L 276.802249 66.649588 
L 277.449652 66.256457 
L 278.097054 66.494294 
L 278.744457 66.495606 
L 279.391859 67.150445 
L 280.039262 66.597736 
L 280.686664 66.878331 
L 281.334067 66.779262 
L 282.628871 67.092385 
L 283.276274 67.025668 
L 283.923676 66.790017 
L 284.571079 67.541739 
L 285.218481 67.778352 
L 285.865884 67.425356 
L 286.513286 67.464792 
L 287.160689 67.33949 
L 287.808091 67.913185 
L 288.455494 68.265568 
L 289.102896 68.103979 
L 289.750299 68.616203 
L 290.397701 68.636839 
L 291.045104 69.127815 
L 291.692506 68.92338 
L 292.339908 69.970912 
L 292.987311 69.876302 
L 293.634713 70.246611 
L 294.282116 69.887669 
L 294.929518 71.478904 
L 296.224323 72.337041 
L 296.871726 73.564962 
L 297.519128 74.52313 
L 298.166531 75.009385 
L 298.813933 77.100689 
L 300.108738 79.887055 
L 301.403543 84.728788 
L 303.34575 98.873008 
L 303.993153 108.406601 
L 304.640555 119.801443 
L 305.287958 136.327794 
L 305.93536 166.338106 
L 306.582763 208.099316 
L 307.230165 278.210089 
L 307.877568 212.665875 
L 308.52497 165.098381 
L 309.172373 141.5004 
L 309.819775 123.843624 
L 310.467178 109.997836 
L 311.11458 100.756818 
L 311.761983 93.223155 
L 312.409385 87.75028 
L 314.351592 77.280116 
L 316.2938 72.471174 
L 316.941202 71.184056 
L 317.588605 70.329154 
L 318.236007 68.929588 
L 318.88341 68.963602 
L 319.530812 68.304566 
L 320.178215 68.073025 
L 321.47302 66.662092 
L 322.120422 66.546234 
L 322.767825 65.857206 
L 323.415227 66.108334 
L 324.06263 65.527644 
L 324.710032 65.854583 
L 325.357434 65.529655 
L 326.004837 65.577572 
L 326.652239 65.043401 
L 327.299642 65.016732 
L 327.947044 64.471106 
L 328.594447 64.56318 
L 329.241849 64.360406 
L 329.889252 64.735262 
L 330.536654 64.554611 
L 331.184057 64.647997 
L 331.831459 64.120558 
L 332.478862 64.080948 
L 333.126264 64.635231 
L 333.773667 64.45353 
L 334.421069 63.853604 
L 335.068471 64.212633 
L 335.715874 63.882022 
L 336.363276 63.747014 
L 337.010679 64.000591 
L 337.658081 63.877213 
L 338.305484 63.922769 
L 338.952886 63.595218 
L 339.600289 63.565314 
L 340.247691 63.809097 
L 340.895094 63.623899 
L 341.542496 63.802189 
L 342.189899 63.458287 
L 342.837301 63.513899 
L 343.484704 63.320044 
L 344.132106 63.48688 
L 344.779509 63.364289 
L 345.426911 63.652229 
L 346.074313 63.555783 
L 346.721716 63.586037 
L 347.369118 63.469654 
L 348.016521 63.072239 
L 349.311326 63.465807 
L 349.958728 63.434678 
L 350.606131 63.161253 
L 351.253533 63.217652 
L 351.900936 63.430743 
L 352.548338 63.468692 
L 353.195741 62.981476 
L 355.137948 63.763628 
L 356.432753 62.936882 
L 357.080155 63.744391 
L 357.727558 63.363677 
L 358.37496 63.445521 
L 359.022363 62.976055 
L 359.669765 63.631069 
L 360.317168 63.215641 
L 361.611973 63.38816 
L 362.259375 62.960491 
L 362.906778 63.342866 
L 363.55418 63.099083 
L 364.201583 63.114035 
L 364.848985 63.460648 
L 365.496388 63.147875 
L 366.14379 63.27169 
L 366.791193 62.976842 
L 367.438595 63.206635 
L 368.085997 63.218439 
L 368.7334 63.054751 
L 369.380802 63.157318 
L 370.028205 63.560417 
L 370.675607 62.855912 
L 371.32301 63.042247 
L 371.970412 62.888877 
L 372.617815 63.000451 
L 373.265217 62.713385 
L 373.91262 63.090951 
L 374.560022 62.886691 
L 375.854827 63.024235 
L 376.50223 62.389944 
L 377.149632 62.914147 
L 377.797034 63.147263 
L 378.444437 63.079672 
L 379.091839 62.889314 
L 379.739242 63.156182 
L 381.034047 62.676223 
L 381.681449 62.951572 
L 383.623657 62.903392 
L 384.271059 62.769172 
L 384.918462 62.952621 
L 385.565864 62.966087 
L 386.213267 62.597702 
L 387.508072 62.728687 
L 388.155474 63.16886 
L 388.802876 62.62166 
L 389.450279 62.616851 
L 390.097681 62.871914 
L 390.745084 62.617288 
L 392.039889 63.040848 
L 392.687291 62.675261 
L 393.334694 62.612829 
L 393.982096 62.961453 
L 394.629499 62.661358 
L 395.276901 63.105641 
L 395.924304 62.591406 
L 396.571706 62.39659 
L 397.219109 62.689776 
L 397.866511 62.813067 
L 398.513914 62.685404 
L 399.161316 62.415389 
L 399.808718 63.096635 
L 400.456121 63.040761 
L 401.103523 62.756843 
L 401.750926 62.65174 
L 402.398328 62.692312 
L 403.045731 62.920618 
L 403.693133 62.505715 
L 404.987938 62.407082 
L 405.635341 62.697646 
L 406.282743 62.532996 
L 406.930146 62.673425 
L 408.224951 62.467154 
L 408.872353 62.439785 
L 409.519756 62.533958 
L 410.167158 62.459984 
L 410.81456 62.587734 
L 412.109365 62.093522 
L 413.40417 62.529499 
L 414.051573 62.66608 
L 415.346378 62.400087 
L 415.99378 62.748886 
L 416.641183 62.356979 
L 417.288585 62.712161 
L 417.935988 62.295859 
L 419.230793 62.076821 
L 419.878195 62.625945 
L 420.525598 62.488314 
L 421.820402 62.34911 
L 422.467805 62.56736 
L 423.76261 62.422297 
L 425.057415 62.598226 
L 425.704817 62.229492 
L 426.35222 62.17283 
L 426.999622 62.587034 
L 427.647025 62.270414 
L 428.294427 62.582575 
L 430.236635 62.337568 
L 430.884037 62.292623 
L 431.531439 62.555118 
L 432.178842 62.177902 
L 432.826244 62.22407 
L 433.473647 62.562551 
L 434.121049 62.44407 
L 434.768452 62.463394 
L 436.063257 62.152369 
L 437.358062 62.35899 
L 438.005464 62.214539 
L 438.652867 62.323315 
L 439.300269 62.078657 
L 440.595074 62.021034 
L 441.242477 62.500818 
L 441.889879 62.099293 
L 442.537281 62.120716 
L 443.184684 62.417138 
L 443.832086 61.793078 
L 444.479489 62.244881 
L 445.126891 61.782935 
L 445.774294 62.084603 
L 447.069099 62.430954 
L 447.716501 62.055573 
L 448.363904 62.077958 
L 448.363904 62.077958 
" clip-path="url(#p4e02f86db4)" style="fill: none; stroke: #000000; stroke-width: 0.5; stroke-linecap: square"/>
   </g>
   <g id="line2d_22">
    <path d="M 61.864629 65.832023 
L 62.512032 66.18257 
L 63.159434 66.19796 
L 63.806837 66.012237 
L 64.454239 65.967468 
L 65.101642 65.786642 
L 65.749044 66.162197 
L 67.043849 66.151529 
L 67.691251 65.816546 
L 68.338654 65.666936 
L 68.986056 66.327808 
L 69.633459 66.149256 
L 70.280861 66.230837 
L 71.575666 65.713105 
L 72.223069 65.941935 
L 72.870471 65.745283 
L 73.517874 65.812262 
L 74.165276 65.719225 
L 74.812679 66.044677 
L 75.460081 65.954352 
L 76.107484 65.588765 
L 76.754886 66.10606 
L 77.402289 66.19761 
L 78.049691 66.055258 
L 78.697093 65.716515 
L 79.344496 66.371878 
L 79.991898 65.7563 
L 80.639301 66.320114 
L 81.286703 66.443754 
L 81.934106 65.909233 
L 82.581508 65.966593 
L 83.228911 65.576873 
L 83.876313 66.171203 
L 85.171118 66.177936 
L 85.818521 66.12792 
L 86.465923 66.50365 
L 87.113326 66.029463 
L 88.408131 66.314255 
L 89.702935 65.988628 
L 90.350338 66.050186 
L 91.645143 65.964932 
L 92.292545 66.018008 
L 92.939948 65.882476 
L 93.58735 66.120313 
L 94.234753 65.700688 
L 95.529558 65.926284 
L 96.17696 65.860441 
L 96.824363 66.214136 
L 97.471765 65.662652 
L 98.119168 66.282427 
L 98.76657 65.640092 
L 99.413972 65.748256 
L 100.708777 66.328858 
L 101.35618 65.909495 
L 102.003582 66.194025 
L 102.650985 66.116466 
L 103.298387 65.9025 
L 103.94579 66.144971 
L 104.593192 65.949455 
L 105.240595 66.253397 
L 105.887997 66.384382 
L 106.5354 66.102038 
L 107.182802 66.119876 
L 107.830205 66.620296 
L 108.477607 66.393476 
L 109.12501 66.308397 
L 109.772412 66.689373 
L 110.419814 66.210464 
L 111.067217 66.62152 
L 111.714619 66.639445 
L 112.362022 66.23075 
L 113.656827 66.514843 
L 114.304229 66.448301 
L 114.951632 66.530057 
L 115.599034 66.484588 
L 116.246437 66.58156 
L 116.893839 66.345559 
L 117.541242 66.522363 
L 118.188644 66.854285 
L 118.836047 66.602195 
L 119.483449 67.090811 
L 121.425656 67.107599 
L 122.073059 67.481056 
L 122.720461 67.131995 
L 123.367864 67.775117 
L 124.015266 67.50755 
L 124.662669 67.375778 
L 125.310071 67.473798 
L 125.957474 67.875323 
L 127.252279 68.199289 
L 127.899681 67.806071 
L 128.547084 68.581926 
L 129.194486 68.288303 
L 129.841889 68.591895 
L 130.489291 68.575019 
L 131.784096 69.748115 
L 132.431498 69.832757 
L 133.078901 70.234194 
L 133.726303 70.375148 
L 135.021108 71.050972 
L 135.668511 71.748919 
L 136.315913 72.231151 
L 136.963316 72.423344 
L 137.610718 73.121991 
L 138.258121 74.222337 
L 138.905523 74.361279 
L 139.552926 76.066535 
L 140.200328 76.934728 
L 141.495133 79.885918 
L 142.789938 84.142065 
L 143.43734 85.502545 
L 144.084743 88.729521 
L 146.674353 106.650804 
L 147.321755 113.066633 
L 147.969158 122.692387 
L 149.263963 147.389402 
L 149.911365 163.715166 
L 151.20617 231.630755 
L 151.853573 276.979108 
L 152.500975 248.001988 
L 153.148377 196.271296 
L 153.79578 172.787949 
L 154.443182 160.070663 
L 155.090585 143.633151 
L 155.737987 130.923385 
L 157.032792 115.348644 
L 158.327597 104.891422 
L 158.975 99.389604 
L 160.917207 89.665218 
L 161.56461 88.165795 
L 162.212012 85.913251 
L 164.154219 81.165342 
L 165.449024 78.971732 
L 166.096427 78.105026 
L 166.743829 77.031874 
L 167.391232 76.973989 
L 168.038634 75.80439 
L 168.686037 75.527118 
L 169.333439 74.592208 
L 169.980842 73.993856 
L 172.570452 72.475721 
L 173.217854 72.434624 
L 173.865257 71.7031 
L 175.160061 70.895853 
L 175.807464 70.673231 
L 176.454866 70.770289 
L 177.102269 70.120697 
L 177.749671 70.394822 
L 178.397074 70.248185 
L 179.044476 69.537909 
L 179.691879 69.519284 
L 180.339281 69.758083 
L 180.986684 69.519984 
L 181.634086 68.845383 
L 182.281489 69.255302 
L 182.928891 69.109627 
L 183.576294 69.136034 
L 184.223696 68.72594 
L 184.871099 68.726727 
L 185.518501 68.844946 
L 186.813306 68.296784 
L 187.460708 67.884854 
L 188.108111 68.218001 
L 188.755513 67.647104 
L 189.402916 68.045044 
L 190.050318 67.762875 
L 190.697721 67.661619 
L 191.992526 67.844719 
L 192.639928 67.647104 
L 193.287331 67.742851 
L 193.934733 67.525738 
L 194.582136 67.842446 
L 195.229538 67.249689 
L 195.87694 67.466191 
L 196.524343 67.940378 
L 197.171745 67.775904 
L 197.819148 67.010016 
L 198.46655 67.430253 
L 199.761355 67.000922 
L 200.408758 67.206844 
L 201.05616 67.044467 
L 201.703563 66.73729 
L 202.350965 67.083466 
L 202.998368 66.83942 
L 203.64577 66.76361 
L 204.293173 67.155079 
L 205.587978 67.001709 
L 206.23538 66.549819 
L 206.882782 66.908148 
L 207.530185 67.1062 
L 208.177587 66.533555 
L 209.472392 66.946097 
L 210.119795 66.561186 
L 210.767197 66.751893 
L 211.4146 66.555677 
L 212.062002 66.958514 
L 212.709405 66.306211 
L 213.356807 66.862417 
L 214.00421 66.253135 
L 214.651612 66.47908 
L 216.59382 66.17234 
L 217.241222 66.709747 
L 217.888624 66.649063 
L 218.536027 66.140774 
L 219.183429 66.34075 
L 219.830832 66.397323 
L 220.478234 66.080528 
L 221.125637 66.57334 
L 221.773039 66.158874 
L 222.420442 66.212737 
L 223.067844 65.896729 
L 224.362649 66.396361 
L 225.010052 66.055345 
L 225.657454 66.22699 
L 226.304857 66.26319 
L 226.952259 65.97184 
L 228.247064 66.503388 
L 228.894466 65.89533 
L 229.541869 66.350455 
L 232.131479 65.864376 
L 232.778881 66.177149 
L 233.426284 66.177849 
L 234.073686 65.969304 
L 234.721089 66.09618 
L 235.368491 66.060242 
L 236.663296 66.144709 
L 237.310699 66.133079 
L 237.958101 65.750791 
L 238.605503 66.468849 
L 239.900308 65.768104 
L 241.195113 66.226553 
L 241.842516 66.155551 
L 242.489918 66.530495 
L 243.137321 66.020019 
L 243.784723 65.83246 
L 244.432126 66.186505 
L 246.374333 65.863676 
L 247.021736 66.028326 
L 247.669138 65.856944 
L 248.316541 65.960035 
L 248.963943 65.533065 
L 249.611345 65.427962 
L 250.258748 65.665537 
L 250.90615 66.073708 
L 251.553553 65.992213 
L 252.200955 66.162372 
L 252.848358 65.842341 
L 255.437968 66.012412 
L 256.08537 66.13238 
L 256.732773 65.870234 
L 257.380175 65.908009 
L 258.027578 66.308134 
L 258.67498 66.227427 
L 259.322383 66.371266 
L 259.969785 65.96808 
L 260.617187 65.914042 
L 261.911992 66.299565 
L 262.559395 66.030687 
L 263.206797 66.18292 
L 263.8542 65.884487 
L 264.501602 66.459406 
L 265.149005 66.134741 
L 265.796407 66.127308 
L 266.44381 65.924447 
L 267.091212 66.048 
L 267.738615 66.652823 
L 268.386017 66.339875 
L 269.680822 66.192801 
L 270.328225 66.641106 
L 270.975627 66.627815 
L 271.623029 65.881164 
L 272.270432 66.285925 
L 272.917834 67.01911 
L 273.565237 66.71954 
L 274.212639 66.629477 
L 274.860042 66.700478 
L 275.507444 67.024618 
L 276.154847 67.184721 
L 277.449652 66.95694 
L 278.097054 67.341152 
L 278.744457 67.556517 
L 279.391859 67.61755 
L 280.039262 67.954806 
L 280.686664 67.434188 
L 281.334067 68.163526 
L 281.981469 68.561553 
L 282.628871 68.002986 
L 283.276274 68.695948 
L 283.923676 68.321792 
L 284.571079 69.198204 
L 285.218481 68.956432 
L 285.865884 69.739546 
L 286.513286 69.56108 
L 287.160689 70.090705 
L 287.808091 70.036667 
L 289.102896 70.931791 
L 289.750299 72.396063 
L 290.397701 71.793776 
L 291.045104 73.521941 
L 291.692506 74.026383 
L 293.634713 76.166742 
L 294.282116 76.294492 
L 294.929518 80.25614 
L 295.576921 82.938015 
L 296.224323 84.680521 
L 297.519128 89.320441 
L 298.166531 95.913336 
L 298.813933 104.004867 
L 299.461336 105.192478 
L 300.108738 108.126443 
L 300.756141 121.281104 
L 301.403543 130.99631 
L 302.050946 143.185983 
L 302.698348 161.740594 
L 303.34575 159.918168 
L 304.640555 177.300295 
L 305.287958 141.93489 
L 305.93536 121.884528 
L 306.582763 113.600192 
L 307.230165 115.453835 
L 307.877568 101.967426 
L 308.52497 93.526222 
L 309.819775 85.733824 
L 311.11458 80.20149 
L 311.761983 79.006446 
L 312.409385 75.54583 
L 313.056788 74.249356 
L 313.70419 73.57563 
L 314.998995 70.96633 
L 315.646397 70.248972 
L 316.2938 69.212719 
L 316.941202 68.632467 
L 317.588605 68.205847 
L 318.236007 68.159766 
L 320.178215 66.761336 
L 320.825617 66.632799 
L 321.47302 66.347395 
L 322.120422 65.483312 
L 322.767825 65.614122 
L 323.415227 65.975775 
L 324.710032 65.117288 
L 325.357434 65.476055 
L 326.652239 64.793322 
L 327.947044 65.057129 
L 329.241849 64.483085 
L 330.536654 64.264922 
L 331.184057 64.195757 
L 331.831459 64.426861 
L 332.478862 64.270081 
L 333.126264 63.820989 
L 333.773667 64.22741 
L 334.421069 64.036441 
L 335.068471 63.653978 
L 335.715874 63.985376 
L 336.363276 63.902395 
L 337.010679 64.02691 
L 337.658081 64.014931 
L 338.305484 63.680472 
L 338.952886 64.157283 
L 339.600289 63.71982 
L 340.247691 63.887006 
L 340.895094 63.601951 
L 341.542496 63.628358 
L 342.189899 63.797117 
L 342.837301 63.504018 
L 344.132106 63.792046 
L 344.779509 63.410632 
L 345.426911 63.907117 
L 346.074313 63.849756 
L 346.721716 63.434853 
L 347.369118 63.38816 
L 348.663923 63.681784 
L 349.311326 63.557182 
L 349.958728 63.795981 
L 350.606131 63.273089 
L 351.253533 63.367 
L 351.900936 63.303431 
L 352.548338 63.453828 
L 353.195741 63.426896 
L 353.843143 62.928575 
L 354.490546 63.573271 
L 355.785351 63.645759 
L 357.727558 63.050641 
L 358.37496 63.215116 
L 359.022363 63.511975 
L 359.669765 63.033241 
L 360.317168 63.358343 
L 360.96457 63.08212 
L 361.611973 63.204099 
L 362.259375 63.170347 
L 362.906778 62.941691 
L 364.201583 63.595481 
L 364.848985 63.113423 
L 365.496388 63.285855 
L 366.14379 63.257525 
L 366.791193 63.381165 
L 367.438595 63.107565 
L 368.085997 63.061222 
L 368.7334 63.249743 
L 369.380802 63.013217 
L 370.028205 63.342342 
L 370.675607 62.97964 
L 371.32301 62.981739 
L 372.617815 62.858448 
L 373.265217 63.259099 
L 373.91262 62.792256 
L 374.560022 62.99739 
L 375.854827 62.843408 
L 376.50223 63.127326 
L 377.149632 62.861771 
L 377.797034 63.066118 
L 379.091839 62.872089 
L 379.739242 63.078797 
L 380.386644 62.71286 
L 381.034047 62.591581 
L 381.681449 62.804148 
L 382.328852 62.878734 
L 382.976254 62.631191 
L 383.623657 62.776604 
L 384.271059 63.154783 
L 385.565864 62.541041 
L 386.213267 62.792431 
L 386.860669 62.655849 
L 387.508072 62.33748 
L 388.155474 62.935133 
L 388.802876 62.659172 
L 389.450279 62.832741 
L 390.097681 62.595253 
L 390.745084 62.944751 
L 391.392486 62.93662 
L 392.039889 62.583012 
L 392.687291 62.420461 
L 393.334694 62.643171 
L 393.982096 62.745476 
L 394.629499 62.530198 
L 395.924304 62.858885 
L 396.571706 62.787097 
L 397.219109 62.411892 
L 397.866511 62.621485 
L 401.103523 62.85189 
L 401.750926 62.689077 
L 402.398328 62.756755 
L 403.045731 62.573918 
L 404.340536 62.787534 
L 405.635341 62.517519 
L 406.930146 62.526788 
L 407.577548 62.810618 
L 408.224951 62.308975 
L 408.872353 62.448966 
L 409.519756 61.917768 
L 410.167158 62.536494 
L 410.81456 62.26508 
L 412.756768 62.817264 
L 413.40417 62.453163 
L 414.051573 62.504403 
L 414.698975 62.441446 
L 415.346378 62.590881 
L 415.99378 62.163824 
L 416.641183 62.812892 
L 417.288585 62.909513 
L 417.935988 62.329873 
L 418.58339 62.056448 
L 419.878195 62.382337 
L 420.525598 62.053387 
L 421.820402 62.470651 
L 422.467805 62.23124 
L 423.115207 62.269015 
L 423.76261 62.502305 
L 424.410012 62.087401 
L 425.704817 62.746262 
L 426.35222 62.109349 
L 426.999622 62.464268 
L 427.647025 62.240334 
L 428.294427 62.740666 
L 428.94183 62.370095 
L 429.589232 62.129722 
L 430.236635 62.112584 
L 430.884037 62.460945 
L 431.531439 62.194253 
L 432.178842 62.061082 
L 432.826244 62.245668 
L 434.121049 62.172043 
L 434.768452 61.760988 
L 435.415854 62.184198 
L 436.063257 61.675646 
L 436.710659 62.127012 
L 437.358062 62.426494 
L 438.005464 62.017449 
L 438.652867 62.194865 
L 439.300269 62.04272 
L 439.947672 62.342114 
L 440.595074 62.071487 
L 441.242477 62.283267 
L 442.537281 61.636385 
L 443.184684 62.045867 
L 443.832086 61.87125 
L 444.479489 62.065017 
L 445.126891 61.958427 
L 445.774294 62.034937 
L 446.421696 62.230279 
L 447.069099 61.796838 
L 447.716501 62.361701 
L 448.363904 62.010716 
L 448.363904 62.010716 
" clip-path="url(#p4e02f86db4)" style="fill: none; stroke: #008000; stroke-width: 0.5; stroke-linecap: square"/>
   </g>
   <g id="line2d_23">
    <path d="M 61.864629 65.971053 
L 63.159434 65.973676 
L 63.806837 66.388055 
L 64.454239 66.251823 
L 65.101642 65.680315 
L 66.396447 65.872333 
L 67.043849 66.379923 
L 67.691251 66.374414 
L 68.338654 65.868486 
L 68.986056 66.035059 
L 70.280861 65.995624 
L 70.928264 65.850735 
L 71.575666 66.152578 
L 72.223069 66.210814 
L 72.870471 65.801681 
L 74.165276 66.32842 
L 74.812679 65.922873 
L 75.460081 66.233635 
L 76.107484 66.122149 
L 76.754886 65.881777 
L 77.402289 66.140249 
L 78.049691 66.239844 
L 78.697093 65.964145 
L 79.344496 65.922349 
L 80.639301 66.277355 
L 81.286703 65.973589 
L 82.581508 66.047825 
L 83.228911 66.16858 
L 83.876313 65.78874 
L 84.523716 66.084288 
L 85.171118 66.587505 
L 85.818521 65.601968 
L 86.465923 66.310233 
L 87.113326 65.974988 
L 88.408131 66.475844 
L 90.350338 65.79696 
L 91.645143 66.178111 
L 94.234753 66.190965 
L 94.882155 66.238095 
L 96.824363 65.838669 
L 97.471765 65.960735 
L 98.76657 65.69413 
L 99.413972 66.22664 
L 100.061375 66.070647 
L 100.708777 66.362347 
L 101.35618 66.488086 
L 102.650985 66.367856 
L 103.298387 66.401608 
L 103.94579 66.110083 
L 104.593192 66.247364 
L 105.240595 66.145234 
L 105.887997 66.297204 
L 106.5354 66.066625 
L 107.182802 66.489223 
L 107.830205 66.622219 
L 108.477607 66.109296 
L 109.12501 66.266338 
L 111.067217 66.391028 
L 111.714619 66.579199 
L 112.362022 66.34311 
L 113.009424 66.255408 
L 114.304229 66.513881 
L 114.951632 66.188779 
L 115.599034 66.794476 
L 116.246437 66.691297 
L 116.893839 66.725224 
L 117.541242 66.54737 
L 118.188644 67.299268 
L 118.836047 67.160588 
L 119.483449 66.904213 
L 120.130852 66.994801 
L 120.778254 66.757664 
L 121.425656 67.244967 
L 122.073059 67.157615 
L 122.720461 67.376128 
L 123.367864 67.071749 
L 124.662669 67.666166 
L 126.604876 67.761826 
L 127.252279 67.794966 
L 129.194486 68.306578 
L 129.841889 68.442022 
L 130.489291 68.754358 
L 131.784096 69.70046 
L 133.078901 69.507392 
L 133.726303 70.184965 
L 134.373706 70.27293 
L 135.021108 71.109032 
L 136.315913 72.342987 
L 136.963316 72.464791 
L 137.610718 72.964161 
L 138.258121 73.749898 
L 138.905523 75.102683 
L 139.552926 75.635106 
L 140.847731 77.892722 
L 142.142536 81.041614 
L 143.43734 85.197204 
L 144.084743 87.666075 
L 145.379548 95.168784 
L 146.02695 100.434339 
L 146.674353 104.151242 
L 147.321755 110.241356 
L 148.61656 129.062223 
L 149.911365 160.970334 
L 150.558768 185.341373 
L 151.20617 214.071737 
L 151.853573 268.62412 
L 152.500975 283.579435 
L 153.148377 226.906717 
L 153.79578 186.896932 
L 155.090585 149.554069 
L 156.38539 125.021529 
L 157.680195 109.851548 
L 158.975 99.729659 
L 159.622402 97.004764 
L 160.269805 93.119188 
L 162.212012 86.333575 
L 162.859415 84.602174 
L 163.506817 83.370843 
L 164.801622 80.165814 
L 166.743829 77.368606 
L 167.391232 76.348967 
L 168.038634 75.703747 
L 168.686037 75.579756 
L 169.333439 74.562828 
L 169.980842 74.72844 
L 170.628244 73.327125 
L 171.923049 72.855823 
L 172.570452 72.612302 
L 173.217854 72.034236 
L 173.865257 71.729595 
L 175.160061 71.568705 
L 175.807464 71.129843 
L 176.454866 71.106846 
L 177.102269 70.199918 
L 177.749671 70.353288 
L 178.397074 70.032995 
L 179.691879 69.961556 
L 180.339281 69.792185 
L 180.986684 69.358919 
L 181.634086 69.441637 
L 182.281489 69.273053 
L 182.928891 68.954159 
L 183.576294 69.072553 
L 184.223696 68.87896 
L 184.871099 69.052092 
L 185.518501 68.467467 
L 186.165903 68.299582 
L 186.813306 68.467205 
L 188.755513 68.126451 
L 189.402916 67.850927 
L 190.050318 68.377142 
L 190.697721 67.802748 
L 191.345123 67.760777 
L 191.992526 67.867016 
L 192.639928 67.530897 
L 193.287331 67.625682 
L 193.934733 67.342463 
L 194.582136 67.784473 
L 195.229538 67.317368 
L 195.87694 67.820236 
L 196.524343 67.58782 
L 197.171745 67.557478 
L 197.819148 67.275047 
L 198.46655 67.17519 
L 200.408758 67.369132 
L 201.05616 67.181399 
L 201.703563 67.177551 
L 202.350965 66.959825 
L 202.998368 67.341676 
L 204.293173 66.671535 
L 204.940575 66.944436 
L 206.23538 66.675295 
L 206.882782 66.904913 
L 207.530185 66.597823 
L 208.177587 67.073235 
L 208.82499 67.146423 
L 209.472392 66.664103 
L 210.119795 66.738864 
L 210.767197 66.570455 
L 211.4146 66.671535 
L 212.062002 66.531806 
L 212.709405 66.692259 
L 213.356807 66.557688 
L 214.00421 66.760375 
L 214.651612 66.836185 
L 215.299015 66.579548 
L 216.59382 66.683427 
L 217.241222 66.801209 
L 217.888624 66.588905 
L 219.183429 66.532768 
L 219.830832 66.679842 
L 220.478234 66.681853 
L 221.125637 65.959161 
L 221.773039 66.449438 
L 223.715247 66.180822 
L 224.362649 66.3947 
L 225.010052 66.393563 
L 225.657454 66.223405 
L 226.304857 66.375201 
L 226.952259 66.279279 
L 227.599662 66.002968 
L 228.247064 66.576488 
L 228.894466 66.255146 
L 230.189271 66.382721 
L 230.836674 66.067674 
L 231.484076 66.330781 
L 232.131479 66.408516 
L 232.778881 66.174439 
L 233.426284 66.375638 
L 234.721089 66.450487 
L 235.368491 65.818995 
L 236.663296 66.325448 
L 237.958101 66.249724 
L 238.605503 65.646825 
L 239.252906 66.167356 
L 239.900308 66.087086 
L 240.547711 66.233373 
L 241.195113 66.261179 
L 241.842516 65.925584 
L 242.489918 66.183095 
L 243.137321 66.028239 
L 243.784723 66.497005 
L 245.079528 66.239144 
L 245.726931 65.59165 
L 246.374333 66.655534 
L 247.021736 66.291608 
L 247.669138 66.267825 
L 248.316541 66.400559 
L 248.963943 66.31854 
L 249.611345 65.72762 
L 250.258748 66.168755 
L 250.90615 66.287411 
L 252.200955 66.03366 
L 253.49576 66.717092 
L 254.143163 66.563634 
L 254.790565 66.286799 
L 255.437968 66.553404 
L 256.08537 65.910282 
L 256.732773 66.549644 
L 257.380175 66.168755 
L 259.322383 66.51117 
L 259.969785 66.462903 
L 260.617187 66.661392 
L 261.26459 66.592315 
L 261.911992 66.885414 
L 263.8542 66.258031 
L 265.149005 67.02182 
L 266.44381 67.058108 
L 267.091212 66.517379 
L 267.738615 66.994364 
L 268.386017 67.094308 
L 269.680822 66.981161 
L 270.328225 67.207281 
L 270.975627 67.723877 
L 273.565237 68.163351 
L 274.212639 68.48242 
L 274.860042 68.016801 
L 275.507444 67.84402 
L 276.154847 68.350735 
L 276.802249 69.242449 
L 277.449652 68.3468 
L 278.097054 69.082958 
L 278.744457 69.40194 
L 279.391859 69.153959 
L 280.039262 69.515349 
L 280.686664 70.260601 
L 281.334067 69.967327 
L 281.981469 70.140371 
L 283.276274 72.12325 
L 283.923676 72.376564 
L 284.571079 73.67776 
L 285.218481 73.424183 
L 285.865884 73.954857 
L 286.513286 73.828681 
L 287.160689 76.563895 
L 288.455494 77.529146 
L 289.102896 78.099867 
L 289.750299 81.510118 
L 290.397701 79.812993 
L 291.045104 81.763694 
L 291.692506 85.834293 
L 292.339908 84.734821 
L 292.987311 90.92418 
L 293.634713 95.06508 
L 294.929518 99.626567 
L 295.576921 104.155789 
L 296.224323 106.177666 
L 296.871726 113.180655 
L 297.519128 118.323269 
L 298.813933 133.027106 
L 299.461336 136.22444 
L 300.108738 141.543246 
L 301.403543 138.539766 
L 302.050946 134.194868 
L 302.698348 132.922615 
L 303.34575 117.338693 
L 303.993153 115.002731 
L 304.640555 103.049934 
L 305.287958 98.060865 
L 305.93536 96.33541 
L 306.582763 92.855469 
L 307.230165 86.373973 
L 307.877568 83.738441 
L 308.52497 82.58021 
L 309.172373 80.52869 
L 310.467178 75.757784 
L 311.11458 74.247344 
L 311.761983 73.957218 
L 312.409385 72.329608 
L 313.056788 72.110833 
L 313.70419 70.031858 
L 314.351592 70.337986 
L 314.998995 69.758258 
L 315.646397 68.797116 
L 316.2938 68.205847 
L 317.588605 67.724489 
L 318.236007 67.758765 
L 318.88341 67.362574 
L 319.530812 67.108124 
L 320.178215 67.161025 
L 320.825617 66.345646 
L 321.47302 66.062515 
L 322.120422 65.652421 
L 322.767825 65.630124 
L 323.415227 65.306683 
L 324.06263 65.59611 
L 324.710032 65.523097 
L 326.004837 64.978083 
L 326.652239 65.261826 
L 327.299642 65.016907 
L 329.889252 64.703871 
L 330.536654 64.751963 
L 331.184057 63.999541 
L 331.831459 64.780031 
L 332.478862 64.331114 
L 333.126264 64.175733 
L 333.773667 64.429921 
L 335.715874 64.050956 
L 336.363276 64.391185 
L 338.952886 64.064946 
L 339.600289 64.139708 
L 340.247691 63.92854 
L 340.895094 63.92137 
L 341.542496 64.287219 
L 342.189899 63.947514 
L 342.837301 63.920933 
L 343.484704 63.635878 
L 344.132106 64.164453 
L 344.779509 63.663509 
L 345.426911 63.873103 
L 346.721716 63.534447 
L 347.369118 63.942443 
L 348.016521 63.622587 
L 348.663923 63.648294 
L 349.311326 63.808922 
L 349.958728 63.459074 
L 351.253533 63.575282 
L 351.900936 64.02621 
L 352.548338 63.143678 
L 353.195741 63.835329 
L 353.843143 63.397341 
L 354.490546 63.38064 
L 355.785351 63.664733 
L 356.432753 63.405561 
L 357.080155 63.607198 
L 357.727558 63.337445 
L 358.37496 63.561292 
L 360.317168 63.255951 
L 360.96457 63.534972 
L 362.906778 63.15111 
L 363.55418 63.052827 
L 364.201583 63.238375 
L 364.848985 63.099433 
L 365.496388 63.305354 
L 366.14379 63.157318 
L 366.791193 63.331324 
L 367.438595 63.364114 
L 368.085997 62.959179 
L 368.7334 63.285943 
L 369.380802 63.347763 
L 370.028205 63.564877 
L 370.675607 63.000189 
L 371.32301 62.992231 
L 371.970412 63.120506 
L 375.207425 63.073288 
L 376.50223 62.889402 
L 377.797034 63.131611 
L 379.091839 62.93933 
L 379.739242 63.062533 
L 380.386644 62.647805 
L 381.034047 62.996516 
L 382.976254 62.773894 
L 383.623657 62.965737 
L 384.271059 62.843758 
L 384.918462 62.866842 
L 385.565864 62.629967 
L 386.860669 62.892375 
L 387.508072 62.63294 
L 389.450279 63.012867 
L 390.745084 62.593767 
L 391.392486 62.759641 
L 392.039889 62.704379 
L 392.687291 62.91371 
L 393.334694 62.922367 
L 393.982096 62.55678 
L 394.629499 62.550309 
L 395.276901 62.82286 
L 396.571706 62.468553 
L 397.219109 62.775293 
L 397.866511 62.954632 
L 398.513914 62.572432 
L 399.161316 62.740491 
L 400.456121 62.465755 
L 401.103523 62.801262 
L 401.750926 62.583886 
L 402.398328 62.864132 
L 403.045731 62.4362 
L 403.693133 62.772232 
L 404.340536 62.444157 
L 404.987938 62.621923 
L 405.635341 62.467154 
L 406.282743 62.455612 
L 406.930146 62.7286 
L 408.224951 62.48333 
L 408.872353 62.625595 
L 410.167158 62.583099 
L 410.81456 62.352083 
L 411.461963 62.699132 
L 412.109365 62.774855 
L 412.756768 62.311161 
L 413.40417 62.100692 
L 414.051573 62.551096 
L 414.698975 62.441271 
L 415.346378 62.600412 
L 415.99378 62.061257 
L 416.641183 62.418362 
L 417.288585 62.607495 
L 417.935988 62.409793 
L 419.230793 62.395278 
L 419.878195 62.840261 
L 420.525598 62.518918 
L 421.820402 62.356192 
L 426.35222 62.343951 
L 426.999622 62.180875 
L 427.647025 62.15132 
L 428.94183 62.591756 
L 429.589232 62.008093 
L 430.236635 62.665643 
L 430.884037 62.23159 
L 431.531439 62.539204 
L 434.768452 62.204659 
L 435.415854 61.794215 
L 436.063257 62.098769 
L 436.710659 62.037298 
L 437.358062 62.267965 
L 438.005464 62.024969 
L 439.300269 62.028904 
L 439.947672 62.477996 
L 440.595074 62.261932 
L 441.242477 61.804883 
L 441.889879 62.178427 
L 442.537281 62.352782 
L 443.184684 61.9259 
L 443.832086 62.018848 
L 444.479489 61.894159 
L 445.126891 62.110835 
L 445.774294 61.813801 
L 446.421696 62.002847 
L 447.069099 62.01946 
L 447.716501 62.418799 
L 448.363904 61.966734 
L 448.363904 61.966734 
" clip-path="url(#p4e02f86db4)" style="fill: none; stroke: #ff0000; stroke-width: 0.5; stroke-linecap: square"/>
   </g>
   <g id="line2d_24">
    <path d="M 61.864629 66.401695 
L 63.806837 66.343023 
L 64.454239 65.969916 
L 65.101642 66.226203 
L 65.749044 66.339438 
L 66.396447 66.177149 
L 67.043849 65.733128 
L 67.691251 66.052634 
L 68.338654 66.228214 
L 68.986056 65.856331 
L 69.633459 65.806141 
L 70.280861 66.089797 
L 70.928264 66.087523 
L 71.575666 65.969304 
L 72.223069 66.148556 
L 72.870471 65.82564 
L 74.165276 66.184756 
L 74.812679 65.897079 
L 75.460081 66.00017 
L 76.107484 65.974113 
L 76.754886 66.138588 
L 77.402289 65.860878 
L 78.049691 66.207491 
L 78.697093 65.919201 
L 79.991898 65.981546 
L 80.639301 65.775537 
L 81.286703 65.730243 
L 81.934106 66.310146 
L 82.581508 66.313381 
L 83.228911 66.060592 
L 83.876313 65.474655 
L 84.523716 66.32606 
L 85.171118 65.998859 
L 85.818521 66.25296 
L 86.465923 65.947794 
L 87.113326 66.315917 
L 87.760728 65.868223 
L 89.055533 66.742537 
L 89.702935 65.892094 
L 90.350338 66.372315 
L 90.99774 65.85091 
L 91.645143 66.258818 
L 92.292545 65.802031 
L 92.939948 65.847937 
L 93.58735 66.253047 
L 94.234753 65.961347 
L 95.529558 66.386306 
L 96.17696 66.155639 
L 96.824363 65.804567 
L 98.119168 65.909845 
L 98.76657 66.263627 
L 99.413972 66.291084 
L 100.061375 66.185194 
L 100.708777 65.888335 
L 102.003582 66.44559 
L 102.650985 66.281465 
L 103.298387 66.257244 
L 103.94579 65.951554 
L 105.240595 66.312069 
L 107.182802 66.047913 
L 107.830205 66.224891 
L 108.477607 66.231887 
L 109.12501 66.503738 
L 110.419814 66.569318 
L 111.067217 66.326847 
L 111.714619 66.244303 
L 112.362022 66.722688 
L 113.009424 66.180297 
L 113.656827 66.53714 
L 114.951632 66.48284 
L 115.599034 66.609278 
L 116.246437 66.449438 
L 117.541242 67.28519 
L 118.188644 66.827179 
L 118.836047 67.163911 
L 119.483449 66.500852 
L 120.130852 66.935954 
L 120.778254 66.836273 
L 121.425656 67.131733 
L 122.073059 67.201073 
L 122.720461 67.011502 
L 123.367864 67.515857 
L 124.015266 66.980724 
L 124.662669 67.596127 
L 125.310071 67.444069 
L 127.252279 67.918431 
L 128.547084 68.761791 
L 129.194486 68.824398 
L 129.841889 68.508389 
L 131.784096 69.449682 
L 132.431498 69.522607 
L 133.078901 69.817717 
L 133.726303 69.946866 
L 134.373706 70.815583 
L 135.021108 70.898914 
L 135.668511 71.934816 
L 136.315913 71.678704 
L 136.963316 73.12951 
L 137.610718 74.105866 
L 138.258121 74.397916 
L 138.905523 75.290417 
L 139.552926 75.909755 
L 140.847731 78.550359 
L 141.495133 79.695649 
L 142.142536 81.983956 
L 142.789938 83.169119 
L 143.43734 85.225884 
L 145.379548 95.077759 
L 146.02695 98.660442 
L 147.321755 112.125603 
L 148.61656 130.339722 
L 149.263963 144.277235 
L 150.558768 183.519034 
L 151.853573 275.693126 
L 152.500975 267.560761 
L 153.148377 216.030569 
L 153.79578 187.587359 
L 154.443182 164.160236 
L 155.737987 133.828582 
L 157.680195 109.207552 
L 158.975 99.517442 
L 160.269805 93.257606 
L 160.917207 91.08061 
L 161.56461 87.97229 
L 162.859415 84.100618 
L 164.154219 81.178021 
L 164.801622 80.586576 
L 165.449024 78.939292 
L 166.096427 77.857221 
L 166.743829 77.341324 
L 167.391232 76.449785 
L 168.686037 75.181292 
L 169.333439 74.923956 
L 169.980842 73.805247 
L 170.628244 73.456187 
L 171.275647 73.40381 
L 171.923049 72.489187 
L 172.570452 72.266652 
L 173.217854 71.855946 
L 173.865257 71.595287 
L 174.512659 71.085511 
L 175.160061 71.582958 
L 175.807464 70.854057 
L 176.454866 70.40033 
L 177.102269 70.458653 
L 177.749671 69.973273 
L 178.397074 70.460227 
L 179.044476 69.886707 
L 180.986684 69.406836 
L 181.634086 69.531438 
L 182.281489 69.119508 
L 183.576294 69.257576 
L 184.223696 68.536807 
L 185.518501 69.171098 
L 186.165903 68.74098 
L 186.813306 68.163963 
L 187.460708 68.148398 
L 188.108111 68.489677 
L 188.755513 67.921054 
L 189.402916 68.383962 
L 190.050318 68.476911 
L 190.697721 67.825919 
L 191.992526 67.927525 
L 192.639928 67.807994 
L 193.287331 67.4891 
L 193.934733 68.042771 
L 194.582136 67.562288 
L 195.229538 67.224594 
L 195.87694 67.744775 
L 196.524343 67.316493 
L 197.171745 67.190492 
L 197.819148 67.603035 
L 198.46655 67.335993 
L 199.113953 67.277233 
L 199.761355 67.450364 
L 201.703563 66.651774 
L 202.350965 67.274697 
L 202.998368 66.958601 
L 203.64577 67.148434 
L 204.293173 66.757576 
L 204.940575 66.837672 
L 205.587978 67.065715 
L 206.23538 66.746384 
L 207.530185 67.118704 
L 208.82499 67.089324 
L 210.119795 66.535216 
L 210.767197 66.741575 
L 212.062002 66.63857 
L 212.709405 66.598698 
L 213.356807 66.345384 
L 214.00421 66.940851 
L 214.651612 66.408516 
L 215.299015 66.569843 
L 215.946417 66.584795 
L 216.59382 66.835748 
L 217.241222 66.504875 
L 217.888624 66.790979 
L 218.536027 66.353953 
L 219.830832 66.610939 
L 220.478234 66.316354 
L 222.420442 66.451011 
L 223.067844 66.568181 
L 223.715247 66.372053 
L 224.362649 66.433174 
L 225.010052 66.297292 
L 226.304857 66.496655 
L 226.952259 66.456258 
L 227.599662 66.166044 
L 228.894466 66.021506 
L 229.541869 66.481703 
L 231.484076 66.165345 
L 232.131479 66.655709 
L 232.778881 66.161672 
L 234.721089 66.51458 
L 235.368491 66.061816 
L 236.015894 66.096005 
L 236.663296 66.256807 
L 237.310699 66.092769 
L 237.958101 66.260567 
L 239.900308 66.01486 
L 240.547711 66.25978 
L 241.195113 65.999121 
L 241.842516 66.070035 
L 242.489918 66.290559 
L 243.137321 66.043016 
L 243.784723 66.29292 
L 244.432126 66.003843 
L 245.726931 66.470073 
L 246.374333 66.107984 
L 247.021736 66.250774 
L 247.669138 66.528746 
L 248.316541 66.521751 
L 248.963943 66.351155 
L 249.611345 66.298866 
L 250.258748 66.098366 
L 251.553553 66.336028 
L 252.200955 65.944996 
L 252.848358 66.414724 
L 253.49576 66.198922 
L 254.143163 66.328071 
L 254.790565 65.808677 
L 255.437968 65.93905 
L 256.08537 66.465789 
L 256.732773 66.085949 
L 258.027578 66.300265 
L 258.67498 66.520701 
L 259.969785 66.720852 
L 260.617187 66.304899 
L 261.26459 66.720677 
L 261.911992 66.983347 
L 262.559395 66.469112 
L 263.8542 66.61671 
L 264.501602 66.788355 
L 265.796407 66.778212 
L 266.44381 67.214101 
L 267.091212 67.082504 
L 267.738615 66.828753 
L 268.386017 66.940938 
L 269.03342 66.922488 
L 269.680822 67.463218 
L 270.328225 67.211828 
L 271.623029 67.512447 
L 272.270432 68.128899 
L 272.917834 67.399911 
L 273.565237 68.245282 
L 274.212639 68.364463 
L 274.860042 68.004122 
L 275.507444 68.530074 
L 276.154847 68.363763 
L 276.802249 69.197767 
L 277.449652 69.286169 
L 278.097054 69.643799 
L 278.744457 69.776533 
L 279.391859 70.246086 
L 280.039262 69.808361 
L 280.686664 70.336849 
L 281.981469 70.631435 
L 282.628871 71.456169 
L 283.276274 71.293443 
L 283.923676 73.35563 
L 284.571079 73.402848 
L 285.218481 73.194129 
L 285.865884 75.772125 
L 286.513286 74.623949 
L 287.160689 76.476542 
L 287.808091 77.074895 
L 288.455494 79.722405 
L 289.102896 79.072813 
L 289.750299 80.858777 
L 290.397701 81.456605 
L 291.045104 86.132463 
L 291.692506 88.925387 
L 292.339908 90.30318 
L 292.987311 90.400064 
L 293.634713 92.299787 
L 294.282116 99.89973 
L 294.929518 102.732789 
L 295.576921 107.735236 
L 296.224323 115.864278 
L 296.871726 117.498971 
L 297.519128 124.433319 
L 298.166531 126.55549 
L 298.813933 126.853049 
L 299.461336 133.268616 
L 300.108738 134.072977 
L 300.756141 131.767969 
L 301.403543 132.23385 
L 302.050946 134.916511 
L 302.698348 122.053288 
L 303.34575 118.69725 
L 303.993153 108.855081 
L 304.640555 110.802284 
L 305.287958 98.142796 
L 305.93536 91.844662 
L 306.582763 86.691031 
L 307.230165 83.744737 
L 307.877568 82.87602 
L 308.52497 81.362694 
L 309.172373 79.230992 
L 309.819775 75.892442 
L 310.467178 75.678476 
L 311.11458 74.824886 
L 311.761983 72.865441 
L 312.409385 71.57911 
L 313.056788 71.20784 
L 313.70419 70.664574 
L 314.351592 69.416367 
L 314.998995 69.746541 
L 315.646397 68.550361 
L 316.2938 67.838773 
L 316.941202 67.759378 
L 317.588605 67.802835 
L 318.236007 67.470913 
L 318.88341 66.81004 
L 319.530812 66.591003 
L 320.178215 66.539588 
L 320.825617 66.105973 
L 321.47302 66.307872 
L 322.120422 65.950067 
L 322.767825 65.778597 
L 324.06263 65.967555 
L 325.357434 65.185404 
L 327.299642 64.770063 
L 329.241849 64.991899 
L 329.889252 64.625088 
L 330.536654 64.551201 
L 331.184057 64.862662 
L 331.831459 64.440851 
L 333.126264 64.234493 
L 333.773667 64.185789 
L 334.421069 64.693903 
L 335.068471 64.420303 
L 335.715874 64.346066 
L 336.363276 63.945241 
L 337.010679 64.464373 
L 337.658081 63.866108 
L 338.305484 63.800528 
L 338.952886 64.130089 
L 339.600289 63.834542 
L 340.247691 64.37667 
L 340.895094 63.942093 
L 341.542496 63.928977 
L 342.189899 63.673127 
L 342.837301 64.053229 
L 343.484704 63.861823 
L 344.132106 63.835679 
L 344.779509 63.673477 
L 345.426911 63.94734 
L 346.074313 63.562428 
L 346.721716 63.85168 
L 347.369118 63.828946 
L 348.016521 63.642873 
L 348.663923 63.76765 
L 349.311326 63.123304 
L 349.958728 63.588923 
L 351.253533 63.369623 
L 351.900936 63.623024 
L 352.548338 63.520195 
L 353.195741 63.741243 
L 353.843143 63.233654 
L 354.490546 63.217127 
L 356.432753 63.616204 
L 357.080155 63.161778 
L 357.727558 63.199377 
L 358.37496 63.488367 
L 359.022363 63.482158 
L 360.317168 63.040586 
L 360.96457 63.255951 
L 361.611973 63.254901 
L 362.259375 63.492389 
L 362.906778 63.451467 
L 363.55418 63.564264 
L 364.201583 63.175244 
L 364.848985 63.082295 
L 365.496388 63.252016 
L 366.791193 63.15452 
L 367.438595 63.503581 
L 368.085997 63.186261 
L 368.7334 63.218177 
L 369.380802 63.086317 
L 370.028205 63.166237 
L 370.675607 63.409583 
L 371.970412 63.153121 
L 372.617815 62.876286 
L 373.265217 62.884243 
L 373.91262 63.328264 
L 375.854827 62.569808 
L 377.797034 63.294949 
L 378.444437 63.124966 
L 379.091839 62.809044 
L 379.739242 62.728862 
L 380.386644 62.844895 
L 381.034047 63.232342 
L 381.681449 63.159854 
L 382.328852 62.662233 
L 383.623657 62.638886 
L 384.271059 63.124703 
L 384.918462 62.653751 
L 385.565864 62.809482 
L 386.860669 62.724315 
L 387.508072 62.858273 
L 389.450279 62.933209 
L 390.097681 62.691787 
L 390.745084 63.106341 
L 391.392486 62.785698 
L 392.039889 62.874799 
L 392.687291 62.504753 
L 393.334694 62.475461 
L 393.982096 62.813154 
L 395.276901 62.639148 
L 395.924304 63.188972 
L 396.571706 62.64763 
L 397.219109 62.513235 
L 397.866511 62.811755 
L 399.161316 62.708838 
L 399.808718 62.793043 
L 400.456121 62.488839 
L 401.750926 62.759116 
L 402.398328 62.365548 
L 403.045731 62.584936 
L 403.693133 62.518306 
L 404.340536 62.723091 
L 404.987938 62.427369 
L 405.635341 62.818488 
L 406.282743 62.546287 
L 406.930146 62.727201 
L 407.577548 62.508076 
L 408.872353 62.415564 
L 409.519756 62.983225 
L 410.167158 62.553719 
L 410.81456 62.389507 
L 411.461963 62.495922 
L 412.109365 62.397814 
L 412.756768 62.610555 
L 413.40417 62.078832 
L 414.051573 62.450103 
L 414.698975 62.445469 
L 415.99378 61.992529 
L 416.641183 62.136368 
L 417.288585 62.714872 
L 418.58339 62.17694 
L 419.230793 62.121591 
L 419.878195 62.502305 
L 421.173 62.158403 
L 421.820402 62.718194 
L 422.467805 62.595603 
L 423.115207 62.635913 
L 423.76261 62.185684 
L 425.057415 62.251526 
L 426.35222 62.054874 
L 426.999622 62.210342 
L 427.647025 62.58275 
L 428.94183 62.405421 
L 429.589232 62.454737 
L 430.236635 62.108562 
L 430.884037 62.266654 
L 431.531439 61.965685 
L 432.178842 62.542789 
L 433.473647 62.369046 
L 434.121049 61.801735 
L 434.768452 61.987283 
L 435.415854 62.415826 
L 437.358062 62.043594 
L 438.005464 62.594729 
L 438.652867 62.143625 
L 439.300269 61.903602 
L 439.947672 62.329436 
L 441.242477 62.335906 
L 441.889879 62.266216 
L 442.537281 61.993666 
L 443.184684 62.029516 
L 443.832086 61.949771 
L 444.479489 62.21419 
L 445.126891 62.19915 
L 446.421696 61.916718 
L 447.069099 62.225207 
L 447.716501 62.163824 
L 448.363904 62.41093 
L 448.363904 62.41093 
" clip-path="url(#p4e02f86db4)" style="fill: none; stroke: #0000ff; stroke-width: 0.5; stroke-linecap: square"/>
   </g>
   <g id="line2d_25">
    <path d="M 61.864629 66.331568 
L 63.806837 66.282077 
L 64.454239 66.072308 
L 65.101642 66.206704 
L 65.749044 66.161497 
L 66.396447 65.812349 
L 67.043849 66.096267 
L 67.691251 65.977611 
L 68.338654 66.120575 
L 68.986056 65.864988 
L 70.280861 65.685036 
L 70.928264 66.282864 
L 71.575666 66.358675 
L 72.223069 65.948056 
L 73.517874 66.30385 
L 74.812679 66.172427 
L 76.107484 66.128008 
L 76.754886 66.206267 
L 77.402289 66.099327 
L 78.049691 66.215623 
L 78.697093 66.09618 
L 79.344496 66.317053 
L 79.991898 65.875568 
L 80.639301 65.892794 
L 81.286703 66.375288 
L 81.934106 65.863414 
L 82.581508 66.214836 
L 83.228911 66.4135 
L 83.876313 66.229876 
L 84.523716 66.233461 
L 85.818521 65.744758 
L 86.465923 66.33288 
L 87.760728 66.093644 
L 88.408131 66.29327 
L 89.702935 66.192189 
L 90.350338 65.804305 
L 91.645143 66.023604 
L 92.292545 66.017833 
L 92.939948 66.156338 
L 93.58735 66.164208 
L 94.234753 65.980147 
L 94.882155 66.179248 
L 95.529558 66.158437 
L 96.824363 66.264414 
L 97.471765 66.104749 
L 98.119168 66.405105 
L 98.76657 66.328858 
L 99.413972 66.035234 
L 100.061375 66.391115 
L 100.708777 66.087261 
L 101.35618 66.320813 
L 102.003582 66.238707 
L 102.650985 66.330606 
L 103.298387 65.956888 
L 103.94579 66.383858 
L 104.593192 66.202682 
L 105.240595 66.192451 
L 105.887997 66.541337 
L 107.182802 66.206004 
L 107.830205 66.713244 
L 108.477607 66.285487 
L 109.12501 66.384032 
L 109.772412 66.980724 
L 110.419814 66.759675 
L 111.067217 66.740963 
L 111.714619 66.379048 
L 113.009424 66.36567 
L 113.656827 66.893196 
L 114.304229 66.510034 
L 114.951632 66.927385 
L 115.599034 66.550343 
L 116.246437 66.823506 
L 116.893839 66.485638 
L 117.541242 66.876582 
L 118.188644 66.848602 
L 118.836047 66.970143 
L 119.483449 66.851662 
L 120.130852 66.883927 
L 120.778254 67.261843 
L 122.073059 67.408568 
L 122.720461 67.720991 
L 123.367864 67.701754 
L 124.015266 67.562812 
L 124.662669 68.08754 
L 125.310071 68.173494 
L 125.957474 68.593468 
L 126.604876 68.127413 
L 127.252279 68.550361 
L 127.899681 68.514248 
L 128.547084 69.109103 
L 129.194486 68.448405 
L 129.841889 69.605063 
L 130.489291 69.312838 
L 131.136694 69.476089 
L 131.784096 70.123495 
L 133.078901 70.663263 
L 133.726303 71.109295 
L 134.373706 71.224103 
L 136.315913 73.167285 
L 136.963316 73.442458 
L 137.610718 74.259586 
L 138.258121 75.274153 
L 138.905523 75.805002 
L 139.552926 77.944661 
L 140.200328 78.993155 
L 140.847731 79.56545 
L 141.495133 81.230397 
L 142.142536 83.325811 
L 142.789938 86.260038 
L 143.43734 87.714692 
L 144.084743 90.707678 
L 144.732145 95.825547 
L 145.379548 97.148602 
L 147.321755 119.770402 
L 147.969158 131.340037 
L 148.61656 138.186596 
L 149.263963 154.923765 
L 149.911365 179.181044 
L 150.558768 209.510425 
L 151.20617 250.471733 
L 151.853573 271.518736 
L 152.500975 222.753575 
L 153.148377 203.917319 
L 153.79578 170.568982 
L 154.443182 152.444226 
L 155.090585 139.159716 
L 155.737987 129.501609 
L 157.032792 113.307968 
L 158.975 98.980385 
L 160.269805 91.955448 
L 160.917207 90.481208 
L 161.56461 87.313254 
L 162.212012 85.210582 
L 163.506817 83.215899 
L 164.154219 81.485722 
L 164.801622 80.305106 
L 166.096427 77.318503 
L 166.743829 77.206404 
L 167.391232 76.917153 
L 168.038634 76.152576 
L 168.686037 74.92177 
L 169.333439 74.678424 
L 169.980842 74.056026 
L 170.628244 73.690001 
L 171.275647 73.746663 
L 172.570452 73.037349 
L 173.865257 72.255809 
L 174.512659 71.632536 
L 175.160061 71.384906 
L 175.807464 71.329469 
L 176.454866 70.7361 
L 177.102269 70.496252 
L 177.749671 70.460839 
L 179.044476 69.610397 
L 179.691879 70.176746 
L 180.339281 70.027836 
L 180.986684 69.687869 
L 181.634086 70.032383 
L 182.928891 68.830344 
L 183.576294 69.24752 
L 184.223696 69.224174 
L 184.871099 68.925129 
L 185.518501 69.047195 
L 186.165903 68.906766 
L 186.813306 68.650042 
L 187.460708 68.797029 
L 188.108111 68.683969 
L 189.402916 68.636576 
L 190.050318 68.196928 
L 190.697721 68.498246 
L 191.345123 68.30308 
L 191.992526 68.42707 
L 192.639928 67.973606 
L 193.934733 67.929361 
L 194.582136 67.879957 
L 195.229538 67.643345 
L 197.819148 67.704902 
L 198.46655 67.645268 
L 199.113953 67.842446 
L 199.761355 67.576715 
L 200.408758 67.696508 
L 201.05616 67.666079 
L 201.703563 67.762088 
L 202.350965 67.274522 
L 204.293173 67.740665 
L 205.587978 67.261581 
L 206.23538 67.526262 
L 206.882782 67.172655 
L 207.530185 67.292273 
L 208.177587 66.887687 
L 209.472392 67.619823 
L 210.119795 67.824345 
L 210.767197 67.125962 
L 211.4146 67.255897 
L 213.356807 67.291923 
L 214.00421 67.006781 
L 214.651612 67.414514 
L 215.299015 67.586771 
L 215.946417 66.740701 
L 216.59382 67.357853 
L 217.888624 66.925811 
L 218.536027 67.379713 
L 219.183429 66.917679 
L 219.830832 67.287726 
L 220.478234 67.019197 
L 221.773039 67.60321 
L 222.420442 67.029428 
L 223.067844 67.199586 
L 223.715247 66.770343 
L 224.362649 66.745859 
L 225.010052 67.67491 
L 225.657454 67.060119 
L 226.304857 67.514633 
L 226.952259 66.82884 
L 227.599662 66.963498 
L 228.247064 67.282654 
L 228.894466 66.857083 
L 229.541869 66.971805 
L 230.189271 67.580038 
L 230.836674 67.08023 
L 231.484076 67.124038 
L 232.131479 66.811527 
L 232.778881 67.344824 
L 234.073686 66.915143 
L 234.721089 67.057146 
L 235.368491 66.968919 
L 236.663296 67.110397 
L 237.310699 67.930585 
L 237.958101 67.3798 
L 238.605503 67.352519 
L 239.252906 67.554243 
L 239.900308 67.348409 
L 240.547711 67.415126 
L 241.195113 67.659871 
L 241.842516 67.717494 
L 242.489918 67.39073 
L 243.784723 67.736468 
L 244.432126 67.569458 
L 245.079528 67.944051 
L 245.726931 67.599275 
L 246.374333 67.594903 
L 247.021736 68.011118 
L 247.669138 67.92053 
L 248.316541 68.205584 
L 248.963943 68.213541 
L 249.611345 68.539256 
L 250.258748 67.735244 
L 250.90615 69.404475 
L 251.553553 68.737745 
L 252.200955 69.040025 
L 252.848358 68.924079 
L 253.49576 69.13822 
L 254.143163 69.167163 
L 254.790565 69.511764 
L 256.08537 69.451518 
L 256.732773 69.388824 
L 257.380175 69.927629 
L 258.027578 70.624877 
L 258.67498 70.24731 
L 259.322383 71.219032 
L 259.969785 71.39295 
L 260.617187 70.052406 
L 261.26459 71.38613 
L 262.559395 71.39741 
L 263.206797 72.917381 
L 263.8542 73.135806 
L 264.501602 72.615975 
L 265.149005 72.811316 
L 265.796407 73.598976 
L 266.44381 73.812155 
L 267.091212 75.343668 
L 267.738615 73.511798 
L 268.386017 75.167389 
L 269.03342 75.937911 
L 269.680822 75.869183 
L 270.328225 77.483764 
L 270.975627 76.868973 
L 271.623029 78.856136 
L 272.270432 79.699321 
L 272.917834 79.705792 
L 273.565237 79.553296 
L 274.212639 79.532398 
L 274.860042 82.764971 
L 275.507444 82.449137 
L 276.802249 85.667107 
L 277.449652 86.254267 
L 278.097054 85.022674 
L 279.391859 89.693548 
L 280.039262 88.828941 
L 280.686664 89.260982 
L 281.334067 91.929916 
L 281.981469 88.973392 
L 282.628871 93.960712 
L 283.276274 94.00417 
L 283.923676 95.945077 
L 284.571079 96.985789 
L 285.218481 96.420052 
L 285.865884 98.682826 
L 286.513286 99.393802 
L 287.160689 99.114168 
L 287.808091 98.485999 
L 288.455494 99.583896 
L 289.102896 100.16581 
L 289.750299 97.36353 
L 290.397701 100.334569 
L 291.045104 99.008978 
L 291.692506 93.892946 
L 292.339908 92.352601 
L 292.987311 91.872817 
L 293.634713 93.85762 
L 294.282116 91.396706 
L 295.576921 83.415175 
L 296.871726 84.99924 
L 297.519128 80.313413 
L 298.166531 80.009646 
L 298.813933 77.28615 
L 299.461336 77.204656 
L 300.108738 76.210986 
L 300.756141 76.517551 
L 301.403543 74.13341 
L 302.050946 75.05634 
L 302.698348 79.281008 
L 303.34575 71.734928 
L 303.993153 71.854634 
L 304.640555 71.632973 
L 305.287958 70.751315 
L 305.93536 70.180069 
L 306.582763 70.058702 
L 307.230165 69.460699 
L 308.52497 69.273927 
L 309.819775 68.054488 
L 310.467178 68.388421 
L 311.11458 67.336867 
L 311.761983 67.99975 
L 312.409385 67.274347 
L 313.056788 68.227794 
L 313.70419 66.850088 
L 314.351592 67.251963 
L 314.998995 66.669874 
L 316.2938 66.322212 
L 316.941202 65.817246 
L 317.588605 66.328858 
L 318.236007 66.045202 
L 318.88341 66.181171 
L 319.530812 65.646563 
L 320.178215 65.603717 
L 320.825617 65.786554 
L 322.120422 65.415633 
L 322.767825 65.426738 
L 323.415227 65.325483 
L 324.06263 65.548542 
L 324.710032 65.008862 
L 325.357434 65.345594 
L 326.004837 65.133289 
L 326.652239 64.729229 
L 327.299642 64.894578 
L 327.947044 64.798831 
L 328.594447 65.027312 
L 329.889252 64.582592 
L 331.184057 64.821391 
L 331.831459 64.458077 
L 332.478862 64.682099 
L 333.126264 64.765167 
L 333.773667 64.515962 
L 334.421069 64.590374 
L 335.068471 64.401853 
L 335.715874 64.611709 
L 337.010679 64.371511 
L 337.658081 64.287394 
L 338.305484 64.461837 
L 338.952886 64.386551 
L 339.600289 64.087069 
L 340.247691 63.994557 
L 341.542496 64.186051 
L 342.189899 63.87695 
L 342.837301 63.805687 
L 344.132106 64.188936 
L 344.779509 64.074128 
L 345.426911 64.32237 
L 346.074313 63.834542 
L 346.721716 64.091791 
L 348.016521 63.813119 
L 348.663923 64.01668 
L 349.311326 63.817141 
L 349.958728 63.869168 
L 351.900936 63.600202 
L 352.548338 63.861298 
L 354.490546 63.701021 
L 355.137948 63.382302 
L 355.785351 63.296785 
L 356.432753 63.845297 
L 357.080155 63.600727 
L 358.37496 63.898111 
L 359.022363 63.620838 
L 359.669765 63.901259 
L 360.317168 63.526141 
L 360.96457 63.777356 
L 361.611973 63.492739 
L 362.259375 63.360179 
L 362.906778 63.743167 
L 363.55418 63.420775 
L 364.848985 63.830257 
L 365.496388 63.213367 
L 366.14379 63.260673 
L 366.791193 63.450418 
L 368.085997 63.259273 
L 368.7334 63.924693 
L 369.380802 63.354059 
L 370.028205 63.734073 
L 370.675607 63.088241 
L 371.970412 63.368748 
L 372.617815 63.212143 
L 373.265217 62.692924 
L 373.91262 63.343303 
L 374.560022 63.430044 
L 375.207425 63.699534 
L 375.854827 63.244584 
L 376.50223 63.076611 
L 377.149632 63.539606 
L 377.797034 62.872351 
L 379.739242 63.108614 
L 380.386644 62.926739 
L 381.034047 63.15557 
L 381.681449 62.988559 
L 382.328852 63.237676 
L 382.976254 63.251841 
L 383.623657 62.743202 
L 384.271059 62.931635 
L 384.918462 63.37076 
L 385.565864 62.777479 
L 386.213267 62.949473 
L 387.508072 62.861334 
L 388.155474 62.47205 
L 388.802876 63.233916 
L 390.745084 62.766374 
L 391.392486 63.090602 
L 392.039889 62.774331 
L 392.687291 63.071365 
L 393.334694 62.883194 
L 394.629499 62.9103 
L 395.276901 62.585285 
L 395.924304 63.136682 
L 396.571706 62.753433 
L 397.219109 62.890101 
L 397.866511 62.504578 
L 398.513914 63.125665 
L 399.161316 62.87716 
L 401.103523 62.496796 
L 401.750926 62.718107 
L 402.398328 62.644395 
L 403.045731 62.838512 
L 403.693133 62.621923 
L 404.340536 63.272215 
L 404.987938 62.582837 
L 405.635341 62.672551 
L 406.282743 62.548473 
L 406.930146 62.769784 
L 407.577548 62.473887 
L 408.872353 62.977017 
L 409.519756 62.53833 
L 410.167158 62.901731 
L 410.81456 62.33407 
L 411.461963 62.691612 
L 412.109365 62.44748 
L 412.756768 62.414165 
L 413.40417 63.05204 
L 414.051573 62.629792 
L 414.698975 62.482631 
L 415.346378 62.681994 
L 416.641183 62.553282 
L 417.288585 62.616764 
L 417.935988 62.943877 
L 418.58339 62.618513 
L 419.230793 62.477209 
L 419.878195 62.642908 
L 420.525598 62.684705 
L 421.173 62.376303 
L 421.820402 62.474324 
L 422.467805 62.449141 
L 423.115207 62.600238 
L 423.76261 62.272949 
L 424.410012 62.596827 
L 425.057415 62.342552 
L 425.704817 62.387671 
L 426.35222 62.264205 
L 426.999622 62.409181 
L 427.647025 62.754657 
L 430.236635 62.344475 
L 432.178842 62.566573 
L 432.826244 62.176678 
L 433.473647 62.37744 
L 434.121049 62.710587 
L 434.768452 62.332409 
L 435.415854 62.613616 
L 436.063257 62.129985 
L 436.710659 61.802871 
L 437.358062 62.209118 
L 438.005464 62.379276 
L 439.300269 62.226606 
L 439.947672 61.771306 
L 440.595074 62.083467 
L 441.242477 62.156479 
L 441.889879 61.921965 
L 443.184684 62.766461 
L 443.832086 62.186908 
L 444.479489 62.246717 
L 445.126891 62.025144 
L 445.774294 62.046829 
L 446.421696 61.794477 
L 447.069099 62.117044 
L 448.363904 62.018761 
L 448.363904 62.018761 
" clip-path="url(#p4e02f86db4)" style="fill: none; stroke: #0000ff; stroke-linecap: square"/>
   </g>
   <g id="patch_3">
    <path d="M 62.19 305.0208 
L 62.19 41.1264 
" style="fill: none; stroke: #bcbcbc; stroke-linejoin: miter; stroke-linecap: square"/>
   </g>
   <g id="patch_4">
    <path d="M 447.768 305.0208 
L 447.768 41.1264 
" style="fill: none; stroke: #bcbcbc; stroke-linejoin: miter; stroke-linecap: square"/>
   </g>
   <g id="patch_5">
    <path d="M 62.19 305.0208 
L 447.768 305.0208 
" style="fill: none; stroke: #bcbcbc; stroke-linejoin: miter; stroke-linecap: square"/>
   </g>
   <g id="patch_6">
    <path d="M 62.19 41.1264 
L 447.768 41.1264 
" style="fill: none; stroke: #bcbcbc; stroke-linejoin: miter; stroke-linecap: square"/>
   </g>
   <g id="legend_1">
    <g id="patch_7">
     <path d="M 312.57175 298.0208 
L 437.968 298.0208 
Q 440.768 298.0208 440.768 295.2208 
L 440.768 197.621113 
Q 440.768 194.821112 437.968 194.821112 
L 312.57175 194.821112 
Q 309.77175 194.821112 309.77175 197.621113 
L 309.77175 295.2208 
Q 309.77175 298.0208 312.57175 298.0208 
z
" style="fill: #eeeeee; opacity: 0.8; stroke: #cccccc; stroke-width: 0.5; stroke-linejoin: miter"/>
    </g>
    <g id="line2d_26">
     <path d="M 315.37175 205.321112 
L 329.37175 205.321112 
L 343.37175 205.321112 
" style="fill: none; stroke: #000000; stroke-width: 0.5; stroke-linecap: square"/>
    </g>
    <g id="text_13">
     <!-- dark -->
     <g transform="translate(354.57175 210.221113) scale(0.14 -0.14)">
      <defs>
       <path id="TimesNewRomanPSMT-64" d="M 2222 322 
Q 2013 103 1813 7 
Q 1613 -88 1381 -88 
Q 913 -88 563 304 
Q 213 697 213 1313 
Q 213 1928 600 2439 
Q 988 2950 1597 2950 
Q 1975 2950 2222 2709 
L 2222 3238 
Q 2222 3728 2198 3840 
Q 2175 3953 2125 3993 
Q 2075 4034 2000 4034 
Q 1919 4034 1784 3984 
L 1744 4094 
L 2597 4444 
L 2738 4444 
L 2738 1134 
Q 2738 631 2761 520 
Q 2784 409 2836 365 
Q 2888 322 2956 322 
Q 3041 322 3181 375 
L 3216 266 
L 2366 -88 
L 2222 -88 
L 2222 322 
z
M 2222 541 
L 2222 2016 
Q 2203 2228 2109 2403 
Q 2016 2578 1861 2667 
Q 1706 2756 1559 2756 
Q 1284 2756 1069 2509 
Q 784 2184 784 1559 
Q 784 928 1059 592 
Q 1334 256 1672 256 
Q 1956 256 2222 541 
z
" transform="scale(0.015625)"/>
       <path id="TimesNewRomanPSMT-61" d="M 1822 413 
Q 1381 72 1269 19 
Q 1100 -59 909 -59 
Q 613 -59 420 144 
Q 228 347 228 678 
Q 228 888 322 1041 
Q 450 1253 767 1440 
Q 1084 1628 1822 1897 
L 1822 2009 
Q 1822 2438 1686 2597 
Q 1550 2756 1291 2756 
Q 1094 2756 978 2650 
Q 859 2544 859 2406 
L 866 2225 
Q 866 2081 792 2003 
Q 719 1925 600 1925 
Q 484 1925 411 2006 
Q 338 2088 338 2228 
Q 338 2497 613 2722 
Q 888 2947 1384 2947 
Q 1766 2947 2009 2819 
Q 2194 2722 2281 2516 
Q 2338 2381 2338 1966 
L 2338 994 
Q 2338 584 2353 492 
Q 2369 400 2405 369 
Q 2441 338 2488 338 
Q 2538 338 2575 359 
Q 2641 400 2828 588 
L 2828 413 
Q 2478 -56 2159 -56 
Q 2006 -56 1915 50 
Q 1825 156 1822 413 
z
M 1822 616 
L 1822 1706 
Q 1350 1519 1213 1441 
Q 966 1303 859 1153 
Q 753 1003 753 825 
Q 753 600 887 451 
Q 1022 303 1197 303 
Q 1434 303 1822 616 
z
" transform="scale(0.015625)"/>
       <path id="TimesNewRomanPSMT-72" d="M 1038 2947 
L 1038 2303 
Q 1397 2947 1775 2947 
Q 1947 2947 2059 2842 
Q 2172 2738 2172 2600 
Q 2172 2478 2090 2393 
Q 2009 2309 1897 2309 
Q 1788 2309 1652 2417 
Q 1516 2525 1450 2525 
Q 1394 2525 1328 2463 
Q 1188 2334 1038 2041 
L 1038 669 
Q 1038 431 1097 309 
Q 1138 225 1241 169 
Q 1344 113 1538 113 
L 1538 0 
L 72 0 
L 72 113 
Q 291 113 397 181 
Q 475 231 506 341 
Q 522 394 522 644 
L 522 1753 
Q 522 2253 501 2348 
Q 481 2444 426 2487 
Q 372 2531 291 2531 
Q 194 2531 72 2484 
L 41 2597 
L 906 2947 
L 1038 2947 
z
" transform="scale(0.015625)"/>
       <path id="TimesNewRomanPSMT-6b" d="M 1047 4444 
L 1047 1597 
L 1775 2259 
Q 2006 2472 2044 2528 
Q 2069 2566 2069 2603 
Q 2069 2666 2017 2711 
Q 1966 2756 1847 2763 
L 1847 2863 
L 3091 2863 
L 3091 2763 
Q 2834 2756 2664 2684 
Q 2494 2613 2291 2428 
L 1556 1750 
L 2291 822 
Q 2597 438 2703 334 
Q 2853 188 2966 144 
Q 3044 113 3238 113 
L 3238 0 
L 1847 0 
L 1847 113 
Q 1966 116 2008 148 
Q 2050 181 2050 241 
Q 2050 313 1925 472 
L 1047 1594 
L 1047 644 
Q 1047 366 1086 278 
Q 1125 191 1197 153 
Q 1269 116 1509 113 
L 1509 0 
L 53 0 
L 53 113 
Q 272 113 381 166 
Q 447 200 481 272 
Q 528 375 528 628 
L 528 3234 
Q 528 3731 506 3842 
Q 484 3953 434 3995 
Q 384 4038 303 4038 
Q 238 4038 106 3984 
L 53 4094 
L 903 4444 
L 1047 4444 
z
" transform="scale(0.015625)"/>
      </defs>
      <use xlink:href="#TimesNewRomanPSMT-64"/>
      <use xlink:href="#TimesNewRomanPSMT-61" x="50"/>
      <use xlink:href="#TimesNewRomanPSMT-72" x="94.384766"/>
      <use xlink:href="#TimesNewRomanPSMT-6b" x="127.685547"/>
     </g>
    </g>
    <g id="line2d_27">
     <path d="M 315.37175 225.1158 
L 329.37175 225.1158 
L 343.37175 225.1158 
" style="fill: none; stroke: #008000; stroke-width: 0.5; stroke-linecap: square"/>
    </g>
    <g id="text_14">
     <!-- green, w=1 px -->
     <g transform="translate(354.57175 230.0158) scale(0.14 -0.14)">
      <defs>
       <path id="TimesNewRomanPSMT-67" d="M 966 1044 
Q 703 1172 562 1401 
Q 422 1631 422 1909 
Q 422 2334 742 2640 
Q 1063 2947 1563 2947 
Q 1972 2947 2272 2747 
L 2878 2747 
Q 3013 2747 3034 2739 
Q 3056 2731 3066 2713 
Q 3084 2684 3084 2613 
Q 3084 2531 3069 2500 
Q 3059 2484 3036 2475 
Q 3013 2466 2878 2466 
L 2506 2466 
Q 2681 2241 2681 1891 
Q 2681 1491 2375 1206 
Q 2069 922 1553 922 
Q 1341 922 1119 984 
Q 981 866 932 777 
Q 884 688 884 625 
Q 884 572 936 522 
Q 988 472 1138 450 
Q 1225 438 1575 428 
Q 2219 413 2409 384 
Q 2700 344 2873 169 
Q 3047 -6 3047 -263 
Q 3047 -616 2716 -925 
Q 2228 -1381 1444 -1381 
Q 841 -1381 425 -1109 
Q 191 -953 191 -784 
Q 191 -709 225 -634 
Q 278 -519 444 -313 
Q 466 -284 763 25 
Q 600 122 533 198 
Q 466 275 466 372 
Q 466 481 555 628 
Q 644 775 966 1044 
z
M 1509 2797 
Q 1278 2797 1122 2612 
Q 966 2428 966 2047 
Q 966 1553 1178 1281 
Q 1341 1075 1591 1075 
Q 1828 1075 1981 1253 
Q 2134 1431 2134 1813 
Q 2134 2309 1919 2591 
Q 1759 2797 1509 2797 
z
M 934 0 
Q 788 -159 713 -296 
Q 638 -434 638 -550 
Q 638 -700 819 -813 
Q 1131 -1006 1722 -1006 
Q 2284 -1006 2551 -807 
Q 2819 -609 2819 -384 
Q 2819 -222 2659 -153 
Q 2497 -84 2016 -72 
Q 1313 -53 934 0 
z
" transform="scale(0.015625)"/>
       <path id="TimesNewRomanPSMT-65" d="M 681 1784 
Q 678 1147 991 784 
Q 1303 422 1725 422 
Q 2006 422 2214 576 
Q 2422 731 2563 1106 
L 2659 1044 
Q 2594 616 2278 264 
Q 1963 -88 1488 -88 
Q 972 -88 605 314 
Q 238 716 238 1394 
Q 238 2128 614 2539 
Q 991 2950 1559 2950 
Q 2041 2950 2350 2633 
Q 2659 2316 2659 1784 
L 681 1784 
z
M 681 1966 
L 2006 1966 
Q 1991 2241 1941 2353 
Q 1863 2528 1708 2628 
Q 1553 2728 1384 2728 
Q 1125 2728 920 2526 
Q 716 2325 681 1966 
z
" transform="scale(0.015625)"/>
       <path id="TimesNewRomanPSMT-6e" d="M 1034 2341 
Q 1538 2947 1994 2947 
Q 2228 2947 2397 2830 
Q 2566 2713 2666 2444 
Q 2734 2256 2734 1869 
L 2734 647 
Q 2734 375 2778 278 
Q 2813 200 2889 156 
Q 2966 113 3172 113 
L 3172 0 
L 1756 0 
L 1756 113 
L 1816 113 
Q 2016 113 2095 173 
Q 2175 234 2206 353 
Q 2219 400 2219 647 
L 2219 1819 
Q 2219 2209 2117 2386 
Q 2016 2563 1775 2563 
Q 1403 2563 1034 2156 
L 1034 647 
Q 1034 356 1069 288 
Q 1113 197 1189 155 
Q 1266 113 1500 113 
L 1500 0 
L 84 0 
L 84 113 
L 147 113 
Q 366 113 442 223 
Q 519 334 519 647 
L 519 1709 
Q 519 2225 495 2337 
Q 472 2450 423 2490 
Q 375 2531 294 2531 
Q 206 2531 84 2484 
L 38 2597 
L 900 2947 
L 1034 2947 
L 1034 2341 
z
" transform="scale(0.015625)"/>
       <path id="TimesNewRomanPSMT-2c" d="M 344 -1066 
L 344 -928 
Q 666 -822 842 -598 
Q 1019 -375 1019 -125 
Q 1019 -66 991 -25 
Q 969 3 947 3 
Q 913 3 797 -59 
Q 741 -88 678 -88 
Q 525 -88 434 3 
Q 344 94 344 253 
Q 344 406 461 515 
Q 578 625 747 625 
Q 953 625 1114 445 
Q 1275 266 1275 -31 
Q 1275 -353 1051 -629 
Q 828 -906 344 -1066 
z
" transform="scale(0.015625)"/>
       <path id="TimesNewRomanPSMT-77" d="M 41 2863 
L 1241 2863 
L 1241 2747 
Q 1075 2734 1023 2687 
Q 972 2641 972 2553 
Q 972 2456 1025 2319 
L 1638 672 
L 2253 2013 
L 2091 2434 
Q 2016 2622 1894 2694 
Q 1825 2738 1638 2747 
L 1638 2863 
L 3000 2863 
L 3000 2747 
Q 2775 2738 2681 2666 
Q 2619 2616 2619 2506 
Q 2619 2444 2644 2378 
L 3294 734 
L 3897 2319 
Q 3959 2488 3959 2588 
Q 3959 2647 3898 2694 
Q 3838 2741 3659 2747 
L 3659 2863 
L 4563 2863 
L 4563 2747 
Q 4291 2706 4163 2378 
L 3206 -88 
L 3078 -88 
L 2363 1741 
L 1528 -88 
L 1413 -88 
L 494 2319 
Q 403 2547 315 2626 
Q 228 2706 41 2747 
L 41 2863 
z
" transform="scale(0.015625)"/>
       <path id="TimesNewRomanPSMT-3d" d="M 116 2759 
L 3488 2759 
L 3488 2503 
L 116 2503 
L 116 2759 
z
M 116 1741 
L 3488 1741 
L 3488 1484 
L 116 1484 
L 116 1741 
z
" transform="scale(0.015625)"/>
       <path id="TimesNewRomanPSMT-70" d="M -6 2578 
L 875 2934 
L 994 2934 
L 994 2266 
Q 1216 2644 1439 2795 
Q 1663 2947 1909 2947 
Q 2341 2947 2628 2609 
Q 2981 2197 2981 1534 
Q 2981 794 2556 309 
Q 2206 -88 1675 -88 
Q 1444 -88 1275 -22 
Q 1150 25 994 166 
L 994 -706 
Q 994 -1000 1030 -1079 
Q 1066 -1159 1155 -1206 
Q 1244 -1253 1478 -1253 
L 1478 -1369 
L -22 -1369 
L -22 -1253 
L 56 -1253 
Q 228 -1256 350 -1188 
Q 409 -1153 442 -1076 
Q 475 -1000 475 -688 
L 475 2019 
Q 475 2297 450 2372 
Q 425 2447 370 2484 
Q 316 2522 222 2522 
Q 147 2522 31 2478 
L -6 2578 
z
M 994 2081 
L 994 1013 
Q 994 666 1022 556 
Q 1066 375 1236 237 
Q 1406 100 1666 100 
Q 1978 100 2172 344 
Q 2425 663 2425 1241 
Q 2425 1897 2138 2250 
Q 1938 2494 1663 2494 
Q 1513 2494 1366 2419 
Q 1253 2363 994 2081 
z
" transform="scale(0.015625)"/>
       <path id="TimesNewRomanPSMT-78" d="M 84 2863 
L 1431 2863 
L 1431 2747 
Q 1303 2747 1251 2703 
Q 1200 2659 1200 2588 
Q 1200 2513 1309 2356 
Q 1344 2306 1413 2200 
L 1616 1875 
L 1850 2200 
Q 2075 2509 2075 2591 
Q 2075 2656 2022 2701 
Q 1969 2747 1850 2747 
L 1850 2863 
L 2819 2863 
L 2819 2747 
Q 2666 2738 2553 2663 
Q 2400 2556 2134 2200 
L 1744 1678 
L 2456 653 
Q 2719 275 2831 198 
Q 2944 122 3122 113 
L 3122 0 
L 1772 0 
L 1772 113 
Q 1913 113 1991 175 
Q 2050 219 2050 291 
Q 2050 363 1850 653 
L 1431 1266 
L 972 653 
Q 759 369 759 316 
Q 759 241 829 180 
Q 900 119 1041 113 
L 1041 0 
L 106 0 
L 106 113 
Q 219 128 303 191 
Q 422 281 703 653 
L 1303 1450 
L 759 2238 
Q 528 2575 401 2661 
Q 275 2747 84 2747 
L 84 2863 
z
" transform="scale(0.015625)"/>
      </defs>
      <use xlink:href="#TimesNewRomanPSMT-67"/>
      <use xlink:href="#TimesNewRomanPSMT-72" x="50"/>
      <use xlink:href="#TimesNewRomanPSMT-65" x="83.300781"/>
      <use xlink:href="#TimesNewRomanPSMT-65" x="127.685547"/>
      <use xlink:href="#TimesNewRomanPSMT-6e" x="172.070312"/>
      <use xlink:href="#TimesNewRomanPSMT-2c" x="222.070312"/>
      <use xlink:href="#TimesNewRomanPSMT-20" x="247.070312"/>
      <use xlink:href="#TimesNewRomanPSMT-77" x="272.070312"/>
      <use xlink:href="#TimesNewRomanPSMT-3d" x="344.287109"/>
      <use xlink:href="#TimesNewRomanPSMT-31" x="400.683594"/>
      <use xlink:href="#TimesNewRomanPSMT-20" x="450.683594"/>
      <use xlink:href="#TimesNewRomanPSMT-70" x="475.683594"/>
      <use xlink:href="#TimesNewRomanPSMT-78" x="525.683594"/>
     </g>
    </g>
    <g id="line2d_28">
     <path d="M 315.37175 244.936737 
L 329.37175 244.936737 
L 343.37175 244.936737 
" style="fill: none; stroke: #ff0000; stroke-width: 0.5; stroke-linecap: square"/>
    </g>
    <g id="text_15">
     <!-- red, w=1 px -->
     <g transform="translate(354.57175 249.836737) scale(0.14 -0.14)">
      <use xlink:href="#TimesNewRomanPSMT-72"/>
      <use xlink:href="#TimesNewRomanPSMT-65" x="33.300781"/>
      <use xlink:href="#TimesNewRomanPSMT-64" x="77.685547"/>
      <use xlink:href="#TimesNewRomanPSMT-2c" x="127.685547"/>
      <use xlink:href="#TimesNewRomanPSMT-20" x="152.685547"/>
      <use xlink:href="#TimesNewRomanPSMT-77" x="177.685547"/>
      <use xlink:href="#TimesNewRomanPSMT-3d" x="249.902344"/>
      <use xlink:href="#TimesNewRomanPSMT-31" x="306.298828"/>
      <use xlink:href="#TimesNewRomanPSMT-20" x="356.298828"/>
      <use xlink:href="#TimesNewRomanPSMT-70" x="381.298828"/>
      <use xlink:href="#TimesNewRomanPSMT-78" x="431.298828"/>
     </g>
    </g>
    <g id="line2d_29">
     <path d="M 315.37175 264.731425 
L 329.37175 264.731425 
L 343.37175 264.731425 
" style="fill: none; stroke: #0000ff; stroke-width: 0.5; stroke-linecap: square"/>
    </g>
    <g id="text_16">
     <!-- blue, w=1 px -->
     <g transform="translate(354.57175 269.631425) scale(0.14 -0.14)">
      <defs>
       <path id="TimesNewRomanPSMT-62" d="M 984 2369 
Q 1400 2947 1881 2947 
Q 2322 2947 2650 2570 
Q 2978 2194 2978 1541 
Q 2978 778 2472 313 
Q 2038 -88 1503 -88 
Q 1253 -88 995 3 
Q 738 94 469 275 
L 469 3241 
Q 469 3728 445 3840 
Q 422 3953 372 3993 
Q 322 4034 247 4034 
Q 159 4034 28 3984 
L -16 4094 
L 844 4444 
L 984 4444 
L 984 2369 
z
M 984 2169 
L 984 456 
Q 1144 300 1314 220 
Q 1484 141 1663 141 
Q 1947 141 2192 453 
Q 2438 766 2438 1363 
Q 2438 1913 2192 2208 
Q 1947 2503 1634 2503 
Q 1469 2503 1303 2419 
Q 1178 2356 984 2169 
z
" transform="scale(0.015625)"/>
       <path id="TimesNewRomanPSMT-6c" d="M 1184 4444 
L 1184 647 
Q 1184 378 1223 290 
Q 1263 203 1344 158 
Q 1425 113 1647 113 
L 1647 0 
L 244 0 
L 244 113 
Q 441 113 512 153 
Q 584 194 625 287 
Q 666 381 666 647 
L 666 3247 
Q 666 3731 644 3842 
Q 622 3953 573 3993 
Q 525 4034 450 4034 
Q 369 4034 244 3984 
L 191 4094 
L 1044 4444 
L 1184 4444 
z
" transform="scale(0.015625)"/>
       <path id="TimesNewRomanPSMT-75" d="M 2709 2863 
L 2709 1128 
Q 2709 631 2732 520 
Q 2756 409 2807 365 
Q 2859 322 2928 322 
Q 3025 322 3147 375 
L 3191 266 
L 2334 -88 
L 2194 -88 
L 2194 519 
Q 1825 119 1631 15 
Q 1438 -88 1222 -88 
Q 981 -88 804 51 
Q 628 191 559 409 
Q 491 628 491 1028 
L 491 2306 
Q 491 2509 447 2587 
Q 403 2666 317 2708 
Q 231 2750 6 2747 
L 6 2863 
L 1009 2863 
L 1009 947 
Q 1009 547 1148 422 
Q 1288 297 1484 297 
Q 1619 297 1789 381 
Q 1959 466 2194 703 
L 2194 2325 
Q 2194 2569 2105 2655 
Q 2016 2741 1734 2747 
L 1734 2863 
L 2709 2863 
z
" transform="scale(0.015625)"/>
      </defs>
      <use xlink:href="#TimesNewRomanPSMT-62"/>
      <use xlink:href="#TimesNewRomanPSMT-6c" x="50"/>
      <use xlink:href="#TimesNewRomanPSMT-75" x="77.783203"/>
      <use xlink:href="#TimesNewRomanPSMT-65" x="127.783203"/>
      <use xlink:href="#TimesNewRomanPSMT-2c" x="172.167969"/>
      <use xlink:href="#TimesNewRomanPSMT-20" x="197.167969"/>
      <use xlink:href="#TimesNewRomanPSMT-77" x="222.167969"/>
      <use xlink:href="#TimesNewRomanPSMT-3d" x="294.384766"/>
      <use xlink:href="#TimesNewRomanPSMT-31" x="350.78125"/>
      <use xlink:href="#TimesNewRomanPSMT-20" x="400.78125"/>
      <use xlink:href="#TimesNewRomanPSMT-70" x="425.78125"/>
      <use xlink:href="#TimesNewRomanPSMT-78" x="475.78125"/>
     </g>
    </g>
    <g id="line2d_30">
     <path d="M 315.37175 284.526113 
L 329.37175 284.526113 
L 343.37175 284.526113 
" style="fill: none; stroke: #0000ff; stroke-linecap: square"/>
    </g>
    <g id="text_17">
     <!-- blue, w=2 px -->
     <g transform="translate(354.57175 289.426112) scale(0.14 -0.14)">
      <use xlink:href="#TimesNewRomanPSMT-62"/>
      <use xlink:href="#TimesNewRomanPSMT-6c" x="50"/>
      <use xlink:href="#TimesNewRomanPSMT-75" x="77.783203"/>
      <use xlink:href="#TimesNewRomanPSMT-65" x="127.783203"/>
      <use xlink:href="#TimesNewRomanPSMT-2c" x="172.167969"/>
      <use xlink:href="#TimesNewRomanPSMT-20" x="197.167969"/>
      <use xlink:href="#TimesNewRomanPSMT-77" x="222.167969"/>
      <use xlink:href="#TimesNewRomanPSMT-3d" x="294.384766"/>
      <use xlink:href="#TimesNewRomanPSMT-32" x="350.78125"/>
      <use xlink:href="#TimesNewRomanPSMT-20" x="400.78125"/>
      <use xlink:href="#TimesNewRomanPSMT-70" x="425.78125"/>
      <use xlink:href="#TimesNewRomanPSMT-78" x="475.78125"/>
     </g>
    </g>
   </g>
  </g>
 </g>
 <defs>
  <clipPath id="p4e02f86db4">
   <rect x="62.19" y="41.1264" width="385.578" height="263.8944"/>
  </clipPath>
 </defs>
</svg>
