<?xml version="1.0" encoding="utf-8" standalone="no"?>
<!DOCTYPE svg PUBLIC "-//W3C//DTD SVG 1.1//EN"
  "http://www.w3.org/Graphics/SVG/1.1/DTD/svg11.dtd">
<svg xmlns:xlink="http://www.w3.org/1999/xlink" width="432pt" height="360pt" viewBox="0 0 432 360" xmlns="http://www.w3.org/2000/svg" version="1.1">
 <metadata>
  <rdf:RDF xmlns:dc="http://purl.org/dc/elements/1.1/" xmlns:cc="http://creativecommons.org/ns#" xmlns:rdf="http://www.w3.org/1999/02/22-rdf-syntax-ns#">
   <cc:Work>
    <dc:type rdf:resource="http://purl.org/dc/dcmitype/StillImage"/>
    <dc:date>2024-01-24T17:57:02.385917</dc:date>
    <dc:format>image/svg+xml</dc:format>
    <dc:creator>
     <cc:Agent>
      <dc:title>Matplotlib v3.7.0, https://matplotlib.org/</dc:title>
     </cc:Agent>
    </dc:creator>
   </cc:Work>
  </rdf:RDF>
 </metadata>
 <defs>
  <style type="text/css">*{stroke-linejoin: round; stroke-linecap: butt}</style>
 </defs>
 <g id="figure_1">
  <g id="patch_1">
   <path d="M 0 360 
L 432 360 
L 432 0 
L 0 0 
z
" style="fill: #ffffff"/>
  </g>
  <g id="axes_1">
   <g id="patch_2">
    <path d="M 38.50024 322.783822 
L 428.99976 322.783822 
L 428.99976 7.860865 
L 38.50024 7.860865 
z
" style="fill: #eeeeee"/>
   </g>
   <g id="matplotlib.axis_1">
    <g id="xtick_1">
     <g id="line2d_1">
      <path d="M 38.50024 322.783822 
L 38.50024 7.860865 
" clip-path="url(#pcb9ec88710)" style="fill: none; stroke-dasharray: 1.85,0.8; stroke-dashoffset: 0; stroke: #b2b2b2; stroke-width: 0.5"/>
     </g>
     <g id="line2d_2">
      <defs>
       <path id="mca4890e7e8" d="M 0 0 
L 0 -3.5 
" style="stroke: #000000; stroke-width: 0.8"/>
      </defs>
      <g>
       <use xlink:href="#mca4890e7e8" x="38.50024" y="322.783822" style="stroke: #000000; stroke-width: 0.8"/>
      </g>
     </g>
     <g id="text_1">
      <!-- 5.940 -->
      <g transform="translate(22.75024 336.005072) scale(0.14 -0.14)">
       <defs>
        <path id="TimesNewRomanPSMT-35" d="M 2778 4238 
L 2534 3706 
L 1259 3706 
L 981 3138 
Q 1809 3016 2294 2522 
Q 2709 2097 2709 1522 
Q 2709 1188 2573 903 
Q 2438 619 2231 419 
Q 2025 219 1772 97 
Q 1413 -75 1034 -75 
Q 653 -75 479 54 
Q 306 184 306 341 
Q 306 428 378 495 
Q 450 563 559 563 
Q 641 563 702 538 
Q 763 513 909 409 
Q 1144 247 1384 247 
Q 1750 247 2026 523 
Q 2303 800 2303 1197 
Q 2303 1581 2056 1914 
Q 1809 2247 1375 2428 
Q 1034 2569 447 2591 
L 1259 4238 
L 2778 4238 
z
" transform="scale(0.015625)"/>
        <path id="TimesNewRomanPSMT-2e" d="M 800 606 
Q 947 606 1047 504 
Q 1147 403 1147 259 
Q 1147 116 1045 14 
Q 944 -88 800 -88 
Q 656 -88 554 14 
Q 453 116 453 259 
Q 453 406 554 506 
Q 656 606 800 606 
z
" transform="scale(0.015625)"/>
        <path id="TimesNewRomanPSMT-39" d="M 338 -88 
L 338 28 
Q 744 34 1094 217 
Q 1444 400 1770 856 
Q 2097 1313 2225 1859 
Q 1734 1544 1338 1544 
Q 891 1544 572 1889 
Q 253 2234 253 2806 
Q 253 3363 572 3797 
Q 956 4325 1575 4325 
Q 2097 4325 2469 3894 
Q 2925 3359 2925 2575 
Q 2925 1869 2578 1258 
Q 2231 647 1613 244 
Q 1109 -88 516 -88 
L 338 -88 
z
M 2275 2091 
Q 2331 2497 2331 2741 
Q 2331 3044 2228 3395 
Q 2125 3747 1936 3934 
Q 1747 4122 1506 4122 
Q 1228 4122 1018 3872 
Q 809 3622 809 3128 
Q 809 2469 1088 2097 
Q 1291 1828 1588 1828 
Q 1731 1828 1928 1897 
Q 2125 1966 2275 2091 
z
" transform="scale(0.015625)"/>
        <path id="TimesNewRomanPSMT-34" d="M 2978 1563 
L 2978 1119 
L 2409 1119 
L 2409 0 
L 1894 0 
L 1894 1119 
L 100 1119 
L 100 1519 
L 2066 4325 
L 2409 4325 
L 2409 1563 
L 2978 1563 
z
M 1894 1563 
L 1894 3666 
L 406 1563 
L 1894 1563 
z
" transform="scale(0.015625)"/>
        <path id="TimesNewRomanPSMT-30" d="M 231 2094 
Q 231 2819 450 3342 
Q 669 3866 1031 4122 
Q 1313 4325 1613 4325 
Q 2100 4325 2488 3828 
Q 2972 3213 2972 2159 
Q 2972 1422 2759 906 
Q 2547 391 2217 158 
Q 1888 -75 1581 -75 
Q 975 -75 572 641 
Q 231 1244 231 2094 
z
M 844 2016 
Q 844 1141 1059 588 
Q 1238 122 1591 122 
Q 1759 122 1940 273 
Q 2122 425 2216 781 
Q 2359 1319 2359 2297 
Q 2359 3022 2209 3506 
Q 2097 3866 1919 4016 
Q 1791 4119 1609 4119 
Q 1397 4119 1231 3928 
Q 1006 3669 925 3112 
Q 844 2556 844 2016 
z
" transform="scale(0.015625)"/>
       </defs>
       <use xlink:href="#TimesNewRomanPSMT-35"/>
       <use xlink:href="#TimesNewRomanPSMT-2e" x="50"/>
       <use xlink:href="#TimesNewRomanPSMT-39" x="75"/>
       <use xlink:href="#TimesNewRomanPSMT-34" x="125"/>
       <use xlink:href="#TimesNewRomanPSMT-30" x="175"/>
      </g>
     </g>
    </g>
    <g id="xtick_2">
     <g id="line2d_3">
      <path d="M 150.071531 322.783822 
L 150.071531 7.860865 
" clip-path="url(#pcb9ec88710)" style="fill: none; stroke-dasharray: 1.85,0.8; stroke-dashoffset: 0; stroke: #b2b2b2; stroke-width: 0.5"/>
     </g>
     <g id="line2d_4">
      <g>
       <use xlink:href="#mca4890e7e8" x="150.071531" y="322.783822" style="stroke: #000000; stroke-width: 0.8"/>
      </g>
     </g>
     <g id="text_2">
      <!-- 5.941 -->
      <g transform="translate(134.321531 336.005072) scale(0.14 -0.14)">
       <defs>
        <path id="TimesNewRomanPSMT-31" d="M 750 3822 
L 1781 4325 
L 1884 4325 
L 1884 747 
Q 1884 391 1914 303 
Q 1944 216 2037 169 
Q 2131 122 2419 116 
L 2419 0 
L 825 0 
L 825 116 
Q 1125 122 1212 167 
Q 1300 213 1334 289 
Q 1369 366 1369 747 
L 1369 3034 
Q 1369 3497 1338 3628 
Q 1316 3728 1258 3775 
Q 1200 3822 1119 3822 
Q 1003 3822 797 3725 
L 750 3822 
z
" transform="scale(0.015625)"/>
       </defs>
       <use xlink:href="#TimesNewRomanPSMT-35"/>
       <use xlink:href="#TimesNewRomanPSMT-2e" x="50"/>
       <use xlink:href="#TimesNewRomanPSMT-39" x="75"/>
       <use xlink:href="#TimesNewRomanPSMT-34" x="125"/>
       <use xlink:href="#TimesNewRomanPSMT-31" x="175"/>
      </g>
     </g>
    </g>
    <g id="xtick_3">
     <g id="line2d_5">
      <path d="M 261.642823 322.783822 
L 261.642823 7.860865 
" clip-path="url(#pcb9ec88710)" style="fill: none; stroke-dasharray: 1.85,0.8; stroke-dashoffset: 0; stroke: #b2b2b2; stroke-width: 0.5"/>
     </g>
     <g id="line2d_6">
      <g>
       <use xlink:href="#mca4890e7e8" x="261.642823" y="322.783822" style="stroke: #000000; stroke-width: 0.8"/>
      </g>
     </g>
     <g id="text_3">
      <!-- 5.942 -->
      <g transform="translate(245.892823 336.005072) scale(0.14 -0.14)">
       <defs>
        <path id="TimesNewRomanPSMT-32" d="M 2934 816 
L 2638 0 
L 138 0 
L 138 116 
Q 1241 1122 1691 1759 
Q 2141 2397 2141 2925 
Q 2141 3328 1894 3587 
Q 1647 3847 1303 3847 
Q 991 3847 742 3664 
Q 494 3481 375 3128 
L 259 3128 
Q 338 3706 661 4015 
Q 984 4325 1469 4325 
Q 1984 4325 2329 3994 
Q 2675 3663 2675 3213 
Q 2675 2891 2525 2569 
Q 2294 2063 1775 1497 
Q 997 647 803 472 
L 1909 472 
Q 2247 472 2383 497 
Q 2519 522 2628 598 
Q 2738 675 2819 816 
L 2934 816 
z
" transform="scale(0.015625)"/>
       </defs>
       <use xlink:href="#TimesNewRomanPSMT-35"/>
       <use xlink:href="#TimesNewRomanPSMT-2e" x="50"/>
       <use xlink:href="#TimesNewRomanPSMT-39" x="75"/>
       <use xlink:href="#TimesNewRomanPSMT-34" x="125"/>
       <use xlink:href="#TimesNewRomanPSMT-32" x="175"/>
      </g>
     </g>
    </g>
    <g id="xtick_4">
     <g id="line2d_7">
      <path d="M 373.214114 322.783822 
L 373.214114 7.860865 
" clip-path="url(#pcb9ec88710)" style="fill: none; stroke-dasharray: 1.85,0.8; stroke-dashoffset: 0; stroke: #b2b2b2; stroke-width: 0.5"/>
     </g>
     <g id="line2d_8">
      <g>
       <use xlink:href="#mca4890e7e8" x="373.214114" y="322.783822" style="stroke: #000000; stroke-width: 0.8"/>
      </g>
     </g>
     <g id="text_4">
      <!-- 5.943 -->
      <g transform="translate(357.464114 336.005072) scale(0.14 -0.14)">
       <defs>
        <path id="TimesNewRomanPSMT-33" d="M 325 3431 
Q 506 3859 782 4092 
Q 1059 4325 1472 4325 
Q 1981 4325 2253 3994 
Q 2459 3747 2459 3466 
Q 2459 3003 1878 2509 
Q 2269 2356 2469 2072 
Q 2669 1788 2669 1403 
Q 2669 853 2319 450 
Q 1863 -75 997 -75 
Q 569 -75 414 31 
Q 259 138 259 259 
Q 259 350 332 419 
Q 406 488 509 488 
Q 588 488 669 463 
Q 722 447 909 348 
Q 1097 250 1169 231 
Q 1284 197 1416 197 
Q 1734 197 1970 444 
Q 2206 691 2206 1028 
Q 2206 1275 2097 1509 
Q 2016 1684 1919 1775 
Q 1784 1900 1550 2001 
Q 1316 2103 1072 2103 
L 972 2103 
L 972 2197 
Q 1219 2228 1467 2375 
Q 1716 2522 1828 2728 
Q 1941 2934 1941 3181 
Q 1941 3503 1739 3701 
Q 1538 3900 1238 3900 
Q 753 3900 428 3381 
L 325 3431 
z
" transform="scale(0.015625)"/>
       </defs>
       <use xlink:href="#TimesNewRomanPSMT-35"/>
       <use xlink:href="#TimesNewRomanPSMT-2e" x="50"/>
       <use xlink:href="#TimesNewRomanPSMT-39" x="75"/>
       <use xlink:href="#TimesNewRomanPSMT-34" x="125"/>
       <use xlink:href="#TimesNewRomanPSMT-33" x="175"/>
      </g>
     </g>
    </g>
    <g id="text_5">
     <!-- $\it f$ $[GHz]$ -->
     <g transform="translate(210.79 353.49976) scale(0.14 -0.14)">
      <defs>
       <path id="Cmmi10-66" d="M 622 -1056 
Q 741 -1147 909 -1147 
Q 1138 -1147 1281 -641 
Q 1341 -397 1606 966 
L 1900 2534 
L 1350 2534 
Q 1288 2534 1288 2619 
Q 1313 2759 1369 2759 
L 1941 2759 
L 2016 3175 
Q 2053 3369 2084 3508 
Q 2116 3647 2152 3765 
Q 2188 3884 2259 4031 
Q 2369 4241 2555 4377 
Q 2741 4513 2956 4513 
Q 3097 4513 3230 4461 
Q 3363 4409 3447 4306 
Q 3531 4203 3531 4063 
Q 3531 3900 3423 3779 
Q 3316 3659 3163 3659 
Q 3059 3659 2986 3723 
Q 2913 3788 2913 3891 
Q 2913 4031 3008 4136 
Q 3103 4241 3244 4256 
Q 3125 4347 2950 4347 
Q 2853 4347 2767 4256 
Q 2681 4166 2656 4063 
Q 2616 3900 2478 3181 
L 2400 2759 
L 3059 2759 
Q 3122 2759 3122 2675 
Q 3119 2659 3109 2620 
Q 3100 2581 3083 2557 
Q 3066 2534 3041 2534 
L 2356 2534 
L 2059 972 
Q 2003 631 1929 279 
Q 1856 -72 1723 -442 
Q 1591 -813 1384 -1063 
Q 1178 -1313 897 -1313 
Q 681 -1313 511 -1189 
Q 341 -1066 341 -863 
Q 341 -700 445 -579 
Q 550 -459 709 -459 
Q 816 -459 887 -523 
Q 959 -588 959 -691 
Q 959 -828 857 -942 
Q 756 -1056 622 -1056 
z
" transform="scale(0.015625)"/>
       <path id="TimesNewRomanPSMT-20" transform="scale(0.015625)"/>
       <path id="Cmr10-5b" d="M 756 -1600 
L 756 4800 
L 1631 4800 
L 1631 4544 
L 1013 4544 
L 1013 -1344 
L 1631 -1344 
L 1631 -1600 
L 756 -1600 
z
" transform="scale(0.015625)"/>
       <path id="Cmr10-47" d="M 1472 684 
Q 1703 403 2036 243 
Q 2369 84 2731 84 
Q 3088 84 3378 265 
Q 3669 447 3669 781 
L 3669 1319 
Q 3669 1522 2869 1522 
L 2869 1747 
L 4703 1747 
L 4703 1522 
Q 4500 1522 4381 1487 
Q 4263 1453 4263 1319 
L 4263 56 
Q 4263 34 4245 17 
Q 4228 0 4206 0 
Q 4147 0 4008 140 
Q 3869 281 3788 391 
Q 3631 122 3297 -9 
Q 2963 -141 2597 -141 
Q 1975 -141 1464 179 
Q 953 500 656 1036 
Q 359 1572 359 2188 
Q 359 2641 531 3069 
Q 703 3497 1011 3822 
Q 1319 4147 1728 4330 
Q 2138 4513 2597 4513 
Q 2928 4513 3223 4370 
Q 3519 4228 3750 3969 
L 4122 4494 
Q 4159 4513 4166 4513 
L 4213 4513 
Q 4231 4513 4247 4497 
Q 4263 4481 4263 4459 
L 4263 2731 
Q 4263 2675 4213 2675 
L 4097 2675 
Q 4038 2675 4038 2731 
Q 4038 2916 3964 3144 
Q 3891 3372 3777 3576 
Q 3663 3781 3513 3938 
Q 3153 4288 2688 4288 
Q 2331 4288 2006 4128 
Q 1681 3969 1459 3688 
Q 1225 3388 1134 3005 
Q 1044 2622 1044 2188 
Q 1044 1206 1472 684 
z
" transform="scale(0.015625)"/>
       <path id="Cmr10-48" d="M 197 0 
L 197 225 
Q 856 225 856 428 
L 856 3944 
Q 856 4147 197 4147 
L 197 4372 
L 2113 4372 
L 2113 4147 
Q 1453 4147 1453 3944 
L 1453 2388 
L 3341 2388 
L 3341 3944 
Q 3341 4147 2681 4147 
L 2681 4372 
L 4594 4372 
L 4594 4147 
Q 3938 4147 3938 3944 
L 3938 428 
Q 3938 225 4594 225 
L 4594 0 
L 2681 0 
L 2681 225 
Q 3341 225 3341 428 
L 3341 2163 
L 1453 2163 
L 1453 428 
Q 1453 225 2113 225 
L 2113 0 
L 197 0 
z
" transform="scale(0.015625)"/>
       <path id="Cmr10-7a" d="M 250 0 
Q 178 0 178 72 
L 178 122 
Q 178 147 197 166 
L 1984 2591 
L 1409 2591 
Q 1138 2591 961 2556 
Q 784 2522 670 2426 
Q 556 2331 504 2164 
Q 453 1997 453 1703 
L 269 1703 
L 341 2759 
L 2484 2759 
Q 2513 2759 2533 2739 
Q 2553 2719 2553 2688 
L 2553 2650 
Q 2553 2631 2541 2606 
L 750 184 
L 1363 184 
Q 1641 184 1827 218 
Q 2013 253 2144 384 
Q 2266 506 2311 712 
Q 2356 919 2381 1222 
L 2566 1222 
L 2456 0 
L 250 0 
z
" transform="scale(0.015625)"/>
       <path id="Cmr10-5d" d="M 141 -1600 
L 141 -1344 
L 763 -1344 
L 763 4544 
L 141 4544 
L 141 4800 
L 1019 4800 
L 1019 -1600 
L 141 -1600 
z
" transform="scale(0.015625)"/>
      </defs>
      <use xlink:href="#Cmmi10-66"/>
      <use xlink:href="#TimesNewRomanPSMT-20" transform="translate(48.876953 0)"/>
      <use xlink:href="#Cmr10-5b" transform="translate(73.876953 0)"/>
      <use xlink:href="#Cmr10-47" transform="translate(101.5625 0)"/>
      <use xlink:href="#Cmr10-48" transform="translate(179.980469 0)"/>
      <use xlink:href="#Cmr10-7a" transform="translate(254.980469 0)"/>
      <use xlink:href="#Cmr10-5d" transform="translate(299.365234 0)"/>
     </g>
    </g>
   </g>
   <g id="matplotlib.axis_2">
    <g id="ytick_1">
     <g id="line2d_9">
      <path d="M 38.50024 322.783823 
L 428.99976 322.783823 
" clip-path="url(#pcb9ec88710)" style="fill: none; stroke-dasharray: 1.85,0.8; stroke-dashoffset: 0; stroke: #b2b2b2; stroke-width: 0.5"/>
     </g>
     <g id="line2d_10">
      <defs>
       <path id="mb4504056da" d="M 0 0 
L 3.5 0 
" style="stroke: #000000; stroke-width: 0.8"/>
      </defs>
      <g>
       <use xlink:href="#mb4504056da" x="38.50024" y="322.783823" style="stroke: #000000; stroke-width: 0.8"/>
      </g>
     </g>
     <g id="text_6">
      <!-- 10 -->
      <g transform="translate(21.00024 327.644447) scale(0.14 -0.14)">
       <use xlink:href="#TimesNewRomanPSMT-31"/>
       <use xlink:href="#TimesNewRomanPSMT-30" x="50"/>
      </g>
     </g>
    </g>
    <g id="ytick_2">
     <g id="line2d_11">
      <path d="M 38.50024 270.296663 
L 428.99976 270.296663 
" clip-path="url(#pcb9ec88710)" style="fill: none; stroke-dasharray: 1.85,0.8; stroke-dashoffset: 0; stroke: #b2b2b2; stroke-width: 0.5"/>
     </g>
     <g id="line2d_12">
      <g>
       <use xlink:href="#mb4504056da" x="38.50024" y="270.296663" style="stroke: #000000; stroke-width: 0.8"/>
      </g>
     </g>
     <g id="text_7">
      <!-- 15 -->
      <g transform="translate(21.00024 275.157288) scale(0.14 -0.14)">
       <use xlink:href="#TimesNewRomanPSMT-31"/>
       <use xlink:href="#TimesNewRomanPSMT-35" x="50"/>
      </g>
     </g>
    </g>
    <g id="ytick_3">
     <g id="line2d_13">
      <path d="M 38.50024 217.809503 
L 428.99976 217.809503 
" clip-path="url(#pcb9ec88710)" style="fill: none; stroke-dasharray: 1.85,0.8; stroke-dashoffset: 0; stroke: #b2b2b2; stroke-width: 0.5"/>
     </g>
     <g id="line2d_14">
      <g>
       <use xlink:href="#mb4504056da" x="38.50024" y="217.809503" style="stroke: #000000; stroke-width: 0.8"/>
      </g>
     </g>
     <g id="text_8">
      <!-- 20 -->
      <g transform="translate(21.00024 222.670128) scale(0.14 -0.14)">
       <use xlink:href="#TimesNewRomanPSMT-32"/>
       <use xlink:href="#TimesNewRomanPSMT-30" x="50"/>
      </g>
     </g>
    </g>
    <g id="ytick_4">
     <g id="line2d_15">
      <path d="M 38.50024 165.322344 
L 428.99976 165.322344 
" clip-path="url(#pcb9ec88710)" style="fill: none; stroke-dasharray: 1.85,0.8; stroke-dashoffset: 0; stroke: #b2b2b2; stroke-width: 0.5"/>
     </g>
     <g id="line2d_16">
      <g>
       <use xlink:href="#mb4504056da" x="38.50024" y="165.322344" style="stroke: #000000; stroke-width: 0.8"/>
      </g>
     </g>
     <g id="text_9">
      <!-- 25 -->
      <g transform="translate(21.00024 170.182969) scale(0.14 -0.14)">
       <use xlink:href="#TimesNewRomanPSMT-32"/>
       <use xlink:href="#TimesNewRomanPSMT-35" x="50"/>
      </g>
     </g>
    </g>
    <g id="ytick_5">
     <g id="line2d_17">
      <path d="M 38.50024 112.835184 
L 428.99976 112.835184 
" clip-path="url(#pcb9ec88710)" style="fill: none; stroke-dasharray: 1.85,0.8; stroke-dashoffset: 0; stroke: #b2b2b2; stroke-width: 0.5"/>
     </g>
     <g id="line2d_18">
      <g>
       <use xlink:href="#mb4504056da" x="38.50024" y="112.835184" style="stroke: #000000; stroke-width: 0.8"/>
      </g>
     </g>
     <g id="text_10">
      <!-- 30 -->
      <g transform="translate(21.00024 117.695809) scale(0.14 -0.14)">
       <use xlink:href="#TimesNewRomanPSMT-33"/>
       <use xlink:href="#TimesNewRomanPSMT-30" x="50"/>
      </g>
     </g>
    </g>
    <g id="ytick_6">
     <g id="line2d_19">
      <path d="M 38.50024 60.348025 
L 428.99976 60.348025 
" clip-path="url(#pcb9ec88710)" style="fill: none; stroke-dasharray: 1.85,0.8; stroke-dashoffset: 0; stroke: #b2b2b2; stroke-width: 0.5"/>
     </g>
     <g id="line2d_20">
      <g>
       <use xlink:href="#mb4504056da" x="38.50024" y="60.348025" style="stroke: #000000; stroke-width: 0.8"/>
      </g>
     </g>
     <g id="text_11">
      <!-- 35 -->
      <g transform="translate(21.00024 65.20865) scale(0.14 -0.14)">
       <use xlink:href="#TimesNewRomanPSMT-33"/>
       <use xlink:href="#TimesNewRomanPSMT-35" x="50"/>
      </g>
     </g>
    </g>
    <g id="ytick_7">
     <g id="line2d_21">
      <path d="M 38.50024 7.860865 
L 428.99976 7.860865 
" clip-path="url(#pcb9ec88710)" style="fill: none; stroke-dasharray: 1.85,0.8; stroke-dashoffset: 0; stroke: #b2b2b2; stroke-width: 0.5"/>
     </g>
     <g id="line2d_22">
      <g>
       <use xlink:href="#mb4504056da" x="38.50024" y="7.860865" style="stroke: #000000; stroke-width: 0.8"/>
      </g>
     </g>
     <g id="text_12">
      <!-- 40 -->
      <g transform="translate(21.00024 12.72149) scale(0.14 -0.14)">
       <use xlink:href="#TimesNewRomanPSMT-34"/>
       <use xlink:href="#TimesNewRomanPSMT-30" x="50"/>
      </g>
     </g>
    </g>
    <g id="text_13">
     <!-- $\it S_{21}$ $[dB]$ -->
     <g transform="translate(13.50024 189.472344) rotate(-90) scale(0.14 -0.14)">
      <defs>
       <path id="Cmmi10-53" d="M 391 -141 
Q 372 -141 356 -119 
Q 341 -97 341 -78 
L 709 1416 
Q 722 1453 763 1453 
L 838 1453 
Q 863 1453 877 1434 
Q 891 1416 891 1388 
Q 838 1169 838 997 
Q 838 534 1156 309 
Q 1475 84 1959 84 
Q 2169 84 2372 187 
Q 2575 291 2726 456 
Q 2878 622 2968 826 
Q 3059 1031 3059 1241 
Q 3059 1466 2940 1642 
Q 2822 1819 2613 1869 
L 1831 2075 
Q 1516 2159 1328 2414 
Q 1141 2669 1141 2988 
Q 1141 3372 1369 3728 
Q 1597 4084 1964 4298 
Q 2331 4513 2713 4513 
Q 3006 4513 3251 4405 
Q 3497 4297 3628 4063 
L 3994 4494 
Q 4031 4513 4038 4513 
L 4078 4513 
Q 4103 4513 4118 4491 
Q 4134 4469 4134 4447 
L 3763 2963 
Q 3753 2919 3713 2919 
L 3634 2919 
Q 3578 2919 3578 2988 
Q 3609 3191 3609 3341 
Q 3609 3638 3507 3858 
Q 3406 4078 3201 4192 
Q 2997 4306 2694 4306 
Q 2438 4306 2184 4159 
Q 1931 4013 1775 3769 
Q 1619 3525 1619 3263 
Q 1619 3056 1739 2897 
Q 1859 2738 2059 2681 
L 2841 2478 
Q 3053 2422 3211 2280 
Q 3369 2138 3450 1942 
Q 3531 1747 3531 1516 
Q 3531 1213 3403 917 
Q 3275 622 3045 378 
Q 2816 134 2525 -3 
Q 2234 -141 1931 -141 
Q 1169 -141 838 306 
L 481 -122 
Q 444 -141 434 -141 
L 391 -141 
z
" transform="scale(0.015625)"/>
       <path id="Cmr10-32" d="M 319 0 
L 319 172 
Q 319 188 331 206 
L 1325 1306 
Q 1550 1550 1690 1715 
Q 1831 1881 1968 2097 
Q 2106 2313 2186 2536 
Q 2266 2759 2266 3009 
Q 2266 3272 2169 3511 
Q 2072 3750 1880 3894 
Q 1688 4038 1416 4038 
Q 1138 4038 916 3870 
Q 694 3703 603 3438 
Q 628 3444 672 3444 
Q 816 3444 917 3347 
Q 1019 3250 1019 3097 
Q 1019 2950 917 2848 
Q 816 2747 672 2747 
Q 522 2747 420 2851 
Q 319 2956 319 3097 
Q 319 3338 409 3548 
Q 500 3759 670 3923 
Q 841 4088 1055 4175 
Q 1269 4263 1509 4263 
Q 1875 4263 2190 4108 
Q 2506 3953 2690 3670 
Q 2875 3388 2875 3009 
Q 2875 2731 2753 2481 
Q 2631 2231 2440 2026 
Q 2250 1822 1953 1562 
Q 1656 1303 1563 1216 
L 838 519 
L 1453 519 
Q 1906 519 2211 526 
Q 2516 534 2534 550 
Q 2609 631 2688 1141 
L 2875 1141 
L 2694 0 
L 319 0 
z
" transform="scale(0.015625)"/>
       <path id="Cmr10-31" d="M 594 0 
L 594 225 
Q 1394 225 1394 428 
L 1394 3788 
Q 1063 3628 556 3628 
L 556 3853 
Q 1341 3853 1741 4263 
L 1831 4263 
Q 1853 4263 1873 4245 
Q 1894 4228 1894 4206 
L 1894 428 
Q 1894 225 2694 225 
L 2694 0 
L 594 0 
z
" transform="scale(0.015625)"/>
       <path id="Cmr10-64" d="M 1563 -72 
Q 1184 -72 871 133 
Q 559 338 386 672 
Q 213 1006 213 1381 
Q 213 1769 402 2101 
Q 591 2434 916 2631 
Q 1241 2828 1631 2828 
Q 1866 2828 2075 2729 
Q 2284 2631 2438 2456 
L 2438 3788 
Q 2438 3959 2386 4036 
Q 2334 4113 2239 4130 
Q 2144 4147 1941 4147 
L 1941 4372 
L 2888 4441 
L 2888 581 
Q 2888 413 2939 336 
Q 2991 259 3086 242 
Q 3181 225 3384 225 
L 3384 0 
L 2419 -72 
L 2419 331 
Q 2253 141 2025 34 
Q 1797 -72 1563 -72 
z
M 909 556 
Q 1019 347 1201 222 
Q 1384 97 1600 97 
Q 1866 97 2087 250 
Q 2309 403 2419 647 
L 2419 2181 
Q 2344 2322 2230 2433 
Q 2116 2544 1973 2603 
Q 1831 2663 1672 2663 
Q 1338 2663 1134 2473 
Q 931 2284 850 1990 
Q 769 1697 769 1375 
Q 769 1119 795 928 
Q 822 738 909 556 
z
" transform="scale(0.015625)"/>
       <path id="Cmr10-42" d="M 219 0 
L 219 225 
Q 878 225 878 428 
L 878 3944 
Q 878 4147 219 4147 
L 219 4372 
L 2572 4372 
Q 2897 4372 3228 4245 
Q 3559 4119 3776 3870 
Q 3994 3622 3994 3284 
Q 3994 2894 3673 2630 
Q 3353 2366 2925 2284 
Q 3203 2284 3497 2131 
Q 3791 1978 3978 1722 
Q 4166 1466 4166 1178 
Q 4166 828 3958 559 
Q 3750 291 3419 145 
Q 3088 0 2753 0 
L 219 0 
z
M 1434 428 
Q 1434 291 1512 258 
Q 1591 225 1759 225 
L 2572 225 
Q 2822 225 3036 356 
Q 3250 488 3375 708 
Q 3500 928 3500 1178 
Q 3500 1422 3397 1655 
Q 3294 1888 3101 2038 
Q 2909 2188 2663 2188 
L 1434 2188 
L 1434 428 
z
M 1434 2356 
L 2394 2356 
Q 2588 2356 2758 2426 
Q 2928 2497 3064 2630 
Q 3200 2763 3273 2930 
Q 3347 3097 3347 3284 
Q 3347 3450 3292 3603 
Q 3238 3756 3131 3881 
Q 3025 4006 2881 4076 
Q 2738 4147 2572 4147 
L 1759 4147 
Q 1644 4147 1580 4137 
Q 1516 4128 1475 4083 
Q 1434 4038 1434 3944 
L 1434 2356 
z
" transform="scale(0.015625)"/>
      </defs>
      <use xlink:href="#Cmmi10-53"/>
      <use xlink:href="#Cmr10-32" transform="translate(61.279297 -17.00625) scale(0.7)"/>
      <use xlink:href="#Cmr10-31" transform="translate(96.279297 -17.00625) scale(0.7)"/>
      <use xlink:href="#TimesNewRomanPSMT-20" transform="translate(137.656641 0)"/>
      <use xlink:href="#Cmr10-5b" transform="translate(162.656641 0)"/>
      <use xlink:href="#Cmr10-64" transform="translate(190.342187 0)"/>
      <use xlink:href="#Cmr10-42" transform="translate(245.859766 0)"/>
      <use xlink:href="#Cmr10-5d" transform="translate(316.660547 0)"/>
     </g>
    </g>
   </g>
   <g id="line2d_23">
    <path d="M 37.750732 21.531881 
L 39.493774 22.251479 
L 41.236817 22.007414 
L 42.97986 23.268156 
L 46.465945 23.339538 
L 48.208988 24.244837 
L 49.952031 24.475465 
L 51.695073 24.431376 
L 58.667244 27.175615 
L 60.410287 28.185993 
L 62.153329 28.778678 
L 63.896372 30.356547 
L 65.639415 31.58989 
L 67.382457 32.587356 
L 69.1255 34.475739 
L 70.868543 37.038267 
L 72.611586 37.899581 
L 74.354628 41.182863 
L 76.097671 43.15932 
L 77.840714 46.166939 
L 79.583756 49.815111 
L 81.326799 55.123348 
L 83.069842 60.023759 
L 84.812884 66.787464 
L 86.555927 74.760894 
L 88.29897 85.651979 
L 90.042013 99.221065 
L 91.785055 118.477449 
L 95.271141 175.447642 
L 97.014183 213.295398 
L 98.757226 225.81642 
L 102.243311 171.099186 
L 105.729397 126.130182 
L 109.215482 99.773125 
L 110.958525 91.674041 
L 112.701568 84.469444 
L 114.44461 74.219961 
L 117.930696 63.623958 
L 119.673738 58.961839 
L 121.416781 55.291412 
L 123.159824 52.66191 
L 124.902866 48.305266 
L 128.388952 43.605775 
L 130.131995 41.706895 
L 131.875037 39.427168 
L 135.361123 36.725024 
L 137.104165 35.461658 
L 138.847208 34.791292 
L 140.590251 33.764748 
L 142.333293 32.252068 
L 144.076336 31.940924 
L 145.819379 30.754819 
L 149.305464 29.565985 
L 151.048507 29.01319 
L 152.79155 28.282149 
L 154.534592 27.825301 
L 156.277635 27.679282 
L 163.249806 25.74366 
L 166.735891 25.605304 
L 168.478934 24.936093 
L 170.221977 25.635957 
L 173.708062 24.861456 
L 175.451105 25.093029 
L 177.194147 25.15255 
L 178.93719 25.094184 
L 180.680233 24.408807 
L 182.423275 24.445443 
L 184.166318 24.083176 
L 185.909361 24.167261 
L 189.395446 24.035518 
L 191.138489 23.392445 
L 192.881532 23.313085 
L 194.624574 23.689418 
L 198.11066 23.778541 
L 199.853702 23.451021 
L 201.596745 23.970749 
L 203.339788 23.212729 
L 205.08283 23.481359 
L 206.825873 23.431076 
L 208.568916 23.037422 
L 210.311959 23.525238 
L 212.055001 23.636091 
L 213.798044 23.573001 
L 215.541087 23.398639 
L 219.027172 23.263432 
L 220.770215 23.360218 
L 222.513257 23.16885 
L 224.2563 23.485453 
L 225.999343 23.492801 
L 227.742385 23.670102 
L 229.485428 23.261227 
L 231.228471 23.499939 
L 232.971514 23.873228 
L 234.714556 23.808354 
L 236.457599 23.441783 
L 238.200642 23.7418 
L 239.943684 24.387182 
L 243.42977 23.749463 
L 245.172812 24.217753 
L 246.915855 24.239903 
L 248.658898 24.00749 
L 250.401941 24.405343 
L 252.144983 24.491317 
L 253.888026 24.912683 
L 255.631069 24.450167 
L 257.374111 25.299094 
L 259.117154 25.255949 
L 260.860197 25.002122 
L 262.603239 25.161473 
L 264.346282 25.478495 
L 266.089325 25.362918 
L 267.832367 25.514501 
L 271.318453 26.244913 
L 273.061496 26.345268 
L 274.804538 26.029085 
L 276.547581 27.045657 
L 278.290624 26.823321 
L 280.033666 27.182543 
L 281.776709 27.304523 
L 283.519752 28.224623 
L 285.262794 27.901932 
L 287.005837 27.962712 
L 288.74888 28.149357 
L 290.491923 28.881867 
L 292.234965 28.799987 
L 293.978008 28.958814 
L 297.464093 30.399481 
L 299.207136 30.623601 
L 300.950179 31.306249 
L 302.693221 32.289964 
L 306.179307 32.578958 
L 307.922349 33.36847 
L 309.665392 33.851247 
L 311.408435 34.497049 
L 313.151478 35.825604 
L 314.89452 36.179472 
L 316.637563 36.279303 
L 318.380606 37.857172 
L 321.866691 39.789329 
L 323.609734 41.17415 
L 325.352776 42.303569 
L 330.581905 47.139421 
L 332.324947 49.08386 
L 337.554075 55.431237 
L 341.040161 61.660938 
L 344.526246 68.706815 
L 346.269289 72.505415 
L 348.012331 77.727258 
L 349.755374 84.147802 
L 351.498417 90.053028 
L 353.24146 97.441855 
L 354.984502 106.335279 
L 356.727545 116.448715 
L 358.470588 130.250319 
L 361.956673 161.805914 
L 363.699716 188.96445 
L 365.442758 221.813854 
L 367.185801 279.77301 
L 368.928844 287.628448 
L 370.671887 244.244241 
L 372.414929 197.3245 
L 375.901015 146.476199 
L 377.644057 132.398198 
L 379.3871 116.822529 
L 382.873185 94.598835 
L 384.616228 85.806606 
L 386.359271 78.560124 
L 388.102313 72.116381 
L 389.845356 67.020612 
L 391.588399 61.343076 
L 393.331442 57.645356 
L 395.074484 53.468428 
L 396.817527 49.584273 
L 400.303612 44.38248 
L 403.789698 40.430827 
L 405.53274 38.154984 
L 407.275783 36.616795 
L 410.761869 33.995271 
L 412.504911 32.756365 
L 414.247954 31.980814 
L 417.734039 29.523051 
L 419.477082 28.774374 
L 421.220125 28.219689 
L 422.963167 27.306938 
L 424.70621 26.794348 
L 428.192295 25.347067 
L 429.935338 25.368587 
L 429.935338 25.368587 
" clip-path="url(#pcb9ec88710)" style="fill: none; stroke: #000000; stroke-width: 0.5; stroke-linecap: square"/>
   </g>
   <g id="line2d_24">
    <path d="M 37.750732 23.208005 
L 39.493774 23.218713 
L 41.236817 23.774342 
L 42.97986 23.873438 
L 44.722902 24.712078 
L 46.465945 25.390632 
L 48.208988 25.514816 
L 49.952031 26.057848 
L 51.695073 26.43817 
L 53.438116 27.50009 
L 55.181159 28.805551 
L 56.924201 29.400231 
L 58.667244 30.503826 
L 60.410287 32.377932 
L 65.639415 36.806379 
L 67.382457 38.734337 
L 69.1255 42.330652 
L 70.868543 44.682287 
L 72.611586 50.184831 
L 74.354628 51.403478 
L 76.097671 57.238685 
L 79.583756 72.769426 
L 81.326799 86.657843 
L 83.069842 99.536827 
L 84.812884 111.417296 
L 86.555927 129.166354 
L 88.29897 149.04786 
L 90.042013 171.92019 
L 91.785055 188.840895 
L 93.528098 184.212368 
L 95.271141 167.313497 
L 97.014183 152.569224 
L 98.757226 136.120693 
L 100.500269 124.987326 
L 102.243311 111.369113 
L 103.986354 101.735725 
L 105.729397 94.603874 
L 107.472439 84.696188 
L 109.215482 77.777856 
L 110.958525 72.19973 
L 112.701568 64.924905 
L 116.187653 57.246348 
L 117.930696 54.825011 
L 119.673738 51.611012 
L 121.416781 47.978901 
L 123.159824 45.367979 
L 124.902866 43.304499 
L 126.645909 41.541875 
L 130.131995 38.653717 
L 131.875037 37.376914 
L 133.61808 36.309955 
L 135.361123 34.934267 
L 137.104165 34.240282 
L 138.847208 32.931987 
L 140.590251 32.436193 
L 142.333293 31.518927 
L 144.076336 30.788516 
L 145.819379 30.413863 
L 149.305464 28.857933 
L 151.048507 29.194796 
L 152.79155 28.386284 
L 154.534592 27.786985 
L 156.277635 27.824461 
L 158.020678 26.926721 
L 159.76372 26.966926 
L 161.506763 26.790149 
L 163.249806 26.954119 
L 164.992848 26.291731 
L 168.478934 26.138259 
L 170.221977 25.631233 
L 171.965019 25.45666 
L 173.708062 25.832258 
L 175.451105 25.463274 
L 182.423275 24.979762 
L 184.166318 25.095339 
L 185.909361 25.747439 
L 187.652403 24.980707 
L 189.395446 24.366502 
L 191.138489 24.998972 
L 194.624574 25.325338 
L 196.367617 25.169346 
L 198.11066 24.549472 
L 199.853702 24.957822 
L 201.596745 25.017343 
L 205.08283 24.583169 
L 206.825873 25.195904 
L 208.568916 25.013879 
L 210.311959 25.088725 
L 212.055001 25.535496 
L 213.798044 24.775587 
L 215.541087 25.564889 
L 217.284129 25.617481 
L 219.027172 25.079173 
L 220.770215 24.893263 
L 222.513257 24.838257 
L 224.2563 25.43745 
L 225.999343 25.865745 
L 227.742385 25.185617 
L 229.485428 25.057443 
L 231.228471 25.425063 
L 232.971514 25.141108 
L 234.714556 26.063097 
L 236.457599 26.310836 
L 238.200642 26.189486 
L 241.686727 26.334036 
L 243.42977 26.922627 
L 245.172812 26.42043 
L 246.915855 26.078003 
L 248.658898 27.161968 
L 253.888026 27.243008 
L 255.631069 27.643695 
L 257.374111 27.440885 
L 259.117154 27.823621 
L 260.860197 28.065167 
L 262.603239 28.788545 
L 264.346282 29.205503 
L 266.089325 29.236576 
L 267.832367 30.096315 
L 269.57541 29.565775 
L 271.318453 30.539097 
L 273.061496 31.074361 
L 274.804538 30.09789 
L 276.547581 31.858939 
L 278.290624 31.812436 
L 280.033666 33.237567 
L 281.776709 33.052602 
L 283.519752 34.53379 
L 285.262794 35.100756 
L 287.005837 35.399093 
L 288.74888 36.008574 
L 290.491923 36.763444 
L 292.234965 36.321922 
L 293.978008 37.801745 
L 295.721051 40.299294 
L 299.207136 41.677502 
L 300.950179 41.142448 
L 302.693221 43.001753 
L 304.436264 43.372103 
L 306.179307 45.520927 
L 307.922349 50.156488 
L 309.665392 49.245731 
L 311.408435 54.204717 
L 313.151478 52.725524 
L 314.89452 54.472507 
L 316.637563 55.594053 
L 318.380606 61.73757 
L 320.123648 62.75624 
L 321.866691 63.026654 
L 323.609734 69.281759 
L 325.352776 74.151098 
L 327.095819 79.488097 
L 328.838862 80.248111 
L 330.581905 80.260918 
L 332.324947 85.501446 
L 334.06799 90.024055 
L 335.811033 102.122135 
L 337.554075 109.779382 
L 339.297118 110.272236 
L 341.040161 133.259093 
L 342.783203 136.910309 
L 344.526246 137.266172 
L 346.269289 146.41101 
L 348.012331 156.637188 
L 349.755374 162.058167 
L 351.498417 166.610904 
L 353.24146 165.507518 
L 354.984502 149.639285 
L 356.727545 147.243562 
L 358.470588 143.652285 
L 360.21363 137.986506 
L 361.956673 120.360583 
L 363.699716 112.439011 
L 365.442758 101.823168 
L 367.185801 92.967745 
L 368.928844 93.157958 
L 370.671887 82.442494 
L 372.414929 78.508372 
L 374.157972 72.147453 
L 375.901015 63.601284 
L 377.644057 63.959666 
L 379.3871 59.409134 
L 381.130143 55.344529 
L 382.873185 52.325887 
L 384.616228 47.732631 
L 386.359271 46.79668 
L 388.102313 47.754465 
L 389.845356 43.125413 
L 391.588399 41.671309 
L 393.331442 38.870804 
L 395.074484 37.466982 
L 396.817527 37.154684 
L 398.56057 35.265146 
L 400.303612 34.049333 
L 403.789698 31.91531 
L 407.275783 30.373657 
L 409.018826 29.330213 
L 410.761869 29.169287 
L 412.504911 27.940038 
L 414.247954 28.042703 
L 415.990997 26.971755 
L 417.734039 26.425363 
L 419.477082 26.201663 
L 421.220125 25.628608 
L 422.963167 24.914993 
L 424.70621 25.330271 
L 426.449253 24.470742 
L 428.192295 24.306982 
L 429.935338 24.348237 
L 429.935338 24.348237 
" clip-path="url(#pcb9ec88710)" style="fill: none; stroke: #008000; stroke-width: 0.5; stroke-linecap: square"/>
   </g>
   <g id="line2d_25">
    <path d="M 37.750732 22.79934 
L 39.493774 23.240443 
L 41.236817 23.499204 
L 42.97986 24.305827 
L 44.722902 23.745159 
L 46.465945 25.032354 
L 48.208988 25.181628 
L 51.695073 26.032445 
L 55.181159 28.124058 
L 58.667244 29.585615 
L 60.410287 30.701072 
L 62.153329 31.995616 
L 65.639415 35.700999 
L 67.382457 37.029554 
L 69.1255 40.105512 
L 70.868543 42.573353 
L 72.611586 46.048423 
L 74.354628 48.795601 
L 76.097671 53.19455 
L 79.583756 66.519465 
L 81.326799 75.964214 
L 83.069842 84.582081 
L 84.812884 100.290963 
L 86.555927 114.551829 
L 88.29897 135.614926 
L 90.042013 160.680694 
L 91.785055 182.652344 
L 93.528098 200.819725 
L 95.271141 198.792986 
L 97.014183 181.977779 
L 98.757226 154.819033 
L 100.500269 137.286222 
L 102.243311 125.126732 
L 105.729397 96.288922 
L 107.472439 91.856276 
L 109.215482 82.739677 
L 110.958525 75.218267 
L 116.187653 61.626087 
L 117.930696 57.553083 
L 119.673738 52.74421 
L 121.416781 51.106505 
L 123.159824 47.674265 
L 124.902866 44.975795 
L 126.645909 43.570294 
L 128.388952 41.207847 
L 130.131995 39.174494 
L 131.875037 38.562809 
L 133.61808 36.880596 
L 135.361123 36.056967 
L 137.104165 35.521493 
L 138.847208 34.356593 
L 140.590251 33.657779 
L 142.333293 32.619688 
L 145.819379 31.555878 
L 147.562421 31.454893 
L 149.305464 30.68837 
L 151.048507 30.306894 
L 152.79155 29.075125 
L 154.534592 28.717163 
L 156.277635 28.753379 
L 158.020678 28.506059 
L 159.76372 27.919568 
L 161.506763 27.916524 
L 163.249806 27.387558 
L 164.992848 27.312606 
L 166.735891 27.627214 
L 171.965019 26.858697 
L 173.708062 26.771464 
L 175.451105 26.241133 
L 177.194147 26.552697 
L 178.93719 27.076834 
L 180.680233 26.11044 
L 182.423275 25.939962 
L 184.166318 26.272206 
L 185.909361 26.305798 
L 187.652403 26.008405 
L 189.395446 25.984471 
L 191.138489 26.115689 
L 192.881532 26.39828 
L 196.367617 26.738607 
L 198.11066 26.196939 
L 199.853702 26.09123 
L 201.596745 25.722035 
L 203.339788 26.528343 
L 206.825873 26.483309 
L 210.311959 26.116844 
L 212.055001 25.830054 
L 213.798044 26.342119 
L 215.541087 27.750874 
L 217.284129 27.649154 
L 219.027172 27.674033 
L 220.770215 26.696197 
L 222.513257 27.823516 
L 224.2563 27.253296 
L 225.999343 27.209102 
L 227.742385 28.134555 
L 229.485428 27.979718 
L 231.228471 28.772904 
L 232.971514 28.041968 
L 236.457599 28.874834 
L 238.200642 28.587205 
L 239.943684 29.786431 
L 241.686727 29.58824 
L 243.42977 28.806286 
L 245.172812 28.541016 
L 246.915855 30.189847 
L 248.658898 29.653324 
L 250.401941 30.563346 
L 252.144983 31.657074 
L 253.888026 31.54811 
L 255.631069 32.340036 
L 257.374111 33.777555 
L 259.117154 33.98089 
L 260.860197 33.651166 
L 262.603239 33.463682 
L 264.346282 35.444442 
L 266.089325 33.928823 
L 267.832367 35.00103 
L 269.57541 35.911158 
L 271.318453 36.692062 
L 273.061496 34.313029 
L 274.804538 37.661185 
L 276.547581 36.490301 
L 278.290624 39.255535 
L 280.033666 40.640671 
L 281.776709 39.13303 
L 283.519752 41.365308 
L 285.262794 43.336201 
L 287.005837 44.999309 
L 288.74888 49.237753 
L 290.491923 47.984569 
L 292.234965 50.06495 
L 293.978008 48.650316 
L 295.721051 52.08812 
L 297.464093 53.052939 
L 299.207136 57.879553 
L 300.950179 60.124534 
L 302.693221 56.521501 
L 304.436264 56.465549 
L 306.179307 63.744364 
L 307.922349 68.64257 
L 309.665392 75.353159 
L 311.408435 76.482367 
L 313.151478 79.779611 
L 314.89452 82.386333 
L 316.637563 83.762127 
L 318.380606 91.304636 
L 320.123648 87.116476 
L 321.866691 99.462401 
L 323.609734 97.400285 
L 325.352776 106.445397 
L 327.095819 105.307266 
L 328.838862 114.939184 
L 330.581905 115.122365 
L 332.324947 119.361228 
L 334.06799 122.941587 
L 335.811033 123.566814 
L 337.554075 120.200392 
L 339.297118 119.115378 
L 341.040161 120.898786 
L 342.783203 121.41568 
L 344.526246 118.71889 
L 346.269289 110.314226 
L 348.012331 103.481238 
L 349.755374 106.622909 
L 351.498417 93.591397 
L 353.24146 94.474861 
L 354.984502 84.108332 
L 356.727545 82.507788 
L 358.470588 79.940851 
L 360.21363 76.536849 
L 361.956673 82.180269 
L 363.699716 67.391067 
L 365.442758 64.227246 
L 367.185801 60.443971 
L 368.928844 61.604777 
L 370.671887 53.060917 
L 372.414929 52.953843 
L 374.157972 49.497564 
L 375.901015 48.863834 
L 377.644057 46.655174 
L 379.3871 44.053071 
L 381.130143 43.858029 
L 382.873185 42.419776 
L 384.616228 39.918028 
L 386.359271 39.677741 
L 388.102313 37.184916 
L 389.845356 39.064376 
L 391.588399 35.479398 
L 393.331442 33.08189 
L 395.074484 33.38957 
L 396.817527 31.047278 
L 398.56057 30.68837 
L 400.303612 29.984098 
L 402.046655 30.01685 
L 403.789698 28.54469 
L 409.018826 27.70731 
L 410.761869 26.893129 
L 412.504911 25.932614 
L 414.247954 25.898812 
L 415.990997 26.135529 
L 417.734039 25.563419 
L 419.477082 24.852638 
L 421.220125 24.879931 
L 422.963167 24.021242 
L 424.70621 24.254285 
L 426.449253 23.23047 
L 428.192295 22.813092 
L 429.935338 22.858441 
L 429.935338 22.858441 
" clip-path="url(#pcb9ec88710)" style="fill: none; stroke: #ff0000; stroke-width: 0.5; stroke-linecap: square"/>
   </g>
   <g id="line2d_26">
    <path d="M 37.750732 22.67778 
L 39.493774 22.930453 
L 41.236817 23.872073 
L 42.97986 24.636706 
L 44.722902 24.291655 
L 46.465945 24.74483 
L 48.208988 25.753213 
L 49.952031 26.300444 
L 51.695073 27.488858 
L 53.438116 27.641806 
L 55.181159 29.429623 
L 56.924201 29.369053 
L 58.667244 30.341745 
L 60.410287 32.191603 
L 62.153329 34.275448 
L 67.382457 38.480404 
L 70.868543 45.958985 
L 72.611586 48.994317 
L 74.354628 53.340779 
L 76.097671 56.654923 
L 77.840714 62.338968 
L 79.583756 71.477507 
L 81.326799 83.675733 
L 83.069842 98.440371 
L 84.812884 104.806853 
L 86.555927 123.477796 
L 88.29897 138.392337 
L 90.042013 169.535488 
L 91.785055 190.721405 
L 93.528098 203.493316 
L 95.271141 189.606998 
L 97.014183 166.157834 
L 102.243311 119.254679 
L 103.986354 110.167052 
L 105.729397 97.40186 
L 107.472439 88.302371 
L 109.215482 81.608159 
L 110.958525 73.09873 
L 112.701568 67.022397 
L 114.44461 64.02685 
L 117.930696 55.291097 
L 119.673738 52.477365 
L 121.416781 50.652491 
L 123.159824 46.576234 
L 124.902866 45.151942 
L 126.645909 42.686305 
L 128.388952 41.229577 
L 130.131995 40.269587 
L 131.875037 38.072054 
L 135.361123 36.650597 
L 137.104165 35.583218 
L 138.847208 34.744683 
L 140.590251 33.239876 
L 142.333293 33.132278 
L 145.819379 31.070792 
L 147.562421 30.91564 
L 149.305464 30.521146 
L 151.048507 30.48493 
L 152.79155 29.654583 
L 154.534592 29.290323 
L 156.277635 29.113231 
L 158.020678 29.429623 
L 159.76372 28.868221 
L 161.506763 28.531778 
L 163.249806 28.811325 
L 164.992848 28.073145 
L 166.735891 28.552038 
L 168.478934 27.926496 
L 170.221977 28.131406 
L 175.451105 26.977213 
L 177.194147 27.272086 
L 178.93719 27.024242 
L 180.680233 26.649169 
L 182.423275 26.938793 
L 184.166318 27.032955 
L 185.909361 26.446988 
L 189.395446 27.288672 
L 191.138489 26.480475 
L 194.624574 26.695882 
L 196.367617 27.37748 
L 198.11066 27.409813 
L 199.853702 27.741321 
L 201.596745 27.810395 
L 203.339788 27.128061 
L 205.08283 26.686015 
L 206.825873 27.637292 
L 208.568916 27.23776 
L 210.311959 27.84892 
L 212.055001 27.972895 
L 213.798044 27.586064 
L 215.541087 28.560016 
L 217.284129 27.734498 
L 219.027172 28.58605 
L 220.770215 28.07262 
L 222.513257 29.008257 
L 224.2563 29.743602 
L 225.999343 29.877759 
L 227.742385 28.619537 
L 229.485428 29.988612 
L 231.228471 30.118045 
L 232.971514 29.824537 
L 236.457599 30.893175 
L 238.200642 32.390739 
L 239.943684 31.861249 
L 241.686727 30.349408 
L 243.42977 31.505596 
L 245.172812 33.011452 
L 246.915855 32.349694 
L 248.658898 34.679809 
L 250.401941 34.244586 
L 252.144983 34.218762 
L 255.631069 36.296833 
L 257.374111 35.26819 
L 259.117154 34.785833 
L 260.860197 35.335059 
L 262.603239 40.082207 
L 264.346282 37.738551 
L 266.089325 36.541319 
L 267.832367 38.735912 
L 269.57541 39.29532 
L 271.318453 42.661741 
L 273.061496 44.533853 
L 274.804538 42.28037 
L 276.547581 44.006882 
L 278.290624 44.831665 
L 280.033666 48.792347 
L 281.776709 46.822189 
L 283.519752 48.683383 
L 285.262794 49.876731 
L 287.005837 53.80571 
L 288.74888 52.08812 
L 290.491923 51.293045 
L 292.234965 54.482375 
L 293.978008 53.993929 
L 295.721051 59.244849 
L 297.464093 57.434777 
L 299.207136 65.455235 
L 300.950179 66.593997 
L 302.693221 68.854724 
L 304.436264 72.746751 
L 306.179307 73.657404 
L 307.922349 77.751087 
L 309.665392 78.549522 
L 311.408435 78.215808 
L 313.151478 83.362804 
L 314.89452 90.127769 
L 316.637563 93.690808 
L 318.380606 93.347122 
L 320.123648 96.571723 
L 321.866691 98.89491 
L 323.609734 105.682864 
L 325.352776 104.030148 
L 327.095819 106.401518 
L 328.838862 109.089176 
L 330.581905 110.672608 
L 332.324947 108.637786 
L 334.06799 113.330768 
L 335.811033 107.464173 
L 337.554075 113.775019 
L 339.297118 98.192001 
L 341.040161 100.624151 
L 342.783203 104.720144 
L 344.526246 94.289896 
L 346.269289 91.941935 
L 348.012331 88.780844 
L 349.755374 86.952086 
L 351.498417 82.778307 
L 353.24146 74.639438 
L 354.984502 86.518647 
L 356.727545 68.484899 
L 358.470588 66.814233 
L 360.21363 61.911407 
L 361.956673 58.585926 
L 363.699716 61.238732 
L 365.442758 59.015376 
L 367.185801 57.272382 
L 368.928844 51.857702 
L 370.671887 49.468696 
L 372.414929 49.670352 
L 374.157972 43.071666 
L 375.901015 46.685722 
L 379.3871 39.790904 
L 381.130143 38.522919 
L 382.873185 41.046292 
L 384.616228 36.84396 
L 386.359271 35.389225 
L 388.102313 34.678759 
L 389.845356 32.866798 
L 391.588399 32.246609 
L 393.331442 33.135427 
L 395.074484 31.534359 
L 396.817527 30.56912 
L 398.56057 30.93506 
L 400.303612 29.79084 
L 402.046655 29.241195 
L 403.789698 29.030091 
L 405.53274 27.74867 
L 407.275783 27.48319 
L 409.018826 27.406453 
L 410.761869 27.050485 
L 412.504911 25.60079 
L 414.247954 25.742086 
L 419.477082 24.911319 
L 422.963167 24.003081 
L 424.70621 24.257644 
L 426.449253 24.042971 
L 428.192295 23.384572 
L 429.935338 23.350141 
L 429.935338 23.350141 
" clip-path="url(#pcb9ec88710)" style="fill: none; stroke: #0000ff; stroke-width: 0.5; stroke-linecap: square"/>
   </g>
   <g id="line2d_27">
    <path d="M 37.750732 23.582869 
L 39.493774 23.879211 
L 41.236817 24.321048 
L 42.97986 25.345912 
L 44.722902 25.643515 
L 48.208988 26.817233 
L 49.952031 27.181283 
L 51.695073 27.881987 
L 53.438116 28.901393 
L 55.181159 29.678413 
L 56.924201 31.346979 
L 58.667244 31.424975 
L 60.410287 32.750171 
L 62.153329 34.665847 
L 63.896372 35.57398 
L 65.639415 36.907889 
L 67.382457 41.867716 
L 69.1255 42.907906 
L 70.868543 46.06018 
L 72.611586 54.095124 
L 74.354628 56.292762 
L 76.097671 60.18437 
L 77.840714 65.914078 
L 79.583756 76.856601 
L 81.326799 85.679063 
L 84.812884 113.017525 
L 86.555927 134.76138 
L 88.29897 149.272925 
L 90.042013 168.085688 
L 91.785055 191.72349 
L 93.528098 202.085505 
L 95.271141 189.940921 
L 98.757226 153.392012 
L 100.500269 144.152488 
L 102.243311 129.431624 
L 103.986354 113.413803 
L 105.729397 105.318603 
L 107.472439 94.780966 
L 109.215482 92.711502 
L 110.958525 81.25324 
L 112.701568 75.011257 
L 114.44461 69.739552 
L 116.187653 67.11152 
L 117.930696 62.287845 
L 119.673738 61.618214 
L 121.416781 58.911031 
L 123.159824 55.58303 
L 124.902866 53.339834 
L 130.131995 47.809892 
L 131.875037 47.748482 
L 135.361123 44.968972 
L 137.104165 44.144399 
L 138.847208 44.185024 
L 140.590251 42.436991 
L 142.333293 41.681071 
L 144.076336 39.507263 
L 145.819379 40.211011 
L 147.562421 38.108585 
L 149.305464 40.804116 
L 151.048507 40.487618 
L 152.79155 39.730019 
L 154.534592 39.406383 
L 156.277635 39.392736 
L 158.020678 39.68404 
L 159.76372 39.025431 
L 161.506763 38.150155 
L 163.249806 39.264352 
L 164.992848 38.341943 
L 166.735891 39.973979 
L 168.478934 39.323138 
L 170.221977 36.753472 
L 173.708062 39.297104 
L 175.451105 37.931913 
L 177.194147 38.371861 
L 178.93719 39.744715 
L 180.680233 38.655396 
L 182.423275 39.779461 
L 184.166318 39.045166 
L 185.909361 40.95108 
L 187.652403 42.101493 
L 189.395446 41.695978 
L 191.138489 40.799497 
L 192.881532 40.593537 
L 194.624574 41.257185 
L 196.367617 41.057734 
L 198.11066 43.213381 
L 199.853702 43.315941 
L 201.596745 44.213997 
L 203.339788 42.289607 
L 205.08283 42.87085 
L 206.825873 46.119805 
L 208.568916 46.07981 
L 210.311959 48.531065 
L 212.055001 47.227389 
L 213.798044 47.325435 
L 215.541087 47.645922 
L 217.284129 49.813747 
L 219.027172 48.478263 
L 220.770215 49.65534 
L 222.513257 53.054409 
L 224.2563 52.451436 
L 225.999343 50.170344 
L 227.742385 53.074249 
L 229.485428 54.710064 
L 231.228471 55.283119 
L 232.971514 52.003196 
L 234.714556 53.199168 
L 236.457599 57.619952 
L 238.200642 57.225983 
L 239.943684 59.072797 
L 241.686727 58.601462 
L 243.42977 58.572594 
L 246.915855 61.275578 
L 248.658898 62.228535 
L 250.401941 62.218667 
L 252.144983 61.894926 
L 253.888026 63.209834 
L 255.631069 65.18986 
L 259.117154 66.300908 
L 260.860197 61.630916 
L 262.603239 68.467158 
L 264.346282 67.19445 
L 267.832367 67.05158 
L 269.57541 69.427043 
L 271.318453 66.125181 
L 274.804538 71.700997 
L 276.547581 69.17689 
L 280.033666 66.664959 
L 281.776709 67.272236 
L 283.519752 68.186667 
L 285.262794 69.508609 
L 287.005837 67.942812 
L 288.74888 63.911063 
L 290.491923 65.034918 
L 292.234965 63.879571 
L 293.978008 66.951329 
L 295.721051 64.525373 
L 297.464093 59.434118 
L 299.207136 60.422136 
L 300.950179 57.744661 
L 302.693221 55.997574 
L 304.436264 61.062165 
L 306.179307 58.073126 
L 307.922349 55.363214 
L 309.665392 54.228757 
L 313.151478 46.444176 
L 314.89452 51.426677 
L 316.637563 55.561301 
L 318.380606 45.671355 
L 320.123648 47.800024 
L 321.866691 47.182985 
L 323.609734 44.516323 
L 325.352776 42.601906 
L 327.095819 46.065954 
L 328.838862 43.48621 
L 330.581905 42.87127 
L 332.324947 39.237899 
L 334.06799 41.284478 
L 335.811033 38.361888 
L 339.297118 35.255698 
L 341.040161 35.630771 
L 342.783203 34.670991 
L 344.526246 33.523622 
L 346.269289 36.784859 
L 348.012331 32.442911 
L 351.498417 30.572059 
L 353.24146 31.075516 
L 354.984502 31.155611 
L 356.727545 31.438832 
L 358.470588 29.987562 
L 360.21363 28.898873 
L 361.956673 28.812794 
L 363.699716 28.548679 
L 365.442758 27.039043 
L 367.185801 27.832124 
L 368.928844 27.735023 
L 370.671887 26.042732 
L 372.414929 27.696917 
L 374.157972 31.737904 
L 375.901015 26.757712 
L 377.644057 25.522689 
L 379.3871 25.177534 
L 382.873185 25.440284 
L 386.359271 24.260793 
L 388.102313 24.794692 
L 389.845356 24.000877 
L 391.588399 24.705674 
L 393.331442 24.131989 
L 395.074484 24.156029 
L 396.817527 23.379848 
L 400.303612 23.308886 
L 402.046655 24.660535 
L 403.789698 22.448096 
L 405.53274 22.744019 
L 407.275783 22.55664 
L 410.761869 22.90211 
L 412.504911 22.41293 
L 414.247954 21.758835 
L 415.990997 22.410726 
L 419.477082 22.087405 
L 421.220125 21.626777 
L 422.963167 21.547102 
L 424.70621 21.668137 
L 428.192295 20.719274 
L 429.935338 21.681994 
L 429.935338 21.681994 
" clip-path="url(#pcb9ec88710)" style="fill: none; stroke: #0000ff; stroke-linecap: square"/>
   </g>
   <g id="patch_3">
    <path d="M 38.50024 322.783823 
L 38.50024 7.860865 
" style="fill: none; stroke: #bcbcbc; stroke-width: 0.8; stroke-linejoin: miter; stroke-linecap: square"/>
   </g>
   <g id="patch_4">
    <path d="M 428.99976 322.783823 
L 428.99976 7.860865 
" style="fill: none; stroke: #bcbcbc; stroke-width: 0.8; stroke-linejoin: miter; stroke-linecap: square"/>
   </g>
   <g id="patch_5">
    <path d="M 38.50024 322.783822 
L 428.99976 322.783822 
" style="fill: none; stroke: #bcbcbc; stroke-width: 0.8; stroke-linejoin: miter; stroke-linecap: square"/>
   </g>
   <g id="patch_6">
    <path d="M 38.50024 7.860865 
L 428.99976 7.860865 
" style="fill: none; stroke: #bcbcbc; stroke-width: 0.8; stroke-linejoin: miter; stroke-linecap: square"/>
   </g>
   <g id="legend_1">
    <g id="patch_7">
     <path d="M 168.23 315.783822 
L 299.27 315.783822 
Q 302.07 315.783822 302.07 312.983822 
L 302.07 215.325073 
Q 302.07 212.525072 299.27 212.525072 
L 168.23 212.525072 
Q 165.43 212.525072 165.43 215.325073 
L 165.43 312.983822 
Q 165.43 315.783822 168.23 315.783822 
z
" style="fill: #eeeeee; opacity: 0.8; stroke: #cccccc; stroke-width: 0.5; stroke-linejoin: miter"/>
    </g>
    <g id="line2d_28">
     <path d="M 171.03 223.025072 
L 185.03 223.025072 
L 199.03 223.025072 
" style="fill: none; stroke: #000000; stroke-width: 0.5; stroke-linecap: square"/>
    </g>
    <g id="text_14">
     <!-- dark -->
     <g transform="translate(210.23 227.925072) scale(0.14 -0.14)">
      <defs>
       <path id="TimesNewRomanPSMT-64" d="M 2222 322 
Q 2013 103 1813 7 
Q 1613 -88 1381 -88 
Q 913 -88 563 304 
Q 213 697 213 1313 
Q 213 1928 600 2439 
Q 988 2950 1597 2950 
Q 1975 2950 2222 2709 
L 2222 3238 
Q 2222 3728 2198 3840 
Q 2175 3953 2125 3993 
Q 2075 4034 2000 4034 
Q 1919 4034 1784 3984 
L 1744 4094 
L 2597 4444 
L 2738 4444 
L 2738 1134 
Q 2738 631 2761 520 
Q 2784 409 2836 365 
Q 2888 322 2956 322 
Q 3041 322 3181 375 
L 3216 266 
L 2366 -88 
L 2222 -88 
L 2222 322 
z
M 2222 541 
L 2222 2016 
Q 2203 2228 2109 2403 
Q 2016 2578 1861 2667 
Q 1706 2756 1559 2756 
Q 1284 2756 1069 2509 
Q 784 2184 784 1559 
Q 784 928 1059 592 
Q 1334 256 1672 256 
Q 1956 256 2222 541 
z
" transform="scale(0.015625)"/>
       <path id="TimesNewRomanPSMT-61" d="M 1822 413 
Q 1381 72 1269 19 
Q 1100 -59 909 -59 
Q 613 -59 420 144 
Q 228 347 228 678 
Q 228 888 322 1041 
Q 450 1253 767 1440 
Q 1084 1628 1822 1897 
L 1822 2009 
Q 1822 2438 1686 2597 
Q 1550 2756 1291 2756 
Q 1094 2756 978 2650 
Q 859 2544 859 2406 
L 866 2225 
Q 866 2081 792 2003 
Q 719 1925 600 1925 
Q 484 1925 411 2006 
Q 338 2088 338 2228 
Q 338 2497 613 2722 
Q 888 2947 1384 2947 
Q 1766 2947 2009 2819 
Q 2194 2722 2281 2516 
Q 2338 2381 2338 1966 
L 2338 994 
Q 2338 584 2353 492 
Q 2369 400 2405 369 
Q 2441 338 2488 338 
Q 2538 338 2575 359 
Q 2641 400 2828 588 
L 2828 413 
Q 2478 -56 2159 -56 
Q 2006 -56 1915 50 
Q 1825 156 1822 413 
z
M 1822 616 
L 1822 1706 
Q 1350 1519 1213 1441 
Q 966 1303 859 1153 
Q 753 1003 753 825 
Q 753 600 887 451 
Q 1022 303 1197 303 
Q 1434 303 1822 616 
z
" transform="scale(0.015625)"/>
       <path id="TimesNewRomanPSMT-72" d="M 1038 2947 
L 1038 2303 
Q 1397 2947 1775 2947 
Q 1947 2947 2059 2842 
Q 2172 2738 2172 2600 
Q 2172 2478 2090 2393 
Q 2009 2309 1897 2309 
Q 1788 2309 1652 2417 
Q 1516 2525 1450 2525 
Q 1394 2525 1328 2463 
Q 1188 2334 1038 2041 
L 1038 669 
Q 1038 431 1097 309 
Q 1138 225 1241 169 
Q 1344 113 1538 113 
L 1538 0 
L 72 0 
L 72 113 
Q 291 113 397 181 
Q 475 231 506 341 
Q 522 394 522 644 
L 522 1753 
Q 522 2253 501 2348 
Q 481 2444 426 2487 
Q 372 2531 291 2531 
Q 194 2531 72 2484 
L 41 2597 
L 906 2947 
L 1038 2947 
z
" transform="scale(0.015625)"/>
       <path id="TimesNewRomanPSMT-6b" d="M 1047 4444 
L 1047 1597 
L 1775 2259 
Q 2006 2472 2044 2528 
Q 2069 2566 2069 2603 
Q 2069 2666 2017 2711 
Q 1966 2756 1847 2763 
L 1847 2863 
L 3091 2863 
L 3091 2763 
Q 2834 2756 2664 2684 
Q 2494 2613 2291 2428 
L 1556 1750 
L 2291 822 
Q 2597 438 2703 334 
Q 2853 188 2966 144 
Q 3044 113 3238 113 
L 3238 0 
L 1847 0 
L 1847 113 
Q 1966 116 2008 148 
Q 2050 181 2050 241 
Q 2050 313 1925 472 
L 1047 1594 
L 1047 644 
Q 1047 366 1086 278 
Q 1125 191 1197 153 
Q 1269 116 1509 113 
L 1509 0 
L 53 0 
L 53 113 
Q 272 113 381 166 
Q 447 200 481 272 
Q 528 375 528 628 
L 528 3234 
Q 528 3731 506 3842 
Q 484 3953 434 3995 
Q 384 4038 303 4038 
Q 238 4038 106 3984 
L 53 4094 
L 903 4444 
L 1047 4444 
z
" transform="scale(0.015625)"/>
      </defs>
      <use xlink:href="#TimesNewRomanPSMT-64"/>
      <use xlink:href="#TimesNewRomanPSMT-61" x="50"/>
      <use xlink:href="#TimesNewRomanPSMT-72" x="94.384766"/>
      <use xlink:href="#TimesNewRomanPSMT-6b" x="127.685547"/>
     </g>
    </g>
    <g id="line2d_29">
     <path d="M 171.03 242.81976 
L 185.03 242.81976 
L 199.03 242.81976 
" style="fill: none; stroke: #008000; stroke-width: 0.5; stroke-linecap: square"/>
    </g>
    <g id="text_15">
     <!-- green, $w=1 px$ -->
     <g transform="translate(210.23 247.71976) scale(0.14 -0.14)">
      <defs>
       <path id="TimesNewRomanPSMT-67" d="M 966 1044 
Q 703 1172 562 1401 
Q 422 1631 422 1909 
Q 422 2334 742 2640 
Q 1063 2947 1563 2947 
Q 1972 2947 2272 2747 
L 2878 2747 
Q 3013 2747 3034 2739 
Q 3056 2731 3066 2713 
Q 3084 2684 3084 2613 
Q 3084 2531 3069 2500 
Q 3059 2484 3036 2475 
Q 3013 2466 2878 2466 
L 2506 2466 
Q 2681 2241 2681 1891 
Q 2681 1491 2375 1206 
Q 2069 922 1553 922 
Q 1341 922 1119 984 
Q 981 866 932 777 
Q 884 688 884 625 
Q 884 572 936 522 
Q 988 472 1138 450 
Q 1225 438 1575 428 
Q 2219 413 2409 384 
Q 2700 344 2873 169 
Q 3047 -6 3047 -263 
Q 3047 -616 2716 -925 
Q 2228 -1381 1444 -1381 
Q 841 -1381 425 -1109 
Q 191 -953 191 -784 
Q 191 -709 225 -634 
Q 278 -519 444 -313 
Q 466 -284 763 25 
Q 600 122 533 198 
Q 466 275 466 372 
Q 466 481 555 628 
Q 644 775 966 1044 
z
M 1509 2797 
Q 1278 2797 1122 2612 
Q 966 2428 966 2047 
Q 966 1553 1178 1281 
Q 1341 1075 1591 1075 
Q 1828 1075 1981 1253 
Q 2134 1431 2134 1813 
Q 2134 2309 1919 2591 
Q 1759 2797 1509 2797 
z
M 934 0 
Q 788 -159 713 -296 
Q 638 -434 638 -550 
Q 638 -700 819 -813 
Q 1131 -1006 1722 -1006 
Q 2284 -1006 2551 -807 
Q 2819 -609 2819 -384 
Q 2819 -222 2659 -153 
Q 2497 -84 2016 -72 
Q 1313 -53 934 0 
z
" transform="scale(0.015625)"/>
       <path id="TimesNewRomanPSMT-65" d="M 681 1784 
Q 678 1147 991 784 
Q 1303 422 1725 422 
Q 2006 422 2214 576 
Q 2422 731 2563 1106 
L 2659 1044 
Q 2594 616 2278 264 
Q 1963 -88 1488 -88 
Q 972 -88 605 314 
Q 238 716 238 1394 
Q 238 2128 614 2539 
Q 991 2950 1559 2950 
Q 2041 2950 2350 2633 
Q 2659 2316 2659 1784 
L 681 1784 
z
M 681 1966 
L 2006 1966 
Q 1991 2241 1941 2353 
Q 1863 2528 1708 2628 
Q 1553 2728 1384 2728 
Q 1125 2728 920 2526 
Q 716 2325 681 1966 
z
" transform="scale(0.015625)"/>
       <path id="TimesNewRomanPSMT-6e" d="M 1034 2341 
Q 1538 2947 1994 2947 
Q 2228 2947 2397 2830 
Q 2566 2713 2666 2444 
Q 2734 2256 2734 1869 
L 2734 647 
Q 2734 375 2778 278 
Q 2813 200 2889 156 
Q 2966 113 3172 113 
L 3172 0 
L 1756 0 
L 1756 113 
L 1816 113 
Q 2016 113 2095 173 
Q 2175 234 2206 353 
Q 2219 400 2219 647 
L 2219 1819 
Q 2219 2209 2117 2386 
Q 2016 2563 1775 2563 
Q 1403 2563 1034 2156 
L 1034 647 
Q 1034 356 1069 288 
Q 1113 197 1189 155 
Q 1266 113 1500 113 
L 1500 0 
L 84 0 
L 84 113 
L 147 113 
Q 366 113 442 223 
Q 519 334 519 647 
L 519 1709 
Q 519 2225 495 2337 
Q 472 2450 423 2490 
Q 375 2531 294 2531 
Q 206 2531 84 2484 
L 38 2597 
L 900 2947 
L 1034 2947 
L 1034 2341 
z
" transform="scale(0.015625)"/>
       <path id="TimesNewRomanPSMT-2c" d="M 344 -1066 
L 344 -928 
Q 666 -822 842 -598 
Q 1019 -375 1019 -125 
Q 1019 -66 991 -25 
Q 969 3 947 3 
Q 913 3 797 -59 
Q 741 -88 678 -88 
Q 525 -88 434 3 
Q 344 94 344 253 
Q 344 406 461 515 
Q 578 625 747 625 
Q 953 625 1114 445 
Q 1275 266 1275 -31 
Q 1275 -353 1051 -629 
Q 828 -906 344 -1066 
z
" transform="scale(0.015625)"/>
       <path id="Cmr10-77" d="M 1416 0 
L 588 2328 
Q 531 2469 425 2501 
Q 319 2534 116 2534 
L 116 2759 
L 1434 2759 
L 1434 2534 
Q 1056 2534 1056 2375 
Q 1059 2366 1061 2356 
Q 1063 2347 1063 2328 
L 1678 603 
L 2209 2106 
L 2125 2328 
Q 2075 2469 1965 2501 
Q 1856 2534 1656 2534 
L 1656 2759 
L 2919 2759 
L 2919 2534 
Q 2541 2534 2541 2375 
Q 2541 2350 2547 2328 
L 3188 525 
L 3769 2156 
Q 3781 2206 3781 2247 
Q 3781 2381 3667 2457 
Q 3553 2534 3413 2534 
L 3413 2759 
L 4500 2759 
L 4500 2534 
Q 4306 2534 4167 2432 
Q 4028 2331 3963 2156 
L 3200 0 
Q 3178 -72 3103 -72 
L 3053 -72 
Q 2978 -72 2956 0 
L 2309 1825 
L 1663 0 
Q 1631 -72 1563 -72 
L 1516 -72 
Q 1438 -72 1416 0 
z
" transform="scale(0.015625)"/>
       <path id="Cmr10-3d" d="M 481 850 
Q 428 850 393 890 
Q 359 931 359 978 
Q 359 1031 393 1068 
Q 428 1106 481 1106 
L 4500 1106 
Q 4547 1106 4581 1068 
Q 4616 1031 4616 978 
Q 4616 931 4581 890 
Q 4547 850 4500 850 
L 481 850 
z
M 481 2094 
Q 428 2094 393 2131 
Q 359 2169 359 2222 
Q 359 2269 393 2309 
Q 428 2350 481 2350 
L 4500 2350 
Q 4547 2350 4581 2309 
Q 4616 2269 4616 2222 
Q 4616 2169 4581 2131 
Q 4547 2094 4500 2094 
L 481 2094 
z
" transform="scale(0.015625)"/>
       <path id="Cmr10-70" d="M 166 -1241 
L 166 -1019 
Q 384 -1019 525 -981 
Q 666 -944 666 -813 
L 666 2272 
Q 666 2447 541 2490 
Q 416 2534 166 2534 
L 166 2759 
L 1113 2828 
L 1113 2431 
Q 1288 2625 1520 2726 
Q 1753 2828 2016 2828 
Q 2394 2828 2697 2623 
Q 3000 2419 3170 2086 
Q 3341 1753 3341 1381 
Q 3341 994 3152 659 
Q 2963 325 2636 126 
Q 2309 -72 1919 -72 
Q 1453 -72 1131 306 
L 1131 -813 
Q 1131 -944 1273 -981 
Q 1416 -1019 1631 -1019 
L 1631 -1241 
L 166 -1241 
z
M 1131 622 
Q 1244 394 1444 245 
Q 1644 97 1881 97 
Q 2103 97 2273 215 
Q 2444 334 2559 534 
Q 2675 734 2729 954 
Q 2784 1175 2784 1381 
Q 2784 1638 2692 1936 
Q 2600 2234 2411 2439 
Q 2222 2644 1953 2644 
Q 1694 2644 1476 2511 
Q 1259 2378 1131 2150 
L 1131 622 
z
" transform="scale(0.015625)"/>
       <path id="Cmr10-78" d="M 78 0 
L 78 225 
Q 322 225 537 320 
Q 753 416 903 603 
L 1484 1344 
L 728 2328 
Q 616 2469 483 2501 
Q 350 2534 109 2534 
L 109 2759 
L 1441 2759 
L 1441 2534 
Q 1356 2534 1282 2496 
Q 1209 2459 1209 2388 
Q 1209 2363 1228 2328 
L 1741 1663 
L 2125 2156 
Q 2203 2250 2203 2344 
Q 2203 2422 2151 2478 
Q 2100 2534 2016 2534 
L 2016 2759 
L 3194 2759 
L 3194 2534 
Q 2947 2534 2730 2439 
Q 2513 2344 2363 2156 
L 1856 1509 
L 2675 428 
Q 2797 288 2928 256 
Q 3059 225 3303 225 
L 3303 0 
L 1972 0 
L 1972 225 
Q 2050 225 2122 262 
Q 2194 300 2194 372 
Q 2194 400 2175 428 
L 1600 1191 
L 1141 603 
Q 1069 522 1069 416 
Q 1069 338 1122 281 
Q 1175 225 1247 225 
L 1247 0 
L 78 0 
z
" transform="scale(0.015625)"/>
      </defs>
      <use xlink:href="#TimesNewRomanPSMT-67" transform="translate(0 0.390625)"/>
      <use xlink:href="#TimesNewRomanPSMT-72" transform="translate(50 0.390625)"/>
      <use xlink:href="#TimesNewRomanPSMT-65" transform="translate(83.300781 0.390625)"/>
      <use xlink:href="#TimesNewRomanPSMT-65" transform="translate(127.685547 0.390625)"/>
      <use xlink:href="#TimesNewRomanPSMT-6e" transform="translate(172.070312 0.390625)"/>
      <use xlink:href="#TimesNewRomanPSMT-2c" transform="translate(222.070312 0.390625)"/>
      <use xlink:href="#TimesNewRomanPSMT-20" transform="translate(247.070312 0.390625)"/>
      <use xlink:href="#Cmr10-77" transform="translate(272.070312 0.390625)"/>
      <use xlink:href="#Cmr10-3d" transform="translate(361.845703 0.390625)"/>
      <use xlink:href="#Cmr10-31" transform="translate(457.089844 0.390625)"/>
      <use xlink:href="#Cmr10-70" transform="translate(507.089844 0.390625)"/>
      <use xlink:href="#Cmr10-78" transform="translate(562.607422 0.390625)"/>
     </g>
    </g>
    <g id="line2d_30">
     <path d="M 171.03 262.69976 
L 185.03 262.69976 
L 199.03 262.69976 
" style="fill: none; stroke: #ff0000; stroke-width: 0.5; stroke-linecap: square"/>
    </g>
    <g id="text_16">
     <!-- red, $w=1 px$ -->
     <g transform="translate(210.23 267.59976) scale(0.14 -0.14)">
      <use xlink:href="#TimesNewRomanPSMT-72" transform="translate(0 0.5625)"/>
      <use xlink:href="#TimesNewRomanPSMT-65" transform="translate(33.300781 0.5625)"/>
      <use xlink:href="#TimesNewRomanPSMT-64" transform="translate(77.685547 0.5625)"/>
      <use xlink:href="#TimesNewRomanPSMT-2c" transform="translate(127.685547 0.5625)"/>
      <use xlink:href="#TimesNewRomanPSMT-20" transform="translate(152.685547 0.5625)"/>
      <use xlink:href="#Cmr10-77" transform="translate(177.685547 0.5625)"/>
      <use xlink:href="#Cmr10-3d" transform="translate(267.460938 0.5625)"/>
      <use xlink:href="#Cmr10-31" transform="translate(362.705078 0.5625)"/>
      <use xlink:href="#Cmr10-70" transform="translate(412.705078 0.5625)"/>
      <use xlink:href="#Cmr10-78" transform="translate(468.222656 0.5625)"/>
     </g>
    </g>
    <g id="line2d_31">
     <path d="M 171.03 282.494448 
L 185.03 282.494448 
L 199.03 282.494448 
" style="fill: none; stroke: #0000ff; stroke-width: 0.5; stroke-linecap: square"/>
    </g>
    <g id="text_17">
     <!-- blue, $w=1 px$ -->
     <g transform="translate(210.23 287.394448) scale(0.14 -0.14)">
      <defs>
       <path id="TimesNewRomanPSMT-62" d="M 984 2369 
Q 1400 2947 1881 2947 
Q 2322 2947 2650 2570 
Q 2978 2194 2978 1541 
Q 2978 778 2472 313 
Q 2038 -88 1503 -88 
Q 1253 -88 995 3 
Q 738 94 469 275 
L 469 3241 
Q 469 3728 445 3840 
Q 422 3953 372 3993 
Q 322 4034 247 4034 
Q 159 4034 28 3984 
L -16 4094 
L 844 4444 
L 984 4444 
L 984 2369 
z
M 984 2169 
L 984 456 
Q 1144 300 1314 220 
Q 1484 141 1663 141 
Q 1947 141 2192 453 
Q 2438 766 2438 1363 
Q 2438 1913 2192 2208 
Q 1947 2503 1634 2503 
Q 1469 2503 1303 2419 
Q 1178 2356 984 2169 
z
" transform="scale(0.015625)"/>
       <path id="TimesNewRomanPSMT-6c" d="M 1184 4444 
L 1184 647 
Q 1184 378 1223 290 
Q 1263 203 1344 158 
Q 1425 113 1647 113 
L 1647 0 
L 244 0 
L 244 113 
Q 441 113 512 153 
Q 584 194 625 287 
Q 666 381 666 647 
L 666 3247 
Q 666 3731 644 3842 
Q 622 3953 573 3993 
Q 525 4034 450 4034 
Q 369 4034 244 3984 
L 191 4094 
L 1044 4444 
L 1184 4444 
z
" transform="scale(0.015625)"/>
       <path id="TimesNewRomanPSMT-75" d="M 2709 2863 
L 2709 1128 
Q 2709 631 2732 520 
Q 2756 409 2807 365 
Q 2859 322 2928 322 
Q 3025 322 3147 375 
L 3191 266 
L 2334 -88 
L 2194 -88 
L 2194 519 
Q 1825 119 1631 15 
Q 1438 -88 1222 -88 
Q 981 -88 804 51 
Q 628 191 559 409 
Q 491 628 491 1028 
L 491 2306 
Q 491 2509 447 2587 
Q 403 2666 317 2708 
Q 231 2750 6 2747 
L 6 2863 
L 1009 2863 
L 1009 947 
Q 1009 547 1148 422 
Q 1288 297 1484 297 
Q 1619 297 1789 381 
Q 1959 466 2194 703 
L 2194 2325 
Q 2194 2569 2105 2655 
Q 2016 2741 1734 2747 
L 1734 2863 
L 2709 2863 
z
" transform="scale(0.015625)"/>
      </defs>
      <use xlink:href="#TimesNewRomanPSMT-62" transform="translate(0 0.5625)"/>
      <use xlink:href="#TimesNewRomanPSMT-6c" transform="translate(50 0.5625)"/>
      <use xlink:href="#TimesNewRomanPSMT-75" transform="translate(77.783203 0.5625)"/>
      <use xlink:href="#TimesNewRomanPSMT-65" transform="translate(127.783203 0.5625)"/>
      <use xlink:href="#TimesNewRomanPSMT-2c" transform="translate(172.167969 0.5625)"/>
      <use xlink:href="#TimesNewRomanPSMT-20" transform="translate(197.167969 0.5625)"/>
      <use xlink:href="#Cmr10-77" transform="translate(222.167969 0.5625)"/>
      <use xlink:href="#Cmr10-3d" transform="translate(311.943359 0.5625)"/>
      <use xlink:href="#Cmr10-31" transform="translate(407.1875 0.5625)"/>
      <use xlink:href="#Cmr10-70" transform="translate(457.1875 0.5625)"/>
      <use xlink:href="#Cmr10-78" transform="translate(512.705078 0.5625)"/>
     </g>
    </g>
    <g id="line2d_32">
     <path d="M 171.03 302.289135 
L 185.03 302.289135 
L 199.03 302.289135 
" style="fill: none; stroke: #0000ff; stroke-linecap: square"/>
    </g>
    <g id="text_18">
     <!-- blue, $w=2 px$ -->
     <g transform="translate(210.23 307.189135) scale(0.14 -0.14)">
      <use xlink:href="#TimesNewRomanPSMT-62" transform="translate(0 0.5625)"/>
      <use xlink:href="#TimesNewRomanPSMT-6c" transform="translate(50 0.5625)"/>
      <use xlink:href="#TimesNewRomanPSMT-75" transform="translate(77.783203 0.5625)"/>
      <use xlink:href="#TimesNewRomanPSMT-65" transform="translate(127.783203 0.5625)"/>
      <use xlink:href="#TimesNewRomanPSMT-2c" transform="translate(172.167969 0.5625)"/>
      <use xlink:href="#TimesNewRomanPSMT-20" transform="translate(197.167969 0.5625)"/>
      <use xlink:href="#Cmr10-77" transform="translate(222.167969 0.5625)"/>
      <use xlink:href="#Cmr10-3d" transform="translate(311.943359 0.5625)"/>
      <use xlink:href="#Cmr10-32" transform="translate(407.1875 0.5625)"/>
      <use xlink:href="#Cmr10-70" transform="translate(457.1875 0.5625)"/>
      <use xlink:href="#Cmr10-78" transform="translate(512.705078 0.5625)"/>
     </g>
    </g>
   </g>
  </g>
 </g>
 <defs>
  <clipPath id="pcb9ec88710">
   <rect x="38.50024" y="7.860865" width="390.49952" height="314.922957"/>
  </clipPath>
 </defs>
</svg>
