<?xml version="1.0" encoding="utf-8" standalone="no"?>
<!DOCTYPE svg PUBLIC "-//W3C//DTD SVG 1.1//EN"
  "http://www.w3.org/Graphics/SVG/1.1/DTD/svg11.dtd">
<svg xmlns:xlink="http://www.w3.org/1999/xlink" width="648pt" height="216pt" viewBox="0 0 648 216" xmlns="http://www.w3.org/2000/svg" version="1.1">
 <metadata>
  <rdf:RDF xmlns:dc="http://purl.org/dc/elements/1.1/" xmlns:cc="http://creativecommons.org/ns#" xmlns:rdf="http://www.w3.org/1999/02/22-rdf-syntax-ns#">
   <cc:Work>
    <dc:type rdf:resource="http://purl.org/dc/dcmitype/StillImage"/>
    <dc:date>2024-01-31T13:50:56.636573</dc:date>
    <dc:format>image/svg+xml</dc:format>
    <dc:creator>
     <cc:Agent>
      <dc:title>Matplotlib v3.7.0, https://matplotlib.org/</dc:title>
     </cc:Agent>
    </dc:creator>
   </cc:Work>
  </rdf:RDF>
 </metadata>
 <defs>
  <style type="text/css">*{stroke-linejoin: round; stroke-linecap: butt}</style>
 </defs>
 <g id="figure_1">
  <g id="patch_1">
   <path d="M 0 216 
L 648 216 
L 648 0 
L 0 0 
z
" style="fill: #ffffff"/>
  </g>
  <g id="axes_1">
   <g id="patch_2">
    <path d="M 46.394928 178.783822 
L 340.707344 178.783822 
L 340.707344 3.00024 
L 46.394928 3.00024 
z
" style="fill: #eeeeee"/>
   </g>
   <g id="matplotlib.axis_1">
    <g id="xtick_1">
     <g id="line2d_1">
      <path d="M 46.394928 178.783822 
L 46.394928 3.00024 
" clip-path="url(#p5690b385d8)" style="fill: none; stroke-dasharray: 1.85,0.8; stroke-dashoffset: 0; stroke: #b2b2b2; stroke-width: 0.5"/>
     </g>
     <g id="line2d_2">
      <defs>
       <path id="mce1b6f01cb" d="M 0 0 
L 0 -3.5 
" style="stroke: #000000; stroke-width: 0.8"/>
      </defs>
      <g>
       <use xlink:href="#mce1b6f01cb" x="46.394928" y="178.783822" style="stroke: #000000; stroke-width: 0.8"/>
      </g>
     </g>
     <g id="text_1">
      <!-- 0 -->
      <g transform="translate(42.894928 192.005072) scale(0.14 -0.14)">
       <defs>
        <path id="TimesNewRomanPSMT-30" d="M 231 2094 
Q 231 2819 450 3342 
Q 669 3866 1031 4122 
Q 1313 4325 1613 4325 
Q 2100 4325 2488 3828 
Q 2972 3213 2972 2159 
Q 2972 1422 2759 906 
Q 2547 391 2217 158 
Q 1888 -75 1581 -75 
Q 975 -75 572 641 
Q 231 1244 231 2094 
z
M 844 2016 
Q 844 1141 1059 588 
Q 1238 122 1591 122 
Q 1759 122 1940 273 
Q 2122 425 2216 781 
Q 2359 1319 2359 2297 
Q 2359 3022 2209 3506 
Q 2097 3866 1919 4016 
Q 1791 4119 1609 4119 
Q 1397 4119 1231 3928 
Q 1006 3669 925 3112 
Q 844 2556 844 2016 
z
" transform="scale(0.015625)"/>
       </defs>
       <use xlink:href="#TimesNewRomanPSMT-30"/>
      </g>
     </g>
    </g>
    <g id="xtick_2">
     <g id="line2d_3">
      <path d="M 113.284113 178.783822 
L 113.284113 3.00024 
" clip-path="url(#p5690b385d8)" style="fill: none; stroke-dasharray: 1.85,0.8; stroke-dashoffset: 0; stroke: #b2b2b2; stroke-width: 0.5"/>
     </g>
     <g id="line2d_4">
      <g>
       <use xlink:href="#mce1b6f01cb" x="113.284113" y="178.783822" style="stroke: #000000; stroke-width: 0.8"/>
      </g>
     </g>
     <g id="text_2">
      <!-- 10 -->
      <g transform="translate(106.284113 192.005072) scale(0.14 -0.14)">
       <defs>
        <path id="TimesNewRomanPSMT-31" d="M 750 3822 
L 1781 4325 
L 1884 4325 
L 1884 747 
Q 1884 391 1914 303 
Q 1944 216 2037 169 
Q 2131 122 2419 116 
L 2419 0 
L 825 0 
L 825 116 
Q 1125 122 1212 167 
Q 1300 213 1334 289 
Q 1369 366 1369 747 
L 1369 3034 
Q 1369 3497 1338 3628 
Q 1316 3728 1258 3775 
Q 1200 3822 1119 3822 
Q 1003 3822 797 3725 
L 750 3822 
z
" transform="scale(0.015625)"/>
       </defs>
       <use xlink:href="#TimesNewRomanPSMT-31"/>
       <use xlink:href="#TimesNewRomanPSMT-30" x="50"/>
      </g>
     </g>
    </g>
    <g id="xtick_3">
     <g id="line2d_5">
      <path d="M 180.173299 178.783822 
L 180.173299 3.00024 
" clip-path="url(#p5690b385d8)" style="fill: none; stroke-dasharray: 1.85,0.8; stroke-dashoffset: 0; stroke: #b2b2b2; stroke-width: 0.5"/>
     </g>
     <g id="line2d_6">
      <g>
       <use xlink:href="#mce1b6f01cb" x="180.173299" y="178.783822" style="stroke: #000000; stroke-width: 0.8"/>
      </g>
     </g>
     <g id="text_3">
      <!-- 20 -->
      <g transform="translate(173.173299 192.005072) scale(0.14 -0.14)">
       <defs>
        <path id="TimesNewRomanPSMT-32" d="M 2934 816 
L 2638 0 
L 138 0 
L 138 116 
Q 1241 1122 1691 1759 
Q 2141 2397 2141 2925 
Q 2141 3328 1894 3587 
Q 1647 3847 1303 3847 
Q 991 3847 742 3664 
Q 494 3481 375 3128 
L 259 3128 
Q 338 3706 661 4015 
Q 984 4325 1469 4325 
Q 1984 4325 2329 3994 
Q 2675 3663 2675 3213 
Q 2675 2891 2525 2569 
Q 2294 2063 1775 1497 
Q 997 647 803 472 
L 1909 472 
Q 2247 472 2383 497 
Q 2519 522 2628 598 
Q 2738 675 2819 816 
L 2934 816 
z
" transform="scale(0.015625)"/>
       </defs>
       <use xlink:href="#TimesNewRomanPSMT-32"/>
       <use xlink:href="#TimesNewRomanPSMT-30" x="50"/>
      </g>
     </g>
    </g>
    <g id="xtick_4">
     <g id="line2d_7">
      <path d="M 247.062484 178.783822 
L 247.062484 3.00024 
" clip-path="url(#p5690b385d8)" style="fill: none; stroke-dasharray: 1.85,0.8; stroke-dashoffset: 0; stroke: #b2b2b2; stroke-width: 0.5"/>
     </g>
     <g id="line2d_8">
      <g>
       <use xlink:href="#mce1b6f01cb" x="247.062484" y="178.783822" style="stroke: #000000; stroke-width: 0.8"/>
      </g>
     </g>
     <g id="text_4">
      <!-- 30 -->
      <g transform="translate(240.062484 192.005072) scale(0.14 -0.14)">
       <defs>
        <path id="TimesNewRomanPSMT-33" d="M 325 3431 
Q 506 3859 782 4092 
Q 1059 4325 1472 4325 
Q 1981 4325 2253 3994 
Q 2459 3747 2459 3466 
Q 2459 3003 1878 2509 
Q 2269 2356 2469 2072 
Q 2669 1788 2669 1403 
Q 2669 853 2319 450 
Q 1863 -75 997 -75 
Q 569 -75 414 31 
Q 259 138 259 259 
Q 259 350 332 419 
Q 406 488 509 488 
Q 588 488 669 463 
Q 722 447 909 348 
Q 1097 250 1169 231 
Q 1284 197 1416 197 
Q 1734 197 1970 444 
Q 2206 691 2206 1028 
Q 2206 1275 2097 1509 
Q 2016 1684 1919 1775 
Q 1784 1900 1550 2001 
Q 1316 2103 1072 2103 
L 972 2103 
L 972 2197 
Q 1219 2228 1467 2375 
Q 1716 2522 1828 2728 
Q 1941 2934 1941 3181 
Q 1941 3503 1739 3701 
Q 1538 3900 1238 3900 
Q 753 3900 428 3381 
L 325 3431 
z
" transform="scale(0.015625)"/>
       </defs>
       <use xlink:href="#TimesNewRomanPSMT-33"/>
       <use xlink:href="#TimesNewRomanPSMT-30" x="50"/>
      </g>
     </g>
    </g>
    <g id="xtick_5">
     <g id="line2d_9">
      <path d="M 313.95167 178.783822 
L 313.95167 3.00024 
" clip-path="url(#p5690b385d8)" style="fill: none; stroke-dasharray: 1.85,0.8; stroke-dashoffset: 0; stroke: #b2b2b2; stroke-width: 0.5"/>
     </g>
     <g id="line2d_10">
      <g>
       <use xlink:href="#mce1b6f01cb" x="313.95167" y="178.783822" style="stroke: #000000; stroke-width: 0.8"/>
      </g>
     </g>
     <g id="text_5">
      <!-- 40 -->
      <g transform="translate(306.95167 192.005072) scale(0.14 -0.14)">
       <defs>
        <path id="TimesNewRomanPSMT-34" d="M 2978 1563 
L 2978 1119 
L 2409 1119 
L 2409 0 
L 1894 0 
L 1894 1119 
L 100 1119 
L 100 1519 
L 2066 4325 
L 2409 4325 
L 2409 1563 
L 2978 1563 
z
M 1894 1563 
L 1894 3666 
L 406 1563 
L 1894 1563 
z
" transform="scale(0.015625)"/>
       </defs>
       <use xlink:href="#TimesNewRomanPSMT-34"/>
       <use xlink:href="#TimesNewRomanPSMT-30" x="50"/>
      </g>
     </g>
    </g>
    <g id="text_6">
     <!-- $\it x$ $[dx]$ -->
     <g transform="translate(176.331136 209.49976) scale(0.14 -0.14)">
      <defs>
       <path id="Cmmi10-78" d="M 500 184 
Q 613 97 819 97 
Q 1019 97 1172 289 
Q 1325 481 1381 709 
L 1672 1844 
Q 1741 2153 1741 2266 
Q 1741 2425 1652 2544 
Q 1563 2663 1403 2663 
Q 1200 2663 1022 2536 
Q 844 2409 722 2214 
Q 600 2019 550 1819 
Q 538 1778 500 1778 
L 422 1778 
Q 372 1778 372 1838 
L 372 1856 
Q 434 2094 584 2320 
Q 734 2547 951 2687 
Q 1169 2828 1416 2828 
Q 1650 2828 1839 2703 
Q 2028 2578 2106 2363 
Q 2216 2559 2386 2693 
Q 2556 2828 2759 2828 
Q 2897 2828 3040 2779 
Q 3184 2731 3275 2631 
Q 3366 2531 3366 2381 
Q 3366 2219 3261 2101 
Q 3156 1984 2994 1984 
Q 2891 1984 2822 2050 
Q 2753 2116 2753 2216 
Q 2753 2350 2845 2451 
Q 2938 2553 3066 2572 
Q 2950 2663 2747 2663 
Q 2541 2663 2389 2472 
Q 2238 2281 2175 2047 
L 1894 916 
Q 1825 659 1825 494 
Q 1825 331 1917 214 
Q 2009 97 2163 97 
Q 2463 97 2698 361 
Q 2934 625 3009 941 
Q 3022 978 3059 978 
L 3138 978 
Q 3163 978 3178 961 
Q 3194 944 3194 922 
Q 3194 916 3188 903 
Q 3097 522 2806 225 
Q 2516 -72 2150 -72 
Q 1916 -72 1727 54 
Q 1538 181 1459 397 
Q 1359 209 1182 68 
Q 1006 -72 806 -72 
Q 669 -72 523 -23 
Q 378 25 287 125 
Q 197 225 197 378 
Q 197 528 301 651 
Q 406 775 563 775 
Q 669 775 741 711 
Q 813 647 813 544 
Q 813 409 723 309 
Q 634 209 500 184 
z
" transform="scale(0.015625)"/>
       <path id="TimesNewRomanPSMT-20" transform="scale(0.015625)"/>
       <path id="Cmr10-5b" d="M 756 -1600 
L 756 4800 
L 1631 4800 
L 1631 4544 
L 1013 4544 
L 1013 -1344 
L 1631 -1344 
L 1631 -1600 
L 756 -1600 
z
" transform="scale(0.015625)"/>
       <path id="Cmr10-64" d="M 1563 -72 
Q 1184 -72 871 133 
Q 559 338 386 672 
Q 213 1006 213 1381 
Q 213 1769 402 2101 
Q 591 2434 916 2631 
Q 1241 2828 1631 2828 
Q 1866 2828 2075 2729 
Q 2284 2631 2438 2456 
L 2438 3788 
Q 2438 3959 2386 4036 
Q 2334 4113 2239 4130 
Q 2144 4147 1941 4147 
L 1941 4372 
L 2888 4441 
L 2888 581 
Q 2888 413 2939 336 
Q 2991 259 3086 242 
Q 3181 225 3384 225 
L 3384 0 
L 2419 -72 
L 2419 331 
Q 2253 141 2025 34 
Q 1797 -72 1563 -72 
z
M 909 556 
Q 1019 347 1201 222 
Q 1384 97 1600 97 
Q 1866 97 2087 250 
Q 2309 403 2419 647 
L 2419 2181 
Q 2344 2322 2230 2433 
Q 2116 2544 1973 2603 
Q 1831 2663 1672 2663 
Q 1338 2663 1134 2473 
Q 931 2284 850 1990 
Q 769 1697 769 1375 
Q 769 1119 795 928 
Q 822 738 909 556 
z
" transform="scale(0.015625)"/>
       <path id="Cmr10-78" d="M 78 0 
L 78 225 
Q 322 225 537 320 
Q 753 416 903 603 
L 1484 1344 
L 728 2328 
Q 616 2469 483 2501 
Q 350 2534 109 2534 
L 109 2759 
L 1441 2759 
L 1441 2534 
Q 1356 2534 1282 2496 
Q 1209 2459 1209 2388 
Q 1209 2363 1228 2328 
L 1741 1663 
L 2125 2156 
Q 2203 2250 2203 2344 
Q 2203 2422 2151 2478 
Q 2100 2534 2016 2534 
L 2016 2759 
L 3194 2759 
L 3194 2534 
Q 2947 2534 2730 2439 
Q 2513 2344 2363 2156 
L 1856 1509 
L 2675 428 
Q 2797 288 2928 256 
Q 3059 225 3303 225 
L 3303 0 
L 1972 0 
L 1972 225 
Q 2050 225 2122 262 
Q 2194 300 2194 372 
Q 2194 400 2175 428 
L 1600 1191 
L 1141 603 
Q 1069 522 1069 416 
Q 1069 338 1122 281 
Q 1175 225 1247 225 
L 1247 0 
L 78 0 
z
" transform="scale(0.015625)"/>
       <path id="Cmr10-5d" d="M 141 -1600 
L 141 -1344 
L 763 -1344 
L 763 4544 
L 141 4544 
L 141 4800 
L 1019 4800 
L 1019 -1600 
L 141 -1600 
z
" transform="scale(0.015625)"/>
      </defs>
      <use xlink:href="#Cmmi10-78"/>
      <use xlink:href="#TimesNewRomanPSMT-20" transform="translate(57.080078 0)"/>
      <use xlink:href="#Cmr10-5b" transform="translate(82.080078 0)"/>
      <use xlink:href="#Cmr10-64" transform="translate(109.765625 0)"/>
      <use xlink:href="#Cmr10-78" transform="translate(165.283203 0)"/>
      <use xlink:href="#Cmr10-5d" transform="translate(217.96875 0)"/>
     </g>
    </g>
   </g>
   <g id="matplotlib.axis_2">
    <g id="ytick_1">
     <g id="line2d_11">
      <path d="M 46.394928 171.806486 
L 340.707344 171.806486 
" clip-path="url(#p5690b385d8)" style="fill: none; stroke-dasharray: 1.85,0.8; stroke-dashoffset: 0; stroke: #b2b2b2; stroke-width: 0.5"/>
     </g>
     <g id="line2d_12">
      <defs>
       <path id="mf3d2a4e6af" d="M 0 0 
L 3.5 0 
" style="stroke: #000000; stroke-width: 0.8"/>
      </defs>
      <g>
       <use xlink:href="#mf3d2a4e6af" x="46.394928" y="171.806486" style="stroke: #000000; stroke-width: 0.8"/>
      </g>
     </g>
     <g id="text_7">
      <!-- −20 -->
      <g transform="translate(21.00024 176.667111) scale(0.14 -0.14)">
       <defs>
        <path id="TimesNewRomanPSMT-2212" d="M 3484 2000 
L 116 2000 
L 116 2256 
L 3484 2256 
L 3484 2000 
z
" transform="scale(0.015625)"/>
       </defs>
       <use xlink:href="#TimesNewRomanPSMT-2212"/>
       <use xlink:href="#TimesNewRomanPSMT-32" x="56.396484"/>
       <use xlink:href="#TimesNewRomanPSMT-30" x="106.396484"/>
      </g>
     </g>
    </g>
    <g id="ytick_2">
     <g id="line2d_13">
      <path d="M 46.394928 133.813146 
L 340.707344 133.813146 
" clip-path="url(#p5690b385d8)" style="fill: none; stroke-dasharray: 1.85,0.8; stroke-dashoffset: 0; stroke: #b2b2b2; stroke-width: 0.5"/>
     </g>
     <g id="line2d_14">
      <g>
       <use xlink:href="#mf3d2a4e6af" x="46.394928" y="133.813146" style="stroke: #000000; stroke-width: 0.8"/>
      </g>
     </g>
     <g id="text_8">
      <!-- −15 -->
      <g transform="translate(21.00024 138.673771) scale(0.14 -0.14)">
       <defs>
        <path id="TimesNewRomanPSMT-35" d="M 2778 4238 
L 2534 3706 
L 1259 3706 
L 981 3138 
Q 1809 3016 2294 2522 
Q 2709 2097 2709 1522 
Q 2709 1188 2573 903 
Q 2438 619 2231 419 
Q 2025 219 1772 97 
Q 1413 -75 1034 -75 
Q 653 -75 479 54 
Q 306 184 306 341 
Q 306 428 378 495 
Q 450 563 559 563 
Q 641 563 702 538 
Q 763 513 909 409 
Q 1144 247 1384 247 
Q 1750 247 2026 523 
Q 2303 800 2303 1197 
Q 2303 1581 2056 1914 
Q 1809 2247 1375 2428 
Q 1034 2569 447 2591 
L 1259 4238 
L 2778 4238 
z
" transform="scale(0.015625)"/>
       </defs>
       <use xlink:href="#TimesNewRomanPSMT-2212"/>
       <use xlink:href="#TimesNewRomanPSMT-31" x="56.396484"/>
       <use xlink:href="#TimesNewRomanPSMT-35" x="106.396484"/>
      </g>
     </g>
    </g>
    <g id="ytick_3">
     <g id="line2d_15">
      <path d="M 46.394928 95.819805 
L 340.707344 95.819805 
" clip-path="url(#p5690b385d8)" style="fill: none; stroke-dasharray: 1.85,0.8; stroke-dashoffset: 0; stroke: #b2b2b2; stroke-width: 0.5"/>
     </g>
     <g id="line2d_16">
      <g>
       <use xlink:href="#mf3d2a4e6af" x="46.394928" y="95.819805" style="stroke: #000000; stroke-width: 0.8"/>
      </g>
     </g>
     <g id="text_9">
      <!-- −10 -->
      <g transform="translate(21.00024 100.68043) scale(0.14 -0.14)">
       <use xlink:href="#TimesNewRomanPSMT-2212"/>
       <use xlink:href="#TimesNewRomanPSMT-31" x="56.396484"/>
       <use xlink:href="#TimesNewRomanPSMT-30" x="106.396484"/>
      </g>
     </g>
    </g>
    <g id="ytick_4">
     <g id="line2d_17">
      <path d="M 46.394928 57.826465 
L 340.707344 57.826465 
" clip-path="url(#p5690b385d8)" style="fill: none; stroke-dasharray: 1.85,0.8; stroke-dashoffset: 0; stroke: #b2b2b2; stroke-width: 0.5"/>
     </g>
     <g id="line2d_18">
      <g>
       <use xlink:href="#mf3d2a4e6af" x="46.394928" y="57.826465" style="stroke: #000000; stroke-width: 0.8"/>
      </g>
     </g>
     <g id="text_10">
      <!-- −5 -->
      <g transform="translate(28.00024 62.68709) scale(0.14 -0.14)">
       <use xlink:href="#TimesNewRomanPSMT-2212"/>
       <use xlink:href="#TimesNewRomanPSMT-35" x="56.396484"/>
      </g>
     </g>
    </g>
    <g id="ytick_5">
     <g id="line2d_19">
      <path d="M 46.394928 19.833125 
L 340.707344 19.833125 
" clip-path="url(#p5690b385d8)" style="fill: none; stroke-dasharray: 1.85,0.8; stroke-dashoffset: 0; stroke: #b2b2b2; stroke-width: 0.5"/>
     </g>
     <g id="line2d_20">
      <g>
       <use xlink:href="#mf3d2a4e6af" x="46.394928" y="19.833125" style="stroke: #000000; stroke-width: 0.8"/>
      </g>
     </g>
     <g id="text_11">
      <!-- 0 -->
      <g transform="translate(35.894928 24.69375) scale(0.14 -0.14)">
       <use xlink:href="#TimesNewRomanPSMT-30"/>
      </g>
     </g>
    </g>
    <g id="text_12">
     <!-- $\it \delta S_{21}$ $[dB]$ -->
     <g transform="translate(13.50024 118.122031) rotate(-90) scale(0.14 -0.14)">
      <defs>
       <path id="Cmmi10-b1" d="M 1281 -97 
Q 1059 -97 868 -14 
Q 678 69 536 225 
Q 394 381 325 573 
Q 256 766 256 991 
Q 256 1391 445 1767 
Q 634 2144 961 2419 
Q 1288 2694 1672 2791 
Q 1484 3138 1386 3389 
Q 1288 3641 1288 3903 
Q 1288 4097 1378 4245 
Q 1469 4394 1628 4478 
Q 1788 4563 1984 4563 
Q 2175 4563 2741 4434 
Q 2888 4400 2888 4263 
Q 2888 4156 2809 4068 
Q 2731 3981 2625 3981 
Q 2547 3981 2484 4017 
Q 2422 4053 2287 4143 
Q 2153 4234 2047 4282 
Q 1941 4331 1825 4331 
Q 1694 4331 1589 4251 
Q 1484 4172 1484 4044 
Q 1484 3841 1664 3577 
Q 1844 3313 2175 2900 
Q 2553 2419 2553 1838 
Q 2553 1550 2470 1215 
Q 2388 881 2230 584 
Q 2072 288 1826 95 
Q 1581 -97 1281 -97 
z
M 1294 78 
Q 1544 78 1723 337 
Q 1903 597 1995 955 
Q 2088 1313 2088 1556 
Q 2088 2034 1753 2631 
Q 1416 2538 1172 2238 
Q 928 1938 803 1547 
Q 678 1156 678 806 
Q 678 500 837 289 
Q 997 78 1294 78 
z
" transform="scale(0.015625)"/>
       <path id="Cmmi10-53" d="M 391 -141 
Q 372 -141 356 -119 
Q 341 -97 341 -78 
L 709 1416 
Q 722 1453 763 1453 
L 838 1453 
Q 863 1453 877 1434 
Q 891 1416 891 1388 
Q 838 1169 838 997 
Q 838 534 1156 309 
Q 1475 84 1959 84 
Q 2169 84 2372 187 
Q 2575 291 2726 456 
Q 2878 622 2968 826 
Q 3059 1031 3059 1241 
Q 3059 1466 2940 1642 
Q 2822 1819 2613 1869 
L 1831 2075 
Q 1516 2159 1328 2414 
Q 1141 2669 1141 2988 
Q 1141 3372 1369 3728 
Q 1597 4084 1964 4298 
Q 2331 4513 2713 4513 
Q 3006 4513 3251 4405 
Q 3497 4297 3628 4063 
L 3994 4494 
Q 4031 4513 4038 4513 
L 4078 4513 
Q 4103 4513 4118 4491 
Q 4134 4469 4134 4447 
L 3763 2963 
Q 3753 2919 3713 2919 
L 3634 2919 
Q 3578 2919 3578 2988 
Q 3609 3191 3609 3341 
Q 3609 3638 3507 3858 
Q 3406 4078 3201 4192 
Q 2997 4306 2694 4306 
Q 2438 4306 2184 4159 
Q 1931 4013 1775 3769 
Q 1619 3525 1619 3263 
Q 1619 3056 1739 2897 
Q 1859 2738 2059 2681 
L 2841 2478 
Q 3053 2422 3211 2280 
Q 3369 2138 3450 1942 
Q 3531 1747 3531 1516 
Q 3531 1213 3403 917 
Q 3275 622 3045 378 
Q 2816 134 2525 -3 
Q 2234 -141 1931 -141 
Q 1169 -141 838 306 
L 481 -122 
Q 444 -141 434 -141 
L 391 -141 
z
" transform="scale(0.015625)"/>
       <path id="Cmr10-32" d="M 319 0 
L 319 172 
Q 319 188 331 206 
L 1325 1306 
Q 1550 1550 1690 1715 
Q 1831 1881 1968 2097 
Q 2106 2313 2186 2536 
Q 2266 2759 2266 3009 
Q 2266 3272 2169 3511 
Q 2072 3750 1880 3894 
Q 1688 4038 1416 4038 
Q 1138 4038 916 3870 
Q 694 3703 603 3438 
Q 628 3444 672 3444 
Q 816 3444 917 3347 
Q 1019 3250 1019 3097 
Q 1019 2950 917 2848 
Q 816 2747 672 2747 
Q 522 2747 420 2851 
Q 319 2956 319 3097 
Q 319 3338 409 3548 
Q 500 3759 670 3923 
Q 841 4088 1055 4175 
Q 1269 4263 1509 4263 
Q 1875 4263 2190 4108 
Q 2506 3953 2690 3670 
Q 2875 3388 2875 3009 
Q 2875 2731 2753 2481 
Q 2631 2231 2440 2026 
Q 2250 1822 1953 1562 
Q 1656 1303 1563 1216 
L 838 519 
L 1453 519 
Q 1906 519 2211 526 
Q 2516 534 2534 550 
Q 2609 631 2688 1141 
L 2875 1141 
L 2694 0 
L 319 0 
z
" transform="scale(0.015625)"/>
       <path id="Cmr10-31" d="M 594 0 
L 594 225 
Q 1394 225 1394 428 
L 1394 3788 
Q 1063 3628 556 3628 
L 556 3853 
Q 1341 3853 1741 4263 
L 1831 4263 
Q 1853 4263 1873 4245 
Q 1894 4228 1894 4206 
L 1894 428 
Q 1894 225 2694 225 
L 2694 0 
L 594 0 
z
" transform="scale(0.015625)"/>
       <path id="Cmr10-42" d="M 219 0 
L 219 225 
Q 878 225 878 428 
L 878 3944 
Q 878 4147 219 4147 
L 219 4372 
L 2572 4372 
Q 2897 4372 3228 4245 
Q 3559 4119 3776 3870 
Q 3994 3622 3994 3284 
Q 3994 2894 3673 2630 
Q 3353 2366 2925 2284 
Q 3203 2284 3497 2131 
Q 3791 1978 3978 1722 
Q 4166 1466 4166 1178 
Q 4166 828 3958 559 
Q 3750 291 3419 145 
Q 3088 0 2753 0 
L 219 0 
z
M 1434 428 
Q 1434 291 1512 258 
Q 1591 225 1759 225 
L 2572 225 
Q 2822 225 3036 356 
Q 3250 488 3375 708 
Q 3500 928 3500 1178 
Q 3500 1422 3397 1655 
Q 3294 1888 3101 2038 
Q 2909 2188 2663 2188 
L 1434 2188 
L 1434 428 
z
M 1434 2356 
L 2394 2356 
Q 2588 2356 2758 2426 
Q 2928 2497 3064 2630 
Q 3200 2763 3273 2930 
Q 3347 3097 3347 3284 
Q 3347 3450 3292 3603 
Q 3238 3756 3131 3881 
Q 3025 4006 2881 4076 
Q 2738 4147 2572 4147 
L 1759 4147 
Q 1644 4147 1580 4137 
Q 1516 4128 1475 4083 
Q 1434 4038 1434 3944 
L 1434 2356 
z
" transform="scale(0.015625)"/>
      </defs>
      <use xlink:href="#Cmmi10-b1"/>
      <use xlink:href="#Cmmi10-53" transform="translate(44.384766 0)"/>
      <use xlink:href="#Cmr10-32" transform="translate(105.664062 -17.00625) scale(0.7)"/>
      <use xlink:href="#Cmr10-31" transform="translate(140.664062 -17.00625) scale(0.7)"/>
      <use xlink:href="#TimesNewRomanPSMT-20" transform="translate(182.041406 0)"/>
      <use xlink:href="#Cmr10-5b" transform="translate(207.041406 0)"/>
      <use xlink:href="#Cmr10-64" transform="translate(234.726953 0)"/>
      <use xlink:href="#Cmr10-42" transform="translate(290.244531 0)"/>
      <use xlink:href="#Cmr10-5d" transform="translate(361.045313 0)"/>
     </g>
    </g>
   </g>
   <g id="line2d_21">
    <path d="M 46.394928 17.022529 
L 53.083846 39.020142 
L 59.772765 31.516761 
L 66.461683 32.082406 
L 73.150602 38.085505 
L 79.83952 39.613902 
L 86.528439 54.360333 
L 93.217357 48.783518 
L 99.906276 50.455149 
L 106.595194 41.488265 
L 113.284113 40.46822 
L 119.973032 58.476987 
L 126.66195 53.991417 
L 133.350869 40.026889 
L 140.039787 42.538553 
L 146.728706 37.0878 
L 153.417624 35.354848 
L 160.106543 18.415973 
L 166.795461 37.470165 
L 173.48438 22.241295 
L 180.173299 32.711196 
L 186.862217 23.387706 
L 193.551136 25.621486 
L 200.240054 29.81086 
L 206.928973 37.281794 
L 213.617891 27.851011 
L 220.30681 34.723323 
L 226.995728 26.287358 
L 233.684647 21.895023 
L 240.373565 16.295717 
L 247.062484 25.423997 
L 253.751403 27.151174 
L 260.440321 62.479282 
L 267.12924 156.727613 
L 273.818158 170.79366 
L 280.507077 140.031364 
L 287.195995 52.452611 
L 293.884914 27.319333 
L 300.573832 28.189684 
L 307.262751 27.40421 
L 313.95167 21.732944 
L 320.640588 23.974399 
L 327.329507 27.302692 
L 334.018425 31.321019 
L 340.707344 28.34956 
" clip-path="url(#p5690b385d8)" style="fill: none; stroke: #0000ff; stroke-linecap: square"/>
   </g>
   <g id="patch_3">
    <path d="M 46.394928 178.783822 
L 46.394928 3.00024 
" style="fill: none; stroke: #bcbcbc; stroke-width: 0.8; stroke-linejoin: miter; stroke-linecap: square"/>
   </g>
   <g id="patch_4">
    <path d="M 340.707344 178.783822 
L 340.707344 3.00024 
" style="fill: none; stroke: #bcbcbc; stroke-width: 0.8; stroke-linejoin: miter; stroke-linecap: square"/>
   </g>
   <g id="patch_5">
    <path d="M 46.394928 178.783822 
L 340.707344 178.783822 
" style="fill: none; stroke: #bcbcbc; stroke-width: 0.8; stroke-linejoin: miter; stroke-linecap: square"/>
   </g>
   <g id="patch_6">
    <path d="M 46.394928 3.00024 
L 340.707344 3.00024 
" style="fill: none; stroke: #bcbcbc; stroke-width: 0.8; stroke-linejoin: miter; stroke-linecap: square"/>
   </g>
  </g>
  <g id="axes_2">
   <g id="patch_7">
    <path d="M 350.687344 178.783822 
L 644.99976 178.783822 
L 644.99976 3.00024 
L 350.687344 3.00024 
z
" style="fill: #eeeeee"/>
   </g>
   <g id="matplotlib.axis_3">
    <g id="xtick_6">
     <g id="line2d_22">
      <path d="M 350.687344 178.783822 
L 350.687344 3.00024 
" clip-path="url(#pd1a202c50f)" style="fill: none; stroke-dasharray: 1.85,0.8; stroke-dashoffset: 0; stroke: #b2b2b2; stroke-width: 0.5"/>
     </g>
     <g id="line2d_23">
      <g>
       <use xlink:href="#mce1b6f01cb" x="350.687344" y="178.783822" style="stroke: #000000; stroke-width: 0.8"/>
      </g>
     </g>
     <g id="text_13">
      <!-- 0 -->
      <g transform="translate(347.187344 192.005072) scale(0.14 -0.14)">
       <use xlink:href="#TimesNewRomanPSMT-30"/>
      </g>
     </g>
    </g>
    <g id="xtick_7">
     <g id="line2d_24">
      <path d="M 417.576529 178.783822 
L 417.576529 3.00024 
" clip-path="url(#pd1a202c50f)" style="fill: none; stroke-dasharray: 1.85,0.8; stroke-dashoffset: 0; stroke: #b2b2b2; stroke-width: 0.5"/>
     </g>
     <g id="line2d_25">
      <g>
       <use xlink:href="#mce1b6f01cb" x="417.576529" y="178.783822" style="stroke: #000000; stroke-width: 0.8"/>
      </g>
     </g>
     <g id="text_14">
      <!-- 10 -->
      <g transform="translate(410.576529 192.005072) scale(0.14 -0.14)">
       <use xlink:href="#TimesNewRomanPSMT-31"/>
       <use xlink:href="#TimesNewRomanPSMT-30" x="50"/>
      </g>
     </g>
    </g>
    <g id="xtick_8">
     <g id="line2d_26">
      <path d="M 484.465715 178.783822 
L 484.465715 3.00024 
" clip-path="url(#pd1a202c50f)" style="fill: none; stroke-dasharray: 1.85,0.8; stroke-dashoffset: 0; stroke: #b2b2b2; stroke-width: 0.5"/>
     </g>
     <g id="line2d_27">
      <g>
       <use xlink:href="#mce1b6f01cb" x="484.465715" y="178.783822" style="stroke: #000000; stroke-width: 0.8"/>
      </g>
     </g>
     <g id="text_15">
      <!-- 20 -->
      <g transform="translate(477.465715 192.005072) scale(0.14 -0.14)">
       <use xlink:href="#TimesNewRomanPSMT-32"/>
       <use xlink:href="#TimesNewRomanPSMT-30" x="50"/>
      </g>
     </g>
    </g>
    <g id="xtick_9">
     <g id="line2d_28">
      <path d="M 551.3549 178.783822 
L 551.3549 3.00024 
" clip-path="url(#pd1a202c50f)" style="fill: none; stroke-dasharray: 1.85,0.8; stroke-dashoffset: 0; stroke: #b2b2b2; stroke-width: 0.5"/>
     </g>
     <g id="line2d_29">
      <g>
       <use xlink:href="#mce1b6f01cb" x="551.3549" y="178.783822" style="stroke: #000000; stroke-width: 0.8"/>
      </g>
     </g>
     <g id="text_16">
      <!-- 30 -->
      <g transform="translate(544.3549 192.005072) scale(0.14 -0.14)">
       <use xlink:href="#TimesNewRomanPSMT-33"/>
       <use xlink:href="#TimesNewRomanPSMT-30" x="50"/>
      </g>
     </g>
    </g>
    <g id="xtick_10">
     <g id="line2d_30">
      <path d="M 618.244086 178.783822 
L 618.244086 3.00024 
" clip-path="url(#pd1a202c50f)" style="fill: none; stroke-dasharray: 1.85,0.8; stroke-dashoffset: 0; stroke: #b2b2b2; stroke-width: 0.5"/>
     </g>
     <g id="line2d_31">
      <g>
       <use xlink:href="#mce1b6f01cb" x="618.244086" y="178.783822" style="stroke: #000000; stroke-width: 0.8"/>
      </g>
     </g>
     <g id="text_17">
      <!-- 40 -->
      <g transform="translate(611.244086 192.005072) scale(0.14 -0.14)">
       <use xlink:href="#TimesNewRomanPSMT-34"/>
       <use xlink:href="#TimesNewRomanPSMT-30" x="50"/>
      </g>
     </g>
    </g>
    <g id="text_18">
     <!-- $\it y$ $[dy]$ -->
     <g transform="translate(481.183552 209.49976) scale(0.14 -0.14)">
      <defs>
       <path id="Cmmi10-79" d="M 538 -916 
Q 672 -1147 1006 -1147 
Q 1309 -1147 1531 -934 
Q 1753 -722 1889 -420 
Q 2025 -119 2100 197 
Q 1816 -72 1484 -72 
Q 1231 -72 1053 15 
Q 875 103 776 276 
Q 678 450 678 697 
Q 678 906 734 1126 
Q 791 1347 892 1617 
Q 994 1888 1069 2088 
Q 1153 2322 1153 2472 
Q 1153 2663 1013 2663 
Q 759 2663 595 2402 
Q 431 2141 353 1819 
Q 341 1778 300 1778 
L 225 1778 
Q 172 1778 172 1838 
L 172 1856 
Q 275 2238 487 2533 
Q 700 2828 1025 2828 
Q 1253 2828 1411 2678 
Q 1569 2528 1569 2297 
Q 1569 2178 1516 2047 
Q 1488 1969 1388 1706 
Q 1288 1444 1234 1272 
Q 1181 1100 1147 934 
Q 1113 769 1113 603 
Q 1113 391 1203 244 
Q 1294 97 1491 97 
Q 1888 97 2203 581 
L 2688 2553 
Q 2709 2638 2787 2698 
Q 2866 2759 2956 2759 
Q 3034 2759 3092 2709 
Q 3150 2659 3150 2578 
Q 3150 2541 3144 2528 
L 2509 -19 
Q 2425 -347 2200 -647 
Q 1975 -947 1658 -1130 
Q 1341 -1313 997 -1313 
Q 831 -1313 668 -1248 
Q 506 -1184 406 -1056 
Q 306 -928 306 -756 
Q 306 -581 409 -453 
Q 513 -325 684 -325 
Q 788 -325 858 -389 
Q 928 -453 928 -556 
Q 928 -703 818 -812 
Q 709 -922 563 -922 
Q 556 -919 550 -917 
Q 544 -916 538 -916 
z
" transform="scale(0.015625)"/>
       <path id="Cmr10-79" d="M 441 -1050 
Q 563 -1147 709 -1147 
Q 1113 -1147 1369 -538 
L 1588 0 
L 628 2350 
Q 569 2469 447 2501 
Q 325 2534 122 2534 
L 122 2759 
L 1466 2759 
L 1466 2534 
Q 1113 2534 1113 2381 
Q 1113 2356 1119 2344 
L 1831 594 
L 2472 2169 
Q 2491 2219 2491 2278 
Q 2491 2356 2448 2414 
Q 2406 2472 2339 2503 
Q 2272 2534 2188 2534 
L 2188 2759 
L 3250 2759 
L 3250 2534 
Q 3053 2534 2904 2443 
Q 2756 2353 2675 2175 
L 1569 -538 
Q 1481 -744 1364 -917 
Q 1247 -1091 1078 -1202 
Q 909 -1313 709 -1313 
Q 475 -1313 298 -1158 
Q 122 -1003 122 -775 
Q 122 -656 203 -575 
Q 284 -494 403 -494 
Q 484 -494 548 -530 
Q 613 -566 648 -628 
Q 684 -691 684 -775 
Q 684 -878 615 -959 
Q 547 -1041 441 -1050 
z
" transform="scale(0.015625)"/>
      </defs>
      <use xlink:href="#Cmmi10-79"/>
      <use xlink:href="#TimesNewRomanPSMT-20" transform="translate(49.023438 0)"/>
      <use xlink:href="#Cmr10-5b" transform="translate(74.023438 0)"/>
      <use xlink:href="#Cmr10-64" transform="translate(101.708984 0)"/>
      <use xlink:href="#Cmr10-79" transform="translate(157.226562 0)"/>
      <use xlink:href="#Cmr10-5d" transform="translate(209.912109 0)"/>
     </g>
    </g>
   </g>
   <g id="matplotlib.axis_4">
    <g id="ytick_6">
     <g id="line2d_32">
      <path d="M 350.687344 171.806486 
L 644.99976 171.806486 
" clip-path="url(#pd1a202c50f)" style="fill: none; stroke-dasharray: 1.85,0.8; stroke-dashoffset: 0; stroke: #b2b2b2; stroke-width: 0.5"/>
     </g>
     <g id="line2d_33">
      <g>
       <use xlink:href="#mf3d2a4e6af" x="350.687344" y="171.806486" style="stroke: #000000; stroke-width: 0.8"/>
      </g>
     </g>
    </g>
    <g id="ytick_7">
     <g id="line2d_34">
      <path d="M 350.687344 133.813146 
L 644.99976 133.813146 
" clip-path="url(#pd1a202c50f)" style="fill: none; stroke-dasharray: 1.85,0.8; stroke-dashoffset: 0; stroke: #b2b2b2; stroke-width: 0.5"/>
     </g>
     <g id="line2d_35">
      <g>
       <use xlink:href="#mf3d2a4e6af" x="350.687344" y="133.813146" style="stroke: #000000; stroke-width: 0.8"/>
      </g>
     </g>
    </g>
    <g id="ytick_8">
     <g id="line2d_36">
      <path d="M 350.687344 95.819805 
L 644.99976 95.819805 
" clip-path="url(#pd1a202c50f)" style="fill: none; stroke-dasharray: 1.85,0.8; stroke-dashoffset: 0; stroke: #b2b2b2; stroke-width: 0.5"/>
     </g>
     <g id="line2d_37">
      <g>
       <use xlink:href="#mf3d2a4e6af" x="350.687344" y="95.819805" style="stroke: #000000; stroke-width: 0.8"/>
      </g>
     </g>
    </g>
    <g id="ytick_9">
     <g id="line2d_38">
      <path d="M 350.687344 57.826465 
L 644.99976 57.826465 
" clip-path="url(#pd1a202c50f)" style="fill: none; stroke-dasharray: 1.85,0.8; stroke-dashoffset: 0; stroke: #b2b2b2; stroke-width: 0.5"/>
     </g>
     <g id="line2d_39">
      <g>
       <use xlink:href="#mf3d2a4e6af" x="350.687344" y="57.826465" style="stroke: #000000; stroke-width: 0.8"/>
      </g>
     </g>
    </g>
    <g id="ytick_10">
     <g id="line2d_40">
      <path d="M 350.687344 19.833125 
L 644.99976 19.833125 
" clip-path="url(#pd1a202c50f)" style="fill: none; stroke-dasharray: 1.85,0.8; stroke-dashoffset: 0; stroke: #b2b2b2; stroke-width: 0.5"/>
     </g>
     <g id="line2d_41">
      <g>
       <use xlink:href="#mf3d2a4e6af" x="350.687344" y="19.833125" style="stroke: #000000; stroke-width: 0.8"/>
      </g>
     </g>
    </g>
   </g>
   <g id="line2d_42">
    <path d="M 350.687344 28.857531 
L 357.376262 28.938077 
L 364.065181 49.124167 
L 370.754099 47.838092 
L 377.443018 139.545201 
L 384.131937 165.86524 
L 390.820855 160.415095 
L 397.509774 58.257082 
L 404.198692 21.029003 
L 410.887611 25.851498 
L 417.576529 29.102892 
L 424.265448 20.78653 
L 430.954366 26.319652 
L 437.643285 26.778155 
L 444.332203 23.452142 
L 451.021122 29.957742 
L 457.710041 10.990403 
L 464.398959 31.734007 
L 471.087878 18.817335 
L 477.776796 31.984763 
L 484.465715 22.276477 
L 491.154633 27.805115 
L 497.843552 28.035963 
L 504.53247 26.99335 
L 511.221389 35.125976 
L 517.910308 14.529786 
L 524.599226 19.348558 
L 531.288145 22.155658 
L 537.977063 29.37462 
L 544.665982 35.557277 
L 551.3549 36.811209 
L 558.043819 24.935478 
L 564.732737 30.513281 
L 571.421656 22.945539 
L 578.110574 22.059535 
L 584.799493 18.584588 
L 591.488412 36.544116 
L 598.17733 28.252753 
L 604.866249 30.343299 
L 611.555167 24.83396 
L 618.244086 36.651181 
L 624.933004 41.851177 
L 631.621923 20.713127 
L 638.310841 28.204653 
L 644.99976 32.32222 
" clip-path="url(#pd1a202c50f)" style="fill: none; stroke: #0000ff; stroke-linecap: square"/>
   </g>
   <g id="patch_8">
    <path d="M 350.687344 178.783822 
L 350.687344 3.00024 
" style="fill: none; stroke: #bcbcbc; stroke-width: 0.8; stroke-linejoin: miter; stroke-linecap: square"/>
   </g>
   <g id="patch_9">
    <path d="M 644.99976 178.783822 
L 644.99976 3.00024 
" style="fill: none; stroke: #bcbcbc; stroke-width: 0.8; stroke-linejoin: miter; stroke-linecap: square"/>
   </g>
   <g id="patch_10">
    <path d="M 350.687344 178.783822 
L 644.99976 178.783822 
" style="fill: none; stroke: #bcbcbc; stroke-width: 0.8; stroke-linejoin: miter; stroke-linecap: square"/>
   </g>
   <g id="patch_11">
    <path d="M 350.687344 3.00024 
L 644.99976 3.00024 
" style="fill: none; stroke: #bcbcbc; stroke-width: 0.8; stroke-linejoin: miter; stroke-linecap: square"/>
   </g>
  </g>
 </g>
 <defs>
  <clipPath id="p5690b385d8">
   <rect x="46.394928" y="3.00024" width="294.312416" height="175.783582"/>
  </clipPath>
  <clipPath id="pd1a202c50f">
   <rect x="350.687344" y="3.00024" width="294.312416" height="175.783582"/>
  </clipPath>
 </defs>
</svg>
