<?xml version="1.0" encoding="utf-8" standalone="no"?>
<!DOCTYPE svg PUBLIC "-//W3C//DTD SVG 1.1//EN"
  "http://www.w3.org/Graphics/SVG/1.1/DTD/svg11.dtd">
<svg xmlns:xlink="http://www.w3.org/1999/xlink" width="360pt" height="288pt" viewBox="0 0 360 288" xmlns="http://www.w3.org/2000/svg" version="1.1">
 <metadata>
  <rdf:RDF xmlns:dc="http://purl.org/dc/elements/1.1/" xmlns:cc="http://creativecommons.org/ns#" xmlns:rdf="http://www.w3.org/1999/02/22-rdf-syntax-ns#">
   <cc:Work>
    <dc:type rdf:resource="http://purl.org/dc/dcmitype/StillImage"/>
    <dc:date>2025-05-22T16:47:09.758968</dc:date>
    <dc:format>image/svg+xml</dc:format>
    <dc:creator>
     <cc:Agent>
      <dc:title>Matplotlib v3.8.4, https://matplotlib.org/</dc:title>
     </cc:Agent>
    </dc:creator>
   </cc:Work>
  </rdf:RDF>
 </metadata>
 <defs>
  <style type="text/css">*{stroke-linejoin: round; stroke-linecap: butt}</style>
 </defs>
 <g id="figure_1">
  <g id="patch_1">
   <path d="M 0 288 
L 360 288 
L 360 0 
L 0 0 
z
" style="fill: #ffffff"/>
  </g>
  <g id="axes_1">
   <g id="patch_2">
    <path d="M 34.063017 255.100333 
L 350.822509 255.100333 
L 350.822509 3.00024 
L 34.063017 3.00024 
z
" style="fill: #ffffff"/>
   </g>
   <g id="patch_3">
    <path d="M 34.063017 255.100333 
L 44.985758 255.100333 
L 44.985758 255.100333 
L 34.063017 255.100333 
z
" clip-path="url(#p58e5675b0a)" style="fill: #0072bd"/>
   </g>
   <g id="patch_4">
    <path d="M 44.985758 255.100333 
L 55.908499 255.100333 
L 55.908499 255.100333 
L 44.985758 255.100333 
z
" clip-path="url(#p58e5675b0a)" style="fill: #0072bd"/>
   </g>
   <g id="patch_5">
    <path d="M 55.908499 255.100333 
L 66.83124 255.100333 
L 66.83124 255.100333 
L 55.908499 255.100333 
z
" clip-path="url(#p58e5675b0a)" style="fill: #0072bd"/>
   </g>
   <g id="patch_6">
    <path d="M 66.83124 255.100333 
L 77.753981 255.100333 
L 77.753981 255.100333 
L 66.83124 255.100333 
z
" clip-path="url(#p58e5675b0a)" style="fill: #0072bd"/>
   </g>
   <g id="patch_7">
    <path d="M 77.753981 255.100333 
L 88.676722 255.100333 
L 88.676722 255.100333 
L 77.753981 255.100333 
z
" clip-path="url(#p58e5675b0a)" style="fill: #0072bd"/>
   </g>
   <g id="patch_8">
    <path d="M 88.676722 255.100333 
L 99.599463 255.100333 
L 99.599463 255.100333 
L 88.676722 255.100333 
z
" clip-path="url(#p58e5675b0a)" style="fill: #0072bd"/>
   </g>
   <g id="patch_9">
    <path d="M 99.599463 255.100333 
L 110.522204 255.100333 
L 110.522204 255.100333 
L 99.599463 255.100333 
z
" clip-path="url(#p58e5675b0a)" style="fill: #0072bd"/>
   </g>
   <g id="patch_10">
    <path d="M 110.522204 255.100333 
L 121.444946 255.100333 
L 121.444946 251.406559 
L 110.522204 251.406559 
z
" clip-path="url(#p58e5675b0a)" style="fill: #0072bd"/>
   </g>
   <g id="patch_11">
    <path d="M 121.444946 255.100333 
L 132.367687 255.100333 
L 132.367687 244.01901 
L 121.444946 244.01901 
z
" clip-path="url(#p58e5675b0a)" style="fill: #0072bd"/>
   </g>
   <g id="patch_12">
    <path d="M 132.367687 255.100333 
L 143.290428 255.100333 
L 143.290428 225.550139 
L 132.367687 225.550139 
z
" clip-path="url(#p58e5675b0a)" style="fill: #0072bd"/>
   </g>
   <g id="patch_13">
    <path d="M 143.290428 255.100333 
L 154.213169 255.100333 
L 154.213169 232.937688 
L 143.290428 232.937688 
z
" clip-path="url(#p58e5675b0a)" style="fill: #0072bd"/>
   </g>
   <g id="patch_14">
    <path d="M 154.213169 255.100333 
L 165.13591 255.100333 
L 165.13591 221.856365 
L 154.213169 221.856365 
z
" clip-path="url(#p58e5675b0a)" style="fill: #0072bd"/>
   </g>
   <g id="patch_15">
    <path d="M 165.13591 255.100333 
L 176.058651 255.100333 
L 176.058651 218.162591 
L 165.13591 218.162591 
z
" clip-path="url(#p58e5675b0a)" style="fill: #0072bd"/>
   </g>
   <g id="patch_16">
    <path d="M 176.058651 255.100333 
L 186.981392 255.100333 
L 186.981392 195.999945 
L 176.058651 195.999945 
z
" clip-path="url(#p58e5675b0a)" style="fill: #0072bd"/>
   </g>
   <g id="patch_17">
    <path d="M 186.981392 255.100333 
L 197.904134 255.100333 
L 197.904134 199.693719 
L 186.981392 199.693719 
z
" clip-path="url(#p58e5675b0a)" style="fill: #0072bd"/>
   </g>
   <g id="patch_18">
    <path d="M 197.904134 255.100333 
L 208.826875 255.100333 
L 208.826875 177.531074 
L 197.904134 177.531074 
z
" clip-path="url(#p58e5675b0a)" style="fill: #0072bd"/>
   </g>
   <g id="patch_19">
    <path d="M 208.826875 255.100333 
L 219.749616 255.100333 
L 219.749616 155.368428 
L 208.826875 155.368428 
z
" clip-path="url(#p58e5675b0a)" style="fill: #0072bd"/>
   </g>
   <g id="patch_20">
    <path d="M 219.749616 255.100333 
L 230.672357 255.100333 
L 230.672357 170.143525 
L 219.749616 170.143525 
z
" clip-path="url(#p58e5675b0a)" style="fill: #0072bd"/>
   </g>
   <g id="patch_21">
    <path d="M 230.672357 255.100333 
L 241.595098 255.100333 
L 241.595098 107.349363 
L 230.672357 107.349363 
z
" clip-path="url(#p58e5675b0a)" style="fill: #0072bd"/>
   </g>
   <g id="patch_22">
    <path d="M 241.595098 255.100333 
L 252.517839 255.100333 
L 252.517839 151.674654 
L 241.595098 151.674654 
z
" clip-path="url(#p58e5675b0a)" style="fill: #0072bd"/>
   </g>
   <g id="patch_23">
    <path d="M 252.517839 255.100333 
L 263.44058 255.100333 
L 263.44058 155.368428 
L 252.517839 155.368428 
z
" clip-path="url(#p58e5675b0a)" style="fill: #0072bd"/>
   </g>
   <g id="patch_24">
    <path d="M 263.44058 255.100333 
L 274.363321 255.100333 
L 274.363321 155.368428 
L 263.44058 155.368428 
z
" clip-path="url(#p58e5675b0a)" style="fill: #0072bd"/>
   </g>
   <g id="patch_25">
    <path d="M 274.363321 255.100333 
L 285.286063 255.100333 
L 285.286063 166.449751 
L 274.363321 166.449751 
z
" clip-path="url(#p58e5675b0a)" style="fill: #0072bd"/>
   </g>
   <g id="patch_26">
    <path d="M 285.286063 255.100333 
L 296.208804 255.100333 
L 296.208804 99.961814 
L 285.286063 99.961814 
z
" clip-path="url(#p58e5675b0a)" style="fill: #0072bd"/>
   </g>
   <g id="patch_27">
    <path d="M 296.208804 255.100333 
L 307.131545 255.100333 
L 307.131545 162.755977 
L 296.208804 162.755977 
z
" clip-path="url(#p58e5675b0a)" style="fill: #0072bd"/>
   </g>
   <g id="patch_28">
    <path d="M 307.131545 255.100333 
L 318.054286 255.100333 
L 318.054286 181.224848 
L 307.131545 181.224848 
z
" clip-path="url(#p58e5675b0a)" style="fill: #0072bd"/>
   </g>
   <g id="patch_29">
    <path d="M 318.054286 255.100333 
L 328.977027 255.100333 
L 328.977027 210.775042 
L 318.054286 210.775042 
z
" clip-path="url(#p58e5675b0a)" style="fill: #0072bd"/>
   </g>
   <g id="patch_30">
    <path d="M 328.977027 255.100333 
L 339.899768 255.100333 
L 339.899768 244.01901 
L 328.977027 244.01901 
z
" clip-path="url(#p58e5675b0a)" style="fill: #0072bd"/>
   </g>
   <g id="patch_31">
    <path d="M 339.899768 255.100333 
L 350.822509 255.100333 
L 350.822509 251.406559 
L 339.899768 251.406559 
z
" clip-path="url(#p58e5675b0a)" style="fill: #0072bd"/>
   </g>
   <g id="patch_32">
    <path d="M 34.063017 255.100333 
L 39.431822 255.100333 
L 39.431822 255.100333 
L 34.063017 255.100333 
z
" clip-path="url(#p58e5675b0a)" style="fill: #d95319; opacity: 0.9"/>
   </g>
   <g id="patch_33">
    <path d="M 39.431822 255.100333 
L 44.800626 255.100333 
L 44.800626 255.100333 
L 39.431822 255.100333 
z
" clip-path="url(#p58e5675b0a)" style="fill: #d95319; opacity: 0.9"/>
   </g>
   <g id="patch_34">
    <path d="M 44.800626 255.100333 
L 50.169431 255.100333 
L 50.169431 255.100333 
L 44.800626 255.100333 
z
" clip-path="url(#p58e5675b0a)" style="fill: #d95319; opacity: 0.9"/>
   </g>
   <g id="patch_35">
    <path d="M 50.169431 255.100333 
L 55.538236 255.100333 
L 55.538236 255.100333 
L 50.169431 255.100333 
z
" clip-path="url(#p58e5675b0a)" style="fill: #d95319; opacity: 0.9"/>
   </g>
   <g id="patch_36">
    <path d="M 55.538236 255.100333 
L 60.907041 255.100333 
L 60.907041 255.100333 
L 55.538236 255.100333 
z
" clip-path="url(#p58e5675b0a)" style="fill: #d95319; opacity: 0.9"/>
   </g>
   <g id="patch_37">
    <path d="M 60.907041 255.100333 
L 66.275846 255.100333 
L 66.275846 251.406559 
L 60.907041 251.406559 
z
" clip-path="url(#p58e5675b0a)" style="fill: #d95319; opacity: 0.9"/>
   </g>
   <g id="patch_38">
    <path d="M 66.275846 255.100333 
L 71.644651 255.100333 
L 71.644651 255.100333 
L 66.275846 255.100333 
z
" clip-path="url(#p58e5675b0a)" style="fill: #d95319; opacity: 0.9"/>
   </g>
   <g id="patch_39">
    <path d="M 71.644651 255.100333 
L 77.013456 255.100333 
L 77.013456 255.100333 
L 71.644651 255.100333 
z
" clip-path="url(#p58e5675b0a)" style="fill: #d95319; opacity: 0.9"/>
   </g>
   <g id="patch_40">
    <path d="M 77.013456 255.100333 
L 82.382261 255.100333 
L 82.382261 255.100333 
L 77.013456 255.100333 
z
" clip-path="url(#p58e5675b0a)" style="fill: #d95319; opacity: 0.9"/>
   </g>
   <g id="patch_41">
    <path d="M 82.382261 255.100333 
L 87.751066 255.100333 
L 87.751066 251.406559 
L 82.382261 251.406559 
z
" clip-path="url(#p58e5675b0a)" style="fill: #d95319; opacity: 0.9"/>
   </g>
   <g id="patch_42">
    <path d="M 87.751066 255.100333 
L 93.119871 255.100333 
L 93.119871 251.406559 
L 87.751066 251.406559 
z
" clip-path="url(#p58e5675b0a)" style="fill: #d95319; opacity: 0.9"/>
   </g>
   <g id="patch_43">
    <path d="M 93.119871 255.100333 
L 98.488676 255.100333 
L 98.488676 255.100333 
L 93.119871 255.100333 
z
" clip-path="url(#p58e5675b0a)" style="fill: #d95319; opacity: 0.9"/>
   </g>
   <g id="patch_44">
    <path d="M 98.488676 255.100333 
L 103.857481 255.100333 
L 103.857481 251.406559 
L 98.488676 251.406559 
z
" clip-path="url(#p58e5675b0a)" style="fill: #d95319; opacity: 0.9"/>
   </g>
   <g id="patch_45">
    <path d="M 103.857481 255.100333 
L 109.226286 255.100333 
L 109.226286 244.01901 
L 103.857481 244.01901 
z
" clip-path="url(#p58e5675b0a)" style="fill: #d95319; opacity: 0.9"/>
   </g>
   <g id="patch_46">
    <path d="M 109.226286 255.100333 
L 114.595091 255.100333 
L 114.595091 255.100333 
L 109.226286 255.100333 
z
" clip-path="url(#p58e5675b0a)" style="fill: #d95319; opacity: 0.9"/>
   </g>
   <g id="patch_47">
    <path d="M 114.595091 255.100333 
L 119.963896 255.100333 
L 119.963896 236.631462 
L 114.595091 236.631462 
z
" clip-path="url(#p58e5675b0a)" style="fill: #d95319; opacity: 0.9"/>
   </g>
   <g id="patch_48">
    <path d="M 119.963896 255.100333 
L 125.332701 255.100333 
L 125.332701 244.01901 
L 119.963896 244.01901 
z
" clip-path="url(#p58e5675b0a)" style="fill: #d95319; opacity: 0.9"/>
   </g>
   <g id="patch_49">
    <path d="M 125.332701 255.100333 
L 130.701506 255.100333 
L 130.701506 247.712785 
L 125.332701 247.712785 
z
" clip-path="url(#p58e5675b0a)" style="fill: #d95319; opacity: 0.9"/>
   </g>
   <g id="patch_50">
    <path d="M 130.701506 255.100333 
L 136.070311 255.100333 
L 136.070311 247.712785 
L 130.701506 247.712785 
z
" clip-path="url(#p58e5675b0a)" style="fill: #d95319; opacity: 0.9"/>
   </g>
   <g id="patch_51">
    <path d="M 136.070311 255.100333 
L 141.439116 255.100333 
L 141.439116 255.100333 
L 136.070311 255.100333 
z
" clip-path="url(#p58e5675b0a)" style="fill: #d95319; opacity: 0.9"/>
   </g>
   <g id="patch_52">
    <path d="M 141.439116 255.100333 
L 146.807921 255.100333 
L 146.807921 255.100333 
L 141.439116 255.100333 
z
" clip-path="url(#p58e5675b0a)" style="fill: #d95319; opacity: 0.9"/>
   </g>
   <g id="patch_53">
    <path d="M 146.807921 255.100333 
L 152.176726 255.100333 
L 152.176726 251.406559 
L 146.807921 251.406559 
z
" clip-path="url(#p58e5675b0a)" style="fill: #d95319; opacity: 0.9"/>
   </g>
   <g id="patch_54">
    <path d="M 152.176726 255.100333 
L 157.545531 255.100333 
L 157.545531 255.100333 
L 152.176726 255.100333 
z
" clip-path="url(#p58e5675b0a)" style="fill: #d95319; opacity: 0.9"/>
   </g>
   <g id="patch_55">
    <path d="M 157.545531 255.100333 
L 162.914336 255.100333 
L 162.914336 247.712785 
L 157.545531 247.712785 
z
" clip-path="url(#p58e5675b0a)" style="fill: #d95319; opacity: 0.9"/>
   </g>
   <g id="patch_56">
    <path d="M 162.914336 255.100333 
L 168.283141 255.100333 
L 168.283141 255.100333 
L 162.914336 255.100333 
z
" clip-path="url(#p58e5675b0a)" style="fill: #d95319; opacity: 0.9"/>
   </g>
   <g id="patch_57">
    <path d="M 168.283141 255.100333 
L 173.651946 255.100333 
L 173.651946 247.712785 
L 168.283141 247.712785 
z
" clip-path="url(#p58e5675b0a)" style="fill: #d95319; opacity: 0.9"/>
   </g>
   <g id="patch_58">
    <path d="M 173.651946 255.100333 
L 179.020751 255.100333 
L 179.020751 232.937688 
L 173.651946 232.937688 
z
" clip-path="url(#p58e5675b0a)" style="fill: #d95319; opacity: 0.9"/>
   </g>
   <g id="patch_59">
    <path d="M 179.020751 255.100333 
L 184.389556 255.100333 
L 184.389556 232.937688 
L 179.020751 232.937688 
z
" clip-path="url(#p58e5675b0a)" style="fill: #d95319; opacity: 0.9"/>
   </g>
   <g id="patch_60">
    <path d="M 184.389556 255.100333 
L 189.75836 255.100333 
L 189.75836 232.937688 
L 184.389556 232.937688 
z
" clip-path="url(#p58e5675b0a)" style="fill: #d95319; opacity: 0.9"/>
   </g>
   <g id="patch_61">
    <path d="M 189.75836 255.100333 
L 195.127165 255.100333 
L 195.127165 232.937688 
L 189.75836 232.937688 
z
" clip-path="url(#p58e5675b0a)" style="fill: #d95319; opacity: 0.9"/>
   </g>
   <g id="patch_62">
    <path d="M 195.127165 255.100333 
L 200.49597 255.100333 
L 200.49597 232.937688 
L 195.127165 232.937688 
z
" clip-path="url(#p58e5675b0a)" style="fill: #d95319; opacity: 0.9"/>
   </g>
   <g id="patch_63">
    <path d="M 200.49597 255.100333 
L 205.864775 255.100333 
L 205.864775 244.01901 
L 200.49597 244.01901 
z
" clip-path="url(#p58e5675b0a)" style="fill: #d95319; opacity: 0.9"/>
   </g>
   <g id="patch_64">
    <path d="M 205.864775 255.100333 
L 211.23358 255.100333 
L 211.23358 247.712785 
L 205.864775 247.712785 
z
" clip-path="url(#p58e5675b0a)" style="fill: #d95319; opacity: 0.9"/>
   </g>
   <g id="patch_65">
    <path d="M 211.23358 255.100333 
L 216.602385 255.100333 
L 216.602385 255.100333 
L 211.23358 255.100333 
z
" clip-path="url(#p58e5675b0a)" style="fill: #d95319; opacity: 0.9"/>
   </g>
   <g id="patch_66">
    <path d="M 216.602385 255.100333 
L 221.97119 255.100333 
L 221.97119 251.406559 
L 216.602385 251.406559 
z
" clip-path="url(#p58e5675b0a)" style="fill: #d95319; opacity: 0.9"/>
   </g>
   <g id="patch_67">
    <path d="M 221.97119 255.100333 
L 227.339995 255.100333 
L 227.339995 236.631462 
L 221.97119 236.631462 
z
" clip-path="url(#p58e5675b0a)" style="fill: #d95319; opacity: 0.9"/>
   </g>
   <g id="patch_68">
    <path d="M 227.339995 255.100333 
L 232.7088 255.100333 
L 232.7088 247.712785 
L 227.339995 247.712785 
z
" clip-path="url(#p58e5675b0a)" style="fill: #d95319; opacity: 0.9"/>
   </g>
   <g id="patch_69">
    <path d="M 232.7088 255.100333 
L 238.077605 255.100333 
L 238.077605 207.081268 
L 232.7088 207.081268 
z
" clip-path="url(#p58e5675b0a)" style="fill: #d95319; opacity: 0.9"/>
   </g>
   <g id="patch_70">
    <path d="M 238.077605 255.100333 
L 243.44641 255.100333 
L 243.44641 177.531074 
L 238.077605 177.531074 
z
" clip-path="url(#p58e5675b0a)" style="fill: #d95319; opacity: 0.9"/>
   </g>
   <g id="patch_71">
    <path d="M 243.44641 255.100333 
L 248.815215 255.100333 
L 248.815215 140.593331 
L 243.44641 140.593331 
z
" clip-path="url(#p58e5675b0a)" style="fill: #d95319; opacity: 0.9"/>
   </g>
   <g id="patch_72">
    <path d="M 248.815215 255.100333 
L 254.18402 255.100333 
L 254.18402 81.492943 
L 248.815215 81.492943 
z
" clip-path="url(#p58e5675b0a)" style="fill: #d95319; opacity: 0.9"/>
   </g>
   <g id="patch_73">
    <path d="M 254.18402 255.100333 
L 259.552825 255.100333 
L 259.552825 74.105394 
L 254.18402 74.105394 
z
" clip-path="url(#p58e5675b0a)" style="fill: #d95319; opacity: 0.9"/>
   </g>
   <g id="patch_74">
    <path d="M 259.552825 255.100333 
L 264.92163 255.100333 
L 264.92163 77.799169 
L 259.552825 77.799169 
z
" clip-path="url(#p58e5675b0a)" style="fill: #d95319; opacity: 0.9"/>
   </g>
   <g id="patch_75">
    <path d="M 264.92163 255.100333 
L 270.290435 255.100333 
L 270.290435 107.349363 
L 264.92163 107.349363 
z
" clip-path="url(#p58e5675b0a)" style="fill: #d95319; opacity: 0.9"/>
   </g>
   <g id="patch_76">
    <path d="M 270.290435 255.100333 
L 275.65924 255.100333 
L 275.65924 122.12446 
L 270.290435 122.12446 
z
" clip-path="url(#p58e5675b0a)" style="fill: #d95319; opacity: 0.9"/>
   </g>
   <g id="patch_77">
    <path d="M 275.65924 255.100333 
L 281.028045 255.100333 
L 281.028045 188.612396 
L 275.65924 188.612396 
z
" clip-path="url(#p58e5675b0a)" style="fill: #d95319; opacity: 0.9"/>
   </g>
   <g id="patch_78">
    <path d="M 281.028045 255.100333 
L 286.39685 255.100333 
L 286.39685 207.081268 
L 281.028045 207.081268 
z
" clip-path="url(#p58e5675b0a)" style="fill: #d95319; opacity: 0.9"/>
   </g>
   <g id="patch_79">
    <path d="M 286.39685 255.100333 
L 291.765655 255.100333 
L 291.765655 225.550139 
L 286.39685 225.550139 
z
" clip-path="url(#p58e5675b0a)" style="fill: #d95319; opacity: 0.9"/>
   </g>
   <g id="patch_80">
    <path d="M 291.765655 255.100333 
L 297.13446 255.100333 
L 297.13446 247.712785 
L 291.765655 247.712785 
z
" clip-path="url(#p58e5675b0a)" style="fill: #d95319; opacity: 0.9"/>
   </g>
   <g id="patch_81">
    <path d="M 297.13446 255.100333 
L 302.503265 255.100333 
L 302.503265 251.406559 
L 297.13446 251.406559 
z
" clip-path="url(#p58e5675b0a)" style="fill: #d95319; opacity: 0.9"/>
   </g>
   <g id="patch_82">
    <path d="M 302.503265 255.100333 
L 307.87207 255.100333 
L 307.87207 251.406559 
L 302.503265 251.406559 
z
" clip-path="url(#p58e5675b0a)" style="fill: #d95319; opacity: 0.9"/>
   </g>
   <g id="patch_83">
    <path d="M 307.87207 255.100333 
L 313.240875 255.100333 
L 313.240875 255.100333 
L 307.87207 255.100333 
z
" clip-path="url(#p58e5675b0a)" style="fill: #d95319; opacity: 0.9"/>
   </g>
   <g id="patch_84">
    <path d="M 313.240875 255.100333 
L 318.60968 255.100333 
L 318.60968 255.100333 
L 313.240875 255.100333 
z
" clip-path="url(#p58e5675b0a)" style="fill: #d95319; opacity: 0.9"/>
   </g>
   <g id="patch_85">
    <path d="M 318.60968 255.100333 
L 323.978485 255.100333 
L 323.978485 255.100333 
L 318.60968 255.100333 
z
" clip-path="url(#p58e5675b0a)" style="fill: #d95319; opacity: 0.9"/>
   </g>
   <g id="patch_86">
    <path d="M 323.978485 255.100333 
L 329.34729 255.100333 
L 329.34729 255.100333 
L 323.978485 255.100333 
z
" clip-path="url(#p58e5675b0a)" style="fill: #d95319; opacity: 0.9"/>
   </g>
   <g id="patch_87">
    <path d="M 329.34729 255.100333 
L 334.716094 255.100333 
L 334.716094 255.100333 
L 329.34729 255.100333 
z
" clip-path="url(#p58e5675b0a)" style="fill: #d95319; opacity: 0.9"/>
   </g>
   <g id="patch_88">
    <path d="M 334.716094 255.100333 
L 340.084899 255.100333 
L 340.084899 255.100333 
L 334.716094 255.100333 
z
" clip-path="url(#p58e5675b0a)" style="fill: #d95319; opacity: 0.9"/>
   </g>
   <g id="patch_89">
    <path d="M 340.084899 255.100333 
L 345.453704 255.100333 
L 345.453704 255.100333 
L 340.084899 255.100333 
z
" clip-path="url(#p58e5675b0a)" style="fill: #d95319; opacity: 0.9"/>
   </g>
   <g id="patch_90">
    <path d="M 345.453704 255.100333 
L 350.822509 255.100333 
L 350.822509 255.100333 
L 345.453704 255.100333 
z
" clip-path="url(#p58e5675b0a)" style="fill: #d95319; opacity: 0.9"/>
   </g>
   <g id="patch_91">
    <path d="M 34.063017 255.100333 
L 42.185055 255.100333 
L 42.185055 255.100333 
L 34.063017 255.100333 
z
" clip-path="url(#p58e5675b0a)" style="fill: #7e2f8e; opacity: 0.9"/>
   </g>
   <g id="patch_92">
    <path d="M 42.185055 255.100333 
L 50.307093 255.100333 
L 50.307093 255.100333 
L 42.185055 255.100333 
z
" clip-path="url(#p58e5675b0a)" style="fill: #7e2f8e; opacity: 0.9"/>
   </g>
   <g id="patch_93">
    <path d="M 50.307093 255.100333 
L 58.429131 255.100333 
L 58.429131 255.100333 
L 50.307093 255.100333 
z
" clip-path="url(#p58e5675b0a)" style="fill: #7e2f8e; opacity: 0.9"/>
   </g>
   <g id="patch_94">
    <path d="M 58.429131 255.100333 
L 66.55117 255.100333 
L 66.55117 255.100333 
L 58.429131 255.100333 
z
" clip-path="url(#p58e5675b0a)" style="fill: #7e2f8e; opacity: 0.9"/>
   </g>
   <g id="patch_95">
    <path d="M 66.55117 255.100333 
L 74.673208 255.100333 
L 74.673208 255.100333 
L 66.55117 255.100333 
z
" clip-path="url(#p58e5675b0a)" style="fill: #7e2f8e; opacity: 0.9"/>
   </g>
   <g id="patch_96">
    <path d="M 74.673208 255.100333 
L 82.795246 255.100333 
L 82.795246 255.100333 
L 74.673208 255.100333 
z
" clip-path="url(#p58e5675b0a)" style="fill: #7e2f8e; opacity: 0.9"/>
   </g>
   <g id="patch_97">
    <path d="M 82.795246 255.100333 
L 90.917285 255.100333 
L 90.917285 255.100333 
L 82.795246 255.100333 
z
" clip-path="url(#p58e5675b0a)" style="fill: #7e2f8e; opacity: 0.9"/>
   </g>
   <g id="patch_98">
    <path d="M 90.917285 255.100333 
L 99.039323 255.100333 
L 99.039323 255.100333 
L 90.917285 255.100333 
z
" clip-path="url(#p58e5675b0a)" style="fill: #7e2f8e; opacity: 0.9"/>
   </g>
   <g id="patch_99">
    <path d="M 99.039323 255.100333 
L 107.161361 255.100333 
L 107.161361 255.100333 
L 99.039323 255.100333 
z
" clip-path="url(#p58e5675b0a)" style="fill: #7e2f8e; opacity: 0.9"/>
   </g>
   <g id="patch_100">
    <path d="M 107.161361 255.100333 
L 115.283399 255.100333 
L 115.283399 255.100333 
L 107.161361 255.100333 
z
" clip-path="url(#p58e5675b0a)" style="fill: #7e2f8e; opacity: 0.9"/>
   </g>
   <g id="patch_101">
    <path d="M 115.283399 255.100333 
L 123.405438 255.100333 
L 123.405438 255.100333 
L 115.283399 255.100333 
z
" clip-path="url(#p58e5675b0a)" style="fill: #7e2f8e; opacity: 0.9"/>
   </g>
   <g id="patch_102">
    <path d="M 123.405438 255.100333 
L 131.527476 255.100333 
L 131.527476 255.100333 
L 123.405438 255.100333 
z
" clip-path="url(#p58e5675b0a)" style="fill: #7e2f8e; opacity: 0.9"/>
   </g>
   <g id="patch_103">
    <path d="M 131.527476 255.100333 
L 139.649514 255.100333 
L 139.649514 255.100333 
L 131.527476 255.100333 
z
" clip-path="url(#p58e5675b0a)" style="fill: #7e2f8e; opacity: 0.9"/>
   </g>
   <g id="patch_104">
    <path d="M 139.649514 255.100333 
L 147.771552 255.100333 
L 147.771552 255.100333 
L 139.649514 255.100333 
z
" clip-path="url(#p58e5675b0a)" style="fill: #7e2f8e; opacity: 0.9"/>
   </g>
   <g id="patch_105">
    <path d="M 147.771552 255.100333 
L 155.893591 255.100333 
L 155.893591 255.100333 
L 147.771552 255.100333 
z
" clip-path="url(#p58e5675b0a)" style="fill: #7e2f8e; opacity: 0.9"/>
   </g>
   <g id="patch_106">
    <path d="M 155.893591 255.100333 
L 164.015629 255.100333 
L 164.015629 255.100333 
L 155.893591 255.100333 
z
" clip-path="url(#p58e5675b0a)" style="fill: #7e2f8e; opacity: 0.9"/>
   </g>
   <g id="patch_107">
    <path d="M 164.015629 255.100333 
L 172.137667 255.100333 
L 172.137667 255.100333 
L 164.015629 255.100333 
z
" clip-path="url(#p58e5675b0a)" style="fill: #7e2f8e; opacity: 0.9"/>
   </g>
   <g id="patch_108">
    <path d="M 172.137667 255.100333 
L 180.259706 255.100333 
L 180.259706 255.100333 
L 172.137667 255.100333 
z
" clip-path="url(#p58e5675b0a)" style="fill: #7e2f8e; opacity: 0.9"/>
   </g>
   <g id="patch_109">
    <path d="M 180.259706 255.100333 
L 188.381744 255.100333 
L 188.381744 255.100333 
L 180.259706 255.100333 
z
" clip-path="url(#p58e5675b0a)" style="fill: #7e2f8e; opacity: 0.9"/>
   </g>
   <g id="patch_110">
    <path d="M 188.381744 255.100333 
L 196.503782 255.100333 
L 196.503782 255.100333 
L 188.381744 255.100333 
z
" clip-path="url(#p58e5675b0a)" style="fill: #7e2f8e; opacity: 0.9"/>
   </g>
   <g id="patch_111">
    <path d="M 196.503782 255.100333 
L 204.62582 255.100333 
L 204.62582 255.100333 
L 196.503782 255.100333 
z
" clip-path="url(#p58e5675b0a)" style="fill: #7e2f8e; opacity: 0.9"/>
   </g>
   <g id="patch_112">
    <path d="M 204.62582 255.100333 
L 212.747859 255.100333 
L 212.747859 251.406559 
L 204.62582 251.406559 
z
" clip-path="url(#p58e5675b0a)" style="fill: #7e2f8e; opacity: 0.9"/>
   </g>
   <g id="patch_113">
    <path d="M 212.747859 255.100333 
L 220.869897 255.100333 
L 220.869897 247.712785 
L 212.747859 247.712785 
z
" clip-path="url(#p58e5675b0a)" style="fill: #7e2f8e; opacity: 0.9"/>
   </g>
   <g id="patch_114">
    <path d="M 220.869897 255.100333 
L 228.991935 255.100333 
L 228.991935 236.631462 
L 220.869897 236.631462 
z
" clip-path="url(#p58e5675b0a)" style="fill: #7e2f8e; opacity: 0.9"/>
   </g>
   <g id="patch_115">
    <path d="M 228.991935 255.100333 
L 237.113973 255.100333 
L 237.113973 195.999945 
L 228.991935 195.999945 
z
" clip-path="url(#p58e5675b0a)" style="fill: #7e2f8e; opacity: 0.9"/>
   </g>
   <g id="patch_116">
    <path d="M 237.113973 255.100333 
L 245.236012 255.100333 
L 245.236012 114.736911 
L 237.113973 114.736911 
z
" clip-path="url(#p58e5675b0a)" style="fill: #7e2f8e; opacity: 0.9"/>
   </g>
   <g id="patch_117">
    <path d="M 245.236012 255.100333 
L 253.35805 255.100333 
L 253.35805 129.512008 
L 245.236012 129.512008 
z
" clip-path="url(#p58e5675b0a)" style="fill: #7e2f8e; opacity: 0.9"/>
   </g>
   <g id="patch_118">
    <path d="M 253.35805 255.100333 
L 261.480088 255.100333 
L 261.480088 199.693719 
L 253.35805 199.693719 
z
" clip-path="url(#p58e5675b0a)" style="fill: #7e2f8e; opacity: 0.9"/>
   </g>
   <g id="patch_119">
    <path d="M 261.480088 255.100333 
L 269.602127 255.100333 
L 269.602127 221.856365 
L 261.480088 221.856365 
z
" clip-path="url(#p58e5675b0a)" style="fill: #7e2f8e; opacity: 0.9"/>
   </g>
   <g id="patch_120">
    <path d="M 269.602127 255.100333 
L 277.724165 255.100333 
L 277.724165 251.406559 
L 269.602127 251.406559 
z
" clip-path="url(#p58e5675b0a)" style="fill: #7e2f8e; opacity: 0.9"/>
   </g>
   <g id="patch_121">
    <path d="M 277.724165 255.100333 
L 285.846203 255.100333 
L 285.846203 255.100333 
L 277.724165 255.100333 
z
" clip-path="url(#p58e5675b0a)" style="fill: #7e2f8e; opacity: 0.9"/>
   </g>
   <g id="patch_122">
    <path d="M 285.846203 255.100333 
L 293.968241 255.100333 
L 293.968241 255.100333 
L 285.846203 255.100333 
z
" clip-path="url(#p58e5675b0a)" style="fill: #7e2f8e; opacity: 0.9"/>
   </g>
   <g id="patch_123">
    <path d="M 293.968241 255.100333 
L 302.09028 255.100333 
L 302.09028 255.100333 
L 293.968241 255.100333 
z
" clip-path="url(#p58e5675b0a)" style="fill: #7e2f8e; opacity: 0.9"/>
   </g>
   <g id="patch_124">
    <path d="M 302.09028 255.100333 
L 310.212318 255.100333 
L 310.212318 255.100333 
L 302.09028 255.100333 
z
" clip-path="url(#p58e5675b0a)" style="fill: #7e2f8e; opacity: 0.9"/>
   </g>
   <g id="patch_125">
    <path d="M 310.212318 255.100333 
L 318.334356 255.100333 
L 318.334356 255.100333 
L 310.212318 255.100333 
z
" clip-path="url(#p58e5675b0a)" style="fill: #7e2f8e; opacity: 0.9"/>
   </g>
   <g id="patch_126">
    <path d="M 318.334356 255.100333 
L 326.456395 255.100333 
L 326.456395 255.100333 
L 318.334356 255.100333 
z
" clip-path="url(#p58e5675b0a)" style="fill: #7e2f8e; opacity: 0.9"/>
   </g>
   <g id="patch_127">
    <path d="M 326.456395 255.100333 
L 334.578433 255.100333 
L 334.578433 255.100333 
L 326.456395 255.100333 
z
" clip-path="url(#p58e5675b0a)" style="fill: #7e2f8e; opacity: 0.9"/>
   </g>
   <g id="patch_128">
    <path d="M 334.578433 255.100333 
L 342.700471 255.100333 
L 342.700471 255.100333 
L 334.578433 255.100333 
z
" clip-path="url(#p58e5675b0a)" style="fill: #7e2f8e; opacity: 0.9"/>
   </g>
   <g id="patch_129">
    <path d="M 342.700471 255.100333 
L 350.822509 255.100333 
L 350.822509 255.100333 
L 342.700471 255.100333 
z
" clip-path="url(#p58e5675b0a)" style="fill: #7e2f8e; opacity: 0.9"/>
   </g>
   <g id="patch_130">
    <path d="M 240.126294 255.100333 
L 242.772266 255.100333 
L 242.772266 99.961814 
L 240.126294 99.961814 
z
" clip-path="url(#p58e5675b0a)" style="fill: #edb120; opacity: 0.9"/>
   </g>
   <g id="patch_131">
    <path d="M 242.772266 255.100333 
L 245.418238 255.100333 
L 245.418238 48.248975 
L 242.772266 48.248975 
z
" clip-path="url(#p58e5675b0a)" style="fill: #edb120; opacity: 0.9"/>
   </g>
   <g id="patch_132">
    <path d="M 245.418238 255.100333 
L 248.06421 255.100333 
L 248.06421 15.005006 
L 245.418238 15.005006 
z
" clip-path="url(#p58e5675b0a)" style="fill: #edb120; opacity: 0.9"/>
   </g>
   <g id="patch_133">
    <path d="M 248.06421 255.100333 
L 250.710183 255.100333 
L 250.710183 218.162591 
L 248.06421 218.162591 
z
" clip-path="url(#p58e5675b0a)" style="fill: #edb120; opacity: 0.9"/>
   </g>
   <g id="patch_134">
    <path d="M 250.710183 255.100333 
L 253.356155 255.100333 
L 253.356155 240.325236 
L 250.710183 240.325236 
z
" clip-path="url(#p58e5675b0a)" style="fill: #edb120; opacity: 0.9"/>
   </g>
   <g id="matplotlib.axis_1">
    <g id="xtick_1">
     <g id="line2d_1">
      <path d="M 34.063017 255.100333 
L 34.063017 3.00024 
" clip-path="url(#p58e5675b0a)" style="fill: none; stroke: #b2b2b2; stroke-opacity: 0.7; stroke-width: 0.5; stroke-linecap: square"/>
     </g>
     <g id="line2d_2">
      <defs>
       <path id="m901f04946d" d="M 0 0 
L 0 -3.5 
" style="stroke: #000000; stroke-width: 0.8"/>
      </defs>
      <g>
       <use xlink:href="#m901f04946d" x="34.063017" y="255.100333" style="stroke: #000000; stroke-width: 0.8"/>
      </g>
     </g>
     <g id="text_1">
      <!-- −20 -->
      <g transform="translate(23.909797 265.982975) scale(0.09716 -0.09716)">
       <defs>
        <path id="Verdana-2212" d="M 4550 1788 
L 688 1788 
L 688 2288 
L 4550 2288 
L 4550 1788 
z
" transform="scale(0.015625)"/>
        <path id="Verdana-32" d="M 3653 0 
L 503 0 
L 503 653 
Q 831 934 1161 1215 
Q 1491 1497 1775 1775 
Q 2375 2356 2597 2698 
Q 2819 3041 2819 3438 
Q 2819 3800 2580 4004 
Q 2341 4209 1913 4209 
Q 1628 4209 1297 4109 
Q 966 4009 650 3803 
L 619 3803 
L 619 4459 
Q 841 4569 1211 4659 
Q 1581 4750 1928 4750 
Q 2644 4750 3050 4404 
Q 3456 4059 3456 3469 
Q 3456 3203 3389 2973 
Q 3322 2744 3191 2538 
Q 3069 2344 2905 2156 
Q 2741 1969 2506 1741 
Q 2172 1413 1815 1105 
Q 1459 797 1150 534 
L 3653 534 
L 3653 0 
z
" transform="scale(0.015625)"/>
        <path id="Verdana-30" d="M 3647 2328 
Q 3647 1075 3255 489 
Q 2863 -97 2038 -97 
Q 1200 -97 814 497 
Q 428 1091 428 2322 
Q 428 3563 818 4155 
Q 1209 4747 2038 4747 
Q 2875 4747 3261 4145 
Q 3647 3544 3647 2328 
z
M 2825 909 
Q 2934 1163 2973 1505 
Q 3013 1847 3013 2328 
Q 3013 2803 2973 3153 
Q 2934 3503 2822 3747 
Q 2713 3988 2523 4109 
Q 2334 4231 2038 4231 
Q 1744 4231 1551 4109 
Q 1359 3988 1247 3741 
Q 1141 3509 1102 3137 
Q 1063 2766 1063 2322 
Q 1063 1834 1097 1506 
Q 1131 1178 1244 919 
Q 1347 675 1536 547 
Q 1725 419 2038 419 
Q 2331 419 2525 541 
Q 2719 663 2825 909 
z
" transform="scale(0.015625)"/>
       </defs>
       <use xlink:href="#Verdana-2212"/>
       <use xlink:href="#Verdana-32" x="81.835938"/>
       <use xlink:href="#Verdana-30" x="145.410156"/>
      </g>
     </g>
    </g>
    <g id="xtick_2">
     <g id="line2d_3">
      <path d="M 86.856265 255.100333 
L 86.856265 3.00024 
" clip-path="url(#p58e5675b0a)" style="fill: none; stroke: #b2b2b2; stroke-opacity: 0.7; stroke-width: 0.5; stroke-linecap: square"/>
     </g>
     <g id="line2d_4">
      <g>
       <use xlink:href="#m901f04946d" x="86.856265" y="255.100333" style="stroke: #000000; stroke-width: 0.8"/>
      </g>
     </g>
     <g id="text_2">
      <!-- −15 -->
      <g transform="translate(76.703045 265.982975) scale(0.09716 -0.09716)">
       <defs>
        <path id="Verdana-31" d="M 3388 0 
L 869 0 
L 869 475 
L 1838 475 
L 1838 3594 
L 869 3594 
L 869 4019 
Q 1066 4019 1291 4051 
Q 1516 4084 1631 4147 
Q 1775 4225 1858 4345 
Q 1941 4466 1953 4669 
L 2438 4669 
L 2438 475 
L 3388 475 
L 3388 0 
z
" transform="scale(0.015625)"/>
        <path id="Verdana-35" d="M 3616 1478 
Q 3616 1153 3497 856 
Q 3378 559 3172 356 
Q 2947 138 2636 20 
Q 2325 -97 1916 -97 
Q 1534 -97 1181 -17 
Q 828 63 584 175 
L 584 834 
L 628 834 
Q 884 672 1228 558 
Q 1572 444 1903 444 
Q 2125 444 2333 506 
Q 2541 569 2703 725 
Q 2841 859 2911 1046 
Q 2981 1234 2981 1481 
Q 2981 1722 2898 1887 
Q 2816 2053 2669 2153 
Q 2506 2272 2273 2320 
Q 2041 2369 1753 2369 
Q 1478 2369 1223 2331 
Q 969 2294 784 2256 
L 784 4653 
L 3584 4653 
L 3584 4106 
L 1388 4106 
L 1388 2869 
Q 1522 2881 1662 2887 
Q 1803 2894 1906 2894 
Q 2284 2894 2568 2830 
Q 2853 2766 3091 2603 
Q 3341 2431 3478 2159 
Q 3616 1888 3616 1478 
z
" transform="scale(0.015625)"/>
       </defs>
       <use xlink:href="#Verdana-2212"/>
       <use xlink:href="#Verdana-31" x="81.835938"/>
       <use xlink:href="#Verdana-35" x="145.410156"/>
      </g>
     </g>
    </g>
    <g id="xtick_3">
     <g id="line2d_5">
      <path d="M 139.649514 255.100333 
L 139.649514 3.00024 
" clip-path="url(#p58e5675b0a)" style="fill: none; stroke: #b2b2b2; stroke-opacity: 0.7; stroke-width: 0.5; stroke-linecap: square"/>
     </g>
     <g id="line2d_6">
      <g>
       <use xlink:href="#m901f04946d" x="139.649514" y="255.100333" style="stroke: #000000; stroke-width: 0.8"/>
      </g>
     </g>
     <g id="text_3">
      <!-- −10 -->
      <g transform="translate(129.496294 265.982975) scale(0.09716 -0.09716)">
       <use xlink:href="#Verdana-2212"/>
       <use xlink:href="#Verdana-31" x="81.835938"/>
       <use xlink:href="#Verdana-30" x="145.410156"/>
      </g>
     </g>
    </g>
    <g id="xtick_4">
     <g id="line2d_7">
      <path d="M 192.442763 255.100333 
L 192.442763 3.00024 
" clip-path="url(#p58e5675b0a)" style="fill: none; stroke: #b2b2b2; stroke-opacity: 0.7; stroke-width: 0.5; stroke-linecap: square"/>
     </g>
     <g id="line2d_8">
      <g>
       <use xlink:href="#m901f04946d" x="192.442763" y="255.100333" style="stroke: #000000; stroke-width: 0.8"/>
      </g>
     </g>
     <g id="text_4">
      <!-- −5 -->
      <g transform="translate(185.378168 265.982975) scale(0.09716 -0.09716)">
       <use xlink:href="#Verdana-2212"/>
       <use xlink:href="#Verdana-35" x="81.835938"/>
      </g>
     </g>
    </g>
    <g id="xtick_5">
     <g id="line2d_9">
      <path d="M 245.236012 255.100333 
L 245.236012 3.00024 
" clip-path="url(#p58e5675b0a)" style="fill: none; stroke: #b2b2b2; stroke-opacity: 0.7; stroke-width: 0.5; stroke-linecap: square"/>
     </g>
     <g id="line2d_10">
      <g>
       <use xlink:href="#m901f04946d" x="245.236012" y="255.100333" style="stroke: #000000; stroke-width: 0.8"/>
      </g>
     </g>
     <g id="text_5">
      <!-- 0 -->
      <g transform="translate(242.147386 265.982975) scale(0.09716 -0.09716)">
       <use xlink:href="#Verdana-30"/>
      </g>
     </g>
    </g>
    <g id="xtick_6">
     <g id="line2d_11">
      <path d="M 298.029261 255.100333 
L 298.029261 3.00024 
" clip-path="url(#p58e5675b0a)" style="fill: none; stroke: #b2b2b2; stroke-opacity: 0.7; stroke-width: 0.5; stroke-linecap: square"/>
     </g>
     <g id="line2d_12">
      <g>
       <use xlink:href="#m901f04946d" x="298.029261" y="255.100333" style="stroke: #000000; stroke-width: 0.8"/>
      </g>
     </g>
     <g id="text_6">
      <!-- 5 -->
      <g transform="translate(294.940635 265.982975) scale(0.09716 -0.09716)">
       <use xlink:href="#Verdana-35"/>
      </g>
     </g>
    </g>
    <g id="xtick_7">
     <g id="line2d_13">
      <path d="M 350.822509 255.100333 
L 350.822509 3.00024 
" clip-path="url(#p58e5675b0a)" style="fill: none; stroke: #b2b2b2; stroke-opacity: 0.7; stroke-width: 0.5; stroke-linecap: square"/>
     </g>
     <g id="line2d_14">
      <g>
       <use xlink:href="#m901f04946d" x="350.822509" y="255.100333" style="stroke: #000000; stroke-width: 0.8"/>
      </g>
     </g>
     <g id="text_7">
      <!-- 10 -->
      <g transform="translate(344.645259 265.982975) scale(0.09716 -0.09716)">
       <use xlink:href="#Verdana-31"/>
       <use xlink:href="#Verdana-30" x="63.574219"/>
      </g>
     </g>
    </g>
    <g id="text_8">
     <!-- $\epsilon$ ($\times 10^3$) -->
     <g transform="translate(167.077913 282.55074) scale(0.11662 -0.11662)">
      <defs>
       <path id="Verdana-3b5" d="M 3144 200 
Q 2809 50 2487 -15 
Q 2166 -81 1806 -81 
Q 1559 -81 1303 -31 
Q 1047 19 828 144 
Q 613 266 477 464 
Q 341 663 341 956 
Q 341 1256 517 1481 
Q 694 1706 1072 1825 
L 1072 1847 
Q 788 1922 619 2128 
Q 450 2334 450 2622 
Q 450 2900 598 3083 
Q 747 3266 950 3372 
Q 1150 3475 1403 3525 
Q 1656 3575 1903 3575 
Q 2209 3575 2465 3523 
Q 2722 3472 3003 3384 
L 3003 2738 
L 2963 2738 
Q 2756 2897 2451 2984 
Q 2147 3072 1834 3072 
Q 1694 3072 1572 3055 
Q 1450 3038 1319 2975 
Q 1209 2928 1129 2823 
Q 1050 2719 1050 2581 
Q 1050 2391 1137 2284 
Q 1225 2178 1375 2131 
Q 1516 2088 1678 2083 
Q 1841 2078 2006 2078 
L 2353 2078 
L 2353 1559 
L 1859 1559 
Q 1666 1559 1509 1545 
Q 1353 1531 1222 1478 
Q 1094 1425 1017 1309 
Q 941 1194 941 1009 
Q 941 844 1022 728 
Q 1103 613 1231 547 
Q 1347 488 1505 456 
Q 1663 425 1838 425 
Q 2156 425 2518 537 
Q 2881 650 3103 844 
L 3144 844 
L 3144 200 
z
" transform="scale(0.015625)"/>
       <path id="Verdana-20" transform="scale(0.015625)"/>
       <path id="Verdana-28" d="M 2447 -1288 
L 1731 -1288 
Q 1178 -653 872 97 
Q 566 847 566 1788 
Q 566 2728 872 3478 
Q 1178 4228 1731 4863 
L 2447 4863 
L 2447 4831 
Q 2194 4603 1964 4304 
Q 1734 4006 1538 3609 
Q 1350 3225 1233 2762 
Q 1116 2300 1116 1788 
Q 1116 1253 1230 809 
Q 1344 366 1538 -34 
Q 1725 -419 1965 -730 
Q 2206 -1041 2447 -1256 
L 2447 -1288 
z
" transform="scale(0.015625)"/>
       <path id="Verdana-d7" d="M 4328 675 
L 3981 328 
L 2619 1703 
L 1256 328 
L 909 675 
L 2284 2038 
L 909 3400 
L 1256 3747 
L 2619 2372 
L 3981 3747 
L 4328 3400 
L 2953 2038 
L 4328 675 
z
" transform="scale(0.015625)"/>
       <path id="Verdana-33" d="M 3244 2241 
Q 3394 2106 3491 1903 
Q 3588 1700 3588 1378 
Q 3588 1059 3472 793 
Q 3356 528 3147 331 
Q 2913 113 2595 8 
Q 2278 -97 1900 -97 
Q 1513 -97 1138 -4 
Q 763 88 522 197 
L 522 850 
L 569 850 
Q 834 675 1193 559 
Q 1553 444 1888 444 
Q 2084 444 2306 509 
Q 2528 575 2666 703 
Q 2809 841 2879 1006 
Q 2950 1172 2950 1425 
Q 2950 1675 2870 1839 
Q 2791 2003 2650 2097 
Q 2509 2194 2309 2230 
Q 2109 2266 1878 2266 
L 1597 2266 
L 1597 2784 
L 1816 2784 
Q 2291 2784 2573 2982 
Q 2856 3181 2856 3563 
Q 2856 3731 2784 3857 
Q 2713 3984 2584 4066 
Q 2450 4147 2297 4178 
Q 2144 4209 1950 4209 
Q 1653 4209 1318 4103 
Q 984 3997 688 3803 
L 656 3803 
L 656 4456 
Q 878 4566 1248 4658 
Q 1619 4750 1966 4750 
Q 2306 4750 2565 4687 
Q 2825 4625 3034 4488 
Q 3259 4338 3375 4125 
Q 3491 3913 3491 3628 
Q 3491 3241 3217 2952 
Q 2944 2663 2572 2588 
L 2572 2544 
Q 2722 2519 2915 2439 
Q 3109 2359 3244 2241 
z
" transform="scale(0.015625)"/>
       <path id="Verdana-29" d="M 2341 1788 
Q 2341 847 2034 97 
Q 1728 -653 1175 -1288 
L 459 -1288 
L 459 -1256 
Q 700 -1041 942 -730 
Q 1184 -419 1369 -34 
Q 1563 366 1677 809 
Q 1791 1253 1791 1788 
Q 1791 2300 1675 2762 
Q 1559 3225 1369 3609 
Q 1172 4006 942 4304 
Q 713 4603 459 4831 
L 459 4863 
L 1175 4863 
Q 1728 4228 2034 3478 
Q 2341 2728 2341 1788 
z
" transform="scale(0.015625)"/>
      </defs>
      <use xlink:href="#Verdana-3b5" transform="translate(0 0.864063)"/>
      <use xlink:href="#Verdana-20" transform="translate(51.269531 0.864063)"/>
      <use xlink:href="#Verdana-28" transform="translate(86.425781 0.864063)"/>
      <use xlink:href="#Verdana-d7" transform="translate(131.835938 0.864063)"/>
      <use xlink:href="#Verdana-31" transform="translate(213.671875 0.864063)"/>
      <use xlink:href="#Verdana-30" transform="translate(277.246094 0.864063)"/>
      <use xlink:href="#Verdana-33" transform="translate(341.774883 39.046875) scale(0.7)"/>
      <use xlink:href="#Verdana-29" transform="translate(389.00418 0.864063)"/>
     </g>
    </g>
   </g>
   <g id="matplotlib.axis_2">
    <g id="ytick_1">
     <g id="line2d_15">
      <path d="M 34.063017 255.100333 
L 350.822509 255.100333 
" clip-path="url(#p58e5675b0a)" style="fill: none; stroke: #b2b2b2; stroke-opacity: 0.7; stroke-width: 0.5; stroke-linecap: square"/>
     </g>
     <g id="line2d_16">
      <defs>
       <path id="mdd5ccca1b5" d="M 0 0 
L 3.5 0 
" style="stroke: #000000; stroke-width: 0.8"/>
      </defs>
      <g>
       <use xlink:href="#mdd5ccca1b5" x="34.063017" y="255.100333" style="stroke: #000000; stroke-width: 0.8"/>
      </g>
     </g>
     <g id="text_9">
      <!-- 0 -->
      <g transform="translate(24.385766 258.791654) scale(0.09716 -0.09716)">
       <use xlink:href="#Verdana-30"/>
      </g>
     </g>
    </g>
    <g id="ytick_2">
     <g id="line2d_17">
      <path d="M 34.063017 218.162591 
L 350.822509 218.162591 
" clip-path="url(#p58e5675b0a)" style="fill: none; stroke: #b2b2b2; stroke-opacity: 0.7; stroke-width: 0.5; stroke-linecap: square"/>
     </g>
     <g id="line2d_18">
      <g>
       <use xlink:href="#mdd5ccca1b5" x="34.063017" y="218.162591" style="stroke: #000000; stroke-width: 0.8"/>
      </g>
     </g>
     <g id="text_10">
      <!-- 10 -->
      <g transform="translate(18.208515 221.853911) scale(0.09716 -0.09716)">
       <use xlink:href="#Verdana-31"/>
       <use xlink:href="#Verdana-30" x="63.574219"/>
      </g>
     </g>
    </g>
    <g id="ytick_3">
     <g id="line2d_19">
      <path d="M 34.063017 181.224848 
L 350.822509 181.224848 
" clip-path="url(#p58e5675b0a)" style="fill: none; stroke: #b2b2b2; stroke-opacity: 0.7; stroke-width: 0.5; stroke-linecap: square"/>
     </g>
     <g id="line2d_20">
      <g>
       <use xlink:href="#mdd5ccca1b5" x="34.063017" y="181.224848" style="stroke: #000000; stroke-width: 0.8"/>
      </g>
     </g>
     <g id="text_11">
      <!-- 20 -->
      <g transform="translate(18.208515 184.916169) scale(0.09716 -0.09716)">
       <use xlink:href="#Verdana-32"/>
       <use xlink:href="#Verdana-30" x="63.574219"/>
      </g>
     </g>
    </g>
    <g id="ytick_4">
     <g id="line2d_21">
      <path d="M 34.063017 144.287105 
L 350.822509 144.287105 
" clip-path="url(#p58e5675b0a)" style="fill: none; stroke: #b2b2b2; stroke-opacity: 0.7; stroke-width: 0.5; stroke-linecap: square"/>
     </g>
     <g id="line2d_22">
      <g>
       <use xlink:href="#mdd5ccca1b5" x="34.063017" y="144.287105" style="stroke: #000000; stroke-width: 0.8"/>
      </g>
     </g>
     <g id="text_12">
      <!-- 30 -->
      <g transform="translate(18.208515 147.978426) scale(0.09716 -0.09716)">
       <use xlink:href="#Verdana-33"/>
       <use xlink:href="#Verdana-30" x="63.574219"/>
      </g>
     </g>
    </g>
    <g id="ytick_5">
     <g id="line2d_23">
      <path d="M 34.063017 107.349363 
L 350.822509 107.349363 
" clip-path="url(#p58e5675b0a)" style="fill: none; stroke: #b2b2b2; stroke-opacity: 0.7; stroke-width: 0.5; stroke-linecap: square"/>
     </g>
     <g id="line2d_24">
      <g>
       <use xlink:href="#mdd5ccca1b5" x="34.063017" y="107.349363" style="stroke: #000000; stroke-width: 0.8"/>
      </g>
     </g>
     <g id="text_13">
      <!-- 40 -->
      <g transform="translate(18.208515 111.040684) scale(0.09716 -0.09716)">
       <defs>
        <path id="Verdana-34" d="M 3759 1309 
L 3069 1309 
L 3069 0 
L 2469 0 
L 2469 1309 
L 241 1309 
L 241 2028 
L 2494 4653 
L 3069 4653 
L 3069 1809 
L 3759 1809 
L 3759 1309 
z
M 2469 1809 
L 2469 3909 
L 666 1809 
L 2469 1809 
z
" transform="scale(0.015625)"/>
       </defs>
       <use xlink:href="#Verdana-34"/>
       <use xlink:href="#Verdana-30" x="63.574219"/>
      </g>
     </g>
    </g>
    <g id="ytick_6">
     <g id="line2d_25">
      <path d="M 34.063017 70.41162 
L 350.822509 70.41162 
" clip-path="url(#p58e5675b0a)" style="fill: none; stroke: #b2b2b2; stroke-opacity: 0.7; stroke-width: 0.5; stroke-linecap: square"/>
     </g>
     <g id="line2d_26">
      <g>
       <use xlink:href="#mdd5ccca1b5" x="34.063017" y="70.41162" style="stroke: #000000; stroke-width: 0.8"/>
      </g>
     </g>
     <g id="text_14">
      <!-- 50 -->
      <g transform="translate(18.208515 74.102941) scale(0.09716 -0.09716)">
       <use xlink:href="#Verdana-35"/>
       <use xlink:href="#Verdana-30" x="63.574219"/>
      </g>
     </g>
    </g>
    <g id="ytick_7">
     <g id="line2d_27">
      <path d="M 34.063017 33.473878 
L 350.822509 33.473878 
" clip-path="url(#p58e5675b0a)" style="fill: none; stroke: #b2b2b2; stroke-opacity: 0.7; stroke-width: 0.5; stroke-linecap: square"/>
     </g>
     <g id="line2d_28">
      <g>
       <use xlink:href="#mdd5ccca1b5" x="34.063017" y="33.473878" style="stroke: #000000; stroke-width: 0.8"/>
      </g>
     </g>
     <g id="text_15">
      <!-- 60 -->
      <g transform="translate(18.208515 37.165199) scale(0.09716 -0.09716)">
       <defs>
        <path id="Verdana-36" d="M 3722 1509 
Q 3722 800 3255 351 
Q 2788 -97 2109 -97 
Q 1766 -97 1484 9 
Q 1203 116 988 325 
Q 719 584 573 1012 
Q 428 1441 428 2044 
Q 428 2663 561 3141 
Q 694 3619 984 3991 
Q 1259 4344 1693 4542 
Q 2128 4741 2706 4741 
Q 2891 4741 3016 4725 
Q 3141 4709 3269 4669 
L 3269 4072 
L 3238 4072 
Q 3150 4119 2973 4161 
Q 2797 4203 2613 4203 
Q 1941 4203 1541 3783 
Q 1141 3363 1075 2647 
Q 1338 2806 1592 2889 
Q 1847 2972 2181 2972 
Q 2478 2972 2704 2917 
Q 2931 2863 3169 2697 
Q 3444 2506 3583 2215 
Q 3722 1925 3722 1509 
z
M 3088 1484 
Q 3088 1775 3002 1965 
Q 2916 2156 2719 2297 
Q 2575 2397 2400 2428 
Q 2225 2459 2034 2459 
Q 1769 2459 1541 2396 
Q 1313 2334 1072 2203 
Q 1066 2134 1062 2070 
Q 1059 2006 1059 1909 
Q 1059 1416 1161 1130 
Q 1263 844 1441 678 
Q 1584 541 1751 477 
Q 1919 413 2116 413 
Q 2569 413 2828 689 
Q 3088 966 3088 1484 
z
" transform="scale(0.015625)"/>
       </defs>
       <use xlink:href="#Verdana-36"/>
       <use xlink:href="#Verdana-30" x="63.574219"/>
      </g>
     </g>
    </g>
    <g id="text_16">
     <!-- Counts -->
     <g transform="translate(11.861538 149.375877) rotate(-90) scale(0.11662 -0.11662)">
      <defs>
       <path id="Verdana-43" d="M 4219 338 
Q 4047 263 3908 197 
Q 3769 131 3544 59 
Q 3353 0 3129 -42 
Q 2906 -84 2638 -84 
Q 2131 -84 1717 58 
Q 1303 200 997 503 
Q 697 800 528 1258 
Q 359 1716 359 2322 
Q 359 2897 521 3350 
Q 684 3803 991 4116 
Q 1288 4419 1708 4578 
Q 2128 4738 2641 4738 
Q 3016 4738 3389 4647 
Q 3763 4556 4219 4328 
L 4219 3594 
L 4172 3594 
Q 3788 3916 3409 4062 
Q 3031 4209 2600 4209 
Q 2247 4209 1964 4095 
Q 1681 3981 1459 3741 
Q 1244 3506 1123 3148 
Q 1003 2791 1003 2322 
Q 1003 1831 1136 1478 
Q 1269 1125 1478 903 
Q 1697 672 1989 561 
Q 2281 450 2606 450 
Q 3053 450 3443 603 
Q 3834 756 4175 1063 
L 4219 1063 
L 4219 338 
z
" transform="scale(0.015625)"/>
       <path id="Verdana-6f" d="M 3553 1744 
Q 3553 891 3115 397 
Q 2678 -97 1944 -97 
Q 1203 -97 767 397 
Q 331 891 331 1744 
Q 331 2597 767 3092 
Q 1203 3588 1944 3588 
Q 2678 3588 3115 3092 
Q 3553 2597 3553 1744 
z
M 2947 1744 
Q 2947 2422 2681 2751 
Q 2416 3081 1944 3081 
Q 1466 3081 1202 2751 
Q 938 2422 938 1744 
Q 938 1088 1203 748 
Q 1469 409 1944 409 
Q 2413 409 2680 745 
Q 2947 1081 2947 1744 
z
" transform="scale(0.015625)"/>
       <path id="Verdana-75" d="M 3472 0 
L 2884 0 
L 2884 388 
Q 2588 153 2316 28 
Q 2044 -97 1716 -97 
Q 1166 -97 859 239 
Q 553 575 553 1225 
L 553 3491 
L 1141 3491 
L 1141 1503 
Q 1141 1238 1166 1048 
Q 1191 859 1272 725 
Q 1356 588 1490 525 
Q 1625 463 1881 463 
Q 2109 463 2379 581 
Q 2650 700 2884 884 
L 2884 3491 
L 3472 3491 
L 3472 0 
z
" transform="scale(0.015625)"/>
       <path id="Verdana-6e" d="M 3497 0 
L 2909 0 
L 2909 1988 
Q 2909 2228 2881 2439 
Q 2853 2650 2778 2769 
Q 2700 2900 2553 2964 
Q 2406 3028 2172 3028 
Q 1931 3028 1668 2909 
Q 1406 2791 1166 2606 
L 1166 0 
L 578 0 
L 578 3491 
L 1166 3491 
L 1166 3103 
Q 1441 3331 1734 3459 
Q 2028 3588 2338 3588 
Q 2903 3588 3200 3247 
Q 3497 2906 3497 2266 
L 3497 0 
z
" transform="scale(0.015625)"/>
       <path id="Verdana-74" d="M 2391 31 
Q 2225 -13 2029 -41 
Q 1834 -69 1681 -69 
Q 1147 -69 869 218 
Q 591 506 591 1141 
L 591 2997 
L 194 2997 
L 194 3491 
L 591 3491 
L 591 4494 
L 1178 4494 
L 1178 3491 
L 2391 3491 
L 2391 2997 
L 1178 2997 
L 1178 1406 
Q 1178 1131 1190 976 
Q 1203 822 1278 688 
Q 1347 563 1467 505 
Q 1588 447 1834 447 
Q 1978 447 2134 489 
Q 2291 531 2359 559 
L 2391 559 
L 2391 31 
z
" transform="scale(0.015625)"/>
       <path id="Verdana-73" d="M 3072 1006 
Q 3072 528 2676 222 
Q 2281 -84 1597 -84 
Q 1209 -84 886 8 
Q 563 100 344 209 
L 344 869 
L 375 869 
Q 653 659 993 536 
Q 1334 413 1647 413 
Q 2034 413 2253 538 
Q 2472 663 2472 931 
Q 2472 1138 2353 1244 
Q 2234 1350 1897 1425 
Q 1772 1453 1570 1490 
Q 1369 1528 1203 1572 
Q 744 1694 551 1930 
Q 359 2166 359 2509 
Q 359 2725 448 2915 
Q 538 3106 719 3256 
Q 894 3403 1164 3489 
Q 1434 3575 1769 3575 
Q 2081 3575 2401 3498 
Q 2722 3422 2934 3313 
L 2934 2684 
L 2903 2684 
Q 2678 2850 2356 2964 
Q 2034 3078 1725 3078 
Q 1403 3078 1181 2954 
Q 959 2831 959 2588 
Q 959 2372 1094 2263 
Q 1225 2153 1519 2084 
Q 1681 2047 1882 2009 
Q 2084 1972 2219 1941 
Q 2628 1847 2850 1619 
Q 3072 1388 3072 1006 
z
" transform="scale(0.015625)"/>
      </defs>
      <use xlink:href="#Verdana-43"/>
      <use xlink:href="#Verdana-6f" x="69.824219"/>
      <use xlink:href="#Verdana-75" x="130.517578"/>
      <use xlink:href="#Verdana-6e" x="193.798828"/>
      <use xlink:href="#Verdana-74" x="257.080078"/>
      <use xlink:href="#Verdana-73" x="296.484375"/>
     </g>
    </g>
   </g>
   <g id="patch_135">
    <path d="M 34.063017 255.100333 
L 34.063017 3.00024 
" style="fill: none; stroke: #000000; stroke-width: 0.8; stroke-linejoin: miter; stroke-linecap: square"/>
   </g>
   <g id="patch_136">
    <path d="M 350.822509 255.100333 
L 350.822509 3.00024 
" style="fill: none; stroke: #000000; stroke-width: 0.8; stroke-linejoin: miter; stroke-linecap: square"/>
   </g>
   <g id="patch_137">
    <path d="M 34.063017 255.100333 
L 350.822509 255.100333 
" style="fill: none; stroke: #000000; stroke-width: 0.8; stroke-linejoin: miter; stroke-linecap: square"/>
   </g>
   <g id="patch_138">
    <path d="M 34.063017 3.00024 
L 350.822509 3.00024 
" style="fill: none; stroke: #000000; stroke-width: 0.8; stroke-linejoin: miter; stroke-linecap: square"/>
   </g>
  </g>
 </g>
 <defs>
  <clipPath id="p58e5675b0a">
   <rect x="34.063017" y="3.00024" width="316.759493" height="252.100093"/>
  </clipPath>
 </defs>
</svg>
