<?xml version="1.0" encoding="utf-8" standalone="no"?>
<!DOCTYPE svg PUBLIC "-//W3C//DTD SVG 1.1//EN"
  "http://www.w3.org/Graphics/SVG/1.1/DTD/svg11.dtd">
<svg xmlns:xlink="http://www.w3.org/1999/xlink" width="432pt" height="180pt" viewBox="0 0 432 180" xmlns="http://www.w3.org/2000/svg" version="1.1">
 <metadata>
  <rdf:RDF xmlns:dc="http://purl.org/dc/elements/1.1/" xmlns:cc="http://creativecommons.org/ns#" xmlns:rdf="http://www.w3.org/1999/02/22-rdf-syntax-ns#">
   <cc:Work>
    <dc:type rdf:resource="http://purl.org/dc/dcmitype/StillImage"/>
    <dc:date>2025-05-23T14:34:03.888481</dc:date>
    <dc:format>image/svg+xml</dc:format>
    <dc:creator>
     <cc:Agent>
      <dc:title>Matplotlib v3.8.4, https://matplotlib.org/</dc:title>
     </cc:Agent>
    </dc:creator>
   </cc:Work>
  </rdf:RDF>
 </metadata>
 <defs>
  <style type="text/css">*{stroke-linejoin: round; stroke-linecap: butt}</style>
 </defs>
 <g id="figure_1">
  <g id="patch_1">
   <path d="M 0 180 
L 432 180 
L 432 0 
L 0 0 
z
" style="fill: #ffffff"/>
  </g>
  <g id="axes_1">
   <g id="patch_2">
    <path d="M 43.86812 66.395211 
L 417.966787 66.395211 
L 417.966787 6.691561 
L 43.86812 6.691561 
z
" style="fill: #ffffff"/>
   </g>
   <g id="matplotlib.axis_1">
    <g id="xtick_1">
     <g id="line2d_1">
      <path d="M 43.86812 66.395211 
L 43.86812 6.691561 
" clip-path="url(#pb227249960)" style="fill: none; stroke: #b2b2b2; stroke-opacity: 0.7; stroke-width: 0.5; stroke-linecap: square"/>
     </g>
     <g id="line2d_2">
      <defs>
       <path id="ma6d467d824" d="M 0 0 
L 0 -3.5 
" style="stroke: #000000; stroke-width: 0.8"/>
      </defs>
      <g>
       <use xlink:href="#ma6d467d824" x="43.86812" y="66.395211" style="stroke: #000000; stroke-width: 0.8"/>
      </g>
     </g>
     <g id="text_1">
      <!-- 5.20 -->
      <g transform="translate(32.835147 77.277853) scale(0.09716 -0.09716)">
       <defs>
        <path id="Verdana-35" d="M 3616 1478 
Q 3616 1153 3497 856 
Q 3378 559 3172 356 
Q 2947 138 2636 20 
Q 2325 -97 1916 -97 
Q 1534 -97 1181 -17 
Q 828 63 584 175 
L 584 834 
L 628 834 
Q 884 672 1228 558 
Q 1572 444 1903 444 
Q 2125 444 2333 506 
Q 2541 569 2703 725 
Q 2841 859 2911 1046 
Q 2981 1234 2981 1481 
Q 2981 1722 2898 1887 
Q 2816 2053 2669 2153 
Q 2506 2272 2273 2320 
Q 2041 2369 1753 2369 
Q 1478 2369 1223 2331 
Q 969 2294 784 2256 
L 784 4653 
L 3584 4653 
L 3584 4106 
L 1388 4106 
L 1388 2869 
Q 1522 2881 1662 2887 
Q 1803 2894 1906 2894 
Q 2284 2894 2568 2830 
Q 2853 2766 3091 2603 
Q 3341 2431 3478 2159 
Q 3616 1888 3616 1478 
z
" transform="scale(0.015625)"/>
        <path id="Verdana-2e" d="M 1538 0 
L 791 0 
L 791 891 
L 1538 891 
L 1538 0 
z
" transform="scale(0.015625)"/>
        <path id="Verdana-32" d="M 3653 0 
L 503 0 
L 503 653 
Q 831 934 1161 1215 
Q 1491 1497 1775 1775 
Q 2375 2356 2597 2698 
Q 2819 3041 2819 3438 
Q 2819 3800 2580 4004 
Q 2341 4209 1913 4209 
Q 1628 4209 1297 4109 
Q 966 4009 650 3803 
L 619 3803 
L 619 4459 
Q 841 4569 1211 4659 
Q 1581 4750 1928 4750 
Q 2644 4750 3050 4404 
Q 3456 4059 3456 3469 
Q 3456 3203 3389 2973 
Q 3322 2744 3191 2538 
Q 3069 2344 2905 2156 
Q 2741 1969 2506 1741 
Q 2172 1413 1815 1105 
Q 1459 797 1150 534 
L 3653 534 
L 3653 0 
z
" transform="scale(0.015625)"/>
        <path id="Verdana-30" d="M 3647 2328 
Q 3647 1075 3255 489 
Q 2863 -97 2038 -97 
Q 1200 -97 814 497 
Q 428 1091 428 2322 
Q 428 3563 818 4155 
Q 1209 4747 2038 4747 
Q 2875 4747 3261 4145 
Q 3647 3544 3647 2328 
z
M 2825 909 
Q 2934 1163 2973 1505 
Q 3013 1847 3013 2328 
Q 3013 2803 2973 3153 
Q 2934 3503 2822 3747 
Q 2713 3988 2523 4109 
Q 2334 4231 2038 4231 
Q 1744 4231 1551 4109 
Q 1359 3988 1247 3741 
Q 1141 3509 1102 3137 
Q 1063 2766 1063 2322 
Q 1063 1834 1097 1506 
Q 1131 1178 1244 919 
Q 1347 675 1536 547 
Q 1725 419 2038 419 
Q 2331 419 2525 541 
Q 2719 663 2825 909 
z
" transform="scale(0.015625)"/>
       </defs>
       <use xlink:href="#Verdana-35"/>
       <use xlink:href="#Verdana-2e" x="63.574219"/>
       <use xlink:href="#Verdana-32" x="99.951172"/>
       <use xlink:href="#Verdana-30" x="163.525391"/>
      </g>
     </g>
    </g>
    <g id="xtick_2">
     <g id="line2d_3">
      <path d="M 137.392787 66.395211 
L 137.392787 6.691561 
" clip-path="url(#pb227249960)" style="fill: none; stroke: #b2b2b2; stroke-opacity: 0.7; stroke-width: 0.5; stroke-linecap: square"/>
     </g>
     <g id="line2d_4">
      <g>
       <use xlink:href="#ma6d467d824" x="137.392787" y="66.395211" style="stroke: #000000; stroke-width: 0.8"/>
      </g>
     </g>
     <g id="text_2">
      <!-- 5.25 -->
      <g transform="translate(126.359813 77.277853) scale(0.09716 -0.09716)">
       <use xlink:href="#Verdana-35"/>
       <use xlink:href="#Verdana-2e" x="63.574219"/>
       <use xlink:href="#Verdana-32" x="99.951172"/>
       <use xlink:href="#Verdana-35" x="163.525391"/>
      </g>
     </g>
    </g>
    <g id="xtick_3">
     <g id="line2d_5">
      <path d="M 230.917453 66.395211 
L 230.917453 6.691561 
" clip-path="url(#pb227249960)" style="fill: none; stroke: #b2b2b2; stroke-opacity: 0.7; stroke-width: 0.5; stroke-linecap: square"/>
     </g>
     <g id="line2d_6">
      <g>
       <use xlink:href="#ma6d467d824" x="230.917453" y="66.395211" style="stroke: #000000; stroke-width: 0.8"/>
      </g>
     </g>
     <g id="text_3">
      <!-- 5.30 -->
      <g transform="translate(219.88448 77.277853) scale(0.09716 -0.09716)">
       <defs>
        <path id="Verdana-33" d="M 3244 2241 
Q 3394 2106 3491 1903 
Q 3588 1700 3588 1378 
Q 3588 1059 3472 793 
Q 3356 528 3147 331 
Q 2913 113 2595 8 
Q 2278 -97 1900 -97 
Q 1513 -97 1138 -4 
Q 763 88 522 197 
L 522 850 
L 569 850 
Q 834 675 1193 559 
Q 1553 444 1888 444 
Q 2084 444 2306 509 
Q 2528 575 2666 703 
Q 2809 841 2879 1006 
Q 2950 1172 2950 1425 
Q 2950 1675 2870 1839 
Q 2791 2003 2650 2097 
Q 2509 2194 2309 2230 
Q 2109 2266 1878 2266 
L 1597 2266 
L 1597 2784 
L 1816 2784 
Q 2291 2784 2573 2982 
Q 2856 3181 2856 3563 
Q 2856 3731 2784 3857 
Q 2713 3984 2584 4066 
Q 2450 4147 2297 4178 
Q 2144 4209 1950 4209 
Q 1653 4209 1318 4103 
Q 984 3997 688 3803 
L 656 3803 
L 656 4456 
Q 878 4566 1248 4658 
Q 1619 4750 1966 4750 
Q 2306 4750 2565 4687 
Q 2825 4625 3034 4488 
Q 3259 4338 3375 4125 
Q 3491 3913 3491 3628 
Q 3491 3241 3217 2952 
Q 2944 2663 2572 2588 
L 2572 2544 
Q 2722 2519 2915 2439 
Q 3109 2359 3244 2241 
z
" transform="scale(0.015625)"/>
       </defs>
       <use xlink:href="#Verdana-35"/>
       <use xlink:href="#Verdana-2e" x="63.574219"/>
       <use xlink:href="#Verdana-33" x="99.951172"/>
       <use xlink:href="#Verdana-30" x="163.525391"/>
      </g>
     </g>
    </g>
    <g id="xtick_4">
     <g id="line2d_7">
      <path d="M 324.44212 66.395211 
L 324.44212 6.691561 
" clip-path="url(#pb227249960)" style="fill: none; stroke: #b2b2b2; stroke-opacity: 0.7; stroke-width: 0.5; stroke-linecap: square"/>
     </g>
     <g id="line2d_8">
      <g>
       <use xlink:href="#ma6d467d824" x="324.44212" y="66.395211" style="stroke: #000000; stroke-width: 0.8"/>
      </g>
     </g>
     <g id="text_4">
      <!-- 5.35 -->
      <g transform="translate(313.409146 77.277853) scale(0.09716 -0.09716)">
       <use xlink:href="#Verdana-35"/>
       <use xlink:href="#Verdana-2e" x="63.574219"/>
       <use xlink:href="#Verdana-33" x="99.951172"/>
       <use xlink:href="#Verdana-35" x="163.525391"/>
      </g>
     </g>
    </g>
    <g id="xtick_5">
     <g id="line2d_9">
      <path d="M 417.966787 66.395211 
L 417.966787 6.691561 
" clip-path="url(#pb227249960)" style="fill: none; stroke: #b2b2b2; stroke-opacity: 0.7; stroke-width: 0.5; stroke-linecap: square"/>
     </g>
     <g id="line2d_10">
      <g>
       <use xlink:href="#ma6d467d824" x="417.966787" y="66.395211" style="stroke: #000000; stroke-width: 0.8"/>
      </g>
     </g>
     <g id="text_5">
      <!-- 5.40 -->
      <g transform="translate(406.933813 77.277853) scale(0.09716 -0.09716)">
       <defs>
        <path id="Verdana-34" d="M 3759 1309 
L 3069 1309 
L 3069 0 
L 2469 0 
L 2469 1309 
L 241 1309 
L 241 2028 
L 2494 4653 
L 3069 4653 
L 3069 1809 
L 3759 1809 
L 3759 1309 
z
M 2469 1809 
L 2469 3909 
L 666 1809 
L 2469 1809 
z
" transform="scale(0.015625)"/>
       </defs>
       <use xlink:href="#Verdana-35"/>
       <use xlink:href="#Verdana-2e" x="63.574219"/>
       <use xlink:href="#Verdana-34" x="99.951172"/>
       <use xlink:href="#Verdana-30" x="163.525391"/>
      </g>
     </g>
    </g>
   </g>
   <g id="matplotlib.axis_2">
    <g id="ytick_1">
     <g id="line2d_11">
      <path d="M 43.86812 66.395211 
L 417.966787 66.395211 
" clip-path="url(#pb227249960)" style="fill: none; stroke: #b2b2b2; stroke-opacity: 0.7; stroke-width: 0.5; stroke-linecap: square"/>
     </g>
     <g id="line2d_12">
      <defs>
       <path id="m74d68b4fe3" d="M 0 0 
L 3.5 0 
" style="stroke: #000000; stroke-width: 0.8"/>
      </defs>
      <g>
       <use xlink:href="#m74d68b4fe3" x="43.86812" y="66.395211" style="stroke: #000000; stroke-width: 0.8"/>
      </g>
     </g>
     <g id="text_6">
      <!-- −25 -->
      <g transform="translate(20.06168 70.086532) scale(0.09716 -0.09716)">
       <defs>
        <path id="Verdana-2212" d="M 4550 1788 
L 688 1788 
L 688 2288 
L 4550 2288 
L 4550 1788 
z
" transform="scale(0.015625)"/>
       </defs>
       <use xlink:href="#Verdana-2212"/>
       <use xlink:href="#Verdana-32" x="81.835938"/>
       <use xlink:href="#Verdana-35" x="145.410156"/>
      </g>
     </g>
    </g>
    <g id="ytick_2">
     <g id="line2d_13">
      <path d="M 43.86812 46.493994 
L 417.966787 46.493994 
" clip-path="url(#pb227249960)" style="fill: none; stroke: #b2b2b2; stroke-opacity: 0.7; stroke-width: 0.5; stroke-linecap: square"/>
     </g>
     <g id="line2d_14">
      <g>
       <use xlink:href="#m74d68b4fe3" x="43.86812" y="46.493994" style="stroke: #000000; stroke-width: 0.8"/>
      </g>
     </g>
     <g id="text_7">
      <!-- −15 -->
      <g transform="translate(20.06168 50.185315) scale(0.09716 -0.09716)">
       <defs>
        <path id="Verdana-31" d="M 3388 0 
L 869 0 
L 869 475 
L 1838 475 
L 1838 3594 
L 869 3594 
L 869 4019 
Q 1066 4019 1291 4051 
Q 1516 4084 1631 4147 
Q 1775 4225 1858 4345 
Q 1941 4466 1953 4669 
L 2438 4669 
L 2438 475 
L 3388 475 
L 3388 0 
z
" transform="scale(0.015625)"/>
       </defs>
       <use xlink:href="#Verdana-2212"/>
       <use xlink:href="#Verdana-31" x="81.835938"/>
       <use xlink:href="#Verdana-35" x="145.410156"/>
      </g>
     </g>
    </g>
    <g id="ytick_3">
     <g id="line2d_15">
      <path d="M 43.86812 26.592778 
L 417.966787 26.592778 
" clip-path="url(#pb227249960)" style="fill: none; stroke: #b2b2b2; stroke-opacity: 0.7; stroke-width: 0.5; stroke-linecap: square"/>
     </g>
     <g id="line2d_16">
      <g>
       <use xlink:href="#m74d68b4fe3" x="43.86812" y="26.592778" style="stroke: #000000; stroke-width: 0.8"/>
      </g>
     </g>
     <g id="text_8">
      <!-- −5 -->
      <g transform="translate(26.238931 30.284098) scale(0.09716 -0.09716)">
       <use xlink:href="#Verdana-2212"/>
       <use xlink:href="#Verdana-35" x="81.835938"/>
      </g>
     </g>
    </g>
    <g id="ytick_4">
     <g id="line2d_17">
      <path d="M 43.86812 6.691561 
L 417.966787 6.691561 
" clip-path="url(#pb227249960)" style="fill: none; stroke: #b2b2b2; stroke-opacity: 0.7; stroke-width: 0.5; stroke-linecap: square"/>
     </g>
     <g id="line2d_18">
      <g>
       <use xlink:href="#m74d68b4fe3" x="43.86812" y="6.691561" style="stroke: #000000; stroke-width: 0.8"/>
      </g>
     </g>
     <g id="text_9">
      <!-- 5 -->
      <g transform="translate(34.190869 10.382882) scale(0.09716 -0.09716)">
       <use xlink:href="#Verdana-35"/>
      </g>
     </g>
    </g>
    <g id="text_10">
     <!-- $|S_{21}|^2$ (dB) -->
     <g transform="translate(13.61266 69.022056) rotate(-90) scale(0.11662 -0.11662)">
      <defs>
       <path id="Verdana-7c" d="M 1725 -1225 
L 1181 -1225 
L 1181 4863 
L 1725 4863 
L 1725 -1225 
z
" transform="scale(0.015625)"/>
       <path id="Verdana-53" d="M 4006 1328 
Q 4006 1056 3879 790 
Q 3753 525 3525 341 
Q 3275 141 2942 28 
Q 2609 -84 2141 -84 
Q 1638 -84 1236 9 
Q 834 103 419 288 
L 419 1063 
L 463 1063 
Q 816 769 1278 609 
Q 1741 450 2147 450 
Q 2722 450 3042 665 
Q 3363 881 3363 1241 
Q 3363 1550 3211 1697 
Q 3059 1844 2750 1925 
Q 2516 1988 2242 2028 
Q 1969 2069 1663 2131 
Q 1044 2263 745 2580 
Q 447 2897 447 3406 
Q 447 3991 940 4364 
Q 1434 4738 2194 4738 
Q 2684 4738 3093 4644 
Q 3503 4550 3819 4413 
L 3819 3681 
L 3775 3681 
Q 3509 3906 3076 4054 
Q 2644 4203 2191 4203 
Q 1694 4203 1392 3997 
Q 1091 3791 1091 3466 
Q 1091 3175 1241 3009 
Q 1391 2844 1769 2756 
Q 1969 2713 2337 2650 
Q 2706 2588 2963 2522 
Q 3481 2384 3743 2106 
Q 4006 1828 4006 1328 
z
" transform="scale(0.015625)"/>
       <path id="Verdana-20" transform="scale(0.015625)"/>
       <path id="Verdana-28" d="M 2447 -1288 
L 1731 -1288 
Q 1178 -653 872 97 
Q 566 847 566 1788 
Q 566 2728 872 3478 
Q 1178 4228 1731 4863 
L 2447 4863 
L 2447 4831 
Q 2194 4603 1964 4304 
Q 1734 4006 1538 3609 
Q 1350 3225 1233 2762 
Q 1116 2300 1116 1788 
Q 1116 1253 1230 809 
Q 1344 366 1538 -34 
Q 1725 -419 1965 -730 
Q 2206 -1041 2447 -1256 
L 2447 -1288 
z
" transform="scale(0.015625)"/>
       <path id="Verdana-64" d="M 3409 0 
L 2822 0 
L 2822 366 
Q 2569 147 2294 25 
Q 2019 -97 1697 -97 
Q 1072 -97 705 384 
Q 338 866 338 1719 
Q 338 2163 464 2509 
Q 591 2856 806 3100 
Q 1019 3338 1301 3463 
Q 1584 3588 1888 3588 
Q 2163 3588 2375 3530 
Q 2588 3472 2822 3350 
L 2822 4863 
L 3409 4863 
L 3409 0 
z
M 2822 859 
L 2822 2863 
Q 2584 2969 2396 3009 
Q 2209 3050 1988 3050 
Q 1494 3050 1219 2706 
Q 944 2363 944 1731 
Q 944 1109 1156 786 
Q 1369 463 1838 463 
Q 2088 463 2344 573 
Q 2600 684 2822 859 
z
" transform="scale(0.015625)"/>
       <path id="Verdana-42" d="M 4134 1431 
Q 4134 1084 4003 818 
Q 3872 553 3650 381 
Q 3388 175 3073 87 
Q 2759 0 2275 0 
L 625 0 
L 625 4653 
L 2003 4653 
Q 2513 4653 2766 4615 
Q 3019 4578 3250 4459 
Q 3506 4325 3622 4114 
Q 3738 3903 3738 3609 
Q 3738 3278 3569 3045 
Q 3400 2813 3119 2672 
L 3119 2647 
Q 3591 2550 3862 2233 
Q 4134 1916 4134 1431 
z
M 3094 3528 
Q 3094 3697 3037 3812 
Q 2981 3928 2856 4000 
Q 2709 4084 2500 4104 
Q 2291 4125 1981 4125 
L 1244 4125 
L 1244 2781 
L 2044 2781 
Q 2334 2781 2506 2811 
Q 2678 2841 2825 2934 
Q 2972 3028 3033 3176 
Q 3094 3325 3094 3528 
z
M 3491 1406 
Q 3491 1688 3406 1853 
Q 3322 2019 3100 2134 
Q 2950 2213 2736 2236 
Q 2522 2259 2216 2259 
L 1244 2259 
L 1244 528 
L 2063 528 
Q 2469 528 2728 570 
Q 2988 613 3153 725 
Q 3328 847 3409 1003 
Q 3491 1159 3491 1406 
z
" transform="scale(0.015625)"/>
       <path id="Verdana-29" d="M 2341 1788 
Q 2341 847 2034 97 
Q 1728 -653 1175 -1288 
L 459 -1288 
L 459 -1256 
Q 700 -1041 942 -730 
Q 1184 -419 1369 -34 
Q 1563 366 1677 809 
Q 1791 1253 1791 1788 
Q 1791 2300 1675 2762 
Q 1559 3225 1369 3609 
Q 1172 4006 942 4304 
Q 713 4603 459 4831 
L 459 4863 
L 1175 4863 
Q 1728 4228 2034 3478 
Q 2341 2728 2341 1788 
z
" transform="scale(0.015625)"/>
      </defs>
      <use xlink:href="#Verdana-7c" transform="translate(0 0.864063)"/>
      <use xlink:href="#Verdana-53" transform="translate(45.410156 0.864063)"/>
      <use xlink:href="#Verdana-32" transform="translate(114.724102 -15.5) scale(0.7)"/>
      <use xlink:href="#Verdana-31" transform="translate(159.226055 -15.5) scale(0.7)"/>
      <use xlink:href="#Verdana-7c" transform="translate(206.455352 0.864063)"/>
      <use xlink:href="#Verdana-32" transform="translate(252.820078 39.046875) scale(0.7)"/>
      <use xlink:href="#Verdana-20" transform="translate(300.049375 0.864063)"/>
      <use xlink:href="#Verdana-28" transform="translate(335.205625 0.864063)"/>
      <use xlink:href="#Verdana-64" transform="translate(380.615781 0.864063)"/>
      <use xlink:href="#Verdana-42" transform="translate(442.920469 0.864063)"/>
      <use xlink:href="#Verdana-29" transform="translate(511.475156 0.864063)"/>
     </g>
    </g>
   </g>
   <g id="line2d_19">
    <path d="M 43.86812 16.645997 
L 49.53203 16.75948 
L 49.902392 16.966508 
L 50.081961 17.344791 
L 50.212897 18.250889 
L 50.313904 20.834802 
L 50.396207 30.580734 
L 50.448581 58.092866 
L 50.500956 30.547135 
L 50.658079 18.629112 
L 50.852612 17.224652 
L 51.095779 16.874647 
L 51.488586 16.733651 
L 52.536073 16.665847 
L 58.660129 16.645566 
L 66.433977 16.755786 
L 66.815562 16.961364 
L 66.995131 17.327495 
L 67.126067 18.190166 
L 67.230815 20.763756 
L 67.313118 30.17782 
L 67.365492 57.855431 
L 67.421608 30.063246 
L 67.582472 18.540717 
L 67.777005 17.210807 
L 68.023912 16.868851 
L 68.427943 16.730475 
L 69.524063 16.664503 
L 76.186827 16.645587 
L 83.354629 16.75667 
L 83.732473 16.960529 
L 83.915783 17.33707 
L 84.046719 18.219352 
L 84.151467 20.874518 
L 84.23377 30.714186 
L 84.286144 58.078599 
L 84.338518 30.50758 
L 84.495641 18.635705 
L 84.690175 17.227626 
L 84.933341 16.876004 
L 85.326149 16.734226 
L 86.369895 16.666085 
L 92.430354 16.645594 
L 100.267799 16.755755 
L 100.649383 16.9597 
L 100.832694 17.333277 
L 100.963629 18.204 
L 101.068378 20.802707 
L 101.150681 30.307156 
L 101.203055 57.943924 
L 101.25917 30.027259 
L 101.420034 18.547176 
L 101.614568 17.21372 
L 101.861475 16.870175 
L 102.265506 16.73103 
L 103.357885 16.664726 
L 109.95331 16.645605 
L 117.188451 16.756635 
L 117.570035 16.963081 
L 117.749604 17.329527 
L 117.88054 18.188917 
L 117.985289 20.732837 
L 118.067592 29.91743 
L 118.123707 58.044212 
L 118.176081 30.468451 
L 118.333204 18.642284 
L 118.527737 17.230603 
L 118.770904 16.877363 
L 119.163712 16.734802 
L 120.203716 16.666326 
L 126.204319 16.645622 
L 134.101621 16.755281 
L 134.486946 16.96014 
L 134.670256 17.332409 
L 134.801192 18.195783 
L 134.905941 20.752032 
L 134.988243 29.980428 
L 135.044359 58.01967 
L 135.096733 30.449042 
L 135.253856 18.645569 
L 135.448389 17.232092 
L 135.691556 16.878044 
L 136.084363 16.735091 
L 137.124368 16.666405 
L 143.110007 16.645636 
L 151.018532 16.755267 
L 151.403857 16.959317 
L 151.587167 17.328681 
L 151.718103 18.180881 
L 151.822852 20.68367 
L 151.905154 29.605146 
L 151.96127 58.038212 
L 152.017385 29.973985 
L 152.178249 18.55684 
L 152.376523 17.208099 
L 152.623431 16.869619 
L 153.027462 16.731248 
L 154.123582 16.664801 
L 160.726489 16.645641 
L 167.942925 16.757033 
L 168.324509 16.962676 
L 168.507819 17.338196 
L 168.638755 18.209575 
L 168.743504 20.7906 
L 168.825806 30.106984 
L 168.881922 57.956366 
L 168.934296 30.41054 
L 169.09516 18.590054 
L 169.289693 17.224656 
L 169.536601 16.874124 
L 169.93689 16.733086 
L 171.006823 16.665598 
L 177.306708 16.645642 
L 184.856094 16.756121 
L 185.24142 16.961842 
L 185.42473 17.334424 
L 185.555666 18.194507 
L 185.660415 20.721507 
L 185.742717 29.727914 
L 185.798832 58.07539 
L 185.851207 30.865359 
L 186.00833 18.687535 
L 186.202863 17.241883 
L 186.44603 16.881442 
L 186.835096 16.73696 
L 187.856396 16.667197 
L 193.610091 16.645703 
L 201.769264 16.754786 
L 202.158331 16.95894 
L 202.341641 17.324177 
L 202.476318 18.201352 
L 202.581066 20.740515 
L 202.663369 29.789582 
L 202.719484 58.086321 
L 202.771859 30.844627 
L 202.928982 18.690826 
L 203.123515 17.243385 
L 203.366681 16.882129 
L 203.755748 16.737253 
L 204.773307 16.667366 
L 210.48585 16.645723 
L 218.686175 16.754773 
L 219.075242 16.958129 
L 219.258552 17.320553 
L 219.393229 18.186465 
L 219.497977 20.672901 
L 219.58028 29.424367 
L 219.640136 57.827424 
L 219.692511 30.35355 
L 219.853375 18.599742 
L 220.047908 17.229066 
L 220.294815 16.876133 
L 220.691364 16.734575 
L 221.746333 16.666228 
L 227.851684 16.645684 
L 235.606827 16.755633 
L 235.995893 16.961448 
L 236.179204 17.32985 
L 236.313881 18.215102 
L 236.418629 20.778707 
L 236.500932 29.913462 
L 236.557047 58.093024 
L 236.609421 30.803503 
L 236.766544 18.697395 
L 236.961078 17.246389 
L 237.204244 16.883504 
L 237.593311 16.73784 
L 238.607128 16.667618 
L 244.259816 16.645759 
L 252.519997 16.754747 
L 252.909063 16.956526 
L 253.096115 17.326185 
L 253.230791 18.200051 
L 253.33554 20.710374 
L 253.417843 29.544588 
L 253.473958 57.861575 
L 253.530073 30.316059 
L 253.690937 18.606183 
L 253.889212 17.221759 
L 254.136119 16.874866 
L 254.536409 16.733862 
L 255.602601 16.665984 
L 261.820183 16.645702 
L 269.44439 16.756042 
L 269.833456 16.96188 
L 270.016766 17.329012 
L 270.151443 18.206874 
L 270.256192 20.7292 
L 270.338494 29.604974 
L 270.39461 57.906935 
L 270.450725 30.29746 
L 270.611589 18.6094 
L 270.809864 17.22321 
L 271.056771 16.875531 
L 271.457061 16.734144 
L 272.523253 16.666061 
L 278.722129 16.645715 
L 286.361301 16.756027 
L 286.750367 16.961059 
L 286.933677 17.325367 
L 287.068354 18.192002 
L 287.173103 20.662319 
L 287.255405 29.249402 
L 287.315262 58.065929 
L 287.367636 30.742642 
L 287.5285 18.643439 
L 287.723033 17.240197 
L 287.969941 16.880146 
L 288.362748 16.736703 
L 289.395271 16.66717 
L 295.223787 16.645762 
L 303.27447 16.755139 
L 303.667278 16.960244 
L 303.850588 17.321763 
L 303.985265 18.177385 
L 304.090014 20.597187 
L 304.172316 28.908155 
L 304.232173 57.982869 
L 304.288288 30.260557 
L 304.449152 18.615822 
L 304.647426 17.226114 
L 304.894334 16.876862 
L 305.294623 16.734709 
L 306.357074 16.666297 
L 312.496095 16.645742 
L 320.195122 16.755996 
L 320.584189 16.959435 
L 320.77124 17.331003 
L 320.905917 18.205547 
L 321.010666 20.699435 
L 321.092968 29.367166 
L 321.152825 58.023865 
L 321.205199 30.702609 
L 321.366063 18.649894 
L 321.560596 17.243162 
L 321.807504 16.881499 
L 322.200311 16.737282 
L 323.229093 16.667418 
L 329.001493 16.645795 
L 337.108292 16.755112 
L 337.5011 16.958632 
L 337.688151 17.327357 
L 337.822828 18.19077 
L 337.927576 20.633616 
L 338.009879 29.022535 
L 338.069735 58.039008 
L 338.125851 30.224039 
L 338.286715 18.62223 
L 338.484989 17.229018 
L 338.731897 16.878196 
L 339.132186 16.735275 
L 340.190896 16.666534 
L 346.27006 16.645769 
L 354.028944 16.75553 
L 354.421752 16.959867 
L 354.608803 17.330166 
L 354.74348 18.197493 
L 354.848228 20.651917 
L 354.930531 29.079985 
L 354.990387 58.059655 
L 355.046503 30.205921 
L 355.207367 18.62543 
L 355.405641 17.230472 
L 355.652549 16.878864 
L 356.049097 16.736208 
L 357.096584 16.666942 
L 363.044812 16.645793 
L 370.945855 16.755516 
L 371.338662 16.959064 
L 371.525714 17.326541 
L 371.660391 18.18289 
L 371.765139 20.587472 
L 371.847442 28.747435 
L 371.911039 57.926432 
L 371.963414 30.643353 
L 372.124278 18.659551 
L 372.322552 17.237087 
L 372.569459 16.880855 
L 372.966008 16.736822 
L 374.006013 16.667233 
L 379.868197 16.645816 
L 387.862766 16.755502 
L 388.255573 16.958267 
L 388.442625 17.322956 
L 388.577301 18.168534 
L 388.68205 20.524686 
L 388.764353 28.427948 
L 388.82795 58.086164 
L 388.880324 31.09884 
L 389.041188 18.69441 
L 389.235722 17.254477 
L 389.478888 16.888325 
L 389.864214 16.740848 
L 390.855585 16.668968 
L 396.20525 16.645947 
L 404.772195 16.753784 
L 405.172484 16.957476 
L 405.359535 17.319411 
L 405.494212 18.154419 
L 405.598961 20.463503 
L 405.685005 28.859556 
L 405.748602 57.839737 
L 405.800976 30.604369 
L 405.96184 18.665972 
L 406.160115 17.240016 
L 406.407022 16.8822 
L 406.803571 16.737397 
L 407.839834 16.667479 
L 413.645904 16.645848 
L 417.966787 16.648382 
L 417.966787 16.648382 
" clip-path="url(#pb227249960)" style="fill: none; stroke: #000000; stroke-linecap: square"/>
   </g>
   <g id="patch_3">
    <path d="M 43.86812 66.395211 
L 43.86812 6.691561 
" style="fill: none; stroke: #000000; stroke-width: 0.8; stroke-linejoin: miter; stroke-linecap: square"/>
   </g>
   <g id="patch_4">
    <path d="M 417.966787 66.395211 
L 417.966787 6.691561 
" style="fill: none; stroke: #000000; stroke-width: 0.8; stroke-linejoin: miter; stroke-linecap: square"/>
   </g>
   <g id="patch_5">
    <path d="M 43.86812 66.395211 
L 417.966787 66.395211 
" style="fill: none; stroke: #000000; stroke-width: 0.8; stroke-linejoin: miter; stroke-linecap: square"/>
   </g>
   <g id="patch_6">
    <path d="M 43.86812 6.691561 
L 417.966787 6.691561 
" style="fill: none; stroke: #000000; stroke-width: 0.8; stroke-linejoin: miter; stroke-linecap: square"/>
   </g>
  </g>
  <g id="axes_2">
   <g id="patch_7">
    <path d="M 43.86812 148.628648 
L 417.966787 148.628648 
L 417.966787 88.924998 
L 43.86812 88.924998 
z
" style="fill: #ffffff"/>
   </g>
   <g id="matplotlib.axis_3">
    <g id="xtick_6">
     <g id="line2d_20">
      <path d="M 43.86812 148.628648 
L 43.86812 88.924998 
" clip-path="url(#p8302af2a6d)" style="fill: none; stroke: #b2b2b2; stroke-opacity: 0.7; stroke-width: 0.5; stroke-linecap: square"/>
     </g>
     <g id="line2d_21">
      <g>
       <use xlink:href="#ma6d467d824" x="43.86812" y="148.628648" style="stroke: #000000; stroke-width: 0.8"/>
      </g>
     </g>
     <g id="text_11">
      <!-- 5.20 -->
      <g transform="translate(32.835147 159.51129) scale(0.09716 -0.09716)">
       <use xlink:href="#Verdana-35"/>
       <use xlink:href="#Verdana-2e" x="63.574219"/>
       <use xlink:href="#Verdana-32" x="99.951172"/>
       <use xlink:href="#Verdana-30" x="163.525391"/>
      </g>
     </g>
    </g>
    <g id="xtick_7">
     <g id="line2d_22">
      <path d="M 137.392787 148.628648 
L 137.392787 88.924998 
" clip-path="url(#p8302af2a6d)" style="fill: none; stroke: #b2b2b2; stroke-opacity: 0.7; stroke-width: 0.5; stroke-linecap: square"/>
     </g>
     <g id="line2d_23">
      <g>
       <use xlink:href="#ma6d467d824" x="137.392787" y="148.628648" style="stroke: #000000; stroke-width: 0.8"/>
      </g>
     </g>
     <g id="text_12">
      <!-- 5.25 -->
      <g transform="translate(126.359813 159.51129) scale(0.09716 -0.09716)">
       <use xlink:href="#Verdana-35"/>
       <use xlink:href="#Verdana-2e" x="63.574219"/>
       <use xlink:href="#Verdana-32" x="99.951172"/>
       <use xlink:href="#Verdana-35" x="163.525391"/>
      </g>
     </g>
    </g>
    <g id="xtick_8">
     <g id="line2d_24">
      <path d="M 230.917453 148.628648 
L 230.917453 88.924998 
" clip-path="url(#p8302af2a6d)" style="fill: none; stroke: #b2b2b2; stroke-opacity: 0.7; stroke-width: 0.5; stroke-linecap: square"/>
     </g>
     <g id="line2d_25">
      <g>
       <use xlink:href="#ma6d467d824" x="230.917453" y="148.628648" style="stroke: #000000; stroke-width: 0.8"/>
      </g>
     </g>
     <g id="text_13">
      <!-- 5.30 -->
      <g transform="translate(219.88448 159.51129) scale(0.09716 -0.09716)">
       <use xlink:href="#Verdana-35"/>
       <use xlink:href="#Verdana-2e" x="63.574219"/>
       <use xlink:href="#Verdana-33" x="99.951172"/>
       <use xlink:href="#Verdana-30" x="163.525391"/>
      </g>
     </g>
    </g>
    <g id="xtick_9">
     <g id="line2d_26">
      <path d="M 324.44212 148.628648 
L 324.44212 88.924998 
" clip-path="url(#p8302af2a6d)" style="fill: none; stroke: #b2b2b2; stroke-opacity: 0.7; stroke-width: 0.5; stroke-linecap: square"/>
     </g>
     <g id="line2d_27">
      <g>
       <use xlink:href="#ma6d467d824" x="324.44212" y="148.628648" style="stroke: #000000; stroke-width: 0.8"/>
      </g>
     </g>
     <g id="text_14">
      <!-- 5.35 -->
      <g transform="translate(313.409146 159.51129) scale(0.09716 -0.09716)">
       <use xlink:href="#Verdana-35"/>
       <use xlink:href="#Verdana-2e" x="63.574219"/>
       <use xlink:href="#Verdana-33" x="99.951172"/>
       <use xlink:href="#Verdana-35" x="163.525391"/>
      </g>
     </g>
    </g>
    <g id="xtick_10">
     <g id="line2d_28">
      <path d="M 417.966787 148.628648 
L 417.966787 88.924998 
" clip-path="url(#p8302af2a6d)" style="fill: none; stroke: #b2b2b2; stroke-opacity: 0.7; stroke-width: 0.5; stroke-linecap: square"/>
     </g>
     <g id="line2d_29">
      <g>
       <use xlink:href="#ma6d467d824" x="417.966787" y="148.628648" style="stroke: #000000; stroke-width: 0.8"/>
      </g>
     </g>
     <g id="text_15">
      <!-- 5.40 -->
      <g transform="translate(406.933813 159.51129) scale(0.09716 -0.09716)">
       <use xlink:href="#Verdana-35"/>
       <use xlink:href="#Verdana-2e" x="63.574219"/>
       <use xlink:href="#Verdana-34" x="99.951172"/>
       <use xlink:href="#Verdana-30" x="163.525391"/>
      </g>
     </g>
    </g>
    <g id="text_16">
     <!-- Frequency (GHz) -->
     <g transform="translate(179.878078 174.58476) scale(0.12 -0.12)">
      <defs>
       <path id="Verdana-46" d="M 3597 4103 
L 1244 4103 
L 1244 2791 
L 3266 2791 
L 3266 2241 
L 1244 2241 
L 1244 0 
L 625 0 
L 625 4653 
L 3597 4653 
L 3597 4103 
z
" transform="scale(0.015625)"/>
       <path id="Verdana-72" d="M 2756 2850 
L 2725 2850 
Q 2594 2881 2470 2895 
Q 2347 2909 2178 2909 
Q 1906 2909 1653 2789 
Q 1400 2669 1166 2478 
L 1166 0 
L 578 0 
L 578 3491 
L 1166 3491 
L 1166 2975 
Q 1516 3256 1783 3373 
Q 2050 3491 2328 3491 
Q 2481 3491 2550 3483 
Q 2619 3475 2756 3453 
L 2756 2850 
z
" transform="scale(0.015625)"/>
       <path id="Verdana-65" d="M 3500 1684 
L 928 1684 
Q 928 1363 1025 1123 
Q 1122 884 1291 731 
Q 1453 581 1676 506 
Q 1900 431 2169 431 
Q 2525 431 2886 573 
Q 3247 716 3400 853 
L 3431 853 
L 3431 213 
Q 3134 88 2825 3 
Q 2516 -81 2175 -81 
Q 1306 -81 818 389 
Q 331 859 331 1725 
Q 331 2581 798 3084 
Q 1266 3588 2028 3588 
Q 2734 3588 3117 3175 
Q 3500 2763 3500 2003 
L 3500 1684 
z
M 2928 2134 
Q 2925 2597 2695 2850 
Q 2466 3103 1997 3103 
Q 1525 3103 1245 2825 
Q 966 2547 928 2134 
L 2928 2134 
z
" transform="scale(0.015625)"/>
       <path id="Verdana-71" d="M 3409 -1288 
L 2822 -1288 
L 2822 394 
Q 2550 159 2281 45 
Q 2013 -69 1700 -69 
Q 1078 -69 708 411 
Q 338 891 338 1734 
Q 338 2184 467 2529 
Q 597 2875 809 3109 
Q 1016 3338 1294 3463 
Q 1572 3588 1881 3588 
Q 2163 3588 2380 3525 
Q 2597 3463 2822 3341 
L 2859 3491 
L 3409 3491 
L 3409 -1288 
z
M 2822 888 
L 2822 2863 
Q 2578 2972 2390 3015 
Q 2203 3059 1984 3059 
Q 1475 3059 1209 2714 
Q 944 2369 944 1763 
Q 944 1150 1158 820 
Q 1372 491 1831 491 
Q 2088 491 2344 602 
Q 2600 713 2822 888 
z
" transform="scale(0.015625)"/>
       <path id="Verdana-75" d="M 3472 0 
L 2884 0 
L 2884 388 
Q 2588 153 2316 28 
Q 2044 -97 1716 -97 
Q 1166 -97 859 239 
Q 553 575 553 1225 
L 553 3491 
L 1141 3491 
L 1141 1503 
Q 1141 1238 1166 1048 
Q 1191 859 1272 725 
Q 1356 588 1490 525 
Q 1625 463 1881 463 
Q 2109 463 2379 581 
Q 2650 700 2884 884 
L 2884 3491 
L 3472 3491 
L 3472 0 
z
" transform="scale(0.015625)"/>
       <path id="Verdana-6e" d="M 3497 0 
L 2909 0 
L 2909 1988 
Q 2909 2228 2881 2439 
Q 2853 2650 2778 2769 
Q 2700 2900 2553 2964 
Q 2406 3028 2172 3028 
Q 1931 3028 1668 2909 
Q 1406 2791 1166 2606 
L 1166 0 
L 578 0 
L 578 3491 
L 1166 3491 
L 1166 3103 
Q 1441 3331 1734 3459 
Q 2028 3588 2338 3588 
Q 2903 3588 3200 3247 
Q 3497 2906 3497 2266 
L 3497 0 
z
" transform="scale(0.015625)"/>
       <path id="Verdana-63" d="M 3159 219 
Q 2866 78 2602 0 
Q 2338 -78 2041 -78 
Q 1663 -78 1347 33 
Q 1031 144 806 369 
Q 578 594 453 937 
Q 328 1281 328 1741 
Q 328 2597 798 3084 
Q 1269 3572 2041 3572 
Q 2341 3572 2630 3487 
Q 2919 3403 3159 3281 
L 3159 2628 
L 3128 2628 
Q 2859 2838 2573 2950 
Q 2288 3063 2016 3063 
Q 1516 3063 1227 2727 
Q 938 2391 938 1741 
Q 938 1109 1220 770 
Q 1503 431 2016 431 
Q 2194 431 2378 478 
Q 2563 525 2709 600 
Q 2838 666 2950 739 
Q 3063 813 3128 866 
L 3159 866 
L 3159 219 
z
" transform="scale(0.015625)"/>
       <path id="Verdana-79" d="M 3597 3491 
L 1559 -1288 
L 931 -1288 
L 1581 169 
L 191 3491 
L 828 3491 
L 1900 903 
L 2981 3491 
L 3597 3491 
z
" transform="scale(0.015625)"/>
       <path id="Verdana-47" d="M 4506 344 
Q 4125 169 3673 39 
Q 3222 -91 2800 -91 
Q 2256 -91 1803 59 
Q 1350 209 1031 509 
Q 709 813 534 1267 
Q 359 1722 359 2331 
Q 359 3447 1011 4092 
Q 1663 4738 2800 4738 
Q 3197 4738 3611 4642 
Q 4025 4547 4503 4319 
L 4503 3584 
L 4447 3584 
Q 4350 3659 4165 3781 
Q 3981 3903 3803 3984 
Q 3588 4081 3314 4145 
Q 3041 4209 2694 4209 
Q 1913 4209 1458 3707 
Q 1003 3206 1003 2350 
Q 1003 1447 1478 945 
Q 1953 444 2772 444 
Q 3072 444 3370 503 
Q 3669 563 3894 656 
L 3894 1797 
L 2647 1797 
L 2647 2341 
L 4506 2341 
L 4506 344 
z
" transform="scale(0.015625)"/>
       <path id="Verdana-48" d="M 4184 0 
L 3566 0 
L 3566 2278 
L 1244 2278 
L 1244 0 
L 625 0 
L 625 4653 
L 1244 4653 
L 1244 2828 
L 3566 2828 
L 3566 4653 
L 4184 4653 
L 4184 0 
z
" transform="scale(0.015625)"/>
       <path id="Verdana-7a" d="M 3109 0 
L 291 0 
L 291 434 
L 2325 3000 
L 334 3000 
L 334 3491 
L 3056 3491 
L 3056 3072 
L 1013 497 
L 3109 497 
L 3109 0 
z
" transform="scale(0.015625)"/>
      </defs>
      <use xlink:href="#Verdana-46"/>
      <use xlink:href="#Verdana-72" x="57.470703"/>
      <use xlink:href="#Verdana-65" x="100.146484"/>
      <use xlink:href="#Verdana-71" x="159.716797"/>
      <use xlink:href="#Verdana-75" x="222.021484"/>
      <use xlink:href="#Verdana-65" x="285.302734"/>
      <use xlink:href="#Verdana-6e" x="344.873047"/>
      <use xlink:href="#Verdana-63" x="408.154297"/>
      <use xlink:href="#Verdana-79" x="460.253906"/>
      <use xlink:href="#Verdana-20" x="519.433594"/>
      <use xlink:href="#Verdana-28" x="554.589844"/>
      <use xlink:href="#Verdana-47" x="600"/>
      <use xlink:href="#Verdana-48" x="677.539062"/>
      <use xlink:href="#Verdana-7a" x="752.685547"/>
      <use xlink:href="#Verdana-29" x="805.224609"/>
     </g>
    </g>
   </g>
   <g id="matplotlib.axis_4">
    <g id="ytick_5">
     <g id="line2d_30">
      <path d="M 43.86812 148.628648 
L 417.966787 148.628648 
" clip-path="url(#p8302af2a6d)" style="fill: none; stroke: #b2b2b2; stroke-opacity: 0.7; stroke-width: 0.5; stroke-linecap: square"/>
     </g>
     <g id="line2d_31">
      <g>
       <use xlink:href="#m74d68b4fe3" x="43.86812" y="148.628648" style="stroke: #000000; stroke-width: 0.8"/>
      </g>
     </g>
     <g id="text_17">
      <!-- −25 -->
      <g transform="translate(20.06168 152.319969) scale(0.09716 -0.09716)">
       <use xlink:href="#Verdana-2212"/>
       <use xlink:href="#Verdana-32" x="81.835938"/>
       <use xlink:href="#Verdana-35" x="145.410156"/>
      </g>
     </g>
    </g>
    <g id="ytick_6">
     <g id="line2d_32">
      <path d="M 43.86812 128.727432 
L 417.966787 128.727432 
" clip-path="url(#p8302af2a6d)" style="fill: none; stroke: #b2b2b2; stroke-opacity: 0.7; stroke-width: 0.5; stroke-linecap: square"/>
     </g>
     <g id="line2d_33">
      <g>
       <use xlink:href="#m74d68b4fe3" x="43.86812" y="128.727432" style="stroke: #000000; stroke-width: 0.8"/>
      </g>
     </g>
     <g id="text_18">
      <!-- −15 -->
      <g transform="translate(20.06168 132.418753) scale(0.09716 -0.09716)">
       <use xlink:href="#Verdana-2212"/>
       <use xlink:href="#Verdana-31" x="81.835938"/>
       <use xlink:href="#Verdana-35" x="145.410156"/>
      </g>
     </g>
    </g>
    <g id="ytick_7">
     <g id="line2d_34">
      <path d="M 43.86812 108.826215 
L 417.966787 108.826215 
" clip-path="url(#p8302af2a6d)" style="fill: none; stroke: #b2b2b2; stroke-opacity: 0.7; stroke-width: 0.5; stroke-linecap: square"/>
     </g>
     <g id="line2d_35">
      <g>
       <use xlink:href="#m74d68b4fe3" x="43.86812" y="108.826215" style="stroke: #000000; stroke-width: 0.8"/>
      </g>
     </g>
     <g id="text_19">
      <!-- −5 -->
      <g transform="translate(26.238931 112.517536) scale(0.09716 -0.09716)">
       <use xlink:href="#Verdana-2212"/>
       <use xlink:href="#Verdana-35" x="81.835938"/>
      </g>
     </g>
    </g>
    <g id="ytick_8">
     <g id="line2d_36">
      <path d="M 43.86812 88.924998 
L 417.966787 88.924998 
" clip-path="url(#p8302af2a6d)" style="fill: none; stroke: #b2b2b2; stroke-opacity: 0.7; stroke-width: 0.5; stroke-linecap: square"/>
     </g>
     <g id="line2d_37">
      <g>
       <use xlink:href="#m74d68b4fe3" x="43.86812" y="88.924998" style="stroke: #000000; stroke-width: 0.8"/>
      </g>
     </g>
     <g id="text_20">
      <!-- 5 -->
      <g transform="translate(34.190869 92.616319) scale(0.09716 -0.09716)">
       <use xlink:href="#Verdana-35"/>
      </g>
     </g>
    </g>
    <g id="text_21">
     <!-- $|S_{21}|^2$ (dB) -->
     <g transform="translate(13.61266 151.255493) rotate(-90) scale(0.11662 -0.11662)">
      <use xlink:href="#Verdana-7c" transform="translate(0 0.864063)"/>
      <use xlink:href="#Verdana-53" transform="translate(45.410156 0.864063)"/>
      <use xlink:href="#Verdana-32" transform="translate(114.724102 -15.5) scale(0.7)"/>
      <use xlink:href="#Verdana-31" transform="translate(159.226055 -15.5) scale(0.7)"/>
      <use xlink:href="#Verdana-7c" transform="translate(206.455352 0.864063)"/>
      <use xlink:href="#Verdana-32" transform="translate(252.820078 39.046875) scale(0.7)"/>
      <use xlink:href="#Verdana-20" transform="translate(300.049375 0.864063)"/>
      <use xlink:href="#Verdana-28" transform="translate(335.205625 0.864063)"/>
      <use xlink:href="#Verdana-64" transform="translate(380.615781 0.864063)"/>
      <use xlink:href="#Verdana-42" transform="translate(442.920469 0.864063)"/>
      <use xlink:href="#Verdana-29" transform="translate(511.475156 0.864063)"/>
     </g>
    </g>
   </g>
   <g id="line2d_38">
    <path d="M 43.824633 97.836448 
L 43.999939 97.799876 
L 44.175244 97.766097 
L 44.81803 97.823576 
L 44.876465 97.718244 
L 44.9349 97.831389 
L 45.05177 97.842624 
L 45.28551 97.852311 
L 45.343946 97.763466 
L 45.402381 97.846947 
L 45.460816 97.866963 
L 45.519251 97.707669 
L 45.577686 97.803945 
L 45.694556 97.810767 
L 45.752991 97.694147 
L 45.811426 97.810331 
L 45.928296 97.768419 
L 45.986731 97.721556 
L 46.162037 97.840142 
L 46.337342 97.740799 
L 46.629517 97.804637 
L 47.155433 97.810368 
L 47.389173 97.831381 
L 47.622914 97.793315 
L 47.681349 97.877924 
L 47.739784 97.835536 
L 47.973524 97.813296 
L 48.207264 97.91662 
L 48.2657 97.799413 
L 48.324135 97.830442 
L 48.557875 98.010441 
L 48.61631 97.908878 
L 49.025356 98.81881 
L 49.200661 100.812757 
L 49.317531 106.267649 
L 49.434401 133.507564 
L 49.492836 126.594061 
L 49.668141 104.328534 
L 49.901882 100.17459 
L 50.194057 98.958811 
L 50.369362 98.630865 
L 50.486233 98.662245 
L 50.661538 98.461125 
L 51.012148 98.380007 
L 51.187454 98.304647 
L 51.362759 98.415347 
L 51.421194 98.322924 
L 51.479629 98.387236 
L 51.713369 98.42316 
L 52.122415 98.905343 
L 52.29772 100.175642 
L 52.41459 104.60018 
L 52.473025 118.533304 
L 52.53146 118.49091 
L 52.706766 98.940976 
L 52.882071 98.035656 
L 53.057376 97.838909 
L 53.174246 97.934031 
L 53.232681 97.779916 
L 53.291116 97.894 
L 53.407987 97.892013 
L 53.466422 97.937538 
L 53.583292 97.799626 
L 53.700162 97.94979 
L 53.758597 97.888545 
L 53.875467 97.747903 
L 53.933902 97.803478 
L 54.109208 97.837373 
L 54.167643 97.761424 
L 54.226078 97.838487 
L 54.518253 97.834378 
L 54.693558 97.759544 
L 54.868864 97.820518 
L 55.336344 97.801772 
L 55.570085 97.852747 
L 55.686955 97.730293 
L 55.920695 97.804139 
L 56.21287 97.76417 
L 56.388176 97.86101 
L 56.446611 97.768955 
L 56.505046 97.88734 
L 56.563481 97.808499 
L 56.680351 97.849155 
L 56.738786 97.775705 
L 56.797221 97.918864 
L 56.855656 97.870313 
L 56.972527 97.74679 
L 57.089397 97.809604 
L 57.147832 97.744247 
L 57.206267 97.828808 
L 57.264702 97.915507 
L 57.323137 97.756153 
L 57.381572 97.861917 
L 57.556877 97.78583 
L 57.907488 97.757826 
L 58.141228 97.74998 
L 58.258098 97.841449 
L 58.491839 97.680583 
L 58.608709 97.807762 
L 58.725579 97.739128 
L 58.842449 97.844853 
L 58.900884 97.717816 
L 58.959319 97.752161 
L 59.134624 97.802149 
L 59.251495 97.814185 
L 59.30993 97.663497 
L 59.368365 97.77404 
L 59.602105 97.773188 
L 59.77741 97.752396 
L 60.303326 97.736722 
L 60.361761 97.67661 
L 60.420196 97.771063 
L 60.829242 97.751176 
L 61.062982 97.776894 
L 62.465424 97.804018 
L 62.640729 97.82217 
L 62.99134 97.837348 
L 63.10821 97.824365 
L 64.276912 97.902279 
L 64.335347 97.745598 
L 64.393782 97.854326 
L 64.627522 97.887727 
L 64.744392 97.848307 
L 64.802827 97.93569 
L 64.861262 97.873017 
L 65.445613 97.939673 
L 65.679353 97.895277 
L 65.737789 97.982143 
L 65.796224 97.843528 
L 65.854659 97.990402 
L 66.029964 97.959552 
L 66.088399 98.025946 
L 66.146834 97.860811 
L 66.205269 97.981627 
L 66.263704 97.900721 
L 66.322139 97.975516 
L 66.78962 97.966315 
L 66.848055 97.800589 
L 66.90649 97.934817 
L 67.081795 97.911661 
L 67.14023 97.957313 
L 67.198666 97.821291 
L 67.257101 97.894472 
L 67.315536 97.85408 
L 67.490841 97.951972 
L 67.549276 98.01707 
L 67.666146 97.894987 
L 67.783016 97.984236 
L 67.841451 97.920351 
L 68.308932 97.900842 
L 68.367367 97.841782 
L 68.425802 97.926689 
L 68.484237 97.959493 
L 68.542672 97.797146 
L 68.601108 97.928205 
L 68.834848 97.881951 
L 69.243893 97.844348 
L 69.360764 97.973536 
L 69.419199 97.813671 
L 69.477634 97.910526 
L 69.652939 97.810528 
L 69.828244 97.921802 
L 69.945114 97.73768 
L 70.003549 97.82027 
L 70.061985 97.869693 
L 70.12042 97.793088 
L 70.23729 97.810042 
L 70.412595 97.868494 
L 70.529465 97.773882 
L 70.70477 97.903555 
L 70.880076 97.828003 
L 70.996946 97.869577 
L 71.113816 97.891651 
L 74.26931 97.845115 
L 74.327745 97.978002 
L 74.38618 97.84587 
L 74.619921 97.888798 
L 74.795226 97.909831 
L 75.262707 97.889399 
L 75.321142 97.853113 
L 75.379577 98.000128 
L 75.438012 97.901259 
L 75.671752 97.935804 
L 75.730187 97.855084 
L 75.847057 97.993057 
L 75.963928 97.822012 
L 76.022363 97.924552 
L 76.080798 97.802836 
L 76.372973 97.992377 
L 76.431408 97.847645 
L 76.489843 97.92865 
L 76.548278 98.006319 
L 76.606714 97.915484 
L 76.782019 97.992214 
L 76.840454 97.871611 
L 76.898889 97.929799 
L 77.48324 98.023396 
L 77.658545 97.836257 
L 77.775415 97.940663 
L 77.95072 97.890438 
L 78.242896 97.955859 
L 78.359766 97.980059 
L 78.418201 97.866138 
L 78.476636 97.994561 
L 78.768811 97.848479 
L 78.827247 97.924934 
L 78.885682 97.796243 
L 78.944117 97.994893 
L 79.002552 97.950418 
L 79.236292 97.857813 
L 79.294727 98.02373 
L 79.353162 97.92305 
L 79.470032 97.984572 
L 79.937513 97.886684 
L 80.404994 97.802803 
L 80.463429 97.972567 
L 80.521864 97.916288 
L 80.755604 97.97793 
L 80.814039 97.913994 
L 80.872474 98.069149 
L 80.930909 98.025365 
L 81.749001 98.013981 
L 82.216481 98.523657 
L 82.333351 99.867963 
L 82.391786 102.051073 
L 82.508657 125.600652 
L 82.683962 99.601738 
L 82.859267 98.41792 
L 83.151443 98.026994 
L 83.326748 98.051519 
L 83.443618 97.955908 
L 83.502053 98.059155 
L 83.560488 97.92614 
L 83.618923 98.069189 
L 83.735793 97.920783 
L 83.852663 98.063233 
L 84.027969 97.897142 
L 84.086404 98.009578 
L 84.144839 97.929056 
L 84.72919 97.988442 
L 84.904495 97.915009 
L 85.138235 97.904771 
L 85.255105 97.911358 
L 85.430411 97.923971 
L 85.488846 97.95922 
L 85.547281 97.861038 
L 85.605716 97.912192 
L 85.839456 97.998644 
L 86.014761 97.823667 
L 86.073197 97.963553 
L 86.131632 97.867062 
L 86.306937 97.835697 
L 86.423807 97.910791 
L 86.482242 97.828231 
L 86.540677 97.875432 
L 87.300333 97.902729 
L 87.475638 97.850765 
L 87.592509 97.861967 
L 87.650944 97.817242 
L 87.709379 97.923917 
L 87.767814 97.878146 
L 87.826249 97.856248 
L 87.884684 97.968623 
L 87.943119 97.879619 
L 88.176859 97.860603 
L 88.235295 97.928506 
L 88.29373 97.866483 
L 88.52747 97.876251 
L 88.64434 97.857691 
L 88.76121 97.905433 
L 89.053386 97.894332 
L 89.111821 97.979039 
L 89.287126 97.83816 
L 89.579301 97.891893 
L 89.637736 97.80942 
L 89.696172 97.9918 
L 89.754607 97.845791 
L 89.871477 97.895345 
L 90.046782 97.862464 
L 90.105217 97.946296 
L 90.163652 97.892246 
L 90.455828 97.89635 
L 90.514263 97.96211 
L 90.689568 97.824589 
L 90.748003 98.027926 
L 90.806438 97.8938 
L 91.098613 97.97043 
L 91.273919 97.907729 
L 91.566094 97.964552 
L 91.858269 97.877197 
L 92.033575 97.939146 
L 92.267315 97.876501 
L 92.44262 97.963674 
L 92.501055 97.897897 
L 92.55949 97.989462 
L 93.085406 97.918051 
L 93.961932 97.880929 
L 94.020367 97.99239 
L 94.078803 97.908651 
L 94.254108 97.850679 
L 94.312543 97.976334 
L 94.370978 97.885488 
L 94.604718 97.91185 
L 94.721588 97.827311 
L 94.838459 97.90863 
L 95.013764 97.837857 
L 95.189069 97.95735 
L 95.364374 97.930914 
L 97.993953 97.947258 
L 98.052388 98.070893 
L 98.110823 97.919845 
L 98.169258 98.019937 
L 98.461434 97.923557 
L 98.578304 97.955864 
L 98.987349 97.996063 
L 99.104219 97.955005 
L 99.279525 97.981539 
L 99.396395 97.963839 
L 99.68857 98.034563 
L 99.747005 97.896159 
L 99.80544 98.013932 
L 100.272921 98.031581 
L 100.331356 97.929376 
L 100.389791 98.031632 
L 100.623532 98.010085 
L 100.681967 98.073474 
L 100.740402 98.018599 
L 100.915707 98.033184 
L 101.266317 98.014516 
L 101.558493 97.967955 
L 101.733798 97.955337 
L 101.792233 97.885761 
L 101.850668 97.970915 
L 102.084409 97.937284 
L 102.142844 98.025259 
L 102.201279 97.944781 
L 102.318149 97.946704 
L 102.610324 97.939845 
L 102.844065 97.849272 
L 102.960935 97.979224 
L 103.13624 97.865315 
L 103.194675 97.970368 
L 103.25311 97.800927 
L 103.311545 97.859559 
L 103.428415 97.902738 
L 103.662156 97.877631 
L 103.720591 97.804775 
L 103.779026 97.950792 
L 103.837461 97.82189 
L 103.954331 97.869605 
L 104.012766 97.816155 
L 104.071201 97.881949 
L 104.188071 97.881496 
L 104.363377 97.820608 
L 104.421812 97.941236 
L 104.597117 97.763489 
L 104.772422 97.886557 
L 105.006163 97.770071 
L 105.181468 97.899953 
L 105.356773 97.815035 
L 105.473643 97.866121 
L 105.882689 97.834509 
L 105.941124 97.879146 
L 105.999559 97.69851 
L 106.057994 97.750877 
L 106.233299 97.785847 
L 106.291734 97.694546 
L 106.350169 97.802431 
L 106.525475 97.828289 
L 106.642345 97.684062 
L 106.759215 97.886796 
L 106.81765 97.677074 
L 106.876085 97.823444 
L 106.93452 97.723577 
L 106.992955 97.777265 
L 107.168261 97.758545 
L 107.402001 97.745372 
L 107.811046 97.931192 
L 107.927917 98.47232 
L 108.044787 101.511119 
L 108.103222 109.235874 
L 108.161657 142.706225 
L 108.220092 113.109496 
L 108.395397 100.767023 
L 108.687573 98.88753 
L 109.213488 98.316285 
L 109.330359 98.306475 
L 109.388794 98.176443 
L 109.447229 98.271822 
L 110.440625 98.065375 
L 110.49906 98.22814 
L 110.557495 98.19778 
L 111.317151 98.114654 
L 111.375586 98.197647 
L 111.434021 98.120236 
L 111.492456 98.08099 
L 111.550892 98.249105 
L 111.609327 98.096003 
L 111.726197 98.025226 
L 111.784632 98.199213 
L 111.843067 98.120493 
L 112.135242 98.208324 
L 112.368983 98.093647 
L 112.544288 98.224461 
L 112.661158 98.190119 
L 112.953333 98.467963 
L 113.011769 98.387489 
L 113.245509 98.937272 
L 113.362379 99.78443 
L 113.479249 102.169529 
L 113.596119 114.781459 
L 113.654554 149.877629 
L 113.82986 103.432752 
L 114.005165 99.913293 
L 114.238905 98.854909 
L 114.589516 98.450484 
L 114.647951 98.515717 
L 114.706386 98.40109 
L 114.764821 98.473529 
L 115.115431 98.268003 
L 115.173867 98.361552 
L 115.232302 98.294734 
L 115.875088 98.314114 
L 115.991958 98.101017 
L 116.050393 98.214623 
L 116.284133 98.222662 
L 116.401003 98.280785 
L 116.459438 98.187081 
L 116.517873 98.280934 
L 116.751614 98.143109 
L 116.985354 98.206096 
L 117.160659 98.176047 
L 117.277529 98.256518 
L 117.51127 98.141308 
L 117.686575 98.219791 
L 117.803445 98.142463 
L 117.920315 98.246803 
L 118.095621 98.123017 
L 118.154056 98.264721 
L 118.212491 98.23494 
L 118.329361 98.172923 
L 118.387796 98.294026 
L 118.446231 98.260495 
L 118.855277 98.165945 
L 119.030582 98.273061 
L 119.089017 98.079188 
L 119.147452 98.132606 
L 119.264322 98.128023 
L 119.381192 98.197199 
L 119.556498 98.17185 
L 119.673368 98.256642 
L 119.731803 98.132384 
L 119.790238 98.190906 
L 119.848673 98.159952 
L 119.907108 98.268001 
L 119.965543 98.164566 
L 120.140848 98.308621 
L 120.374589 98.034978 
L 120.549894 98.269519 
L 120.666764 98.074907 
L 120.783634 98.272102 
L 120.95894 98.078547 
L 121.134245 98.197141 
L 121.54329 98.076041 
L 121.66016 98.213159 
L 121.718596 98.140673 
L 121.952336 98.133155 
L 122.595122 98.105456 
L 122.653557 98.014035 
L 122.711992 98.074351 
L 122.887297 98.045405 
L 123.062602 98.157997 
L 123.179473 98.065792 
L 123.296343 98.183805 
L 123.471648 98.051481 
L 123.822258 98.125236 
L 123.997564 98.094836 
L 124.231304 98.138823 
L 124.348174 98.060663 
L 124.406609 98.130881 
L 124.465044 98.075661 
L 124.581914 98.108876 
L 125.575311 98.076608 
L 125.692181 98.115963 
L 126.276532 98.133596 
L 126.334967 98.018669 
L 126.393402 98.121078 
L 126.451837 98.047075 
L 126.510272 98.129004 
L 127.036188 98.05419 
L 127.211493 98.062514 
L 127.269928 97.981473 
L 127.386798 98.134811 
L 127.503669 98.050893 
L 127.620539 98.066575 
L 127.854279 98.128087 
L 127.971149 98.128279 
L 128.088019 98.04831 
L 128.263325 98.230206 
L 128.380195 98.17831 
L 128.5555 98.334586 
L 128.67237 99.070311 
L 128.730805 100.593064 
L 128.847675 120.576152 
L 129.022981 99.770681 
L 129.256721 98.69561 
L 129.315156 98.68403 
L 129.373591 98.432859 
L 129.432026 98.508971 
L 129.490461 98.571272 
L 129.665766 98.365005 
L 131.068208 98.469521 
L 131.126643 98.280636 
L 131.185079 98.399201 
L 131.301949 98.405658 
L 131.418819 98.395404 
L 131.535689 98.287066 
L 131.710994 98.444399 
L 132.178475 98.359575 
L 132.35378 98.441173 
L 132.412215 98.311657 
L 132.58752 98.495789 
L 132.704391 98.341257 
L 132.879696 98.365588 
L 132.996566 98.308833 
L 133.230306 98.467531 
L 133.405612 98.297158 
L 133.464047 98.453616 
L 133.522482 98.320382 
L 133.697787 98.340749 
L 133.756222 98.452907 
L 133.814657 98.321015 
L 133.873092 98.459184 
L 134.223703 98.251792 
L 134.399008 98.374068 
L 134.574313 98.272924 
L 134.632748 98.402066 
L 134.691183 98.318002 
L 134.924924 98.334788 
L 134.983359 98.201597 
L 135.041794 98.31457 
L 135.100229 98.26247 
L 135.275534 98.422112 
L 135.509275 98.339629 
L 136.15206 98.286887 
L 136.444236 98.343109 
L 136.502671 98.224907 
L 136.561106 98.320232 
L 136.677976 98.318261 
L 136.794846 98.412433 
L 136.853281 98.260866 
L 136.911716 98.291259 
L 136.970152 98.344503 
L 137.028587 98.230614 
L 137.087022 98.332813 
L 137.203892 98.355523 
L 137.379197 98.282695 
L 138.021983 98.269712 
L 138.138853 98.376802 
L 138.197288 98.277674 
L 138.255723 98.374465 
L 138.372593 98.248339 
L 138.431029 98.359891 
L 138.781639 98.254959 
L 138.840074 98.368283 
L 138.898509 98.218885 
L 138.956944 98.305283 
L 139.073814 98.30508 
L 139.891906 98.280172 
L 140.008776 98.300467 
L 140.184081 98.277584 
L 140.242516 98.445208 
L 140.417821 98.221927 
L 140.885302 98.321118 
L 140.943737 98.202327 
L 141.119042 98.362425 
L 141.294347 98.290134 
L 142.579919 98.276672 
L 142.81366 98.332139 
L 142.872095 98.157268 
L 142.93053 98.262908 
L 143.16427 98.307066 
L 143.222705 98.160314 
L 143.28114 98.195277 
L 143.456445 98.248811 
L 143.690186 98.284645 
L 143.865491 98.245273 
L 144.040796 98.272268 
L 144.449842 98.210909 
L 144.566712 98.245471 
L 145.092628 98.208268 
L 145.151063 98.33209 
L 145.209498 98.211114 
L 145.267933 98.188665 
L 145.326368 98.29253 
L 145.384803 98.220516 
L 145.501673 98.190263 
L 145.618543 98.208114 
L 145.793849 98.172105 
L 145.969154 98.383275 
L 146.086024 98.201099 
L 146.319764 98.268661 
L 146.49507 98.232919 
L 146.787245 98.169766 
L 146.84568 98.296473 
L 146.904115 98.214546 
L 147.137856 98.314596 
L 147.196291 98.199333 
L 147.254726 98.320831 
L 147.371596 98.308761 
L 147.546901 98.362621 
L 147.897512 98.241451 
L 148.014382 98.314019 
L 148.189687 98.263065 
L 148.423427 98.280263 
L 150.29335 98.407366 
L 150.351785 98.20519 
L 150.41022 98.309783 
L 150.468655 98.40062 
L 150.52709 98.279311 
L 150.585525 98.403063 
L 150.76083 98.3165 
L 150.936136 98.331379 
L 151.053006 98.392144 
L 151.228311 98.351602 
L 151.286746 98.299491 
L 151.345181 98.373632 
L 152.806058 98.326376 
L 152.864493 98.481853 
L 152.922928 98.395618 
L 152.981364 98.446269 
L 153.098234 98.348474 
L 153.273539 98.44805 
L 153.390409 98.46374 
L 153.507279 98.425679 
L 154.383805 98.384666 
L 154.500676 98.341062 
L 154.734416 98.419014 
L 155.494072 98.404519 
L 155.669377 98.301707 
L 155.903118 98.397336 
L 155.961553 98.313731 
L 156.019988 98.380563 
L 156.078423 98.425815 
L 156.136858 98.301083 
L 156.195293 98.354148 
L 156.312163 98.303041 
L 156.370598 98.406109 
L 156.487468 98.270289 
L 156.721209 98.326353 
L 157.013384 98.238644 
L 157.071819 98.363096 
L 157.130254 98.23928 
L 157.247124 98.381923 
L 157.42243 98.287083 
L 157.480865 98.408715 
L 157.5393 98.250063 
L 157.597735 98.302691 
L 157.77304 98.277477 
L 157.948345 98.371548 
L 158.123651 98.230217 
L 158.240521 98.346996 
L 158.298956 98.202902 
L 158.357391 98.315552 
L 158.415826 98.269845 
L 158.474261 98.356024 
L 158.591131 98.332641 
L 158.649566 98.271141 
L 158.708001 98.416866 
L 158.766436 98.264873 
L 158.941742 98.25988 
L 159.058612 98.403406 
L 159.117047 98.330242 
L 159.175482 98.239156 
L 159.233917 98.282564 
L 159.701398 98.341407 
L 159.759833 98.180434 
L 159.818268 98.228065 
L 160.168878 98.287696 
L 160.402619 98.233467 
L 160.519489 98.34121 
L 160.577924 98.236131 
L 160.636359 98.283187 
L 161.45445 98.121796 
L 161.512885 98.253998 
L 161.57132 98.151885 
L 161.863496 98.079449 
L 162.038801 98.08881 
L 162.798457 97.822845 
L 162.915327 97.614407 
L 162.973762 97.729985 
L 163.207503 97.328949 
L 163.324373 97.294166 
L 163.616548 96.758905 
L 163.733418 97.610317 
L 163.791853 100.190533 
L 163.850288 108.432446 
L 163.908724 134.334181 
L 163.967159 123.801602 
L 164.142464 105.811937 
L 164.376204 102.436255 
L 164.609945 101.570498 
L 164.78525 101.417577 
L 164.843685 101.508731 
L 165.077425 102.112603 
L 165.25273 104.060891 
L 165.369601 108.378356 
L 165.428036 114.919679 
L 165.486471 147.274132 
L 165.661776 97.366203 
L 165.720211 96.700842 
L 165.778646 96.844783 
L 165.837081 96.867455 
L 166.246127 97.719127 
L 166.304562 97.61811 
L 166.362997 97.700598 
L 166.538302 97.90125 
L 167.414828 98.201949 
L 167.473263 98.081559 
L 167.531699 98.185828 
L 167.648569 98.226112 
L 167.707004 98.255851 
L 167.765439 98.134854 
L 167.823874 98.241983 
L 167.999179 98.18412 
L 168.116049 98.23345 
L 168.46666 98.238869 
L 168.641965 98.351194 
L 168.7004 98.225565 
L 168.758835 98.354379 
L 169.226316 98.280984 
L 169.401621 98.292271 
L 169.460056 98.25866 
L 169.518491 98.368283 
L 169.576926 98.306359 
L 170.920933 98.440345 
L 170.979368 98.276002 
L 171.037803 98.321618 
L 171.213109 98.437494 
L 171.271544 98.32629 
L 171.329979 98.365793 
L 171.680589 98.374781 
L 171.739024 98.436672 
L 171.91433 98.285888 
L 172.089635 98.386239 
L 172.615551 98.379118 
L 172.673986 98.302782 
L 172.732421 98.429827 
L 172.790856 98.38175 
L 173.083031 98.399282 
L 173.316772 98.42697 
L 173.433642 98.308113 
L 173.492077 98.380033 
L 175.59574 98.355577 
L 175.887915 98.382323 
L 176.004785 98.241139 
L 176.18009 98.42027 
L 176.413831 98.27688 
L 176.589136 98.371274 
L 176.647571 98.281178 
L 176.706006 98.369246 
L 177.348792 98.304952 
L 177.407227 98.409182 
L 177.465662 98.33628 
L 178.050013 98.305969 
L 178.166883 98.320773 
L 178.400624 98.253524 
L 178.634364 98.314933 
L 178.751234 98.305834 
L 178.984974 98.336688 
L 179.101844 98.343145 
L 179.27715 98.304159 
L 179.452455 98.250051 
L 179.74463 98.290674 
L 180.153676 98.282569 
L 180.328981 98.229968 
L 180.621157 98.274687 
L 180.738027 98.281515 
L 181.147072 98.306379 
L 181.205507 98.179326 
L 181.263942 98.366631 
L 181.322378 98.259749 
L 181.789858 98.285203 
L 181.965163 98.280701 
L 182.257339 98.342545 
L 182.374209 98.231272 
L 182.432644 98.289482 
L 182.491079 98.395342 
L 182.549514 98.309679 
L 182.84169 98.289896 
L 182.900125 98.338833 
L 182.95856 98.203374 
L 183.016995 98.280522 
L 183.542911 98.212334 
L 183.718216 98.316707 
L 183.835086 98.250179 
L 183.951956 98.342481 
L 184.010391 98.207024 
L 184.068826 98.293571 
L 184.127261 98.277203 
L 184.185696 98.382048 
L 184.244132 98.288385 
L 184.594742 98.232595 
L 184.770047 98.285883 
L 185.471268 98.245604 
L 185.529703 98.289036 
L 185.588138 98.162584 
L 185.646573 98.194345 
L 185.938749 98.217966 
L 186.055619 98.146395 
L 186.230924 98.219019 
L 186.347794 98.13542 
L 186.464665 98.244971 
L 186.581535 98.187581 
L 186.63997 98.235273 
L 186.75684 98.089049 
L 186.87371 98.181513 
L 187.049015 98.093613 
L 187.165886 98.26622 
L 187.282756 98.110555 
L 187.458061 98.191785 
L 187.925542 98.08993 
L 187.983977 98.166885 
L 188.042412 98.067019 
L 188.217717 98.120668 
L 188.393022 98.103332 
L 188.509892 98.043815 
L 188.685198 98.070309 
L 188.918938 98.106591 
L 189.035808 98.058073 
L 189.094243 98.091357 
L 189.152678 97.974933 
L 189.211113 98.119746 
L 189.269548 98.05356 
L 189.444854 98.031728 
L 189.620159 98.061918 
L 189.678594 97.955025 
L 189.737029 98.085785 
L 189.795464 98.029314 
L 189.970769 98.042623 
L 190.08764 97.957737 
L 190.43825 97.988594 
L 190.67199 97.888367 
L 190.730425 98.0301 
L 190.788861 97.893495 
L 190.964166 98.022605 
L 191.022601 97.873234 
L 191.081036 97.899715 
L 191.139471 97.94008 
L 191.256341 97.860851 
L 191.723822 97.878054 
L 191.899127 97.701965 
L 192.074432 97.636039 
L 192.249738 97.624885 
L 192.483478 97.361154 
L 192.541913 97.438926 
L 192.600348 97.33962 
L 192.717218 97.341448 
L 192.775653 97.350324 
L 192.834088 97.600303 
L 192.892523 98.574371 
L 192.950959 102.99684 
L 193.009394 123.467381 
L 193.067829 120.104314 
L 193.243134 102.158746 
L 193.476874 99.65467 
L 193.76905 98.960618 
L 193.827485 98.939323 
L 194.00279 98.758128 
L 194.178095 98.646839 
L 195.171492 98.344953 
L 195.229927 98.418419 
L 195.288362 98.297397 
L 195.346797 98.356645 
L 195.463667 98.363074 
L 195.638972 98.292529 
L 195.697407 98.398917 
L 195.755842 98.338503 
L 196.398628 98.265206 
L 196.457063 98.362787 
L 196.515498 98.303822 
L 196.690804 98.260369 
L 197.275154 98.248003 
L 197.33359 98.37095 
L 197.392025 98.274258 
L 197.625765 98.298074 
L 197.80107 98.286773 
L 198.151681 98.290668 
L 198.210116 98.182326 
L 198.268551 98.296252 
L 198.852902 98.220302 
L 198.911337 98.347215 
L 198.969772 98.234375 
L 199.145077 98.350557 
L 199.320382 98.141977 
L 199.437252 98.311028 
L 199.554123 98.197863 
L 199.846298 98.26276 
L 200.080038 98.197862 
L 200.255344 98.283908 
L 200.372214 98.155753 
L 200.489084 98.332198 
L 200.547519 98.301263 
L 200.664389 98.246628 
L 200.781259 98.296008 
L 200.839694 98.18573 
L 200.898129 98.297049 
L 202.592747 98.166402 
L 202.651182 98.296152 
L 202.709617 98.167765 
L 202.884922 98.199565 
L 203.060227 98.142435 
L 203.235533 98.165747 
L 205.689806 98.056071 
L 205.748241 97.972912 
L 205.806676 98.132143 
L 205.865111 98.061776 
L 206.098852 98.036802 
L 206.215722 98.085582 
L 206.274157 97.966407 
L 206.332592 98.077913 
L 206.975378 98.056792 
L 207.033813 98.1643 
L 207.092248 98.122422 
L 207.150683 98.030261 
L 207.209118 98.084219 
L 207.442858 98.052901 
L 208.26095 98.119511 
L 208.319385 98.072616 
L 208.436255 98.169492 
L 208.72843 98.028903 
L 208.903735 98.204641 
L 209.020606 98.163299 
L 209.546521 98.08712 
L 209.721827 98.150788 
L 209.897132 98.251345 
L 209.955567 98.12823 
L 210.014002 98.174852 
L 210.364612 98.166589 
L 210.948963 98.135079 
L 211.065833 98.198825 
L 211.241139 98.162697 
L 211.358009 98.240642 
L 211.533314 98.136969 
L 211.883925 98.249349 
L 211.94236 98.15936 
L 212.000795 98.211587 
L 212.117665 98.220048 
L 212.351405 98.15327 
L 212.52671 98.256093 
L 212.994191 98.21377 
L 213.520107 98.290829 
L 213.753847 98.31317 
L 213.870717 98.385677 
L 214.221328 98.385566 
L 214.396633 98.597471 
L 214.630373 98.687208 
L 214.864114 99.141376 
L 215.097854 100.815662 
L 215.214724 104.793293 
L 215.273159 112.160415 
L 215.331594 146.482959 
L 215.5069 99.465943 
L 215.682205 97.909794 
L 216.032815 97.717561 
L 216.149685 97.846501 
L 216.20812 97.769928 
L 216.383426 97.881807 
L 216.500296 97.850315 
L 216.675601 97.825207 
L 216.850906 97.973874 
L 217.026212 97.831124 
L 217.201517 97.924407 
L 217.376822 97.985227 
L 217.435257 98.039093 
L 217.493692 97.875464 
L 217.552127 97.900737 
L 217.668998 97.987093 
L 217.844303 97.954787 
L 218.019608 97.987507 
L 218.078043 97.897938 
L 218.194913 97.997985 
L 218.428654 97.955764 
L 218.662394 97.986212 
L 218.896134 97.863797 
L 219.18831 97.979009 
L 219.42205 97.97252 
L 219.480485 97.886634 
L 219.65579 98.014038 
L 219.889531 97.921214 
L 220.064836 97.963924 
L 220.240141 97.891463 
L 220.298576 97.97946 
L 220.357011 97.908988 
L 220.590752 97.979534 
L 220.649187 97.885822 
L 220.766057 98.022416 
L 220.941362 97.964157 
L 221.467278 97.878098 
L 221.525713 98.007729 
L 221.584148 97.961595 
L 222.402239 97.972114 
L 222.460674 98.0574 
L 222.519109 97.965926 
L 222.694414 97.903202 
L 222.811285 97.983359 
L 222.86972 97.903241 
L 222.928155 97.9736 
L 222.98659 98.047372 
L 223.045025 97.965619 
L 223.22033 97.989351 
L 223.395635 97.899144 
L 223.570941 97.879476 
L 223.804681 98.025477 
L 223.979986 97.920628 
L 224.096856 98.029874 
L 224.330597 97.931579 
L 224.447467 97.986075 
L 224.681207 97.897685 
L 224.856512 97.98998 
L 225.148688 97.912019 
L 225.265558 97.920295 
L 225.908344 97.931945 
L 226.025214 97.963957 
L 226.317389 97.918563 
L 226.609565 97.995757 
L 226.668 97.905718 
L 226.726435 98.017484 
L 227.661396 97.907443 
L 227.719831 98.016364 
L 227.778266 97.955637 
L 228.830098 97.96428 
L 228.888533 98.007909 
L 228.946968 97.890388 
L 229.005403 98.011597 
L 229.180708 98.037266 
L 229.239143 97.953863 
L 229.297578 98.029452 
L 229.589754 97.970565 
L 229.765059 98.077385 
L 229.823494 97.943279 
L 229.881929 98.004558 
L 230.407845 98.104134 
L 230.46628 98.169075 
L 230.524715 98.042205 
L 230.58315 98.106359 
L 230.992196 98.564524 
L 231.109066 99.374977 
L 231.225936 102.921027 
L 231.342806 136.451134 
L 231.518112 101.122361 
L 231.751852 98.94298 
L 231.985592 98.505986 
L 232.219333 98.343442 
L 232.336203 98.278726 
L 232.745248 98.170761 
L 232.803683 98.2294 
L 232.862118 98.12884 
L 232.920553 98.176849 
L 234.322995 98.105847 
L 234.38143 98.029599 
L 234.439866 98.10941 
L 234.498301 98.124911 
L 234.556736 98.025245 
L 234.615171 98.099438 
L 234.848911 98.141202 
L 235.024216 98.017574 
L 235.141087 98.11822 
L 235.374827 98.077145 
L 235.433262 98.127989 
L 235.491697 98.059936 
L 235.667002 98.021388 
L 235.842307 98.083339 
L 236.017613 98.069886 
L 236.426658 98.04522 
L 236.543528 98.01836 
L 236.601964 98.118628 
L 236.660399 98.067517 
L 237.127879 98.08674 
L 237.303185 97.960704 
L 237.94597 98.031973 
L 238.062841 98.015424 
L 238.238146 98.103026 
L 238.296581 98.013321 
L 238.355016 98.093824 
L 238.588756 98.240753 
L 238.705626 98.687763 
L 238.822497 101.197106 
L 238.880932 108.19585 
L 238.939367 151.254813 
L 239.114672 101.939803 
L 239.289977 99.937986 
L 239.465282 99.538408 
L 239.582153 99.617639 
L 239.699023 99.738644 
L 239.932763 100.960394 
L 240.049633 102.565278 
L 240.166503 107.035064 
L 240.283374 124.366637 
L 240.341809 143.136191 
L 240.517114 104.346742 
L 240.692419 99.857192 
L 240.926159 98.601191 
L 241.568945 98.056237 
L 242.445472 97.988982 
L 242.620777 97.961886 
L 242.796082 98.083516 
L 243.029822 97.940746 
L 243.088257 98.05997 
L 243.205128 97.885447 
L 243.263563 97.911871 
L 243.321998 98.062642 
L 243.380433 97.989421 
L 243.438868 97.931286 
L 243.497303 98.043258 
L 243.555738 98.001362 
L 244.140089 98.058895 
L 244.256959 97.941552 
L 244.315394 98.036015 
L 244.373829 97.984256 
L 244.549134 97.994398 
L 244.72444 97.969806 
L 244.782875 98.061 
L 244.84131 98.020242 
L 245.425661 98.064657 
L 245.717836 98.018749 
L 245.776271 98.124399 
L 245.834706 98.04565 
L 246.010011 98.112454 
L 246.126882 98.014609 
L 246.419057 98.054833 
L 247.178713 98.01368 
L 247.237148 98.117216 
L 247.295583 97.975724 
L 247.354018 98.012315 
L 247.646194 98.121887 
L 247.879934 98.039492 
L 248.347415 98.068201 
L 248.52272 98.038069 
L 250.918558 98.223522 
L 250.976993 98.090965 
L 251.035428 98.193449 
L 251.269169 98.25829 
L 251.327604 98.196664 
L 251.386039 98.273876 
L 251.561344 98.287686 
L 251.619779 98.155373 
L 251.795084 98.31913 
L 251.85352 98.264602 
L 251.911955 98.341975 
L 252.145695 98.398978 
L 252.43787 98.919165 
L 252.55474 99.547745 
L 252.671611 101.681676 
L 252.730046 105.890636 
L 252.788481 123.0848 
L 252.846916 118.32893 
L 253.022221 100.3338 
L 253.197526 98.900608 
L 253.606572 98.447535 
L 253.723442 98.435685 
L 253.957182 98.376645 
L 254.190923 98.386187 
L 254.541533 98.404862 
L 254.658403 98.409623 
L 254.775274 98.346972 
L 254.833709 98.426164 
L 254.892144 98.357362 
L 255.125884 98.425825 
L 255.184319 98.253995 
L 255.242754 98.279025 
L 256.294586 98.257455 
L 256.411456 98.273148 
L 256.586761 98.338705 
L 256.645196 98.262158 
L 256.703631 98.316485 
L 257.872333 98.243262 
L 257.930768 98.317806 
L 257.989203 98.264429 
L 258.047638 98.135914 
L 258.106073 98.231979 
L 258.164508 98.164364 
L 258.222943 98.224491 
L 258.515119 98.239389 
L 258.690424 98.177011 
L 259.21634 98.165446 
L 259.391645 98.194517 
L 259.859126 98.219782 
L 259.917561 98.120476 
L 259.975996 98.166556 
L 260.151301 98.186196 
L 260.501911 98.169366 
L 260.677217 98.200819 
L 260.852522 98.150365 
L 261.086262 98.19029 
L 261.261567 98.153998 
L 261.904353 98.234307 
L 261.962788 98.134068 
L 262.021223 98.20767 
L 263.073055 98.179484 
L 263.13149 98.255664 
L 263.189925 98.20865 
L 263.24836 98.153777 
L 263.36523 98.247238 
L 263.598971 98.222767 
L 264.183321 98.1638 
L 264.358627 98.240565 
L 264.417062 98.205868 
L 264.533932 98.279475 
L 264.884542 98.216681 
L 264.942978 98.311883 
L 265.001413 98.269985 
L 265.059848 98.179399 
L 265.118283 98.293172 
L 265.176718 98.235024 
L 265.235153 98.32375 
L 265.352023 98.40404 
L 265.410458 98.320774 
L 265.468893 98.37217 
L 265.585763 98.400562 
L 265.644198 98.470315 
L 265.702634 98.41379 
L 265.819504 98.500588 
L 266.228549 98.901186 
L 266.403855 99.703828 
L 266.520725 100.993003 
L 266.637595 105.88348 
L 266.69603 114.002856 
L 266.754465 149.825925 
L 266.92977 102.140455 
L 267.163511 98.862275 
L 267.397251 98.33895 
L 267.689426 98.287702 
L 267.747861 98.149975 
L 267.806296 98.185835 
L 268.215342 98.151072 
L 268.273777 98.262299 
L 268.332212 98.13923 
L 277.331215 98.269129 
L 277.564955 98.397235 
L 277.62339 98.295902 
L 277.915565 99.20344 
L 278.032436 101.460916 
L 278.090871 106.175375 
L 278.149306 128.388574 
L 278.207741 115.397501 
L 278.383046 100.461207 
L 278.616786 98.854292 
L 278.792092 98.5416 
L 279.142702 98.367205 
L 279.318007 98.381828 
L 279.551748 98.22505 
L 279.610183 98.367308 
L 279.668618 98.275881 
L 281.07106 98.237795 
L 281.129495 98.353531 
L 281.18793 98.252666 
L 281.3048 98.234258 
L 282.006021 98.25048 
L 282.239761 98.203426 
L 282.473502 98.292862 
L 282.648807 98.232309 
L 282.707242 98.318479 
L 282.765677 98.244797 
L 283.057852 98.350817 
L 283.233158 98.213064 
L 283.408463 98.293579 
L 283.642203 98.398094 
L 283.700638 98.280037 
L 283.759073 98.333627 
L 283.817508 98.320475 
L 283.875944 98.442453 
L 283.934379 98.351275 
L 284.284989 98.359282 
L 284.343424 98.266034 
L 284.401859 98.364398 
L 284.577165 98.343653 
L 284.694035 98.356132 
L 284.75247 98.305364 
L 284.810905 98.384516 
L 285.628996 98.379891 
L 285.687431 98.29307 
L 285.745866 98.334319 
L 286.563957 98.319645 
L 286.739262 98.335192 
L 286.797698 98.272164 
L 286.856133 98.376662 
L 286.914568 98.299856 
L 286.973003 98.353311 
L 287.089873 98.216583 
L 287.323613 98.285287 
L 287.557354 98.225055 
L 287.615789 98.396951 
L 287.674224 98.253794 
L 287.966399 98.192267 
L 288.141704 98.259259 
L 288.375445 98.212555 
L 288.43388 98.148854 
L 288.492315 98.241159 
L 288.609185 98.252809 
L 288.726055 98.188096 
L 288.90136 98.250068 
L 289.135101 98.157386 
L 289.368841 98.188805 
L 289.719452 98.245721 
L 289.894757 98.153213 
L 290.011627 98.215309 
L 290.128497 98.13644 
L 290.186932 98.233195 
L 290.245367 98.107368 
L 290.303802 98.174576 
L 290.479108 98.168025 
L 290.829718 98.197888 
L 290.888153 98.088355 
L 290.946588 98.155857 
L 291.355634 98.18557 
L 291.414069 98.14837 
L 291.472504 98.247627 
L 291.530939 98.166939 
L 292.407465 98.148289 
L 292.524335 98.175145 
L 293.400862 98.13324 
L 293.576167 98.190344 
L 294.043648 98.119097 
L 294.218953 98.211368 
L 294.452693 98.142334 
L 294.744869 98.147993 
L 294.803304 98.229 
L 294.861739 98.144045 
L 295.037044 98.166585 
L 295.095479 98.081793 
L 295.153914 98.145873 
L 295.621395 98.179312 
L 295.855135 98.080693 
L 295.91357 98.208949 
L 295.972005 98.139912 
L 296.205746 98.09904 
L 296.439486 98.233751 
L 296.556356 98.098879 
L 296.731661 98.151377 
L 296.965402 98.203764 
L 297.023837 98.063895 
L 297.082272 98.153738 
L 297.199142 98.121396 
L 297.666623 98.154811 
L 297.783493 98.163189 
L 297.900363 98.097115 
L 298.075668 98.178652 
L 298.192538 98.185625 
L 299.185935 98.159609 
L 299.24437 98.254506 
L 299.302805 98.148316 
L 300.354636 98.217191 
L 300.529941 98.219854 
L 300.705247 98.207333 
L 300.763682 98.330979 
L 300.822117 98.192183 
L 300.880552 98.226366 
L 301.114292 98.282121 
L 301.289598 98.210674 
L 301.348033 98.288779 
L 301.406468 98.217781 
L 301.698643 98.27473 
L 301.932383 98.241806 
L 301.990818 98.349012 
L 302.049254 98.197921 
L 302.107689 98.386203 
L 302.166124 98.229381 
L 302.458299 98.248406 
L 302.692039 98.32652 
L 302.867345 98.257071 
L 302.92578 98.31809 
L 302.984215 98.259789 
L 303.451695 98.285999 
L 303.627001 98.272985 
L 304.036046 98.250701 
L 304.094481 98.311506 
L 304.152916 98.244208 
L 304.269787 98.223246 
L 304.328222 98.296255 
L 304.386657 98.241381 
L 304.503527 98.249224 
L 304.795702 98.252199 
L 304.854137 98.296381 
L 304.912572 98.191992 
L 304.971008 98.28187 
L 305.730664 98.225226 
L 305.964404 98.230244 
L 306.022839 98.130901 
L 306.081274 98.223299 
L 306.60719 98.157539 
L 306.899365 98.150314 
L 307.191541 98.126536 
L 307.249976 98.21231 
L 307.308411 98.13162 
L 307.659021 98.184215 
L 307.775891 98.15114 
L 307.892762 98.261265 
L 307.951197 98.140671 
L 309.236768 98.180764 
L 309.295204 98.267523 
L 309.353639 98.213467 
L 309.704249 98.196517 
L 309.762684 98.264568 
L 309.821119 98.116275 
L 309.879554 98.20937 
L 310.05486 98.301773 
L 310.230165 98.160753 
L 312.333828 98.225323 
L 312.567568 98.16546 
L 312.626003 98.301244 
L 312.684438 98.230369 
L 313.035049 98.15763 
L 313.210354 98.256622 
L 313.444094 98.240509 
L 313.502529 98.197136 
L 313.619399 98.342404 
L 313.794705 98.209993 
L 313.97001 98.292817 
L 314.145315 98.229795 
L 314.437491 98.239138 
L 314.495926 98.320764 
L 314.554361 98.26089 
L 314.729666 98.234399 
L 314.904971 98.257312 
L 315.372452 98.266733 
L 315.430887 98.215828 
L 315.547757 98.309618 
L 315.723062 98.197561 
L 315.781497 98.321885 
L 315.839933 98.253463 
L 316.190543 98.291481 
L 316.365848 98.249439 
L 316.599589 98.272189 
L 316.716459 98.226234 
L 316.833329 98.294582 
L 317.008634 98.261584 
L 317.242374 98.268458 
L 317.41768 98.279919 
L 317.592985 98.216847 
L 317.826725 98.212549 
L 317.88516 98.291947 
L 317.943595 98.219328 
L 318.177336 98.302164 
L 318.294206 98.174352 
L 318.411076 98.254228 
L 318.527946 98.191801 
L 318.586381 98.315611 
L 318.644816 98.233104 
L 318.936992 98.245649 
L 318.995427 98.164454 
L 319.053862 98.269363 
L 319.813518 98.207983 
L 319.988823 98.293423 
L 320.222564 98.193483 
L 320.280999 98.282018 
L 320.339434 98.234908 
L 320.397869 98.188415 
L 320.456304 98.280168 
L 320.748479 98.193932 
L 320.923785 98.207617 
L 321.040655 98.268448 
L 321.09909 98.158991 
L 321.157525 98.251194 
L 321.274395 98.145132 
L 321.33283 98.210608 
L 321.391265 98.172811 
L 321.4497 98.282877 
L 321.508135 98.160503 
L 321.625005 98.235192 
L 321.741876 98.134779 
L 321.917181 98.24491 
L 321.975616 98.192282 
L 322.034051 98.276065 
L 322.735272 98.156808 
L 322.910577 98.293496 
L 323.144318 98.174941 
L 324.605195 98.162164 
L 324.7805 98.12417 
L 324.838935 98.245622 
L 324.89737 98.207214 
L 325.24798 98.20751 
L 325.306416 98.282812 
L 325.364851 98.18336 
L 325.657026 98.297556 
L 325.949201 98.181286 
L 327.293208 98.221211 
L 327.351643 98.097066 
L 327.526949 98.250916 
L 327.643819 98.224662 
L 328.81252 98.118317 
L 328.987826 98.222586 
L 329.630611 98.113779 
L 329.689047 98.249773 
L 329.747482 98.104245 
L 329.805917 98.137271 
L 330.273397 98.288963 
L 330.448703 98.199579 
L 330.624008 98.230825 
L 331.266794 98.172344 
L 331.325229 98.149025 
L 331.442099 98.238302 
L 331.792709 98.188517 
L 331.968015 98.168174 
L 332.084885 98.133008 
L 332.201755 98.206789 
L 332.49393 98.163889 
L 332.610801 98.163944 
L 332.727671 98.128421 
L 332.844541 98.162318 
L 333.312022 98.169041 
L 333.487327 98.123466 
L 333.662632 98.218103 
L 333.837937 98.109912 
L 334.013243 98.12958 
L 334.188548 98.159819 
L 334.422288 98.072334 
L 335.006639 98.268454 
L 335.065074 98.319734 
L 335.240379 99.54878 
L 335.298814 101.856301 
L 335.357249 110.784511 
L 335.415684 142.120055 
L 335.59099 102.389527 
L 335.766295 99.856155 
L 336.05847 98.961729 
L 336.350646 98.695176 
L 336.818126 98.518602 
L 336.993432 98.543243 
L 337.110302 98.406525 
L 337.168737 98.448119 
L 337.344042 98.438546 
L 337.519347 98.431356 
L 337.636217 98.479797 
L 337.811523 98.415559 
L 337.928393 98.430633 
L 338.045263 98.399837 
L 338.337438 98.402029 
L 338.512744 98.334282 
L 338.688049 98.400063 
L 338.863354 98.354656 
L 339.213965 98.479648 
L 339.38927 98.39397 
L 339.447705 98.489066 
L 339.50614 98.399501 
L 339.915186 98.479293 
L 340.090491 98.32948 
L 340.265796 98.38705 
L 340.674842 98.44261 
L 340.850147 98.323691 
L 341.083887 98.423689 
L 341.434498 98.459249 
L 341.492933 98.467168 
L 341.551368 98.360311 
L 341.609803 98.411431 
L 341.843543 98.434414 
L 342.018849 98.393319 
L 342.486329 98.390252 
L 343.18755 98.406878 
L 343.245985 98.365471 
L 343.30442 98.550746 
L 343.362855 98.459917 
L 343.42129 98.50139 
L 343.479726 98.344799 
L 343.538161 98.405948 
L 343.713466 98.383108 
L 343.771901 98.486783 
L 343.830336 98.371127 
L 344.356252 98.426234 
L 344.414687 98.333163 
L 344.473122 98.398505 
L 344.706862 98.489398 
L 344.882167 98.471371 
L 345.524953 98.435823 
L 345.641823 98.486991 
L 345.700259 98.414015 
L 345.758694 98.482568 
L 346.109304 98.414621 
L 346.167739 98.503454 
L 346.226174 98.426616 
L 346.51835 98.442365 
L 346.693655 98.427856 
L 346.75209 98.537241 
L 346.810525 98.440038 
L 346.86896 98.383677 
L 346.927395 98.461575 
L 347.044265 98.473344 
L 347.219571 98.3902 
L 347.394876 98.439269 
L 347.687051 98.423362 
L 347.745486 98.350764 
L 347.803921 98.429226 
L 348.680448 98.300365 
L 348.738883 98.4532 
L 348.797318 98.314597 
L 349.498539 98.348145 
L 350.66724 98.326697 
L 350.725675 98.204319 
L 350.784111 98.379388 
L 350.842546 98.270995 
L 350.900981 98.375682 
L 350.959416 98.304 
L 351.017851 98.284644 
L 351.134721 98.448549 
L 351.193156 98.317581 
L 351.251591 98.345617 
L 351.426896 98.45377 
L 351.602202 98.358159 
L 351.660637 98.451587 
L 351.719072 98.397191 
L 351.894377 98.3779 
L 352.011247 98.491514 
L 352.186552 98.349728 
L 352.303423 98.470604 
L 352.361858 98.418815 
L 352.595598 98.437593 
L 353.296819 98.472973 
L 353.355254 98.40265 
L 353.413689 98.48828 
L 353.588994 98.526763 
L 353.705865 98.468602 
L 353.822735 98.587866 
L 353.88117 98.467834 
L 353.939605 98.505183 
L 353.99804 98.60689 
L 354.056475 98.520523 
L 354.23178 98.574193 
L 354.290215 98.455159 
L 354.34865 98.490757 
L 354.699261 98.589416 
L 354.816131 98.475621 
L 354.874566 98.553563 
L 355.400482 98.572149 
L 355.458917 98.505023 
L 355.575787 98.641124 
L 355.692657 98.495741 
L 355.751092 98.591284 
L 355.809527 98.45619 
L 355.867963 98.537604 
L 356.160138 98.536682 
L 356.277008 98.593287 
L 356.335443 98.433088 
L 356.393878 98.499752 
L 356.569184 98.534393 
L 356.802924 98.43505 
L 356.861359 98.642474 
L 356.919794 98.471911 
L 357.095099 98.5412 
L 357.153534 98.432559 
L 357.211969 98.490463 
L 357.32884 98.544993 
L 357.504145 98.496276 
L 357.56258 98.614058 
L 357.621015 98.496374 
L 357.79632 98.525733 
L 357.91319 98.553343 
L 357.971625 98.473402 
L 358.030061 98.536677 
L 358.146931 98.508779 
L 358.322236 98.396499 
L 358.380671 98.601252 
L 358.439106 98.566127 
L 359.023457 98.513714 
L 359.198762 98.569278 
L 359.257197 98.47444 
L 359.315632 98.524434 
L 359.432502 98.564764 
L 359.490938 98.629728 
L 359.549373 98.510697 
L 359.607808 98.632262 
L 359.783113 98.546055 
L 360.192159 98.683382 
L 360.425899 98.692921 
L 360.601204 98.795663 
L 361.01025 98.813447 
L 361.36086 99.080656 
L 361.536165 98.997887 
L 362.295821 99.765993 
L 362.587997 100.472485 
L 362.763302 101.580803 
L 362.938607 104.715826 
L 363.055477 113.153969 
L 363.113913 135.154092 
L 363.172348 115.692776 
L 363.347653 97.283991 
L 363.522958 96.752991 
L 364.224179 97.750703 
L 364.399484 97.66137 
L 364.57479 97.936691 
L 364.633225 97.777966 
L 364.69166 97.863135 
L 364.983835 97.916806 
L 365.100705 97.980045 
L 365.15914 97.931338 
L 365.217575 98.116818 
L 365.27601 98.064915 
L 365.626621 98.195528 
L 365.685056 98.102387 
L 365.743491 98.148476 
L 365.977231 98.138714 
L 366.210972 98.269176 
L 366.386277 98.238586 
L 366.444712 98.300322 
L 366.503147 98.095061 
L 366.561582 98.278858 
L 366.736888 98.224952 
L 367.087498 98.331549 
L 367.262803 98.209713 
L 367.321238 98.436835 
L 367.379673 98.311618 
L 367.613414 98.251909 
L 367.905589 98.405229 
L 368.080894 98.30876 
L 368.139329 98.458809 
L 368.197765 98.367866 
L 368.2562 98.256384 
L 368.314635 98.367949 
L 368.665245 98.408474 
L 368.84055 98.348444 
L 369.074291 98.354805 
L 369.191161 98.274395 
L 369.249596 98.440892 
L 369.308031 98.375709 
L 369.717077 98.343688 
L 369.775512 98.442954 
L 369.833947 98.313543 
L 369.892382 98.375829 
L 370.009252 98.37769 
L 370.067687 98.254198 
L 370.126122 98.308992 
L 370.242992 98.334536 
L 370.301427 98.417016 
L 370.359862 98.317116 
L 370.418298 98.307832 
L 370.476733 98.420426 
L 370.535168 98.319355 
L 370.593603 98.271821 
L 370.710473 98.429969 
L 370.944213 98.323985 
L 371.061083 98.449341 
L 371.119519 98.286578 
L 371.177954 98.423575 
L 371.353259 98.348874 
L 371.820739 98.436529 
L 371.879175 98.557097 
L 371.93761 98.421764 
L 371.996045 98.453289 
L 372.463525 98.722674 
L 372.580396 99.267105 
L 372.638831 99.607866 
L 372.755701 103.334444 
L 372.814136 116.478038 
L 372.872571 116.375469 
L 373.047876 99.495528 
L 373.281617 98.665036 
L 373.573792 98.515599 
L 373.749097 98.452602 
L 373.924402 98.329947 
L 374.275013 98.440347 
L 374.391883 98.368238 
L 374.625623 98.395444 
L 374.742494 98.434701 
L 374.800929 98.47433 
L 374.917799 98.316994 
L 374.976234 98.470239 
L 375.034669 98.379936 
L 375.093104 98.324654 
L 375.151539 98.408967 
L 375.326844 98.421911 
L 375.50215 98.413979 
L 375.677455 98.464337 
L 375.85276 98.439319 
L 375.911195 98.54879 
L 375.96963 98.377759 
L 376.028065 98.451041 
L 376.203371 98.481192 
L 376.378676 98.449769 
L 376.846156 98.618206 
L 376.904591 98.44973 
L 376.963027 98.480027 
L 377.021462 98.562112 
L 377.079897 98.499637 
L 377.138332 98.387197 
L 377.196767 98.431278 
L 377.255202 98.52371 
L 377.313637 98.482982 
L 377.430507 98.39562 
L 377.488942 98.477093 
L 377.897988 98.447076 
L 378.073293 98.356844 
L 378.248598 98.552885 
L 378.482339 98.385426 
L 378.599209 98.461857 
L 378.657644 98.302742 
L 378.716079 98.377016 
L 378.832949 98.519067 
L 378.949819 98.395035 
L 379.008254 98.450236 
L 379.066689 98.350196 
L 379.125125 98.423219 
L 379.475735 98.470305 
L 379.53417 98.298144 
L 379.592605 98.426772 
L 380.060086 98.263624 
L 380.235391 98.429778 
L 380.293826 98.320755 
L 380.352261 98.386905 
L 380.936612 98.241625 
L 381.111917 98.433293 
L 381.287223 98.317507 
L 381.637833 98.25004 
L 381.754703 98.37928 
L 381.813138 98.233708 
L 381.871573 98.309586 
L 381.930008 98.400316 
L 381.988443 98.323439 
L 382.280619 98.327361 
L 382.339054 98.436482 
L 382.397489 98.360149 
L 382.455924 98.395806 
L 382.514359 98.299183 
L 382.572794 98.39392 
L 383.566191 98.42045 
L 383.624626 98.440694 
L 383.683061 98.285731 
L 383.741496 98.37009 
L 383.916801 98.30405 
L 384.033671 98.454166 
L 384.150541 98.202698 
L 384.208977 98.301326 
L 384.267412 98.290343 
L 384.442717 98.423068 
L 384.501152 98.339605 
L 384.559587 98.3991 
L 384.618022 98.42483 
L 384.734892 98.280391 
L 384.793327 98.446611 
L 384.851762 98.401566 
L 384.910197 98.329121 
L 385.027068 98.484904 
L 385.260808 98.462848 
L 386.312639 98.380562 
L 386.371075 98.420812 
L 386.487945 98.244566 
L 386.54638 98.451457 
L 386.604815 98.306229 
L 386.955425 98.198446 
L 387.189166 98.271191 
L 387.247601 98.191949 
L 387.306036 98.266252 
L 387.364471 98.313598 
L 387.481341 98.155723 
L 387.656646 98.267356 
L 388.007257 98.233154 
L 388.065692 98.079237 
L 388.124127 98.139887 
L 388.240997 98.157349 
L 388.299432 97.974998 
L 388.357867 98.078933 
L 388.883783 98.051366 
L 388.942218 98.109568 
L 389.000653 98.036833 
L 389.701874 97.806891 
L 389.877179 97.875345 
L 390.052485 97.679899 
L 390.11092 97.750514 
L 390.22779 97.609417 
L 390.286225 97.678706 
L 390.46153 97.496303 
L 390.636835 97.464637 
L 390.812141 97.265848 
L 391.279621 96.726446 
L 391.338056 97.337568 
L 391.396491 99.252706 
L 391.454926 105.527931 
L 391.571797 128.070273 
L 391.747102 105.057153 
L 391.980842 101.357477 
L 392.273018 99.995209 
L 392.798933 99.275462 
L 392.974239 99.245403 
L 393.324849 99.055097 
L 393.500154 99.051986 
L 393.67546 98.89728 
L 393.733895 98.831812 
L 393.850765 99.047197 
L 393.9092 98.841209 
L 393.967635 98.942748 
L 394.084505 99.001626 
L 394.14294 98.804553 
L 394.201375 98.849149 
L 394.785726 98.791944 
L 394.902596 98.882098 
L 394.961031 98.678199 
L 395.019466 98.728912 
L 395.311642 98.83243 
L 395.370077 98.606032 
L 395.428512 98.758815 
L 395.720687 98.726268 
L 395.954428 98.825291 
L 396.012863 98.605163 
L 396.071298 98.685101 
L 396.129733 98.80623 
L 396.188168 98.747728 
L 396.246603 98.620119 
L 396.305038 98.803027 
L 396.363473 98.754312 
L 396.421908 98.562459 
L 396.480343 98.630118 
L 396.538778 98.780299 
L 396.597214 98.667754 
L 396.714084 98.589085 
L 396.889389 98.746582 
L 397.006259 98.578585 
L 397.064694 98.715725 
L 397.123129 98.681588 
L 397.239999 98.649286 
L 397.532175 98.489981 
L 397.70748 98.698274 
L 397.999655 98.567043 
L 398.116526 98.689422 
L 398.174961 98.652782 
L 398.350266 98.639171 
L 398.525571 98.645249 
L 398.584006 98.489108 
L 398.642441 98.639407 
L 398.876182 98.681627 
L 398.934617 98.71132 
L 398.993052 98.522355 
L 399.051487 98.608558 
L 399.343662 98.619675 
L 399.518968 98.693675 
L 399.577403 98.466186 
L 399.635838 98.62148 
L 399.869578 98.500207 
L 399.928013 98.700599 
L 399.986448 98.665518 
L 400.044883 98.523682 
L 400.103318 98.60577 
L 400.337059 98.612214 
L 400.570799 98.676213 
L 400.687669 98.507608 
L 400.92141 98.605532 
L 400.979845 98.533679 
L 401.03828 98.624157 
L 401.096715 98.567747 
L 401.15515 98.712889 
L 401.213585 98.486831 
L 401.27202 98.613625 
L 401.62263 98.616199 
L 401.681066 98.411689 
L 401.797936 98.648946 
L 401.856371 98.566226 
L 401.914806 98.617688 
L 402.090111 98.584581 
L 402.732897 98.585059 
L 402.791332 98.663857 
L 402.849767 98.617594 
L 402.908202 98.561174 
L 403.083507 98.731471 
L 403.258813 98.555493 
L 403.317248 98.542922 
L 403.375683 98.71996 
L 403.434118 98.692821 
L 403.609423 98.618609 
L 403.667858 98.583202 
L 403.726293 98.697272 
L 403.784728 98.606852 
L 403.843164 98.501896 
L 403.901599 98.55459 
L 404.018469 98.626016 
L 404.135339 98.62187 
L 404.310644 98.483678 
L 404.369079 98.644943 
L 404.427514 98.546685 
L 404.485949 98.482763 
L 404.544384 98.671921 
L 404.60282 98.536839 
L 404.71969 98.565318 
L 404.778125 98.642121 
L 404.83656 98.549282 
L 405.128735 98.511061 
L 405.304041 98.593158 
L 405.362476 98.510663 
L 405.420911 98.578783 
L 405.479346 98.648415 
L 405.537781 98.504248 
L 405.596216 98.557873 
L 405.713086 98.535529 
L 405.888391 98.454776 
L 405.946826 98.571665 
L 406.005262 98.535425 
L 406.355872 98.420972 
L 406.414307 98.670943 
L 406.472742 98.569691 
L 406.589612 98.557089 
L 406.648047 98.635309 
L 406.823353 98.479613 
L 406.940223 98.535231 
L 406.998658 98.586145 
L 407.057093 98.475545 
L 407.115528 98.563209 
L 407.173963 98.493512 
L 407.232398 98.552038 
L 407.290833 98.608573 
L 407.349268 98.513506 
L 407.699879 98.618058 
L 407.933619 98.576074 
L 408.4011 98.965616 
L 408.459535 98.861569 
L 408.51797 98.925084 
L 408.86858 99.378737 
L 409.043886 100.006463 
L 409.219191 101.242096 
L 409.336061 103.491825 
L 409.452931 110.979435 
L 409.569801 138.108984 
L 409.745107 102.369663 
L 409.978847 98.817766 
L 410.212587 98.349591 
L 410.680068 98.293309 
L 410.913808 98.332257 
L 411.089113 98.248473 
L 411.147549 98.261754 
L 411.205984 98.135197 
L 411.264419 98.294107 
L 411.322854 98.237095 
L 411.498159 98.267841 
L 411.556594 98.371031 
L 411.615029 98.292341 
L 411.731899 98.36835 
L 411.790334 98.3998 
L 411.96564 98.31814 
L 412.140945 98.259597 
L 412.19938 98.416872 
L 412.257815 98.360209 
L 412.374685 98.249667 
L 412.491555 98.452217 
L 412.549991 98.305922 
L 412.608426 98.356767 
L 413.426517 98.310399 
L 413.718692 98.347338 
L 413.777127 98.175136 
L 413.835562 98.282536 
L 414.010868 98.397682 
L 414.069303 98.300446 
L 414.127738 98.34297 
L 414.244608 98.380161 
L 414.419913 98.377628 
L 414.536783 98.476211 
L 414.770524 98.49105 
L 414.887394 98.624084 
L 414.945829 98.546854 
L 415.004264 98.548883 
L 415.296439 99.563019 
L 415.413309 102.737901 
L 415.471745 114.261591 
L 415.53018 110.954572 
L 415.705485 98.392735 
L 415.88079 97.988908 
L 415.99766 97.968269 
L 416.172965 97.967035 
L 416.231401 97.903937 
L 416.289836 97.989771 
L 416.348271 98.015276 
L 416.406706 97.868522 
L 416.465141 98.045188 
L 416.523576 97.943943 
L 416.757316 98.002422 
L 417.633842 98.009808 
L 417.692278 98.189564 
L 417.750713 98.108169 
L 417.926018 98.061462 
L 417.984453 98.144401 
L 417.984453 98.144401 
" clip-path="url(#p8302af2a6d)" style="fill: none; stroke: #d95319; stroke-linecap: square"/>
   </g>
   <g id="patch_8">
    <path d="M 43.86812 148.628648 
L 43.86812 88.924998 
" style="fill: none; stroke: #000000; stroke-width: 0.8; stroke-linejoin: miter; stroke-linecap: square"/>
   </g>
   <g id="patch_9">
    <path d="M 417.966787 148.628648 
L 417.966787 88.924998 
" style="fill: none; stroke: #000000; stroke-width: 0.8; stroke-linejoin: miter; stroke-linecap: square"/>
   </g>
   <g id="patch_10">
    <path d="M 43.86812 148.628648 
L 417.966787 148.628648 
" style="fill: none; stroke: #000000; stroke-width: 0.8; stroke-linejoin: miter; stroke-linecap: square"/>
   </g>
   <g id="patch_11">
    <path d="M 43.86812 88.924998 
L 417.966787 88.924998 
" style="fill: none; stroke: #000000; stroke-width: 0.8; stroke-linejoin: miter; stroke-linecap: square"/>
   </g>
  </g>
 </g>
 <defs>
  <clipPath id="pb227249960">
   <rect x="43.86812" y="6.691561" width="374.098667" height="59.70365"/>
  </clipPath>
  <clipPath id="p8302af2a6d">
   <rect x="43.86812" y="88.924998" width="374.098667" height="59.70365"/>
  </clipPath>
 </defs>
</svg>
